<?xml version="1.0" encoding="utf-8"?>
<!-- Generator: Adobe Illustrator 25.2.0, SVG Export Plug-In . SVG Version: 6.00 Build 0)  -->
<svg version="1.1" id="Layer_1" xmlns:svgjs="http://svgjs.com/svgjs"
	 xmlns="http://www.w3.org/2000/svg" xmlns:xlink="http://www.w3.org/1999/xlink" x="0px" y="0px" viewBox="0 0 512 512"
	 style="enable-background:new 0 0 512 512;" xml:space="preserve">
<g transform="matrix(0.7,0,0,0.7,76.68552875518799,81.6856472015381)">
	<g id="XMLID_1_">
		<g>
			<path d="M345.8,326.7c8.2,8.2,8.2,21.5,0,29.7c-8.2,8.2-21.5,8.2-29.7,0c-33.5-33.5-87.8-33.5-121.3,0c-8.2,8.2-21.5,8.2-29.7,0
				c-8.2-8.2-8.2-21.5,0-29.7C215,276.8,295.8,276.8,345.8,326.7z"/>
			<path d="M213.4,171c11.6,0,21,9.4,21,21c0,11.6-9.4,21-21,21c-12.2,0-11-0.1-11,0.3c0,11.6-9.4,21-21,21c-11.6,0-21-9.4-21-21
				c0-0.5,3.6-0.3-32.4-0.3c-11.6,0-21-9.4-21-21c0-11.6,9.4-21,21-21H213.4z"/>
			<path d="M384.3,171c11.6,0,21,9.4,21,21c0,11.6-9.4,21-21,21H352c0,12.5-9.9,21.4-21,21.4c-11.2,0-21-8.8-21-21.4h-11
				c-11.6,0-21-9.4-21-21c0-11.6,9.4-21,21-21H384.3z"/>
			<path d="M305.5,65.3c11,3.7,17,15.6,13.3,26.6l-10.7,32c-3.7,11-15.6,17-26.6,13.3c-11-3.7-17-15.6-13.3-26.6l10.7-32.1
				C282.6,67.6,294.5,61.6,305.5,65.3z"/>
			<path d="M244.1,110.6c3.7,11-2.3,22.9-13.3,26.6c-11,3.7-22.9-2.3-26.6-13.3l-10.7-32.1c-3.7-11,2.3-22.9,13.3-26.6
				c11-3.7,22.9,2.3,26.6,13.3L244.1,110.6z"/>
			<path d="M256.2-116.7c202,0,365.7,163.7,365.7,365.7S458.1,614.7,256.2,614.7S-109.6,451-109.6,249S54.2-116.7,256.2-116.7z
				 M472.4,404.8c24-115.8,24.1-224.2,0-340.6C467.6,41,449.6,23,426.5,18.2c-116.1-24-224.4-24-340.6,0C62.7,23,44.7,41,39.9,64.1
				c-24,116.1-24,224.4,0,340.6c4.8,23.1,22.8,41.2,45.9,46c26.7,5.5,54,9.9,81.2,12.9c41.6,64.6,136.5,64.8,178.3,0
				c27.1-3,54.4-7.4,81.2-12.9C449.6,445.9,467.6,427.9,472.4,404.8z"/>
		</g>
		<g>
		</g>
	</g>
</g>
</svg>
