<svg id="Layer_1" enable-background="new 0 0 512.199 512.199" height="512" viewBox="0 0 512.199 512.199" width="512" xmlns="http://www.w3.org/2000/svg"><path d="m458.672 395h-21.667v-21.667c0-11.598-9.402-21-21-21s-21 9.402-21 21v21.667h-21.667c-11.598 0-21 9.402-21 21s9.402 21 21 21h21.667v21.667c0 11.598 9.402 21 21 21s21-9.402 21-21v-21.667h21.667c11.598 0 21-9.402 21-21s-9.402-21-21-21z"/><path d="m298.672 416c0-64.801 52.532-117.333 117.333-117.333 32.876 0 62.587 13.527 83.89 35.311 52.693-164.94-70.516-333.978-243.89-333.978-141.385 0-256 114.615-256 256 0 173.186 168.827 296.65 333.978 243.89-21.784-21.303-35.311-51.015-35.311-83.89zm-61.774-68.757c-13.781 10.719-33.893.854-33.893-16.576v-149.334c0-17.442 20.12-27.291 33.893-16.576l96 74.667c10.81 8.407 10.795 24.757 0 33.152z"/></svg>