<?xml version="1.0" encoding="utf-8"?>
<!-- Generator: Adobe Illustrator 25.2.0, SVG Export Plug-In . SVG Version: 6.00 Build 0)  -->
<svg version="1.1" id="Layer_1" xmlns:svgjs="http://svgjs.com/svgjs"
	 xmlns="http://www.w3.org/2000/svg" xmlns:xlink="http://www.w3.org/1999/xlink" x="0px" y="0px" viewBox="0 0 512 512"
	 style="enable-background:new 0 0 512 512;" xml:space="preserve">
<g transform="matrix(0.7,0,0,0.7,76.68531475067141,81.68547210693362)">
	<g id="XMLID_1_">
		<g>
			<path d="M346.6,284c8.2,8.2,8.2,21.5,0,29.7c-49.9,49.8-131,49.8-180.8,0c-8.2-8.2-8.2-21.5,0-29.7c8.2-8.2,21.5-8.2,29.7,0
				c33.5,33.4,87.9,33.4,121.3,0C325,275.8,338.4,275.8,346.6,284z"/>
			<path d="M357.6,149.7c32.9,0,49.4,40,26.2,63.2c-1.5,1.5,0,0.2-29.6,22.6c-7.5,5.7-17.9,5.7-25.4,0
				c-29.5-22.3-28.1-21.1-29.6-22.6c-23.2-23.3-6.6-63.2,26.2-63.2c5.7,0,11.2,1.3,16,3.6C346.5,151,351.9,149.7,357.6,149.7z"/>
			<path d="M186.7,149.7c32.8,0,49.4,39.9,26.2,63.2c-1.5,1.5,0,0.3-29.6,22.6c-7.5,5.7-17.9,5.7-25.4,0
				c-29.5-22.4-28.1-21.1-29.6-22.6c-23.2-23.3-6.6-63.2,26.2-63.2c5.7,0,11.2,1.3,16,3.6C175.5,151,181,149.7,186.7,149.7z"/>
			<path d="M191.1,80.1c2.8,11.3-4,22.7-15.3,25.5l-42.7,10.7c-11.3,2.8-22.7-4-25.5-15.3c-2.8-11.3,4-22.7,15.3-25.5l42.7-10.7
				C176.9,62,188.3,68.9,191.1,80.1z"/>
			<path d="M389.4,75.5c11.3,2.8,18.1,14.2,15.3,25.5c-2.8,11.2-14.2,18.1-25.5,15.3l-42.7-10.7c-11.3-2.8-18.1-14.2-15.3-25.5
				c2.8-11.3,14.2-18.1,25.5-15.3L389.4,75.5z"/>
			<path d="M256.2-116.7c202,0,365.7,163.7,365.7,365.7S458.1,614.7,256.2,614.7S-109.6,451-109.6,249S54.2-116.7,256.2-116.7z
				 M472.4,404.8c24-115.8,24.1-224.2,0-340.6C467.6,41,449.6,23,426.5,18.2c-116.1-24-224.4-24-340.6,0C62.7,23,44.7,41,39.9,64.1
				c-24,116.1-24,224.4,0,340.6c4.8,23.1,22.8,41.2,45.9,46c26.7,5.5,54,9.9,81.2,12.9c41.7,64.7,136.6,64.7,178.3,0
				c27.1-3.1,54.4-7.4,81.2-12.9C449.6,445.9,467.6,427.9,472.4,404.8z"/>
		</g>
		<g>
		</g>
	</g>
</g>
</svg>
