<?xml version="1.0" encoding="utf-8"?>
<!-- Generator: Adobe Illustrator 25.1.0, SVG Export Plug-In . SVG Version: 6.00 Build 0)  -->
<svg version="1.1" id="Layer_1" xmlns="http://www.w3.org/2000/svg" xmlns:xlink="http://www.w3.org/1999/xlink" x="0px" y="0px"
	 viewBox="0 0 24 24" style="enable-background:new 0 0 24 24;" xml:space="preserve">
<style type="text/css">
	.st0{fill:#FFFFFF;}
</style>
<g id="XMLID_1_">
	<g>
		<circle class="st0" cx="12" cy="18" r="1"/>
		<path class="st0" d="M13,6v8c0,0.6-0.4,1-1,1s-1-0.4-1-1V6c0-0.6,0.4-1,1-1S13,5.4,13,6z"/>
		<path d="M12,17c-0.6,0-1,0.5-1,1s0.4,1,1,1s1-0.5,1-1S12.6,17,12,17z M12,15c0.6,0,1-0.4,1-1V6c0-0.6-0.4-1-1-1s-1,0.4-1,1v8
			C11,14.6,11.4,15,12,15z M22,6.9V12c0,7.6-9.2,11.7-9.6,11.9c-0.3,0.1-0.6,0.1-0.8,0C11.2,23.7,2,19.6,2,12V6.9
			c0-2.2,1.4-4.1,3.4-4.7l6.3-2.1c0.2-0.1,0.4-0.1,0.6,0l6.3,2.1C20.6,2.8,22,4.7,22,6.9z"/>
	</g>
	<g>
	</g>
</g>
</svg>
