<?xml version="1.0" encoding="utf-8"?>
<!-- Generator: Adobe Illustrator 25.2.1, SVG Export Plug-In . SVG Version: 6.00 Build 0)  -->
<svg version="1.1" id="Layer_1" xmlns:svgjs="http://svgjs.com/svgjs"
	 xmlns="http://www.w3.org/2000/svg" xmlns:xlink="http://www.w3.org/1999/xlink" x="0px" y="0px" viewBox="0 0 512 512"
	 style="enable-background:new 0 0 512 512;" xml:space="preserve">
<g transform="matrix(0.7,0,0,0.7,58.01986198425294,58.02003936767579)">
	<g>
		<g id="XMLID_1_">
			<g>
				<path d="M452.3,198.3l4.2,38.4c-6.6-18.4-71.1-44.2-173.7-44.2c-102.9,0-167.3,25.9-173.8,44.3l3.8-38.5
					c6.2-38.8,25.4-74.3,54.5-100.6c70.5-63.7,179-58.4,242.7,11.9C432.5,134.4,447.2,165.2,452.3,198.3z"/>
				<path d="M109.6,243.4c0.8,0.9,1.6,2,2.1,3.2c16.2,19.5,80.5,39.8,171,39.8s154.9-20.4,171-39.8c0.5-1.2,1.2-2.3,2.1-3.2
					c0.5-0.7,0.7-1.5,1-2.5c-0.2,1.4,0.8,2.6,2.2,2.7l22,2.2c1.6,0.1,2.8-1.1,2.8-2.6l-0.1-2.4c0-0.7,0-1.2,0-1.5
					c0-2.5-0.3-5-0.9-7.5l-2.6-26.6C469.3,96.4,372.1,17,263.2,27.8c-93.8,9.4-168.1,83.7-177.5,177.5L83,231.8
					c-0.7,2.5-0.9,5-0.9,7.7c0,0.4,0,0.9,0,1.6l-0.3,2.2c-0.1,1.6,1.2,2.9,2.7,2.6l22.1-2.2c1.5-0.1,2.4-1.5,2.1-2.8
					c0-0.1,0-0.1,0-0.3C108.8,241.7,109.1,242.7,109.6,243.4z M282.8-82.9c202,0,365.7,163.7,365.7,365.7S484.8,648.5,282.8,648.5
					S-82.9,484.8-82.9,282.8S80.9-82.9,282.8-82.9z M407.9,501l38.8-217.2c-39.7,19.9-105.2,29-163.7,29s-123.9-9.1-163.9-29
					L158,501.1c1.3,7,6.1,13,12.7,15.6c72,29.4,152.6,29.4,224.5,0C401.8,514,406.7,508.2,407.9,501z"/>
			</g>
		</g>
	</g>
</g>
</svg>
