<?xml version="1.0" encoding="utf-8"?>
<!-- Generator: Adobe Illustrator 25.2.1, SVG Export Plug-In . SVG Version: 6.00 Build 0)  -->
<svg version="1.1" id="Filled" xmlns="http://www.w3.org/2000/svg" xmlns:xlink="http://www.w3.org/1999/xlink" x="0px" y="0px"
	 viewBox="0 0 24 24" style="enable-background:new 0 0 24 24;" xml:space="preserve">
<path d="M12.3,0h-0.6C5.3,0,0,5.3,0,11.7v0.6C0,18.7,5.3,24,11.7,24h0.6C18.7,24,24,18.7,24,12.3v-0.6C24,5.3,18.7,0,12.3,0z M5,8.4
	l6-3.6c0.6-0.3,1.3-0.3,1.9,0l6,3.6c0.1,0.1,0.2,0.1,0.2,0.2c0.2,0.3,0.1,0.7-0.2,0.8l-6,3.6c-0.6,0.3-1.3,0.3-1.9,0L5,9.5
	C4.9,9.4,4.9,9.4,4.8,9.3C4.6,9,4.7,8.6,5,8.4z M19,14.9l-6.7,4c-0.2,0.1-0.4,0.1-0.6,0l-6.7-4c-0.3-0.2-0.4-0.5-0.2-0.8
	s0.5-0.4,0.8-0.2l6.3,3.8l6.3-3.8h0c0.3-0.2,0.7-0.1,0.8,0.2S19.3,14.7,19,14.9z M19,12.1l-6.7,4c-0.2,0.1-0.4,0.1-0.6,0l-6.7-4
	c-0.3-0.2-0.4-0.5-0.2-0.8s0.5-0.4,0.8-0.2l6.3,3.8l6.3-3.8h0c0.3-0.2,0.7-0.1,0.8,0.2S19.3,11.9,19,12.1z"/>
</svg>
