<?xml version="1.0" encoding="utf-8"?>
<!-- Generator: Adobe Illustrator 25.2.0, SVG Export Plug-In . SVG Version: 6.00 Build 0)  -->
<svg version="1.1" id="Capa_1" xmlns="http://www.w3.org/2000/svg" xmlns:xlink="http://www.w3.org/1999/xlink" x="0px" y="0px"
	 viewBox="0 0 512 512" style="enable-background:new 0 0 512 512;" xml:space="preserve">
<style type="text/css">
	.st0{fill:none;stroke:#000000;stroke-width:10;stroke-miterlimit:10;}
</style>
<g>
	<g>
		<path class="st0" d="M432.3,264.5H394c3.9,10.7,6,22.2,6,34.3v144.9c0,5-0.9,9.8-2.5,14.3h63.4c23.7,0,42.9-19.3,42.9-42.9v-79
			C503.8,296.6,471.7,264.5,432.3,264.5z"/>
	</g>
</g>
<g>
	<g>
		<path class="st0" d="M112,298.8c0-12,2.1-23.6,6-34.3H79.7c-39.4,0-71.5,32.1-71.5,71.5v79c0,23.7,19.3,42.9,42.9,42.9h63.4
			c-1.6-4.5-2.5-9.3-2.5-14.3V298.8z"/>
	</g>
</g>
<g>
	<g>
		<path class="st0" d="M299.8,227.2h-87.6c-39.4,0-71.5,32.1-71.5,71.5v144.9c0,7.9,6.4,14.3,14.3,14.3h202
			c7.9,0,14.3-6.4,14.3-14.3V298.8C371.4,259.3,339.3,227.2,299.8,227.2z"/>
	</g>
</g>
<g>
	<g>
		<path class="st0" d="M256,37.5c-47.4,0-86,38.6-86,86c0,32.2,17.8,60.3,44,75c12.4,7,26.8,11,42,11c15.2,0,29.6-4,42-11
			c26.2-14.8,44-42.9,44-75C342,76.1,303.4,37.5,256,37.5z"/>
	</g>
</g>
<g>
	<g>
		<path class="st0" d="M104.9,117.7c-35.5,0-64.3,28.9-64.3,64.3s28.9,64.3,64.3,64.3c9,0,17.6-1.9,25.4-5.2
			c13.5-5.8,24.6-16.1,31.4-28.9c4.8-9,7.6-19.3,7.6-30.2C169.3,146.6,140.4,117.7,104.9,117.7z"/>
	</g>
</g>
<g>
	<g>
		<path class="st0" d="M407.1,117.7c-35.5,0-64.3,28.9-64.3,64.3c0,10.9,2.7,21.2,7.6,30.2c6.9,12.9,18,23.1,31.4,28.9
			c7.8,3.4,16.4,5.2,25.4,5.2c35.5,0,64.3-28.9,64.3-64.3S442.6,117.7,407.1,117.7z"/>
	</g>
</g>
</svg>
