<?xml version="1.0" encoding="utf-8"?>
<!-- Generator: Adobe Illustrator 25.1.0, SVG Export Plug-In . SVG Version: 6.00 Build 0)  -->
<svg version="1.1" id="Layer_1" xmlns="http://www.w3.org/2000/svg" xmlns:xlink="http://www.w3.org/1999/xlink" x="0px" y="0px"
	 viewBox="0 0 512 512" style="enable-background:new 0 0 512 512;" xml:space="preserve">
<g>
	<path d="M357,123c0-8.3-6.7-15-15-15h-74.9v52.1c0,8.3-6.7,15-15,15s-15-6.7-15-15V108H119.9v52.1c0,8.3-6.7,15-15,15
		s-15-6.7-15-15V108H15c-8.3,0-15,6.7-15,15v314c0,41.4,33.6,75,75,75h207c41.4,0,75-33.6,75-75V123z M261,345.2h-43.9l-29.2,43.6
		c-2.9,4.3-7.6,6.7-12.5,6.7c-2.9,0-5.8-0.8-8.3-2.5c-6.9-4.6-8.7-13.9-4.1-20.8l18-26.9h-63.8c-5.7,0-10.8-3.2-13.4-8.2l-21.3-42
		c-3.7-7.4-0.8-16.4,6.6-20.2c7.4-3.7,16.4-0.8,20.2,6.6l17.1,33.8h54.6l-17.8-26.7c-4.6-6.9-2.8-16.2,4.1-20.8s16.2-2.8,20.8,4.1
		l29,43.3H261c8.3,0,15,6.7,15,15S269.3,345.2,261,345.2L261,345.2z"/>
	<path d="M511.9,495.4c-5.1-46.9-25-212.2-30-258c-0.8-7.6-7.3-13.4-14.9-13.4h-9.1v39c0,8.3-6.7,15-15,15s-15-6.7-15-15v-39H387
		v213c0,29.4-12.1,55.9-31.6,75H497c4.3,0,8.3-1.8,11.2-5S512.4,499.6,511.9,495.4z"/>
	<path d="M457.9,205c0-32.5-26.5-59-59-59c-4.1,0-8,0.4-11.9,1.2v31.4c3.6-1.6,7.6-2.6,11.9-2.6c16,0,29,13,29,29v19h30V205z"/>
	<path d="M119.9,88.6c0-32.3,26.3-58.6,58.6-58.6s58.6,26.3,58.6,58.6V108h30V88.6c0-48.9-39.8-88.6-88.6-88.6S89.9,39.8,89.9,88.6
		V108h30L119.9,88.6z"/>
</g>
</svg>
