<?xml version="1.0" encoding="utf-8"?>
<!-- Generator: Adobe Illustrator 25.2.0, SVG Export Plug-In . SVG Version: 6.00 Build 0)  -->
<svg version="1.1" id="Layer_1" xmlns="http://www.w3.org/2000/svg" xmlns:xlink="http://www.w3.org/1999/xlink" x="0px" y="0px"
	 viewBox="0 0 512 512" style="enable-background:new 0 0 512 512;" xml:space="preserve">
<style type="text/css">
	.st0{fill:#111111;}
	.st1{fill:#E869BB;}
	.st2{fill:#B442BB;}
	.st3{fill:#FF9494;}
</style>
<g>
	<g>
		<path class="st0" d="M37.9,263.3h30.2v52.1H37.9L37.9,263.3z"/>
		<path class="st1" d="M19,342.6c-10.5,0-19-8.5-19-19v-68.5c0-10.5,8.5-19,19-19s19,8.5,19,19v68.5C37.9,334.1,29.4,342.6,19,342.6
			z"/>
	</g>
	<path class="st1" d="M362,487.6H100.7c-18,0-32.6-14.6-32.6-32.6V244c0-18,14.6-32.6,32.6-32.6H362c18,0,32.6,14.6,32.6,32.6v211.1
		C394.5,473.1,380,487.6,362,487.6z"/>
	<path class="st2" d="M362,211.4h-41.2c18,0,32.6,14.6,32.6,32.6v211.1c0,18-14.6,32.6-32.6,32.6H362c18,0,32.6-14.6,32.6-32.6V244
		C394.5,226,380,211.4,362,211.4L362,211.4z"/>
	<g>
		<path class="st0" d="M394.5,341.6l79.5,43.7V220.6l-79.5,43.7V341.6z"/>
		<path class="st1" d="M493,410.5c-10.5,0-19-8.5-19-19V214.4c0-10.5,8.5-19,19-19c10.5,0,19,8.5,19,19v177.1
			C512,402,503.5,410.5,493,410.5z"/>
	</g>
	<ellipse class="st3" cx="124.4" cy="432.7" rx="22.2" ry="22.2"/>
	<ellipse class="st3" cx="193.1" cy="432.7" rx="22.2" ry="22.2"/>
	<g>
		<ellipse class="st0" cx="137.9" cy="117.9" rx="93.4" ry="93.5"/>
		<path class="st1" d="M137.9,178.8c-33.5,0-60.8-27.3-60.8-60.9s27.3-60.9,60.8-60.9c33.5,0,60.8,27.3,60.8,60.9
			S171.5,178.8,137.9,178.8z"/>
		<path class="st2" d="M137.9,56.9c-7.2,0-14.2,1.3-20.6,3.6c23.4,8.5,40.2,31,40.2,57.3s-16.8,48.9-40.2,57.3
			c6.4,2.3,13.4,3.6,20.6,3.6c33.5,0,60.8-27.3,60.8-60.9S171.5,56.9,137.9,56.9L137.9,56.9z"/>
		<ellipse class="st0" cx="324.7" cy="117.9" rx="93.4" ry="93.5"/>
		<ellipse class="st1" cx="324.7" cy="117.9" rx="60.8" ry="60.9"/>
		<path class="st2" d="M324.7,56.9c-7.2,0-14.2,1.3-20.6,3.6c23.4,8.5,40.2,31,40.2,57.3s-16.8,48.9-40.2,57.3
			c6.4,2.3,13.4,3.6,20.6,3.6c33.5,0,60.8-27.3,60.8-60.9S358.3,56.9,324.7,56.9z"/>
	</g>
	<g>
		<path class="st3" d="M155.5,100.3c-3-3-7.9-3-10.9,0l-6.6,6.6l-6.6-6.6c-3-3-7.9-3-10.9,0c-3,3-3,7.9,0,10.9l6.7,6.7l-6.7,6.7
			c-3,3-3,7.9,0,10.9c1.5,1.5,3.5,2.3,5.5,2.3c2,0,4-0.8,5.5-2.3l6.6-6.6l6.6,6.6c1.5,1.5,3.5,2.3,5.5,2.3c2,0,4-0.8,5.5-2.3
			c3-3,3-7.9,0-10.9l-6.7-6.7l6.7-6.7C158.5,108.2,158.5,103.3,155.5,100.3z"/>
		<path class="st3" d="M335.6,117.9l6.7-6.7c3-3,3-7.9,0-10.9s-7.9-3-10.9,0l-6.6,6.6l-6.6-6.6c-3-3-7.9-3-10.9,0c-3,3-3,7.9,0,10.9
			l6.7,6.7l-6.7,6.7c-3,3-3,7.9,0,10.9c1.5,1.5,3.5,2.3,5.5,2.3c2,0,4-0.8,5.5-2.3l6.6-6.6l6.6,6.6c1.5,1.5,3.5,2.3,5.5,2.3
			c2,0,4-0.8,5.5-2.3c3-3,3-7.9,0-10.9L335.6,117.9z"/>
	</g>
</g>
</svg>
