<?xml version="1.0" encoding="utf-8"?>
<!-- Generator: Adobe Illustrator 25.2.1, SVG Export Plug-In . SVG Version: 6.00 Build 0)  -->
<svg version="1.1" id="Layer_1" xmlns:svgjs="http://svgjs.com/svgjs"
	 xmlns="http://www.w3.org/2000/svg" xmlns:xlink="http://www.w3.org/1999/xlink" x="0px" y="0px" viewBox="0 0 512 512"
	 style="enable-background:new 0 0 512 512;" xml:space="preserve">
<style type="text/css">
	.st0{fill:#FFFFFF;}
</style>
<g>
	<g>
		<path d="M256,0c140.8,0,256,115.2,256,256S396.8,512,256,512S0,396.8,0,256S115.2,0,256,0z"/>
		<g>
			<polygon class="st0" points="385.6,212.8 385.6,241.6 414.4,241.6 414.4,270.4 385.6,270.4 385.6,299.2 356.8,299.2 356.8,270.4 
				328,270.4 328,241.6 356.8,241.6 356.8,212.8 			"/>
			<path class="st0" d="M126.4,328C88,289.6,88,222.4,128,184c28.8-28.8,70.4-35.2,107.2-20.8l14.4,8l16,11.2L240,208l-9.6-6.4
				c-22.4-14.4-54.4-11.2-75.2,9.6c-24,24-25.6,67.2,0,92.8c24,25.6,67.2,25.6,89.6,0c6.4-6.4,12.8-16,14.4-25.6v-3.2h-57.6v-32
				h91.2l1.6,8v22.4c-1.6,20.8-9.6,41.6-24,56C232,366.4,164.8,366.4,126.4,328z"/>
		</g>
	</g>
</g>
</svg>
