<svg id="Capa_1" data-name="Capa 1" xmlns="http://www.w3.org/2000/svg" viewBox="0 0 22.03 15.2"><defs><style>.cls-1{fill:#121111;}</style></defs><path class="cls-1" d="M21.52,7.67c.09-.88.39-2.19-1-2.4a22.55,22.55,0,0,1-5.76-1.4A7.71,7.71,0,0,0,9.18,4C8.6,4.22,8,4.49,8.1,5.29S9,6,9.45,6a8.31,8.31,0,0,1,3.48,1.06c.51.26.72.46.49,1.15A3.52,3.52,0,0,0,15,12.72a.63.63,0,0,1,.23.2c.31.47,1.39.38,1.1,1.21-.22.66-1,.19-1.5.35a1.65,1.65,0,0,0-.78.43c-.45.63-1.06.54-1.66.46a57.78,57.78,0,0,1-9.33-1.51,3.68,3.68,0,0,0-1.81-.07C.33,14,.19,14.73,0,15.38s.41.95,1,1.18a10.24,10.24,0,0,1,2.07.94c1,.73,1.82,1.74,2.88.06.17-.28.84-.28,1.28-.36a7.48,7.48,0,0,1,3.48.37,6.75,6.75,0,0,0,3.64.15c2.36-.56,4.65-1,6.58.9,1.29-2.05-.82-2.89-1.46-4.43,1.11.06,1.92-.48,1.86-1.33-.08-1.15-.4-2.21.7-3,0,0-.05-.42-.17-.52C21.26,8.81,21.46,8.31,21.52,7.67Z" transform="translate(0 -3.41)"/><path class="cls-1" d="M12.22,13.24c.25.1.57.35.75-.1a.53.53,0,0,0-.23-.66,7.16,7.16,0,0,0-2.54-1.21c-.34,0-.72-.12-.88.23s.21.65.52.78C10.62,12.62,11.42,12.94,12.22,13.24Z" transform="translate(0 -3.41)"/></svg>