<svg id="Layer_1" enable-background="new 0 0 511.237 511.237" height="512" viewBox="0 0 511.237 511.237" width="512" xmlns="http://www.w3.org/2000/svg"><path d="m471.552 63.87c-4.782-23.085-22.789-41.092-45.878-45.875-115.96-23.994-224.021-23.995-340.101.008-23.101 4.769-41.117 22.778-45.899 45.881-23.98 115.892-23.985 224.08.01 340.102 4.78 23.093 22.787 41.104 45.875 45.887 26.674 5.526 53.9 9.85 81.067 12.901 41.539 64.519 136.327 64.721 177.992-.012 27.064-3.043 54.283-7.365 81.046-12.896 23.1-4.77 41.116-22.779 45.898-45.881 23.978-115.88 23.988-224.054-.01-340.115zm-364.306 36.822c-2.813-11.252 4.028-22.653 15.28-25.466l42.667-10.667c11.252-2.812 22.653 4.028 25.466 15.28s-4.028 22.653-15.28 25.466l-42.667 10.667c-11.228 2.806-22.647-4.002-25.466-15.28zm10.039 96.241c0-26.284 21.383-47.667 47.667-47.667 26.283 0 47.667 21.383 47.667 47.667 0 26.283-21.383 47.667-47.667 47.667-26.283-.001-47.667-21.384-47.667-47.667zm234.334 143.666h-192c-11.598 0-21-9.402-21-21s9.402-21 21-21h192c11.598 0 21 9.402 21 21s-9.402 21-21 21zm-5.334-96c-26.283 0-47.667-21.383-47.667-47.667s21.383-47.667 47.667-47.667 47.667 21.383 47.667 47.667-21.383 47.667-47.667 47.667zm57.707-143.907c-2.826 11.303-14.265 18.078-25.466 15.28l-42.667-10.667c-11.251-2.813-18.093-14.214-15.28-25.466 2.812-11.251 14.214-18.093 25.466-15.28l42.667 10.667c11.252 2.813 18.093 14.214 15.28 25.466z"/></svg>