<?xml version="1.0" encoding="utf-8"?>
<!-- Generator: Adobe Illustrator 25.2.1, SVG Export Plug-In . SVG Version: 6.00 Build 0)  -->
<svg version="1.1" id="Layer_1" xmlns="http://www.w3.org/2000/svg" xmlns:xlink="http://www.w3.org/1999/xlink" x="0px" y="0px"
	 viewBox="0 0 512 512" style="enable-background:new 0 0 512 512;" xml:space="preserve">
<style type="text/css">
	.st0{fill:#FFFFFF;}
	.st1{fill:none;stroke:#FFFFFF;stroke-miterlimit:10;}
</style>
<g id="XMLID_1_">
	<g>
		<g id="XMLID_2_">
			<g>
				<path class="st0" d="M298.7,127.9c5.5,0,10.9,2.1,15.1,6.3c8.3,8.3,8.3,21.8,0,30.2L222.2,256l91.6,91.6
					c8.3,8.3,8.3,21.8,0,30.2c-8.3,8.4-21.8,8.3-30.2,0L176.9,271.1c-8.3-8.4-8.3-21.8,0-30.2l106.7-106.7
					C287.8,130,293.2,127.9,298.7,127.9z"/>
				<path d="M283.6,377.8c8.4,8.3,21.9,8.4,30.2,0c8.3-8.4,8.3-21.9,0-30.2L222.2,256l91.6-91.6c8.3-8.4,8.3-21.9,0-30.2
					c-4.2-4.2-9.6-6.3-15.1-6.3s-10.9,2.1-15.1,6.3L176.9,240.9c-8.3,8.4-8.3,21.8,0,30.2L283.6,377.8z M256,0
					c141.2,0,256,114.8,256,256S397.2,512,256,512S0,397.2,0,256S114.8,0,256,0z"/>
			</g>
			<g>
				<circle class="st1" cx="256" cy="256" r="256"/>
				<path class="st1" d="M176.9,240.9l106.7-106.7c4.2-4.2,9.6-6.3,15.1-6.3s10.9,2.1,15.1,6.3c8.3,8.3,8.3,21.8,0,30.2L222.2,256
					l91.6,91.6c8.3,8.3,8.3,21.8,0,30.2c-8.3,8.4-21.8,8.3-30.2,0L176.9,271.1C168.6,262.7,168.6,249.3,176.9,240.9z"/>
			</g>
		</g>
	</g>
</g>
</svg>
