<?xml version="1.0" encoding="utf-8"?>
<!-- Generator: Adobe Illustrator 25.2.1, SVG Export Plug-In . SVG Version: 6.00 Build 0)  -->
<svg version="1.1" id="Capa_1" xmlns="http://www.w3.org/2000/svg" xmlns:xlink="http://www.w3.org/1999/xlink" x="0px" y="0px"
	 viewBox="0 0 512 512" style="enable-background:new 0 0 512 512;" xml:space="preserve">
<g>
	<g>
		<path d="M365.2,207.5L365.2,207.5l0-66.8c0-63.2-49.9-115.9-113.1-117.7c-65.8-1.9-119.8,51.1-119.8,116.4v68.1h0
			c-24.7,0-44.8,20.1-44.8,44.8v192.2c0,20.5,16.6,37.2,37.2,37.2h248.3c20.5,0,37.1-16.6,37.1-37.1V252.3
			C410,227.6,389.9,207.5,365.2,207.5z M168.1,139.5c0-45.4,37.8-82.2,83.6-80.6c43.5,1.6,77.6,38,77.6,81.6v67.1H168.1V139.5z
			 M348.7,445.8H144.1c-11.5,0-20.7-9.3-20.7-20.7V268.5c0-13.9,11.3-25.2,25.2-25.2H348c14.5,0,26.2,11.7,26.2,26.2v150.9
			C374.2,434.5,362.8,445.8,348.7,445.8z"/>
	</g>
</g>
<g>
	<g>
		<circle cx="248.8" cy="344.6" r="22.4"/>
	</g>
</g>
</svg>
