<?xml version="1.0" encoding="utf-8"?>
<!-- Generator: Adobe Illustrator 25.2.0, SVG Export Plug-In . SVG Version: 6.00 Build 0)  -->
<svg version="1.1" id="Layer_1" xmlns:svgjs="http://svgjs.com/svgjs"
	 xmlns="http://www.w3.org/2000/svg" xmlns:xlink="http://www.w3.org/1999/xlink" x="0px" y="0px" viewBox="0 0 512 512"
	 style="enable-background:new 0 0 512 512;" xml:space="preserve">
<g>
	<g id="XMLID_1_">
		<g>
			<path d="M286.9,291c0,1.8-0.2,3.6-0.5,5.3c-1.5,8.8-6.7,16.3-14,20.9c-3,1.9-4.5,5.5-3.8,8.9l9.2,43.6c0.6,2.6-1.4,5.1-4.1,5.1
				h-35.4c-2.7,0-4.7-2.5-4.1-5.1l9.2-43.6c0.7-3.5-0.8-7-3.8-8.9c-7.3-4.6-12.5-12.1-14-20.9c-0.3-2-0.5-4-0.5-6
				c0.4-16.4,13.8-29.7,30.2-30.1C272.6,259.6,286.9,273.6,286.9,291z"/>
			<path d="M256,0c141.4,0,256,114.6,256,256S397.4,512,256,512S0,397.4,0,256S114.6,0,256,0z M376,314.4c0-32.6-13-62.1-34.1-83.8
				c-11.9-12.2-26.3-21.8-42.4-28.1c-13.5-5.3-28.2-8.2-43.6-8.2s-30.1,2.9-43.6,8.2c-16.1,6.3-30.5,15.9-42.4,28.1
				c-21.1,21.6-34,51.2-34,83.8c0,66.3,53.8,120,120,120S376,380.7,376,314.4z M342,207.7v-56.6c0-47.1-38.3-85.3-85.3-85.3h-1.3
				c-47,0-85.3,38.3-85.3,85.3v56.6c9.9-8,20.8-14.6,32.7-19.6c3.2-1.4,6.4-2.6,9.7-3.7v-33.3c0-23.7,19.3-43,43-43h1.3
				c23.7,0,43,19.3,43,43v33.4c3.2,1.1,6.5,2.3,9.7,3.6C321.1,193.2,332.1,199.7,342,207.7z"/>
		</g>
		<g>
		</g>
	</g>
</g>
</svg>
