<?xml version="1.0" encoding="utf-8"?>
<!-- Generator: Adobe Illustrator 25.2.1, SVG Export Plug-In . SVG Version: 6.00 Build 0)  -->
<svg version="1.1" id="Capa_1" xmlns="http://www.w3.org/2000/svg" xmlns:xlink="http://www.w3.org/1999/xlink" x="0px" y="0px"
	 viewBox="0 0 512 512" style="enable-background:new 0 0 512 512;" xml:space="preserve">
<style type="text/css">
	.st0{fill:none;stroke:#000000;stroke-width:9;stroke-miterlimit:10;}
</style>
<g>
	<g>
		<path class="st0" d="M393.5,206.6h-25.8v-65.3c0-61.6-50.1-111.7-111.7-111.7S144.3,79.7,144.3,141.3v65.3h-25.8
			c-9.5,0-17.2,7.7-17.2,17.2v228.6c0,9.5,7.7,17.2,17.2,17.2h275c9.5,0,17.2-7.7,17.2-17.2V223.8
			C410.7,214.3,403,206.6,393.5,206.6z M178.7,141.3c0-42.6,34.7-77.3,77.3-77.3s77.3,34.7,77.3,77.3v65.3H178.7V141.3z"/>
	</g>
</g>
<g>
	<g>
		<path class="st0" d="M234.5,338.1"/>
		<path class="st0" d="M256,359.6"/>
	</g>
</g>
</svg>
