<svg id="Layer_1" enable-background="new 0 0 511.237 511.237" height="512" viewBox="0 0 511.237 511.237" width="512" xmlns="http://www.w3.org/2000/svg"><path d="m471.553 63.87c-4.782-23.085-22.789-41.092-45.879-45.875-115.961-23.994-224.023-23.995-340.101.008-23.1 4.769-41.116 22.778-45.898 45.881-23.981 115.892-23.983 224.08.01 340.102 4.78 23.093 22.787 41.104 45.875 45.887 26.675 5.526 53.9 9.85 81.068 12.901 41.539 64.519 136.326 64.721 177.991-.012 27.064-3.043 54.282-7.365 81.046-12.896 23.101-4.77 41.116-22.779 45.898-45.881 23.928-115.634 24.033-223.822-.01-340.115zm-203.856 46.422 10.667-32c3.666-11.002 15.56-16.948 26.563-13.281 11.003 3.668 16.949 15.561 13.281 26.563l-10.667 32c-3.667 11.002-15.56 16.949-26.563 13.281-11.002-3.668-16.949-15.561-13.281-26.563zm-61.385-45.282c10.999-3.668 22.896 2.279 26.563 13.281l10.667 32c3.668 11.003-2.278 22.896-13.281 26.563-11.001 3.668-22.896-2.278-26.563-13.281l-10.667-32c-3.669-11.002 2.278-22.895 13.281-26.563zm-78.693 147.589c-11.598 0-21-9.402-21-21s9.402-21 21-21h85.333c11.598 0 21 9.402 21 21s-9.402 21-21 21c-12.215 0-11-.147-11 .333 0 11.598-9.402 21-21 21s-21-9.402-21-21c0-.482 3.592-.333-32.333-.333zm217.517 143.183c-8.201 8.201-21.498 8.201-29.699 0-33.482-33.483-87.673-33.479-121.15 0-8.201 8.201-21.497 8.201-29.698 0s-8.202-21.498-.001-29.699c49.899-49.899 130.657-49.892 180.549 0 8.199 8.201 8.199 21.498-.001 29.699zm38.483-143.183h-32.333c0 12.523-9.865 21.333-21 21.333s-21-8.81-21-21.333h-11c-11.598 0-21-9.402-21-21s9.402-21 21-21h85.333c11.598 0 21 9.402 21 21s-9.402 21-21 21z"/></svg>