<svg id="Layer_1" enable-background="new 0 0 511.236 511.236" height="512" viewBox="0 0 511.236 511.236" width="512" xmlns="http://www.w3.org/2000/svg"><path d="m345.711 180.599c-2.812 0-5.092 2.279-5.092 5.092v5.405c0 11.387-8.855 21.085-20.235 21.49-11.947.424-21.765-9.135-21.765-20.986 0-6.815-5.052-11-10.497-11h-65.007c-5.797 0-10.497 4.7-10.497 10.497 0 10.905-8.143 20.467-19.121 21.422-12.444 1.082-22.879-8.7-22.879-20.918v-5.908c0-2.812-2.28-5.092-5.092-5.092-14.613 0-27.124 11.422-27.562 26.182-.453 15.259 11.828 27.818 26.988 27.818h181.333c15.159 0 27.441-12.558 26.988-27.818-.436-14.687-12.871-26.184-27.562-26.184z"/><path d="m471.552 63.87c-4.782-23.085-22.789-41.092-45.878-45.875-115.963-23.995-224.015-23.994-340.102.007-23.1 4.77-41.116 22.778-45.898 45.882-23.98 115.893-23.985 224.081.01 340.102 4.78 23.093 22.787 41.104 45.875 45.887 26.672 5.525 53.897 9.85 81.068 12.901 41.607 64.625 136.395 64.612 177.991-.011 27.065-3.043 54.284-7.366 81.047-12.896 23.1-4.77 41.116-22.778 45.898-45.882 23.927-115.638 24.034-223.822-.011-340.115zm-125.267 212.729h-181.333c-38.047 0-69-30.953-69-69s30.953-69 69-69h181.333c38.047 0 69 30.953 69 69s-30.953 69-69 69z"/></svg>