<?xml version="1.0" encoding="utf-8"?>
<!-- Generator: Adobe Illustrator 25.2.1, SVG Export Plug-In . SVG Version: 6.00 Build 0)  -->
<svg version="1.1" id="Layer_1" xmlns:svgjs="http://svgjs.com/svgjs"
	 xmlns="http://www.w3.org/2000/svg" xmlns:xlink="http://www.w3.org/1999/xlink" x="0px" y="0px" viewBox="0 0 512 512"
	 style="enable-background:new 0 0 512 512;" xml:space="preserve">
<style type="text/css">
	.st0{fill:#FFFFFF;}
</style>
<g>
	<path d="M493.7,256c0,131.3-106.4,237.7-237.7,237.7S18.3,387.3,18.3,256S124.7,18.3,256,18.3S493.7,124.7,493.7,256z"/>
	<g>
		<path class="st0" d="M256,512C114.8,512,0,397.2,0,256S114.8,0,256,0s256,114.8,256,256S397.2,512,256,512z M256,36.6
			C135,36.6,36.6,135,36.6,256S135,475.4,256,475.4S475.4,377,475.4,256S377,36.6,256,36.6z"/>
		<circle class="st0" cx="256" cy="256" r="118"/>
	</g>
</g>
</svg>
