<?xml version="1.0" encoding="utf-8"?>
<!-- Generator: Adobe Illustrator 25.1.0, SVG Export Plug-In . SVG Version: 6.00 Build 0)  -->
<svg version="1.1" id="Layer_1" xmlns="http://www.w3.org/2000/svg" xmlns:xlink="http://www.w3.org/1999/xlink" x="0px" y="0px"
	 viewBox="0 0 320 496" style="enable-background:new 0 0 320 496;" xml:space="preserve">
<style type="text/css">
	.st0{fill:none;stroke:#000000;stroke-miterlimit:10;}
</style>
<path class="st0" d="M152,1h16c83.5,0,151.5,67.9,151.5,151.4v191.2c0,83.5-68,151.4-151.5,151.4h-16C68.5,495,0.5,427.1,0.5,343.6
	V152.4C0.5,68.9,68.5,1,152,1z M16,344c0,75,61,136,136,136h16c75,0,136-61,136-136V152c0-75-61-136-136-136h-16C77,16,16,77,16,152
	V344z"/>
<path class="st0" d="M293.7,127.9c0.4,1.7,1.8,12.7,1.9,14.5c0.2,3.2,0.4,6.4,0.4,9.6v192c-0.1,70.7-57.3,127.9-128,128h-16
	c-70.7-0.1-127.9-57.3-128-128V152C24.1,81.3,81.3,24.1,152,24h16C230.3,24,282.4,68.8,293.7,127.9 M280,152c0-4-0.2-8.1-0.6-12.1
	c-6.6-3.6-14.2-4.8-21.5-3.3c-3.3,0.6-6.6-0.8-8.4-3.6c-12.7-20.7-39.8-27.2-60.5-14.4c-10,6.1-17.1,16-19.8,27.3
	c-0.9,3.8-4.3,6.3-8.2,6.1h-1c-13.3,0-24,10.7-24,24s10.7,24,24,24h104c5.6,0,11.1-1.5,16-4.3V152z M280,344v-12.1L181.3,256h-56.3
	L203,412.2v0.1l15.8,31.5C256.3,424.7,280,386.1,280,344z M171,384h-11c-4.4,0-8,3.6-8,8v8c0,4.4,3.6,8,8,8h23L171,384z M40,344
	c0,22.5,6.8,44.4,19.4,63H72c17.7,0,32-14.3,32-32c0-17.7-14.3-32-32-32c-2.1,0-4.1,0.2-6.2,0.6c-3.3,0.6-6.6-0.8-8.4-3.6
	c-4.2-6.9-10.3-12.4-17.5-16.1V344z M40,306.5c11.2,4,21,11.2,28.1,20.7c1.3-0.1,2.6-0.2,3.9-0.2c26.5-0.2,48.1,21.2,48.3,47.7
	c0.2,26.5-21.2,48.1-47.7,48.3c21,21.1,49.5,33,79.3,33h16c12.3,0,24.5-2,36.1-6l-13-26H160c-13.3,0-24-10.7-24-24v-8
	c0-13.3,10.7-24,24-24h3l-58.2-116.4c-2-4-0.4-8.8,3.6-10.7c1.1-0.6,2.3-0.8,3.6-0.8h72c1.8,0,3.5,0.6,4.9,1.7l91.1,70.1v-98.5
	c-5.1,1.8-10.6,2.7-16,2.7H160c-22.1,0-40-17.9-40-40c0-20.3,15.2-37.4,35.4-39.8c10.9-31.3,45.1-47.8,76.4-37
	c11.3,3.9,21.2,11.2,28.4,20.8c1.3-0.1,2.6-0.2,3.9-0.2c4,0,7.9,0.5,11.8,1.4C262,73.3,218.1,40.1,168,40h-16
	C90.2,40.1,40.1,90.2,40,152V306.5z"/>
</svg>
