<?xml version="1.0" encoding="utf-8"?>
<!-- Generator: Adobe Illustrator 25.2.0, SVG Export Plug-In . SVG Version: 6.00 Build 0)  -->
<svg version="1.1" id="Layer_1" xmlns="http://www.w3.org/2000/svg" xmlns:xlink="http://www.w3.org/1999/xlink" x="0px" y="0px"
	 viewBox="0 0 512 512" style="enable-background:new 0 0 512 512;" xml:space="preserve">
<style type="text/css">
	.st0{fill:#FFFFFF;}
</style>
<g id="XMLID_1_">
	<g>
		<path class="st0" d="M256,32c123.5,0,224,100.5,224,224S379.5,480,256,480S32,379.5,32,256S132.5,32,256,32z M346.5,188.1
			c6.2-6.3,6.2-16.4,0-22.6s-16.4-6.2-22.6,0L256,233.4l-67.9-67.9c-6.2-6.2-16.4-6.2-22.6,0s-6.2,16.4,0,22.6l67.9,67.9l-67.9,67.9
			c-6.2,6.2-6.2,16.4,0,22.6c3.1,3.1,7.2,4.7,11.3,4.7c4.1,0,8.2-1.6,11.3-4.7l67.9-67.9l67.9,67.9c3.1,3.1,7.2,4.7,11.3,4.7
			s8.2-1.6,11.3-4.7c6.2-6.2,6.2-16.4,0-22.6L278.6,256L346.5,188.1z"/>
		<path d="M256,0c141.2,0,256,114.8,256,256S397.2,512,256,512S0,397.2,0,256S114.8,0,256,0z M480,256c0-123.5-100.5-224-224-224
			S32,132.5,32,256s100.5,224,224,224S480,379.5,480,256z"/>
		<path d="M346.5,165.5c6.2,6.2,6.2,16.4,0,22.6L278.6,256L256,233.4l67.9-67.9C330.2,159.2,340.3,159.2,346.5,165.5z"/>
		<path d="M346.5,323.9c6.2,6.2,6.2,16.4,0,22.6c-3.1,3.1-7.2,4.7-11.3,4.7s-8.2-1.6-11.3-4.7L256,278.6l22.6-22.6L346.5,323.9z"/>
		<polygon points="278.6,256 256,278.6 233.4,256 256,233.4 		"/>
		<path d="M256,278.6l-67.9,67.9c-3.2,3.1-7.2,4.7-11.3,4.7c-4.1,0-8.2-1.6-11.3-4.7c-6.2-6.2-6.2-16.4,0-22.6l67.9-67.9L256,278.6z
			"/>
		<path d="M256,233.4L233.4,256l-67.9-67.9c-6.2-6.2-6.2-16.4,0-22.6s16.4-6.2,22.6,0L256,233.4z"/>
	</g>
	<g>
	</g>
</g>
</svg>
