<?xml version="1.0" encoding="utf-8"?>
<!-- Generator: Adobe Illustrator 25.2.1, SVG Export Plug-In . SVG Version: 6.00 Build 0)  -->
<svg version="1.1" id="Layer_1" xmlns="http://www.w3.org/2000/svg" xmlns:xlink="http://www.w3.org/1999/xlink" x="0px" y="0px"
	 viewBox="0 0 512 512" style="enable-background:new 0 0 512 512;" xml:space="preserve">
<style type="text/css">
	.st0{fill:#FFFFFF;}
</style>
<g>
	<g id="XMLID_1_">
		<g>
			<path d="M256,0c141.2,0,256,114.8,256,256S397.2,512,256,512S0,397.2,0,256S114.8,0,256,0z M335.1,271.1c8.3-8.4,8.3-21.9,0-30.2
				L228.4,134.2c-8.4-8.3-21.9-8.4-30.2,0c-8.3,8.4-8.3,21.9,0,30.2l91.6,91.6l-91.6,91.6c-8.3,8.4-8.3,21.9,0,30.2
				c4.2,4.1,9.6,6.2,15.1,6.2s10.9-2,15.1-6.2L335.1,271.1z"/>
			<path class="st0" d="M335.1,240.9c8.3,8.3,8.3,21.8,0,30.2L228.4,377.8c-4.2,4.2-9.6,6.2-15.1,6.2s-10.9-2.1-15.1-6.2
				c-8.3-8.3-8.3-21.8,0-30.2l91.6-91.6l-91.6-91.6c-8.3-8.3-8.3-21.8,0-30.2c8.3-8.4,21.8-8.3,30.2,0L335.1,240.9z"/>
		</g>
		<g>
		</g>
	</g>
</g>
</svg>
