<?xml version="1.0" encoding="utf-8"?>
<!-- Generator: Adobe Illustrator 25.2.1, SVG Export Plug-In . SVG Version: 6.00 Build 0)  -->
<svg version="1.1" id="Capa_1" xmlns="http://www.w3.org/2000/svg" xmlns:xlink="http://www.w3.org/1999/xlink" x="0px" y="0px"
	 viewBox="0 0 310.4 310.4" style="enable-background:new 0 0 310.4 310.4;" xml:space="preserve">
<g>
	<g>
		<path d="M253.4,203.5c43-43,43-113.1,0-156.1c-43-43-113.1-43-156.1,0c-36.5,36.5-42,90.8-16.6,133.2c0,0,1.8,3.1-0.6,5.5
			c-14.1,14.1-56.3,56.3-56.3,56.3c-11.2,11.2-13.9,26.9-3.9,36.8l1.7,1.7c9.9,9.9,25.6,7.3,36.8-3.9c0,0,42.1-42.1,56.2-56.2
			c2.6-2.6,5.6-0.8,5.6-0.8C162.6,245.5,216.9,240,253.4,203.5z M117.7,183.1c-31.8-31.8-31.8-83.5,0-115.3
			c31.8-31.8,83.5-31.8,115.3,0c31.8,31.8,31.8,83.5,0,115.3C201.3,214.9,149.5,214.9,117.7,183.1z"/>
		<g>
			<path d="M124.8,118.9c-1.5,0-3-0.3-4.4-0.9c-5.8-2.5-8.5-9.1-6.1-14.9c15.4-36.4,57.6-53.5,94-38.1c5.8,2.5,8.5,9.1,6.1,14.9
				c-2.5,5.8-9.1,8.5-14.9,6.1c-24.8-10.5-53.6,1.1-64.1,26C133.4,116.3,129.2,118.9,124.8,118.9z"/>
		</g>
	</g>
</g>
</svg>
