<?xml version="1.0" encoding="utf-8"?>
<!-- Generator: Adobe Illustrator 25.2.0, SVG Export Plug-In . SVG Version: 6.00 Build 0)  -->
<svg version="1.1" id="Capa_1" xmlns="http://www.w3.org/2000/svg" xmlns:xlink="http://www.w3.org/1999/xlink" x="0px" y="0px"
	 viewBox="0 0 310.4 310.4" style="enable-background:new 0 0 310.4 310.4;" xml:space="preserve">
<style type="text/css">
	.st0{fill:none;stroke:#000000;stroke-width:7.2;stroke-miterlimit:10;}
</style>
<g>
	<g>
		<path class="st0" d="M252.8,204.5c40.5-40.5,40.5-106.4,0-146.9s-106.4-40.5-146.9,0c-34.3,34.3-39.5,85.5-15.6,125.3
			c0,0,1.7,2.9-0.6,5.2c-13.2,13.2-53,53-53,53c-10.5,10.5-13.1,25.3-3.7,34.6l1.6,1.6c9.4,9.4,24.1,6.9,34.6-3.7
			c0,0,39.7-39.7,52.8-52.8c2.4-2.4,5.3-0.7,5.3-0.7C167.4,244.1,218.5,238.8,252.8,204.5z M125.2,185.4
			c-29.9-29.9-29.9-78.6,0-108.5c29.9-29.9,78.6-29.9,108.4,0c29.9,29.9,29.9,78.6,0,108.5C203.8,215.2,155,215.2,125.2,185.4z"/>
	</g>
</g>
</svg>
