<?xml version="1.0" encoding="utf-8"?>
<!-- Generator: Adobe Illustrator 25.2.1, SVG Export Plug-In . SVG Version: 6.00 Build 0)  -->
<svg version="1.1" id="Layer_1" xmlns="http://www.w3.org/2000/svg" xmlns:xlink="http://www.w3.org/1999/xlink" x="0px" y="0px"
	 viewBox="0 0 24 24" style="enable-background:new 0 0 24 24;" xml:space="preserve">
<path d="M5.3,8.6c0.4-6.3,3.9-6.8,4.1-6.8h0.1c0.8,0,1.4,0.3,2.1,0.7c0.3,0.2,0.7,0.2,1,0C13.2,2,14,1.8,14.7,1.8h0.1
	c0.2,0,3.8,0.5,4.1,6.9c0,0.3-0.1,0.6-0.4,0.7c-2.1,0.8-4.2,1.1-6.4,1c-2.2,0.1-4.3-0.3-6.4-1C5.5,9.2,5.3,8.9,5.3,8.6z M21.2,10.3
	c-0.3-0.2-0.6-0.2-0.8,0c-1,0.5-3.6,1.7-8.3,1.7s-7.2-1.2-8.2-1.7c-0.3-0.2-0.7-0.2-0.9,0c-0.7,0.4-1,1-1.1,1.7
	c0,3.1,5.3,3.4,10.2,3.4s10.2-0.3,10.2-3.4C22.2,11.2,21.8,10.7,21.2,10.3z M15.9,16.2c-1.2,0-2.3,0.8-2.7,1.9
	c-0.7-0.2-1.4-0.2-2.2,0c-0.7-1.5-2.3-2.3-3.9-1.6c-1.5,0.7-2.3,2.3-1.7,3.9c0.7,1.5,2.3,2.3,3.9,1.6c0.9-0.4,1.6-1.2,1.8-2.2
	c0.3-0.1,0.6-0.2,0.9-0.2c0.3,0,0.7,0.1,0.9,0.2c0.4,1.6,1.9,2.6,3.5,2.3c1.6-0.4,2.6-1.9,2.3-3.5C18.6,17.2,17.4,16.2,15.9,16.2z"
	/>
</svg>
