<?xml version="1.0" encoding="utf-8"?>
<!-- Generator: Adobe Illustrator 25.1.0, SVG Export Plug-In . SVG Version: 6.00 Build 0)  -->
<svg version="1.1" id="Capa_1" xmlns="http://www.w3.org/2000/svg" xmlns:xlink="http://www.w3.org/1999/xlink" x="0px" y="0px"
	 viewBox="0 0 512 512" style="enable-background:new 0 0 512 512;" xml:space="preserve">
<style type="text/css">
	.st0{fill:#AEE993;}
	.st1{fill:#85C782;}
	.st2{fill:#8F5041;}
	.st3{fill:#773941;}
	.st4{fill:#5F2241;}
	.st5{fill:#404A4A;}
</style>
<g>
	<g>
		<path class="st0" d="M115.1,419.9h23.4c10.1,0,19.4-4.7,25.4-12.8c6.1-8.1,7.9-18.4,5.1-28.1l-3.3-11.4c0-0.2-0.2-0.6,0.2-1.1
			c0.4-0.5,0.8-0.5,0.9-0.5c33.4-0.7,65-4.5,88.9-10.8c12.3-3.2,24.5-7.1,36.4-11.7l-1.1,43.6c-0.2,8.7,3,16.9,9,23.1
			c6,6.2,14.1,9.6,22.8,9.6h26.2c9.4,0,18.2-4.1,24.3-11.3c6.1-7.2,8.6-16.7,7.1-26l-6.4-38c-4.1-24.2,4.6-48.4,23.3-64.7
			c24.9-21.8,106.2-79.4,107-80c4.1-2.9,6.5-7.6,6.3-12.7c-0.1-4.8-2-47.6-29.8-69.5c-9.8-7.7-26.9-15.7-52.8-10.1
			c-43.2,9.5-52.6,34.7-61.7,59.1c-5.3,14.2-10.7,28.9-23.2,44.4L57.5,275.1c-1.3,0.3-2.6,0.8-3.8,1.4L9.1,300.6
			c-5.2,2.8-8.2,8.4-7.8,14.2c0.4,5.9,4.2,11,9.7,13c8,3,16.9,7.6,26.3,12.5c14.5,7.5,30.4,15.7,47.3,20.1l-1.2,26
			c-0.4,8.7,2.8,17.3,8.8,23.6C98,416.3,106.4,419.9,115.1,419.9L115.1,419.9z"/>
	</g>
	<path class="st1" d="M9.1,300.6l44.5-24.1c1.2-0.7,2.5-1.1,3.8-1.4L256,230.7v124.5c-0.1,0-0.2,0-0.2,0.1
		c-23.9,6.3-55.5,10.1-88.9,10.8c-0.2,0-0.6,0-0.9,0.5c-0.4,0.5-0.2,1-0.2,1.1l3.3,11.4c2.8,9.7,0.9,20-5.1,28.1
		s-15.3,12.8-25.4,12.8h-23.4c-8.7,0-17-3.6-23-9.9c-6-6.3-9.2-14.9-8.8-23.6l1.2-26c-16.8-4.4-32.8-12.6-47.3-20.1
		c-9.4-4.8-18.2-9.4-26.3-12.5c-5.5-2.1-9.3-7.2-9.7-13C0.9,309,3.9,303.4,9.1,300.6L9.1,300.6z"/>
	<g>
		<path class="st2" d="M246,186.8l67.4,66.9c14.6-7.8,29.2-16.8,44.1-26.9c5.6-3.8,7.9-10.8,5.8-17.2c-3.3-9.9-9.9-25.1-22.5-40.3
			c-16.3-19.6-42.6-39.2-84.8-47.5L246,186.8z"/>
	</g>
	<g>
		<path class="st3" d="M193.6,199.5l18.7,89.2c36.3-5.8,68.6-17.6,101.1-35L256,176.8L193.6,199.5z"/>
	</g>
	<path class="st4" d="M256,278.4c-14.1,4.5-28.5,8-43.6,10.4l-18.7-89.2l62.4-22.7V278.4z"/>
	<g>
		<path class="st4" d="M62.3,288.9l51.3,3.9l40.6-104.1L133.1,141c-52.9,35.2-75.7,98.5-84,129.1C46.6,279.1,53,288.2,62.3,288.9
			L62.3,288.9z"/>
	</g>
	<g>
		<path class="st5" d="M431.3,185.7c-7.8,0-15.3-6.9-14.9-15c0.4-8.1,6.6-15,14.9-15c7.8,0,15.3,6.9,14.9,15
			C445.9,178.8,439.7,185.7,431.3,185.7z"/>
	</g>
	<g>
		<path class="st2" d="M113.6,292.9h44.2c19.3,0,37.4-1.4,54.6-4.1l-8.8-79.2l-30.9-6.6l-28.5-4.2L113.6,292.9z"/>
	</g>
	<g>
		<path class="st3" d="M133.1,141l11.1,57.7l59.4,10.8l52.4-32.7v-54.9c-10.5-1.5-31.9-4-44.4-4C180.1,117.8,154.3,126.9,133.1,141
			L133.1,141z"/>
	</g>
</g>
</svg>
