<?xml version="1.0" encoding="utf-8"?>
<!-- Generator: Adobe Illustrator 25.2.1, SVG Export Plug-In . SVG Version: 6.00 Build 0)  -->
<svg version="1.1" id="Capa_1" xmlns="http://www.w3.org/2000/svg" xmlns:xlink="http://www.w3.org/1999/xlink" x="0px" y="0px"
	 viewBox="0 0 31.6 17.5" style="enable-background:new 0 0 31.6 17.5;" xml:space="preserve">
<path d="M10.8,11.4c-0.3-0.2-0.5-0.5-0.8-0.7c-0.1-0.2-0.4-0.2-0.6-0.3s-1-0.4-1.2-0.2s-0.5,0.2-0.6,0S7.4,9.8,7.2,9.8
	S7.1,9.6,7.1,9.4S7,9.1,6.9,9.2S6.4,9.6,6.3,9.5S6,8.6,6.4,8.5C6.7,8.4,7,8.4,7.3,8.6C7.4,8.7,7.5,9,7.6,9s0-0.3,0.1-0.5
	S8.1,8,8.2,7.8s0.2-0.4,0.3-0.5C8.7,7.2,8.9,7.1,9,6.9c0.2-0.1,0.4-0.2,0.5-0.3s0.5-0.3,0.6-0.2s0.2,0,0.1-0.2
	C10.1,5.8,10,5.5,9.8,5.1C9.6,4.9,9.5,4.7,9.4,4.5C9.3,4.2,9.2,4,9.1,4.2S8.9,4.6,8.8,4.4S8.7,4.1,8.6,4C8.5,3.9,8.4,3.9,8.2,3.9
	c-0.2,0-0.3,0-0.3,0.2s-0.2,0.4,0,0.6s0.2,0.4,0,0.5s0,0.5-0.1,0.5s-0.2,0-0.2-0.1s0.1-0.4-0.2-0.4C7.2,5.1,7,5,6.8,4.9
	C6.6,4.7,6.5,4.8,6.5,4.5s0-0.4,0.2-0.6s0.2-0.3,0.4-0.2s0.3,0.1,0.3,0s0.3,0,0.3-0.2S7.5,3.4,7.5,3.3s0.1-0.1,0.2-0.4
	S7.5,2.1,7.2,2.2S6.6,2.6,6.5,2.4s-0.2-0.1-0.6,0c-0.6,0.1-1.2,0-1.7-0.2c0,0-0.2-0.1-0.4,0c-0.2,0.1-0.5,0.1-0.7,0
	C3,2.2,2.9,2.3,2.7,2.3C2.4,2.2,2.1,2.1,1.8,2C1.6,1.9,1.4,1.9,1.3,1.9S0.9,1.8,0.8,1.9S0.5,2.2,0.4,2.3S0.1,2.4,0.2,2.7
	S-0.1,3.1,0,3.4s0,1,0.4,1.2s0.8,0.2,1.1,0s0.7-0.2,0.8,0S2.6,5.2,3,5.4C3.4,5.6,3.7,6,3.7,6.4c0,0.6,0.1,1.2,0.4,1.7
	C4.6,8.6,5,9.5,5.1,9.3s0-0.4,0.1-0.3c0.1,0.2,0.3,0.6,0.7,0.7S6.5,9.9,6.7,10c0.1,0.1,0.3,0.2,0.4,0.3c0.2,0.1,0.5,0.3,0.6,0.4
	c0.1,0.2,0.1,0.4,0,0.6c-0.1,0.2-0.1,0.4-0.1,0.6c0.1,0.3,0.3,0.7,0.6,0.9c0.2,0.1,0.4,0.4,0.4,0.7c-0.1,0.6-0.2,1.3-0.2,1.9
	c0,0.3-0.3,1.3,0,1.6c0.2,0.3,0.5,0.5,0.8,0.5c0.2,0,0-0.1-0.1-0.2c-0.1-0.2-0.1-0.4,0-0.6c0.1-0.1,0.1-0.3,0-0.5
	c-0.1-0.2,0-0.3,0.1-0.5c0.1-0.1,0.6-0.5,0.8-0.7s1.1-1.3,1.2-1.4c0.2-0.2,0.4-0.4,0.5-0.7c0.1-0.4,0.4-1.1,0.2-1.3
	C11.5,11.5,11.2,11.4,10.8,11.4z"/>
<path d="M13.1,1.1l0.3-0.6H9.7c0.1,0.4,0.2,0.8,0.2,1.2c0,0.3,0.1,0.2,0.2,0.4c0.1,0.2,0.1,0.3,0,0.5c-0.1,0.3,0,0.6,0.1,0.9
	c0.2,0.4,0.4,0.9,0.6,1s0.1,0.3,0.3,0.2s0.1-0.3,0.3-0.6s0.1-0.6,0.4-0.7c0.4-0.2,0.8-0.5,1.2-0.9c0.2-0.2,0.4-0.2,0.3-0.6
	C13,1.7,13,1.4,13.1,1.1z"/>
<path d="M31.1,2.6c-0.1-0.1-1-0.8-1.3-0.7c-0.4,0-0.8-0.1-1.1-0.2c-0.5-0.2-0.9-0.3-1.4-0.3c-0.5-0.1-1.1-0.2-1.6-0.4
	c-0.4-0.2-0.7-1-1.5-0.9c-0.4,0-0.9,0.2-1.3,0.3c-0.2,0.2-0.3,0.5-0.5,0.5c-0.1,0.1-0.5,0-0.5,0.2s0.1,0.7,0,0.6s-0.3-0.4-0.4-0.2
	c-0.1,0.2-0.2,0.3-0.2,0.2S21,1.8,21,1.9c-0.2,0.2-0.4,0.4-0.7,0.4c-0.1,0-0.3,0.1-0.4,0.2c-0.1,0-0.9,0.4-1,0.3s-0.2-0.1-0.3,0
	c-0.2,0-0.3-0.1-0.5-0.3c-0.2-0.2-0.2-0.1-0.4-0.4s-0.2-0.4-0.4-0.3c-0.5,0.4-1,0.8-1.4,1.3C15.6,3.6,15,4,15.3,4.2s0.4,0.2,0.5,0.4
	c0,0.1,0.1,0.3,0.1,0.4c0.1,0.1,0.3,0.3,0.5,0s0.2-0.5,0.3-0.4s0.2,0.2,0.1,0.4s-0.1,0.6-0.4,0.6s-0.6-0.2-0.7-0.1s-0.1,0.1-0.2,0.2
	S15,6.1,14.8,6.1s-0.5,0-0.3,0.2s0.4,0.6,0.2,0.6S14.1,6.8,14,7S13.9,7.4,14,7.5s0.2,0.4,0.4,0.3s0.6-0.2,0.6-0.4S15.2,7,15.4,7
	s0.8,0.3,0.8,0.4s-0.1,0.4,0,0.3s0.2-0.2,0.3-0.2s0.2,0.1,0.2,0.2s0.3,0.2,0.3,0s0.1-0.1,0.2,0s0.5,0.1,0.6,0.2
	c0.1,0.1,0.1,0.2,0,0.4c0,0,0,0,0,0c-0.1,0.2-0.4,0.3-0.6,0.1c0,0,0,0,0,0c-0.3-0.1-0.6,0.1-0.9,0S16.2,8,15.9,7.8
	c-0.5-0.1-1,0-1.4,0.1C14.2,8,14.2,8,14.1,8.1s-0.8,0.9-0.8,1.3s0.2,1.7,1.1,1.5s1.3,0,1.2,0.2s0,0.3,0.1,0.6
	c0.2,0.8,0.4,1.6,0.6,2.4c0.1,0.3,0,0.7,0.3,0.6c0.4,0,0.7-0.2,1-0.5c0.2-0.4,0.2-0.8,0.4-1s0.5-0.2,0.5-0.5s-0.1-1,0.1-1.1
	c0.3-0.3,0.6-0.7,0.9-1.2c0.1-0.3,0.2-0.4-0.1-0.4s-0.7,0-0.9-0.3c-0.2-0.3-0.3-0.5-0.4-0.8C18,9,18.2,9,18.3,9.2s0.4,0.9,0.8,0.8
	s0.9-0.3,0.9-0.5S19.8,9,19.6,9s-0.4-0.1-0.4-0.2s0-0.1,0.2,0S19.8,9,20.1,9c0.3,0.1,0.6,0.3,0.9,0.5c0.2,0.4,0.4,0.8,0.6,1.2
	c0.1,0.1,0.2,0.1,0.3-0.1c0.2-0.4,0.4-0.7,0.6-1c0.2-0.2,0.2-0.4,0.3-0.2s0.6,0.5,0.6,0.7s0,0.7,0.1,0.5s0.2-0.5,0.3-0.3
	s0.1,0.3,0.3,0.2s0.6-0.2,0.4-0.6s-0.1-0.5,0.1-0.6s1-0.2,1-0.6s-0.3-0.7-0.1-1s0.4-0.5,0.4-0.3S25.7,8.1,25.9,8s0.5-0.1,0.5-0.2
	s0-0.5,0-0.6c0.3-0.3,0.6-0.6,0.9-1c0.1-0.2,0.2-0.5,0.1-0.7S27,5.4,27.2,5.1c0.2-0.2,0.4-0.4,0.7-0.5c0.7-0.1,0.5,0.8,0.5,1
	s0,0.7,0.1,0.4c0.1-0.3,0.3-0.5,0.5-0.7c0.2-0.2,0.3-0.3,0.3-0.5s0-0.2,0.2-0.3s1.1-0.4,1.1-0.7s-0.1-0.4,0.1-0.4s0.4,0.2,0.5,0.1
	s0.3-0.3,0.3-0.5S31.3,2.6,31.1,2.6z"/>
<path d="M27.4,6.6c-0.1,0.2-0.2,0.3-0.2,0.5c0,0.2-0.1,0.3-0.2,0.4c-0.1,0.2-0.3,0.2-0.5,0.4c-0.1,0.1-0.2,0.2-0.2,0.4
	c-0.1,0.2,0.6-0.3,0.9-0.4s0.2-0.3,0.2-0.6c0-0.2,0.1-0.3,0.2-0.4c0.1-0.1,0-0.3,0-0.5S27.5,6.5,27.4,6.6z"/>
<path d="M25,12.1c0.1-0.1,0-0.2,0.1-0.2s0.2,0.1,0.4,0s0.3,0,0.2-0.2s0-0.3,0-0.5s-0.2-0.2-0.4,0S25,11.7,25,11.6s0.1-0.3,0-0.4
	s0-0.2-0.2-0.1s-0.4,0.1-0.4,0.2s-0.2,0.4-0.3,0.2c-0.2-0.2-0.4-0.3-0.5-0.5c0,0-0.5-0.4-0.3-0.2s0.4,0.7,0.5,0.9s0.2,0.3,0.4,0.3
	s0.2-0.1,0.4,0S25,12.2,25,12.1z"/>
<path d="M27.9,11.8c-0.2-0.1-0.1-0.2-0.4-0.2s-0.5,0-0.5,0s-0.4-0.2-0.4,0s0.4,0.2,0.4,0.3S26.9,12,27,12s0.2,0.2,0.5,0.2
	s0.3,0.1,0.4,0.1s0.3,0,0.3-0.1C28.1,12.1,28,12.1,28,12C28.1,11.9,28.1,11.9,27.9,11.8z"/>
<path d="M27.8,12.9c-0.1-0.2-0.3-0.7-0.3-0.5c-0.1,0.2-0.3,0.3-0.5,0.4c-0.1,0,0-0.1,0-0.2s-0.1-0.2-0.3-0.1s-0.3,0.3-0.4,0.3
	c-0.1-0.1-0.3,0-0.4,0.1c-0.1,0.1-0.2,0.4-0.4,0.4s-0.6,0.1-0.6,0.3S25,14,25,14.2s-0.2,0.5,0.1,0.6c0.1,0.1,0.3,0.1,0.5,0
	c0.3-0.2,0.7-0.3,1.1-0.3c0.1,0.1,0.3,0.3,0.4,0.3s0.2,0.3,0.4,0.3c0.1,0,0.3,0.1,0.4,0.1c0.2,0,0.3-0.1,0.4-0.3
	c0.1-0.2,0.2-0.6,0.2-0.8c0.1-0.2,0.1-0.4,0-0.6C28.2,13.5,27.9,13.2,27.8,12.9z"/>
<path d="M13.9,3.8c0,0,0,0.1,0,0.1c0,0,0,0-0.1,0.1c0,0.1,0,0.1,0,0.2c0,0,0,0,0.2,0.1c0,0,0.1,0,0.1,0c0.1,0.1,0,0.2,0,0.2
	c-0.1,0.2-0.2,0.3-0.2,0.4c0,0,0,0,0,0.1c0,0,0,0.1,0,0.1c0,0,0,0.1,0,0.1c0,0.1,0,0.2,0,0.2c0.1,0.1,0.4,0,0.6-0.1
	c0.2-0.1,0.3-0.2,0.3-0.2c0.1-0.1,0.1-0.2,0.2-0.2C15,5,15,4.9,15,4.8c0,0,0-0.1-0.1-0.2c-0.1-0.1-0.2,0-0.2-0.1c0,0,0,0,0-0.1
	c0-0.2-0.1-0.2-0.1-0.3c0-0.1-0.1-0.2-0.1-0.2c0-0.2,0.2-0.2,0.1-0.4c0,0,0-0.1-0.1-0.2c-0.1,0-0.1,0-0.3-0.1c0,0,0,0,0,0
	c-0.1,0-0.3,0-0.3,0.1C13.8,3.4,13.8,3.5,13.9,3.8z"/>
<path d="M12.9,3.5c0,0,0.1,0.1,0.2,0.1c0.1,0,0.3,0,0.3-0.1c0.1-0.2-0.2-0.4-0.2-0.4C13.1,3.1,13,3,12.9,3c0,0-0.1,0-0.3,0.3
	c-0.2,0.2-0.3,0.3-0.2,0.3c0,0.1,0.3,0,0.5,0"/>
<path d="M13.3,3.2"/>
<path d="M14.3,2.9C14.3,2.9,14.3,2.9,14.3,2.9C14.2,2.9,14.2,2.9,14.3,2.9c-0.1,0-0.1,0.4,0,0.4C14.3,3.3,14.4,2.9,14.3,2.9
	C14.3,2.9,14.3,2.9,14.3,2.9z"/>
<path d="M14.2,3.2"/>
<path d="M14.4,2.8c0,0.1-0.1,0.1-0.2,0c0,0,0-0.1,0-0.1c0-0.1,0.1-0.1,0.2-0.1C14.4,2.7,14.4,2.8,14.4,2.8z"/>
</svg>
