<svg id="Layer_1" enable-background="new 0 0 511.237 511.237" height="512" viewBox="0 0 511.237 511.237" width="512" xmlns="http://www.w3.org/2000/svg"><path d="m471.552 63.87c-4.782-23.085-22.789-41.092-45.878-45.875-115.96-23.994-224.021-23.995-340.101.008-23.101 4.769-41.117 22.778-45.899 45.881-23.98 115.892-23.985 224.079.01 340.102 4.78 23.093 22.787 41.104 45.875 45.887 26.674 5.526 53.9 9.85 81.067 12.901 41.538 64.518 136.327 64.721 177.992-.012 27.064-3.043 54.283-7.365 81.046-12.896 23.1-4.77 41.116-22.779 45.898-45.881 23.978-115.88 23.988-224.054-.01-340.115zm-150.973 15.969c2.813-11.251 14.212-18.091 25.466-15.28l42.667 10.667c11.251 2.813 18.093 14.214 15.28 25.466-2.385 9.542-10.948 15.912-20.357 15.912-3.615 0-2.028.138-47.775-11.298-11.252-2.813-18.094-14.215-15.281-25.467zm-198.054-4.613 42.667-10.667c11.254-2.811 22.653 4.028 25.466 15.28s-4.028 22.653-15.28 25.466c-45.963 11.491-44.215 11.298-47.775 11.298-9.41 0-17.972-6.369-20.357-15.912-2.813-11.251 4.028-22.652 15.279-25.465zm-6.363 101.524c8.201-8.201 21.497-8.201 29.698 0 10.528 10.528 27.658 10.527 38.184 0 8.201-8.201 21.497-8.201 29.698 0s8.201 21.498 0 29.698c-26.904 26.904-70.679 26.902-97.581 0-8.2-8.2-8.2-21.497.001-29.698zm229.731 136.365c-49.898 49.899-130.657 49.892-180.548 0-8.201-8.201-8.201-21.498 0-29.698 8.201-8.201 21.498-8.201 29.698 0 33.482 33.482 87.673 33.479 121.151 0 8.2-8.201 21.497-8.201 29.698 0 8.202 8.2 8.202 21.497.001 29.698zm52.575-106.667c-26.904 26.904-70.679 26.902-97.581 0-8.201-8.201-8.201-21.498 0-29.698 8.201-8.201 21.497-8.201 29.698 0 10.528 10.528 27.658 10.527 38.184 0 8.201-8.201 21.497-8.201 29.698 0 8.202 8.201 8.202 21.498.001 29.698z"/></svg>