<?xml version="1.0" encoding="utf-8"?>
<!-- Generator: Adobe Illustrator 25.1.0, SVG Export Plug-In . SVG Version: 6.00 Build 0)  -->
<svg version="1.1" id="Capa_1" xmlns="http://www.w3.org/2000/svg" xmlns:xlink="http://www.w3.org/1999/xlink" x="0px" y="0px"
	 viewBox="0 0 512 512" style="enable-background:new 0 0 512 512;" xml:space="preserve">
<style type="text/css">
	.st0{fill:#BA4C4D;}
	.st1{fill:#801214;}
	.st2{fill:#FA8D8D;}
</style>
<g>
	<circle class="st0" cx="256" cy="256" r="256"/>
	<path class="st1" d="M404,200.3l-23.2-23.2l-2.3,2.3l-31.5-31.5l-18.4,18.4l-80.5-80.5l-22.2,33.7l-21.6-21.6l-17.2,17.2l23.6,23.6
		l-2.5,2.5l-37.5-37.5l-17.2,17.2l14.7,14.7l-4.6,4.6l-22.1-22.1l-17.2,17.2l17.3,17.3l-6.9,6.9L117,141.8l-13.8,13.8l20.1,20.1
		L156,351.8l154.4,154.4c101.9-22,181.2-104.7,198.2-208.4L407.5,196.8L404,200.3z"/>
	<g>
		<g>
			
				<ellipse transform="matrix(0.401 -0.9161 0.9161 0.401 46.9004 279.7458)" class="st2" cx="237.4" cy="104" rx="21.2" ry="17.5"/>
			<circle class="st2" cx="195.7" cy="106.5" r="12.2"/>
			<g>
				<circle class="st2" cx="162.2" cy="112.3" r="12.2"/>
				<circle class="st2" cx="132.9" cy="126.8" r="12.2"/>
				<circle class="st2" cx="110.2" cy="148.7" r="9.7"/>
			</g>
		</g>
		<path class="st2" d="M179.9,131.7c-2.4,0.4-5,0.9-7.6,1.5c-47.7,11.1-57.3,40-59.2,61.1c-4.6,51.7,7.7,103.5,35.2,147.5l1.4,2.2
			c6.8,10.9,17.9,17.8,30.1,19.5l18.3-116L179.9,131.7z"/>
		<path class="st2" d="M244.8,161c-8.4-15.6-23.1-36.3-64.9-29.2v231.9c4.7,0.7,9.6,0.6,14.5-0.4c12.9-2.6,23.8-11.1,29.6-22.9
			l2.4-4.8c4.8-9.8,5.7-21.1,2.4-31.5l-5.3-17c-3.1-9.8-2.5-20.3,1.5-29.7C225,257.4,257.1,183.7,244.8,161L244.8,161z"/>
	</g>
	<g>
		<g>
			
				<ellipse transform="matrix(5.397526e-02 -0.9985 0.9985 5.397526e-02 153.7879 491.3365)" class="st2" cx="336.2" cy="164.5" rx="21.2" ry="17.5"/>
			<circle class="st2" cx="372.2" cy="185.7" r="12.2"/>
			<g>
				<circle class="st2" cx="399.5" cy="205.9" r="12.2"/>
				<circle class="st2" cx="419.1" cy="231.9" r="12.2"/>
				<circle class="st2" cx="429.6" cy="261.8" r="9.7"/>
			</g>
		</g>
		<path class="st2" d="M303.8,212.2c14.6-10.1,37-22,71.1,3.1l-36,111.1l-68.3,96c-4.5-1.5-8.9-3.8-12.8-6.9
			c-10.3-8.2-16.3-20.6-16.1-33.8l0.1-5.4c0.1-10.9,4.4-21.4,12-29.2l12.4-12.8c7.1-7.3,11.4-17,12-27.2
			C278.2,307.2,282.6,226.9,303.8,212.2z"/>
		<path class="st2" d="M374.9,215.3c2,1.5,4,3,6.1,4.8c37.6,31.3,33.2,61.5,25.3,81.2c-19.1,48.3-53.5,89-97.8,115.9l-2.3,1.4
			c-10.9,6.6-24,7.9-35.7,3.9L374.9,215.3z"/>
	</g>
</g>
</svg>
