<?xml version="1.0" encoding="utf-8"?>
<!-- Generator: Adobe Illustrator 25.1.0, SVG Export Plug-In . SVG Version: 6.00 Build 0)  -->
<svg version="1.1" id="Capa_1" xmlns="http://www.w3.org/2000/svg" xmlns:xlink="http://www.w3.org/1999/xlink" x="0px" y="0px"
	 viewBox="0 0 512 512" style="enable-background:new 0 0 512 512;" xml:space="preserve">
<style type="text/css">
	.st0{fill:#8C1E1F;}
	.st1{fill:#8F2526;}
	.st2{fill:#FF9494;}
	.st3{fill:#C7595A;}
	.st4{fill:#9C3D3E;}
</style>
<g>
	<path class="st0" d="M512,256c0,100.6-58.1,187.7-142.5,229.5c-34.2,17-72.7-30-113.5-30c-26.7,0-52.4-4.1-76.6-11.7
		c-25.6-8-49.5,36.6-70.9,21.4C42.9,418.9,0,342.5,0,256C0,114.6,114.6,0,256,0S512,114.6,512,256z"/>
	<g>
		<path class="st1" d="M369.5,485.5c-34.2,17-72.7,26.5-113.5,26.5c-54.9,0-105.8-17.3-147.5-46.8c13.1-47.8,56.8-83,108.8-83h39.8
			C316.2,382.3,364.7,427.7,369.5,485.5z"/>
		<path class="st0" d="M274.6,383.6c-54,8.4-95.3,55.1-95.3,111.4v5.3c-25.6-8-49.5-20-70.9-35.1c13.1-47.8,56.8-83,108.8-83H257
			C263.1,382.3,268.9,382.8,274.6,383.6z"/>
		<path class="st2" d="M317.7,377.3h-69.6l-0.8-0.8l-0.8,0.8h-0.9h-17h-0.9l-0.8-0.8l-0.8,0.8h-69.6c-11.6,0-21,9.4-21,21
			s9.4,21,21,21h8.2c7.2,0,10.7,8.7,5.7,13.7l-6.4,6.4c-8.2,8.2-8.2,21.5,0,29.7s21.5,8.2,29.7,0l8.6-8.6c5.1-5.1,13.7-1.5,13.7,5.7
			v14.5c0,11.6,9.4,21,21,21s21-9.4,21-21v-14.5c0-7.2,8.7-10.7,13.7-5.7l8.6,8.6c8.2,8.2,21.5,8.2,29.7,0s8.2-21.5,0-29.7l-6.4-6.4
			c-5.1-5.1-1.5-13.7,5.7-13.7h8.2c11.6,0,21-9.4,21-21C338.6,386.7,329.2,377.3,317.7,377.3z"/>
		<circle class="st3" cx="102.8" cy="249.8" r="49.5"/>
		<path class="st3" d="M80.7,249.8c0,6.3,2.7,12.1,7,16.1c0.6-5.4,5.2-9.6,10.7-9.6c5.9,0,10.8,4.8,10.8,10.8c0,1.5-0.3,2.9-0.8,4.1
			c9.5-2.5,16.5-11.1,16.5-21.4c0-12.2-9.9-22.1-22.1-22.1S80.7,237.6,80.7,249.8L80.7,249.8z"/>
		<path class="st4" d="M195.1,335.2v63.1c0,23.2,18.8,42.1,42.1,42.1s42.1-18.8,42.1-42.1v-63.1H195.1z"/>
		<path class="st3" d="M250.3,438.3c-4.1,1.3-8.5,2.1-13.1,2.1c-23.2,0-42.1-18.8-42.1-42.1v-63.1h26.1v63.1
			C221.3,417,233.4,432.8,250.3,438.3z"/>
		<path class="st3" d="M195.1,335.2v56c11.9,3.1,24.3,4.7,37.2,4.7h47v-60.7H195.1z"/>
		<path class="st4" d="M235.1,110h86.7c72.3,0,130.9,58.6,130.9,130.9s-58.7,130.8-131,130.8H235c-72.3,0-130.9-58.6-130.9-130.9
			C104.2,168.6,162.8,110,235.1,110L235.1,110z"/>
		<path class="st2" d="M309.8,127.9v19.9h92.1v-17.9c0-25.9,17.7-47,39.5-47s39.5,21,39.5,47v17.9h13.9v-19.9
			c0-60.7-41.4-109.9-92.5-109.9C351.1,18,309.8,67.2,309.8,127.9z"/>
		<path class="st2" d="M429.8,23c-37.6,14-64.9,55.6-64.9,104.9v19.9h-55.2v-19.9c0-60.7,41.4-109.9,92.5-109.9
			C411.8,18,421.1,19.8,429.8,23z"/>
		<path class="st2" d="M258.4,38.4h71.7v106.5h-71.7L258.4,38.4L258.4,38.4z"/>
		<path class="st3" d="M258.4,125.3c-41.3,22-69.4,65.5-69.4,115.5c0,36.1,14.6,68.8,38.3,92.5c23.7,23.7,56.4,38.3,92.5,38.3h-85
			c-36.1,0-68.8-14.6-92.5-38.3c-23.7-23.7-38.3-56.4-38.3-92.5c0-72.3,58.6-130.8,130.8-130.8"/>
		<path class="st2" d="M173.2,204.6c0-10.5-8.5-19-19-19h-2.9v-27.8H110v76.9c0,15,12.1,27.1,27.1,27.1h17.1c10.5,0,19-8.5,19-19
			s-8.5-19-19-19C164.7,223.7,173.2,215.1,173.2,204.6L173.2,204.6z"/>
		<path class="st2" d="M327.2,213.5c0,11.4,3.8,21.9,10.2,30.3c4.2-5.5,9.5-10.1,15.5-13.5c7.2-4,5.9-18.3,14.8-18.3
			c3.8,0,17.1,12.4,20.6,13.2c11.7,2.6,21.9,9.4,28.9,18.6c6.4-8.4,10.2-18.9,10.2-30.3c0-27.7-22.5-50.2-50.2-50.2
			C349.6,163.4,327.2,185.8,327.2,213.5L327.2,213.5z"/>
		<path class="st2" d="M345.6,213.5c0,6.6,2.8,12.6,7.3,16.8c7.2-4,15.5-6.3,24.4-6.3c3.8,0,7.5,0.4,11,1.2c2-3.4,3.2-7.4,3.2-11.7
			c0-12.7-10.3-23-23-23C355.9,190.6,345.6,200.9,345.6,213.5L345.6,213.5z"/>
		<path class="st2" d="M189.5,213.5c0,11.4,3.8,21.9,10.2,30.3c5.5-7.3,13-13,21.7-16.4c5.7-2.2,11.8-22.9,18.3-22.9
			c6.4,0,12.6,20.7,18.3,22.9c8.7,3.4,16.1,9.1,21.7,16.4c6.4-8.4,10.2-18.9,10.2-30.3c0-27.7-22.5-50.1-50.2-50.1
			S189.5,185.8,189.5,213.5L189.5,213.5z"/>
		<path class="st2" d="M216.7,213.5c0,5.2,1.8,10.1,4.7,13.9c5.7-2.2,11.8-3.4,18.3-3.4c6.4,0,12.6,1.2,18.3,3.4
			c3-3.9,4.7-8.7,4.7-13.9c0-12.7-10.3-23-23-23S216.7,200.8,216.7,213.5z"/>
		<path class="st3" d="M355.9,252.2c-12.8,12.8-33.6,12.8-46.5,0l-5.7-5.7l23.2-23.2c8-8,21-8,28.9,0
			C363.8,231.2,363.8,244.2,355.9,252.2z"/>
		<circle class="st2" cx="473.7" cy="148.7" r="37.6"/>
		<path class="st2" d="M487.7,183.5c-4.3,1.7-9.1,2.7-14,2.7c-20.7,0-37.6-16.8-37.6-37.6c0-20.7,16.8-37.6,37.6-37.6
			c5,0,9.7,1,14,2.7c-13.8,5.6-23.5,19.1-23.5,34.8C464.2,164.4,473.9,178,487.7,183.5z"/>
		<path class="st1" d="M246.8,127.9v19.9H137.4v-17.9c0-25.9-21-47-47-47c-25.9,0-47,21-47,47v17.9H27v-19.9
			C27,67.2,76.2,18,136.9,18S246.8,67.2,246.8,127.9z"/>
		<path class="st0" d="M173.2,137.2c-0.5,3.7-1.4,7.3-2.7,10.6h-33.1v-17.9c0-25.9-21-47-47-47c-25.9,0-47,21-47,47v17.9H27v-19.9
			C27,67.2,76.2,18,136.9,18C136.9,18,184.8,50,173.2,137.2L173.2,137.2z"/>
		<path class="st2" d="M341.1,64.2v83.6h-25.5V64.5c0-7.5-6.1-13.6-13.6-13.6s-13.6,6.1-13.6,13.6v83.3h-75.7V64.2
			c0-35.4,28.7-64.2,64.2-64.2S341.1,28.7,341.1,64.2z"/>
		<path class="st2" d="M299.6,4.1c-24.2,9.2-41.5,32.6-41.5,60.1v83.6h-45.4V64.2c0-35.4,28.7-64.2,64.2-64.2
			C284.9,0,292.5,1.5,299.6,4.1z"/>
		<path class="st2" d="M123.4,169.5h305.9c16.3,0,29.6-13.2,29.6-29.6s-13.2-29.6-29.6-29.6c-10.9,0-20.3,5.9-25.5,14.6
			c-5.1-8.7-14.6-14.6-25.5-14.6s-20.3,5.9-25.5,14.6c-5.1-8.7-14.6-14.6-25.5-14.6s-20.3,5.9-25.5,14.6
			c-5.1-8.7-14.6-14.6-25.5-14.6s-20.3,5.9-25.5,14.6c-5.1-8.7-14.6-14.6-25.5-14.6s-20.3,5.9-25.5,14.6
			c-5.1-8.7-14.6-14.6-25.5-14.6s-20.3,5.9-25.5,14.6c-5.1-8.7-14.6-14.6-25.5-14.6c-16.3,0-29.6,13.2-29.6,29.6
			S107,169.5,123.4,169.5L123.4,169.5z"/>
		<path class="st2" d="M203.2,169.5h-79.9c-16.3,0-29.6-13.2-29.6-29.6c0-16.3,13.2-29.6,29.6-29.6c10.9,0,20.3,5.9,25.5,14.6
			c5.1-8.7,14.6-14.6,25.5-14.6c5.2,0,10.2,1.4,14.4,3.8c-9,5.1-15.1,14.7-15.1,25.8C173.6,156.3,186.9,169.5,203.2,169.5z"/>
		<circle class="st2" cx="38.4" cy="148.7" r="37.6"/>
		<circle class="st1" cx="333" cy="131.1" r="37.6"/>
		<path class="st0" d="M347,165.9c-4.3,1.7-9.1,2.7-14,2.7c-20.7,0-37.6-16.8-37.6-37.6c0-20.7,16.8-37.6,37.6-37.6
			c5,0,9.7,1,14,2.7c-13.8,5.6-23.5,19.1-23.5,34.8C323.5,146.8,333.2,160.3,347,165.9z"/>
		<path class="st2" d="M52.4,183.5c-4.3,1.7-9.1,2.7-14,2.7c-20.7,0-37.6-16.8-37.6-37.6c0-20.7,16.8-37.6,37.6-37.6
			c5,0,9.7,1,14,2.7c-13.8,5.6-23.5,19.1-23.5,34.8C28.9,164.4,38.6,178,52.4,183.5z"/>
		<path class="st2" d="M237.6,268.5c0,29,23.5,52.5,52.5,52.5s52.5-23.5,52.5-52.5"/>
	</g>
</g>
</svg>
