<svg height="512" viewBox="0 0 512 512" width="512" xmlns="http://www.w3.org/2000/svg"><g id="filled_outline" data-name="filled outline"><path d="m312 232v24" fill="#fff" stroke="#000" stroke-linecap="round" stroke-linejoin="round" stroke-width="16"/><path d="m200 232v24" fill="#fff" stroke="#000" stroke-linecap="round" stroke-linejoin="round" stroke-width="16"/><path d="m224.14 24-.14 32h-32l-2 24h-31.81l1.26-40.57a16 16 0 0 1 15.99-15.43z" fill="#dcdbd6"/><path d="m144 328 208 144 16-24-176-120z" fill="#b2750a"/><path d="m368 328-208 144-16-24 176-120z" fill="#d78e0c"/><path d="m136 328h32v136h-32z" fill="#c7830b"/><path d="m344 328h32v136h-32z" fill="#c7830b"/><path d="m224.14 24-.14 32h-32l-2 24h-31.81l1.26-40.57a16 16 0 0 1 15.99-15.43z" fill="#bbbab6"/><path d="m288 24 .14 32h32l2 24h31.81l-1.26-40.57a16 16 0 0 0 -15.99-15.43z" fill="#bbbab6"/><path d="m300 80a12 12 0 0 1 -12-12v-44h-64v44a12 12 0 0 1 -12 12h-53.807l-6.193 200h208l-6.193-200z" fill="#768753"/><path d="m136 464-8 24h48l-8-24z" fill="#bbbab6"/><path d="m344 464-8 24h48l-8-24z" fill="#bbbab6"/><path d="m136 216v80h32v-112z" fill="#a86e09"/><path d="m136 240 40-40v-32l-40 40z" fill="#c7830b"/><path d="m130 168-42 40h48l40-40z" fill="#d78e0c"/><path d="m88 208h48v32h-48z" fill="#a86e09"/><path d="m376 216v80h-32v-112z" fill="#a86e09"/><path d="m376 240-40-40v-32l40 40z" fill="#c7830b"/><path d="m382 168 42 40h-48l-40-40z" fill="#d78e0c"/><path d="m376 208h48v32h-48z" fill="#a86e09"/><path d="m344 248a334.453 334.453 0 0 1 -176 0l-48 48 56 32h160l56-32z" fill="#667447"/><path d="m392 328a593.783 593.783 0 0 1 -272 0v-32a593.783 593.783 0 0 0 272 0z" fill="#768753"/><path d="m429.568 202.263c-.019-.02-.03-.036-.051-.056l-42-40a8 8 0 0 0 -5.517-2.207h-17.712l-3.742-120.857a23.914 23.914 0 0 0 -23.985-23.143h-161.122a23.922 23.922 0 0 0 -23.986 23.181l-3.741 120.819h-17.712a8 8 0 0 0 -5.517 2.207l-42 40a7.977 7.977 0 0 0 -2.426 4.981c-.007.043-.014.085-.019.131-.01.111-.014.222-.019.334s-.019.217-.019.347v32a8 8 0 0 0 8 8h40v28.687l-13.645 13.645-.008.007-.006.008a8 8 0 0 0 -2.341 5.653v32a8 8 0 0 0 6.167 7.787q4.907 1.155 9.833 2.213v124.7l-7.589 22.768a8 8 0 0 0 7.589 10.532h48a8 8 0 0 0 7.589-10.53l-5.436-16.307 77.847-53.894 77.847 53.893-5.436 16.308a8 8 0 0 0 7.589 10.53h48a8 8 0 0 0 7.589-10.53l-7.589-22.77v-124.7q4.925-1.069 9.833-2.216a8 8 0 0 0 6.167-7.784v-32a8 8 0 0 0 -2.309-5.618c-.014-.013-.021-.025-.034-.039l-.008-.007-13.649-13.649v-28.687h40a8 8 0 0 0 8-8v-32a7.968 7.968 0 0 0 -2.432-5.737zm-25.568-2.263h-24.687l-24-24h23.487zm-60-3.313v-9.374l24 24v9.374zm32.026 94.653a589.447 589.447 0 0 1 -240.052 0l34.426-34.426a342.763 342.763 0 0 0 171.2 0zm-232.026-80.027 24-24v9.374l-24 24zm200.555-171.637 1 32.324h-16.194l-1.389-16.665a8 8 0 0 0 -7.972-7.335h-24v-16h40.561a7.963 7.963 0 0 1 7.994 7.676zm-48.555 24.324h16.639l.667 8h-13.306a4 4 0 0 1 -4-4zm-120.561-32h40.561v16h-24a8 8 0 0 0 -7.972 7.335l-1.389 16.665h-16.2l1-32.286a7.971 7.971 0 0 1 8-7.714zm40.561 32v4a4 4 0 0 1 -4 4h-13.306l.667-8zm-50.051 24h46.051a20.023 20.023 0 0 0 20-20v-36h48v36a20.023 20.023 0 0 0 20 20h46.052l2.229 72s-14.39.214-15.343.609a8 8 0 0 0 -4.938 7.391v32a8 8 0 0 0 2.343 5.657l5.657 5.656v30.513q-7.964 2.012-16 3.617v-13.443a8 8 0 0 0 -16 0v16.228a326.92 326.92 0 0 1 -96 0v-16.228a8 8 0 0 0 -16 0v13.443q-8.034-1.605-16-3.617v-30.513l5.657-5.656a8 8 0 0 0 2.343-5.657s-.277-34.26-.609-35.062a8 8 0 0 0 -7.391-4.938h-12.281zm-32.749 88h23.487l-24 24h-24.687zm-37.2 40h32v16h-32zm48 27.313 16-16v17.374l-16 16zm15.763 100.7c-.043.81.237 111.987.237 111.987h-16v-114.742q7.862 1.484 15.763 2.752zm176.237 72.487-41.2-28.091 41.2-28.525zm-160 34.693v-15.329l126.02-85.922q11.747-.893 23.452-2.229zm0-91.309 41.2 28.524-41.2 28.092zm80 2.07-15.339-10.454q7.668.194 15.339.2t15.339-.2zm-46.02-12.012 31.82 21.694-10.436 7.116-44.834-31.039q11.699 1.349 23.45 2.229zm-70.88 130.058 2.666-8h20.468l2.666 8zm141.607-81.836 55.293 37.7v15.329l-65.945-45.655zm66.393 81.836 2.666-8h20.468l2.666 8zm20.9-24h-16v-111.95q8.019-1.29 16-2.792zm16-134.372a589.052 589.052 0 0 1 -256 0v-15.616a605.281 605.281 0 0 0 256 0zm-32-76.941v-17.374l16 16v17.374zm64-12.687h-32v-16h32z"/><path d="m200 128a8 8 0 0 0 8-8v-8a8 8 0 0 0 -16 0v8a8 8 0 0 0 8 8z"/><path d="m200 168a8 8 0 0 0 8-8v-8a8 8 0 0 0 -16 0v8a8 8 0 0 0 8 8z"/><path d="m200 208a8 8 0 0 0 8-8v-8a8 8 0 0 0 -16 0v8a8 8 0 0 0 8 8z"/><path d="m312 128a8 8 0 0 0 8-8v-8a8 8 0 0 0 -16 0v8a8 8 0 0 0 8 8z"/><path d="m312 168a8 8 0 0 0 8-8v-8a8 8 0 0 0 -16 0v8a8 8 0 0 0 8 8z"/><path d="m312 208a8 8 0 0 0 8-8v-8a8 8 0 0 0 -16 0v8a8 8 0 0 0 8 8z"/></g></svg>