<svg height="512" viewBox="0 0 512 512" width="512" xmlns="http://www.w3.org/2000/svg"><g id="filled_outline" data-name="filled outline"><path d="m256 160.552h64v32h-64z" fill="#eeb436"/><path d="m309.68 160.55h10.32v32h-10.32z" fill="#ee9d0d"/><path d="m320 168.552h64v24h-64z" fill="#d5515e"/><rect fill="#6699ce" height="288" rx="26" width="464" x="24" y="192.552"/><circle cx="144" cy="336.552" fill="#dcdbd6" r="88"/><path d="m264 192.552h198a26 26 0 0 1 26 26v236a26 26 0 0 1 -26 26h-198a0 0 0 0 1 0 0v-288a0 0 0 0 1 0 0z" fill="#dcdbd6"/><path d="m296 416.552h160v32h-160z" fill="#a6deff"/><path d="m384 160.552h64v32h-64z" fill="#eeb436"/><path d="m192 160.552h64v32h-64z" fill="#eeb436"/><path d="m245.642 160.552h10.358v32h-10.358z" fill="#ee9d0d"/><path d="m207.694-34.58a16 16 0 0 1 16 16v272a0 0 0 0 1 0 0h-32a0 0 0 0 1 0 0v-272a16 16 0 0 1 16-16z" fill="#dcdbd6" transform="matrix(.48 .877 -.877 .48 204.04 -125.306)"/><path d="m320 32a16 16 0 0 1 16 16v16a0 0 0 0 1 0 0h-32a0 0 0 0 1 0 0v-16a16 16 0 0 1 16-16z" fill="#bbbab6" transform="matrix(.48 .877 -.877 .48 208.572 -255.784)"/><path d="m73.676 164.476-11.2 5.267a25.2 25.2 0 0 0 -14.476 22.809h41.03z" fill="#bbbab6"/><path d="m437.68 160.55h10.32v32h-10.32z" fill="#ee9d0d"/><path d="m144 240.552a96 96 0 1 0 96 96 96.108 96.108 0 0 0 -96-96zm0 176a80 80 0 1 1 80-80 80.091 80.091 0 0 1 -80 80z"/><path d="m462 184.552h-6v-24a8 8 0 0 0 -8-8h-64a8 8 0 0 0 -8 8h-48a8 8 0 0 0 -8-8h-128a8 8 0 0 0 -8 8v24h-63.669s216.528-119.184 218.463-121.628a24.039 24.039 0 0 0 2.261-26.436 23.977 23.977 0 0 0 -21.155-12.481 23.849 23.849 0 0 0 -11.421 2.939l-249.406 135.554a33.358 33.358 0 0 0 -18.373 23.355 34.053 34.053 0 0 0 -24.7 32.7v236a34.038 34.038 0 0 0 34 34h412a34.038 34.038 0 0 0 34-34v-236a34.038 34.038 0 0 0 -34-34.003zm-22-16v16h-48v-16zm-64 8v8h-48v-8zm-64 8h-48v-16h48zm-112-16h48v16h-48zm95.1-116.052 7.677 14.038-210.566 115.156-7.678-14.037zm23.315-12.341a8 8 0 0 1 5.418 14.863l-7.018 3.838-7.675-14.037s8.506-4.509 9.277-4.664zm-252.531 136.823 4.385-2.062 5.268 9.632h-17.55a17.237 17.237 0 0 1 7.897-7.57zm-33.884 277.57v-236a18.021 18.021 0 0 1 18-18h206v272h-206a18.021 18.021 0 0 1 -18-18zm448 0a18.021 18.021 0 0 1 -18 18h-190v-272h190a18.021 18.021 0 0 1 18 18z"/><path d="m423.04 307.016a8 8 0 0 0 -15.68 3.181 32.362 32.362 0 0 1 .64 6.409 32 32 0 0 1 -64 0 32.362 32.362 0 0 1 .64-6.409 8 8 0 0 0 -15.68-3.181 48 48 0 1 0 94.08 0z"/><path d="m322.863 252.771a7.974 7.974 0 0 0 5.315-2.023 71.943 71.943 0 0 1 91.015-3.788 8 8 0 1 0 9.614-12.789 87.944 87.944 0 0 0 -111.264 4.622 8 8 0 0 0 5.32 13.978z"/><path d="m407.88 276.684a8 8 0 0 0 5.32-13.977 55.962 55.962 0 0 0 -74.4 0 8 8 0 1 0 10.635 11.955 39.962 39.962 0 0 1 53.131 0 7.968 7.968 0 0 0 5.314 2.022z"/><path d="m376 280.552a23.954 23.954 0 0 0 -15.936 6.078 8 8 0 1 0 10.636 11.953 7.933 7.933 0 0 1 10.6 0 8 8 0 0 0 10.635-11.953 23.954 23.954 0 0 0 -15.935-6.078z"/><circle cx="376" cy="384.552" r="8"/><circle cx="144" cy="336.552" r="8"/><circle cx="112" cy="336.552" r="8"/><circle cx="80" cy="336.552" r="8"/><circle cx="176" cy="336.552" r="8"/><circle cx="144" cy="304.552" r="8"/><circle cx="112" cy="304.552" r="8"/><circle cx="176" cy="304.552" r="8"/><circle cx="144" cy="280.552" r="8"/><circle cx="112" cy="280.552" r="8"/><circle cx="176" cy="280.552" r="8"/><circle cx="144" cy="368.552" r="8"/><circle cx="112" cy="368.552" r="8"/><circle cx="88" cy="304.552" r="8"/><circle cx="88" cy="368.552" r="8"/><circle cx="176" cy="368.552" r="8"/><circle cx="200" cy="304.552" r="8"/><circle cx="200" cy="368.552" r="8"/><circle cx="144" cy="400.552" r="8"/><circle cx="112" cy="392.552" r="8"/><circle cx="176" cy="392.552" r="8"/><circle cx="208" cy="336.552" r="8"/><circle cx="346" cy="384.552" r="6"/><circle cx="406" cy="384.552" r="6"/><path d="m456 408.552h-160a8 8 0 0 0 -8 8v32a8 8 0 0 0 8 8h160a8 8 0 0 0 8-8v-32a8 8 0 0 0 -8-8zm-88 16h16v16h-16zm-16 16h-16v-16h16zm48-16h16v16h-16zm-96 0h16v16h-16zm144 16h-16v-16h16z"/></g></svg>