<?xml version="1.0" encoding="iso-8859-1"?>
<!-- Generator: Adobe Illustrator 19.0.0, SVG Export Plug-In . SVG Version: 6.00 Build 0)  -->
<svg version="1.1" id="Layer_1" xmlns="http://www.w3.org/2000/svg" xmlns:xlink="http://www.w3.org/1999/xlink" x="0px" y="0px"
	 viewBox="0 0 511.997 511.997" style="enable-background:new 0 0 511.997 511.997;" xml:space="preserve">
<path style="fill:#A82232;" d="M406.351,351.429c4.48-31.786,10.435-63.39,16.282-94.701c2.574-13.782,5.29-29.041,5.659-42.955
	c0.407-15.315,4.253-32.647-0.07-47.673c-0.864-3.004-3.69-10.143-7.155-10.375c-5.344-0.357-12.679,9.168-16.177,12.181
	c-18.258,15.728-35.237,30.166-57.97,38.875c-27.819,10.657-60.294,13.976-89.922,14.012c-14.359,0.018-29.747-1.11-43.954-3.241
	c-5.156-0.774-10.619-0.794-15.562-2.621c-5.116-1.891-9.115-6.372-13.427-9.65c-6.38-4.85-15.294-5.9-22.449-9.237
	c-12.097-5.642-22.408-12.976-33.447-20.242c-5.817-3.829-15.876-10.981-21.525-6.616c3.889,66.026,10.379,132.419,23.7,197.306
	c4.023,19.598,5.707,39.928,8.619,59.742c0.553,3.762-0.506,11.077,1.413,14.221c2.735,4.479,7.913,0.855,12.081,0.186
	c3.035-0.487,5.955,0.465,8.826-0.422c5.772-1.785,8.525-6.721,15.32-5.787c5.188,0.713,9.272,4.408,12.159,8.559
	c5.972,8.587,8.999,22.439,3.887,32.093c-2.251,4.251-7.857,8.718-3.03,12.765c5.844,4.899,19.319,4.735,26.403,6.039
	c26.368,4.854,53.664,3.131,80.281,1.64c21.345-1.196,43.199-5.743,63.954-10.715c15.241-3.651,25.396-10.619,29.444-26.48
	c3.874-15.179,5.114-30.887,6.758-46.416C398.6,391.623,403.5,371.656,406.351,351.429z"/>
<path style="fill:#F3E3C0;" d="M241.543,7.611c-3.933,2.283-7.29,8.919-12.488,8.827c-2.757-0.049-5.496-1.375-8.481-1.397
	c-4.819-0.035-8.905,0.752-12.615,4.046c-2.067,1.836-3.402,5.308-5.794,6.642c-2.432,1.356-3.582,0.03-6.251-0.198
	c-8.812-0.753-13.764,8.898-14.859,16.284c-0.627,4.228-1.833,7.443-7.107,7.39c-2.175-0.022-3.533-1.186-5.67-0.161
	c-2.941,1.411-4.282,5.852-5.406,8.594c-2.312,5.636-2.596,9.038-8.188,11.467c-6.876,2.986-7.335,9.531-6.016,16.337
	c1.016,5.245,4.322,9.447-1.459,13.27c-2.566,1.697-5.196,1.643-7.405,4.04c-2.296,2.491-2.753,6.239-4.889,8.745
	c-3.746,4.395-11.637,2.462-14.758,8.619c-2.548,5.028-0.637,12.44-0.622,17.932c0.014,5.042-3.22,6.996-4.682,11.585
	c-0.586,1.841-0.448,3.448-1.452,5.077c-1.498,2.432-2.967,2.626-2.598,6.153c0.825,7.887,8.439,9.041,13.953,12.49
	c8.583,5.368,17.113,10.735,25.812,15.946c10.691,6.404,22.523,12.133,33.908,17.187c12.79,5.677,25.482,9.295,38.945,12.866
	c27.512,7.298,55.959,4.87,83.301-2.545c10.947-2.969,21.583-6.431,32.447-9.572c30.34-8.771,59.214-23.13,77.796-49.553
	c3.573-5.08,6.991-11.45,5.679-17.936c-1.409-6.969-7.585-7.076-10.635-12.152c-3.053-5.08-2.087-11.411-5.693-16.641
	c-3.396-4.925-3.63-10.33-5.248-15.934c-0.748-2.591-0.964-2.503,0.391-5.562c1.911-4.313,2.887-7.751,2.132-12.538
	c-1.081-6.854-4.176-15.026-10.79-18.126c-5.127-2.403-11.871-2.663-15.588-7.401c-1.547-1.972-2.079-4.971-3.583-6.818
	c-1.796-2.204-3.272-1.75-5.693-2.569c-4.876-1.649-5.294-7.361-9.618-10.265c-4.833-3.246-10.864-1.875-15.777-5.02
	c-5.673-3.631-8.385-7.919-15.737-6.631c-5.098,0.894-9.696,4.796-14.306,1.856c-4.503-2.873-6.456-7.333-11.94-9.084
	c-6.964-2.224-11.049,3.322-17.396,4.381c-4.399,0.734-6.803-4.354-11.61-4.256c-5.906,0.121-7.256,3.516-11.759-1.996
	C255.217,5.387,250.593,5.91,241.543,7.611z"/>
<path style="fill:#FBB040;" d="M196.255,299.621c-0.707,6.171-2.238,12.287-2.736,18.52c-0.83,10.391-0.325,21.062,0.099,31.467
	c0.321,7.888,0.782,16.042,1.606,23.871c0.517,4.912,0.356,11.501,5.184,14.123c5.93,3.22,14.589,3.176,21.119,3.678
	c10.616,0.815,20.744,0.973,31.382,0.939c16.147-0.053,32.43,0.343,48.567,0.993c7.079,0.285,13.982-0.542,21.009-0.647
	c4.439-0.067,10.286-0.233,14.298-2.268c4.701-2.384,5.658-7.418,6.639-12.317c1.425-7.119,3.417-14.032,4.414-21.252
	c2.12-15.352,1.601-30.858,1.227-46.255c-0.087-3.599-0.38-8.401-3.243-10.84c-4.481-3.82-13.494-3.068-18.892-3.728
	c-28.749-3.516-58.722-3.791-87.617-2.381c-10.259,0.5-20.271,2.514-30.52,2.71C205.617,296.293,199.106,296.14,196.255,299.621z"/>
<path style="fill:#F3E3C0;" d="M138.461,433.797c-4.726-11.524-17.986-17.029-29.403-11.852c-2.728,1.237-5.477,3.019-7.359,5.39
	c-1.924,2.423-2.449,6.577-4.631,8.648c-1.668,1.584-3.871,1.137-5.889,2.203c-3.687,1.95-6.702,6.897-7.855,10.811
	c-3.35,11.366,10.466,15.179,5.683,26.168c-2.528,5.808-6.965,10.067-3.04,16.731c3.267,5.546,9.396,5.528,14.989,6.595
	c5.135,0.979,5.489,3.951,9.682,6.286c5.475,3.05,10.302-0.921,14.233-4.328c4.353-3.773,7.581-1.73,12.752-0.486
	c3.525,0.849,7.321,0.571,10.649,1.497c3.273,0.91,5.945,3.636,9.311,4.506c6.146,1.588,13.116-1.758,17.653-5.901
	c4.269-3.899,4.788-9.482,7.692-14.198c3.683-5.983,9.728-7.867,10.975-15.442c1.311-7.964-0.317-18.911-5.324-25.424
	c-4.477-5.825-12.912-11.951-20.734-10.246c-4.082,0.89-7.536,3.696-11.157,5.579c-3.429,1.783-4.45,0.935-7.932,0.368
	C144.038,439.933,137.318,444.327,138.461,433.797z"/>
<path d="M433.438,173.931c-0.202-4.921-0.499-17.904-5.115-23.166c0.77-1.396,1.36-2.889,1.764-4.34
	c1.161-4.17-0.766-8.395-2.703-12.016c-1.8-3.364-6.564-8.031-11.204-9.032c1.158-3.935,1.111-7.702-1.282-11.856
	c-2.016-3.499-4.204-6.284-5.604-10.154c-0.751-2.076-1.403-4.133-2.496-6.007c10.66-15.277,4.842-39.332-15.555-41.775
	c-2.165-0.26-4.105-0.13-5.474-1.957c-1.128-1.506-1.311-4.011-2.212-5.692c-2.038-3.801-5.43-6.143-9.701-6.729
	c-0.215-0.029-0.423-0.039-0.636-0.061c-0.234-5.003-3.796-10.769-7.104-13.354c-3.041-2.377-7.133-3.119-10.895-3.516
	c-1.806-0.191-3.692,0.363-5.432,0.12c-2.04-0.285-3.235-1.645-4.698-3.049c-5.789-5.553-12.403-8.002-20.231-4.708
	c-1.995,0.839-3.992,2.205-5.551,3.906c-0.164-0.293-0.329-0.575-0.498-0.841c-4.759-7.508-15.906-14.106-24.982-11.698
	c-2.004,0.532-3.885,1.51-5.546,2.728c-2.818,2.065-2.748,2.603-5.96,0.693c-4.022-2.391-7.988-2.704-12.257-1.001
	c-1.444-3.094-4.312-6.408-7.023-8.116c-4.25-2.677-9.964-2.538-14.793-1.982c-6.759,0.778-15.38,5.442-18.18,12.239
	c-2.793-1.294-5.738-1.806-9.014-1.796c-8.443,0.025-17.719,1.435-22.823,8.948c-0.221,0.325-0.717,0.955-1.034,1.514
	c-2.099-0.34-4.576,0.004-6.602,0.503c-4.291,1.056-7.718,3.93-9.879,7.757c-1.46,2.585-3.985,10.653-3.04,15.711
	c-0.072-0.022-0.138-0.044-0.217-0.067c-5.884-1.734-11.348-1.423-16.023,3.153c-2.176,2.13-4.172,4.944-5.452,7.7
	c-1.337,2.88-1.045,6.054-3.284,8.354c-2.16,2.22-4.817,3.405-6.695,6.064c-1.841,2.609-3.08,5.73-3.297,8.938
	c-0.29,4.271,0.747,9.018,3.307,12.478c-1.836,0.586-3.65,1.534-5.392,2.901c-2.097,1.646-3.741,3.628-5.2,5.854
	c-2.104,3.209-3.247,4.437-6.911,5.71c-5.392,1.874-9.719,4.315-12.268,9.663c-2.493,5.231-2.585,11.099-1.532,16.711
	c0.121,0.787,0.293,1.562,0.516,2.324c0.003,0.011,0.005,0.017,0.007,0.028c-0.41,0.972-1.396,1.823-1.903,2.777
	c-1.326,2.495-1.724,5.328-1.511,8.118c0.058,0.756,0.166,1.498,0.317,2.227c-4.342,1.888-7.263,7.429-6.839,11.933
	c0.105,1.11,0.301,2.243,0.632,3.327c-4.025,3.189-4.001,9.952-4.305,14.843c-0.949,15.275,2.873,31.292,4.725,46.428
	c4.411,36.044,9.433,71.967,13.915,107.987c2.172,17.454,5.326,34.813,8.491,52.109c1.562,8.535,2.927,17.129,4.326,25.69
	c0.832,5.093,2,10.131,3.047,15.188c-5.826-6.465-16.167-10.233-23.54-8.554c-6.094,1.388-13.141,3.967-15.126,10.586
	c-0.223,0.742-0.164,2.859-0.618,3.588c0.074-0.441-3.386,0.72-3.835,0.918c-3.382,1.492-6.269,4.135-8.58,6.975
	c-4.217,5.181-7.642,11.602-5.55,18.401c0.909,2.955,2.734,5.804,4.685,8.176c0.42,0.511,3.299,2.841,3.334,3.571
	c-0.016-0.342-3.694,3.421-3.841,3.605c-9.069,11.351-3.608,26.135,10.397,29.418c2.816,0.66,6.902-0.146,9.083,1.466
	c3.259,2.408,4.652,5.359,8.941,6.495c6.459,1.711,14.756-1.059,18.095-6.982c4.98,2.031,10.648,1.703,16.02,0.832
	c0.302-0.049,0.889-0.195,1.232-0.171c-0.006,0.077,0.065,0.208,0.284,0.427c0.988,0.987,1.649,2.16,2.742,3.091
	c2.507,2.135,5.864,3.618,9.08,4.243c7.515,1.461,15.402-3.241,20.52-8.397c2.613-2.632,4.835-5.841,6.315-9.233
	c0.552-1.266,0.969-2.546,1.338-3.859c4.102,3.434,10.878,4.985,15.418,6.365c8.404,2.555,17.096,3.232,25.717,4.638
	c18.407,3.004,37.409,1.785,55.977,1c19.768-0.836,39.448-3.227,58.97-6.432c9.096-1.493,18.413-3.038,27.242-5.73
	c6.79-2.07,17.231-4.963,21.113-11.345c4.983-8.191,6.951-17.148,8.556-26.468c0.571-3.315,0.825-6.797,0.789-10.296
	c4.042-24.326,8.143-48.648,11.762-73.05c4.736-31.932,10.197-63.799,13.877-95.877c1.873-16.326,4.637-32.458,5.844-48.866
	C433.609,207.379,434.128,190.758,433.438,173.931z M412.355,134.142c3.181,1.847,5.806,3.868,6.59,8.121
	c0.533,2.889-1.185,5.758-1.59,8.58c-0.266,0.181-0.534,0.356-0.797,0.551c-1.942-5.285-7.197-5.09-10.521-8.826
	C408.684,140.325,410.686,137.288,412.355,134.142z M405.845,118.813c1.581,3.866-2.852,9.704-5.007,12.831
	c-0.649,0.941-1.334,1.839-1.948,2.74c-0.942-0.668-2.017-1.229-3.304-1.634c-4.841-1.524-10.134-0.563-14.536,1.801
	c-2.224,1.195-4.122,2.851-5.768,4.75c-0.689,0.794-1.601,1.74-2.283,2.656c-0.159-0.079-0.33-0.164-0.529-0.263
	c-4.324-2.145-8.944-2.54-13.061,0.242c-2.433,1.644-5.867,5.429-8.067,9.525c-1.464-0.973-3.077-1.706-4.756-2.221
	c7.71-6.568,13.152-16.899,12.636-26.907c-0.2-3.873-0.943-8.821-3.027-12.573c3.197-5.831,7.202-14.208,14.314-12.013
	c4.025,1.242,5.664,5.83,9.837,6.84c3.815,0.923,7.447-0.992,10.905-2.292c1.419-0.533,3.925-1.816,5.475-1.109
	c1.783,0.813,2.115,3.312,2.669,4.912c0.762,2.199,1.502,4.438,2.551,6.524C403.021,114.76,404.951,116.625,405.845,118.813z
	 M362.867,179.183c-0.917-2.634-2.584-4.722-4.709-6.492c-0.759-0.632-1.868-1.21-2.119-1.913c-0.426-1.191,1.022-4.2,1.212-5.437
	c0.343-2.23,0.224-4.407-0.349-6.424c0.742-1.26,1.498-2.513,2.347-3.719c1.061-1.508,2.462-3.384,3.958-4.558
	c2.174-1.706,2.844-1.127,4.921-0.178c3.081,1.408,5.336,3.051,8.725,1.389c2.901-1.422,4.401-4.686,6.706-6.777
	c2.242-2.035,6.364-4.011,9.402-2.386c2.908,1.556,4.012,5.705,6.149,8.062c1.193,1.316,2.484,2.295,4.032,3.169
	c0.471,0.266,2.448,1.574,2.629,1.077c-0.023,1.69-1.572,3.021-1.644,4.78c-0.049,1.187-0.191,2.156-0.438,3.006
	c-0.584,2.009-1.753,3.351-3.659,5.326c-2.894,3-5.856,5.944-9.05,8.627c-9.351,7.852-19.88,14.067-31.022,19.129
	C362.194,190.715,364.795,184.722,362.867,179.183z M194.728,258.775c-0.458-7.682-0.704-15.63-1.548-23.25
	c-0.736-6.651-1.12-13.716-2.508-20.412c0.511,0.215,1.021,0.434,1.533,0.643c13.68,5.604,28.859,9.257,43.514,11.24
	c-0.649,11.338,0.164,22.945,0.65,34.233c0.156,3.625,0.425,7.383,0.779,11.081c0.003,1.278-0.002,2.556-0.032,3.839
	c-0.093,3.988-0.782,9.099-0.048,13.386c-1.045-0.015-2.089-0.031-3.134-0.046c-10.423-0.145-20.852-0.663-31.151,1.185
	c-2.997,0.538-5.475,1.607-7.483,3.134c0.219-3.072,0.622-6.157,0.561-9.27C195.691,275.95,195.238,267.333,194.728,258.775z
	 M244.937,127.511c1.714-2.681,3.659-5.328,5.873-7.128c1.861-1.514,3.947-2.963,6.264-1.595c2.01,1.187,3.33,4.361,4.713,6.193
	c2.657,3.518,5.984,5.402,10.478,5.192c5.471-0.255,10.58-4.57,16.165-3.245c5.512,1.308,2.548,7.827,2.964,11.904
	c0.456,4.469,3.217,7.308,7.187,9.045c4.781,2.092,6.744,4.956,4.691,10.214c-1.43,3.664-4.59,6.257-5.803,9.813
	c-0.489-0.77-1.006-1.532-1.613-2.192c-4.339-4.724-10.551-5.685-16.364-3.415c-1.547,0.604-2.988,1.386-4.396,2.264
	c-0.99,0.618-3.26,3.043-4.237,2.985c-0.418-0.025-2.733-1.815-3.529-2.005c-1.485-0.355-3.044-0.325-4.544-0.167
	c-5.677,0.599-10.57,4.234-13.419,9.07c-1.022,1.734-1.756,3.603-2.163,5.558c-0.341-0.267-0.631-0.556-0.827-0.881
	c-1.318-2.191-0.785-5.991-1.227-8.468c-0.582-3.261-1.886-6.353-4.567-8.406c-2.098-1.607-4.789-2.411-7.431-2.538
	c0.219-0.206,0.435-0.41,0.65-0.61c5.646-5.264,10.729-10.532,11.686-18.526C246.03,136.051,245.844,131.741,244.937,127.511z
	 M345.897,173.246c0.815,4.122,4.503,4.443,6.422,7.526c2.172,3.488-2.146,11.125-3.949,14.359c-1.413,2.536-3.012,4.686-4.184,7.05
	c-7.282,2.564-14.705,4.759-22.137,6.682c1.045-2.826,1.707-5.739,1.717-8.341c0.012-2.99-1.078-5.937-3.116-8.136
	c-0.918-0.99-3.181-2.013-3.919-3.073c-1-1.435-0.579-3.085-0.573-4.683c0.021-5.862-2.072-11.616-7.973-13.847
	c-0.101-0.038-0.198-0.056-0.298-0.09c2.463-2.546,4.234-6.032,5.301-9.151c1.514-4.424,1.694-9.289-0.057-13.559
	c6.36-3.322,13.232-6.901,16.467,2.292c1.205,3.424,2.883,6.28,6.482,7.58c3.004,1.085,8.691-0.058,10.612,3.184
	C348.614,164.284,345.161,169.524,345.897,173.246z M295.691,288.237c-17.159-0.496-34.513-0.035-51.626,1.065
	c0.658-3.941-0.275-8.875-0.223-12.234c0.102-6.551-0.254-12.927-0.855-19.444c-0.638-6.913-0.957-13.836-1.529-20.765
	c-0.233-2.825-0.229-6.18-0.808-9.272c14.061,1.602,28.433,1.979,42.492,0.527c4.663-0.482,9.301-1.1,13.912-1.845
	c-0.129,2.642,0.069,5.379,0.159,8.021c-0.151,1.511-0.275,3.026-0.341,4.548c-0.295,6.717-0.552,13.441-0.725,20.162
	c-0.164,6.363-0.169,12.736-0.224,19.101C295.894,281.342,295.55,284.847,295.691,288.237z M238.466,213.711
	c-1.048,0.38-1.862,0.992-2.458,1.73c-9.202-1.242-18.359-3.101-27.433-5.625c-4.982-1.386-9.913-3.125-14.778-5.093
	c-0.003-0.451-0.171-0.897-0.609-1.255c-1.48-1.208-2.8-4.42-3.796-6.127c-1.358-2.329-2.69-4.776-3.378-7.395
	c-0.548-2.085-0.922-4.559-0.062-6.625c1.351-3.247,4.484-3.485,7.526-4.189c5.373-1.244,6.729-4.554,10.037-8.486
	c1.934-2.3,4.439-4.322,7.344-5.239c4.048-1.277,6.1,0.158,9.288,2.307c1.92,1.295,3.79,2.343,6.132,2.624
	c2.95,0.354,6.652-1.617,8.014,1.678c1.945,4.703,0.117,9.973,3.7,14.261c1.669,1.997,3.975,2.565,5.912,4.125
	c2.267,1.825,3.709,5.068,3.967,7.925C248.413,204.316,244.223,211.627,238.466,213.711z M252.038,216.97
	c1.098-1.342,2.062-2.746,2.861-4.091c3.398-5.715,4.795-12.778,2.995-19.262c-0.822-2.962-2.275-5.826-4.146-8.249
	c-0.188-0.244-0.379-0.475-0.571-0.705c1.081-1.531,2.192-3.054,3.305-4.493c1.484-1.918,3.541-3.971,6.061-4.434
	c2.639-0.485,4.247,1.283,6.693,1.921c4.998,1.304,8.007-2.23,11.948-4.464c6.413-3.636,6.704,0.899,10.27,4.902
	c2.914,3.271,5.867,3.163,9.91,2.685c6.346-0.75,3.206,6.272,4.218,10.472c0.456,1.892,1.303,3.563,2.599,5.024
	c1.93,2.176,4.243,2.666,3.817,5.704c-0.542,3.856-3.201,6.675-3.792,10.197c-0.473,0.105-0.949,0.216-1.421,0.32
	C288.62,216.469,270.279,217.959,252.038,216.97z M342.246,138.594c-1.591,2.319-2.549,4.625-3.409,7.061
	c-2.439-4.424-4.32-8.284-9.634-10.105c-5.489-1.881-12.146-0.509-16.951,2.601c-1.274,0.825-2.772,2.048-4.021,3.481
	c-0.941-0.712-1.947-1.341-3.033-1.858c-1.229-0.585-3.136-0.859-3.745-2.304c-0.512-1.215,0.489-4.101,0.525-5.468
	c0.119-4.493-1.218-8.536-4.149-11.384c3.549-3.271,6.152-8.344,6.656-13.208c5.222-4.882,10.402-11.803,18.161-10.182
	c3.447,0.72,7.011,3.456,7.966,6.874c0.88,3.152,0.843,5.885,3.629,8.131c1.464,1.18,2.99,1.695,4.839,1.928
	c1.807,0.228,5.355-1.031,6.911-0.092c2.86,1.727,2.893,8.892,2.383,11.517C347.43,130.441,344.989,134.596,342.246,138.594z
	 M233.411,143.979c-2.743,4.579-7.207,8.217-10.861,12.131c-0.184,0.133-0.359,0.278-0.525,0.432
	c-4.354-2.285-9.309-2.366-13.905-0.947c0.898-3.856,0.661-7.943-0.996-11.777c-2.362-5.465-8.392-11.689-14.882-10.343
	c-1.412,0.293-2.408,1.152-3.734,1.538c-0.551,0.16-0.792,0.285-0.891,0.36c0.031-0.13-0.062-0.44-0.891-1.006
	c-3.344-2.28-4.983-4.651-9.258-5.379c-1.821-0.31-3.879-0.28-5.992-0.002c-0.348-1.264-0.663-2.58-1.031-3.674
	c-0.971-2.889-1.394-6.206-1.092-9.236c0.329-3.305,1.777-7.289,4.592-9.31c2.461-1.767,5.633-1.263,8.421-1.772
	c6.883-1.258,8.746-7.716,14.245-10.99c2.531-1.507,7.604-2.919,10.527-1.803c2.892,1.104,3.679,5.124,5.147,7.513
	c1.454,2.367,3.348,4.38,5.895,5.56c2.774,1.286,5.418,0.568,8.229,1.286c4.32,1.103,3.755,5.962,4.409,9.535
	c0.587,3.209,1.947,5.868,3.162,8.848C236.343,130.747,236.711,138.47,233.411,143.979z M176.545,138.788
	c4.301,1.473,5.355,6.545,10.43,6.839c2.133,0.124,3.551-0.919,5.486-1.407c2.379-0.6,4.031,0.605,5.285,3.069
	c2.239,4.398-0.66,9.593,0.425,14.256c-0.823,0.787-1.615,1.608-2.344,2.494c-1.85,2.249-2.638,4.541-5.049,5.306
	c-6.192,1.966-11.463,3.421-14.132,10.058c-2.381,5.921-0.934,12.614,1.938,18.103c0.073,0.14,0.156,0.288,0.234,0.432
	c-4.383-2.173-8.693-4.446-12.915-6.729c-6.034-3.263-11.85-6.983-17.683-10.667c-0.039-0.03-0.087-0.054-0.13-0.082
	c-0.514-0.325-1.028-0.648-1.542-0.971c-2.772-2.331-4.184-7.718-4.817-10.735c-0.771-3.674-2.98-14.408,3.398-13.541
	c4.14,0.563,7.421,1.598,10.753-1.807c3.132-3.2,3.617-8.135,7.212-11.08C165.765,140.139,173.181,137.636,176.545,138.788z
	 M153.359,196.694c10.168,5.876,20.851,11.261,31.676,16.009c0.284,1.762,0.63,3.529,0.719,5.289
	c0.249,4.908,0.499,9.8,0.833,14.704c0.639,9.354,1.414,18.838,1.364,28.216c-0.088,16.444,0.583,32.857,0.594,49.317
	c-0.444,5.755-0.232,11.593-0.07,17.398c0.013,1.794,0.052,3.595,0.111,5.401c0.009,0.878,0.013,1.755,0.007,2.63
	c-0.071,9.395-0.486,19.114,0.105,28.477c0.303,4.802,0.556,9.613,1.052,14.41c0.306,2.961,0.537,5.899,1.837,8.484
	c0.09,1.056,0.184,2.117,0.278,3.18c0.138,2.55,0.379,5.071,0.605,7.444c0.189,2.755,0.322,5.504,0.322,8.217
	c0.001,5.028,0.484,10.046,0.915,15.07c0.017,4.316,0.399,8.601,0.688,12.896c0.032,0.839,0.085,1.674,0.151,2.508
	c0.058,1.081,0.107,2.163,0.132,3.247c0.043,1.877,0.044,3.755,0.046,5.633c-0.427-0.711-0.859-1.417-1.322-2.084
	c-4.643-6.696-12.535-13.047-21.127-13.048c-1.659,0-3.436,0.305-5.222,0.827c-0.098-6.816-0.744-13.731-1.507-20.595
	c-0.357-6.56-1.315-13.158-1.906-19.665c-0.548-6.032-1.035-12.052-1.499-18.07c-0.497-8.538-0.915-17.078-1.537-25.634
	c-0.554-7.622-1.064-15.277-1.326-22.907c-0.316-9.201-0.178-18.715-1.261-27.859c-2.02-17.069-3.552-34.323-6.189-51.311
	c-1.61-10.375-2.167-20.702-3.343-31.104c-0.162-1.43-1.318-13.923-2.565-21.439C148.403,193.807,150.89,195.268,153.359,196.694z
	 M197.047,318.134c0.087-4.172,0.033-9.509,2.35-13.203c1.623-2.586,4.358-2.739,7.202-3.106c10.081-1.302,20.36-1.012,30.513-1.154
	c10.44-0.146,20.883-0.373,31.324-0.452c9.713-0.073,19.313,1.077,29.015,0.131c4.278-0.417,8.56-0.531,12.823-0.74
	c2.049,0.209,4.095,0.459,6.137,0.759c4.308,0.633,8.62,1.233,12.928,1.863c1.905,0.278,3.795,0.708,5.719,0.851
	c2.108,0.157,5.048-0.204,7.018,0.85c1.907,1.021,1.876,6.678,2.17,9.758c0.435,4.544,0.821,8.945,0.826,13.517
	c0.009,8.283-0.191,16.591-0.762,24.856c-0.639,9.257-1.59,18.569-4.524,27.413c-1.431,4.314-3.021,6.301-7.471,7.716
	c-3.903,1.241-8.189,1.788-12.26,1.927c-18.437,0.63-37.012-0.067-55.463-0.005c-9.244,0.031-18.434-0.491-27.673-0.501
	c-8.973-0.009-18.18-0.101-26.966-2.086c-2.88-0.651-7.324-1.501-9.163-4.065c-2.105-2.935-1.925-9.168-2.17-12.742
	c-0.554-8.066-0.781-16.152-1.509-24.21C196.3,336.547,196.859,327.134,197.047,318.134z M340.736,292.529
	c-11.047-1.559-22.515-3.22-33.685-3.838c-1.225-0.068-2.454-0.116-3.683-0.169c0.135-3.113-0.164-6.315-0.186-9.361
	c-0.048-6.719-0.063-13.446-0.236-20.162c-0.164-6.367-0.403-12.738-0.677-19.101c-0.022-0.493-0.057-0.985-0.088-1.477
	c0.037-4.277-0.245-8.503-1.291-12.372c-0.016-0.143-0.033-0.286-0.049-0.429c18.552-3.287,36.663-8.614,54.226-15.446
	c-0.219,2.1-0.395,4.213-0.743,6.277c-0.738,4.378-1.103,8.74-1.44,13.162c-0.689,9.044-1.643,18.298-2.966,27.272
	c-1.216,8.246-2.102,16.568-2.828,24.875c-0.338,3.873-0.754,7.993-0.818,12.081C344.507,293.175,342.593,292.791,340.736,292.529z
	 M374.565,51.642c1.821,1.931,1.843,5.92,3.357,8.179c1.613,2.407,3.953,3.919,6.712,4.737c6.276,1.861,12.923,0.973,15.623,8.539
	c2.253,6.313-0.665,12.241-3.226,17.935c-1.755-0.171-3.592-0.022-5.457,0.43c-2.153,0.521-6.402,3.451-8.433,3.016
	c-1.851-0.396-4.017-3.65-5.803-4.694c-3.767-2.203-8.241-2.793-12.395-1.784c0.049-1.713,0.042-3.433,0.259-4.976
	c0.511-3.643,1.051-7.243,0.953-10.935c-0.152-5.712-1.266-11.842-4.928-16.408c-0.065-0.081-0.136-0.16-0.202-0.241
	C365.388,51.873,370.946,47.805,374.565,51.642z M330.866,24.061c5.72,0.085,7.81,5.457,12.206,8.184
	c4.729,2.933,9.606,0.632,14.386,2.768c3.788,1.692,3.326,5.741,4.252,9.25c-2.36,1.623-4.451,3.731-6.286,6.049
	c-3.182-2.187-6.853-3.683-10.496-3.691c-1.911-0.004-3.02,0.814-4.692-0.685c-0.884-0.792-1.374-2.686-2.09-3.67
	c-1.811-2.49-4.344-4.391-7.171-5.57c-2.956-1.233-5.817-1.358-8.577-0.767c0.451-2.672,0.183-5.699-0.494-8.547
	C324.857,25.782,327.306,24.008,330.866,24.061z M318.157,49.328c1.755-1.392,4.657-3.613,7.021-3.655
	c3.433-0.061,4.659,3.149,6.046,5.532c2.297,3.945,5.817,6.103,10.428,6.253c3.859,0.125,5.327,0.151,8.581,2.703
	c1.726,1.353,2.999,2.519,3.826,4.62c1.887,4.793,1.215,10.37,0.521,15.316c-0.61,4.34-2.482,10.998,0.607,14.802
	c-2.336,2.771-4.572,6.149-5.712,9.309c-0.669-0.213-1.353-0.382-2.049-0.504c-1.487-0.26-3.169-0.396-4.669-0.099
	c-1.274,0.253-1.637,0.546-1.722,0.653c0.027-0.079,0.05-0.278-0.095-0.66c-1.915-5.048-2.915-8.664-7.637-12.033
	c-4.533-3.234-10.004-4.925-15.558-3.86c-5.604,1.075-10.871,4.638-14.531,8.962c-0.343,0.405-0.723,0.874-1.112,1.381
	c-0.385-0.542-0.793-1.065-1.242-1.537c-1.705-1.798-4.211-2.803-4.833-5.469c-0.44-1.887,0.508-4.494,0.429-6.48
	c-0.074-1.851-0.359-3.646-1.102-5.354c-1.373-3.155-3.879-5.208-7.231-6.045c-1.375-0.343-2.969-0.399-4.368-0.413
	c-0.912,0.062-1.826,0.097-2.74,0.128c1.66-4.642,4.68-10.532,8.278-13.373c5.341-4.217,10.883,0.006,16.7-1.018
	C311.295,57.551,314.215,52.455,318.157,49.328z M265.862,25.148c1.72-2.349,6.743-7.063,10.046-6.319
	c1.434,0.323,3.003,2.216,4.403,2.916c1.272,0.637,2.666,1.068,4.086,1.181c2.895,0.23,5.187-0.863,7.49-2.491
	c2.966-2.095,4.337-3.45,8.23-2.289c3.099,0.925,6.061,2.226,8.239,4.702c4.547,5.17,2.287,12.127,3.233,18.286
	c0.026,0.173,0.086,0.328,0.145,0.484c-1.964,1.849-3.643,4.003-5.794,5.58c-2.213,1.622-2.749,1.218-5.332,0.891
	c-1.803-0.228-3.605-0.527-5.43-0.458c-9.756,0.368-16.398,7.51-18.603,16.103c-0.244-0.523-0.513-1.038-0.853-1.529
	c-2.025-2.919-4.725-5.371-8.096-6.616c-0.089-0.033-0.178-0.053-0.267-0.085c3.784-7.366,0.918-19.525-4.095-25.595
	C263.959,28.242,264.775,26.632,265.862,25.148z M267.059,67.109c2.91,3.779,2.076,9.086,5.271,12.786
	c1.7,1.968,3.847,2.897,6.428,3.109c1.485,0.122,6.31-1.163,7.484,0.073c1.408,1.481-0.408,7.63-0.156,9.638
	c0.307,2.445,1.286,4.557,2.838,6.476c2.543,3.144,5.306,4.538,3.249,9.04c-1.291,2.823-3.507,5.076-4.733,7.938
	c-0.049,0.114-0.078,0.228-0.119,0.342c-1.23-0.042-2.472,0.026-3.72,0.181c-3.521,0.437-6.722,2.409-10.126,2.844
	c-2.966,0.379-2.948-0.055-4.576-2.429c-0.891-1.299-1.804-2.581-2.814-3.79c-2.143-2.565-4.719-4.564-8.056-5.241
	c-6.008-1.218-12.615,2.725-16.717,8.273c-1.553-6.114-1.349-12.863-6.944-16.939c-0.48-0.35-0.978-0.649-1.483-0.925
	c0.045-0.542,0.07-1.081,0.05-1.613c-0.125-3.388-0.51-6.86-0.121-10.234c0.3-2.594,1.013-5.295,2.101-7.678
	c1.767-3.873,4.005-4.731,8.121-3.988c4.158,0.751,7.896,2.198,10.978-1.665c1.669-2.092,2.243-4.998,4.165-6.919
	C261.091,63.477,264.602,63.92,267.059,67.109z M250.629,10.317c1.695-0.066,3.702-0.251,5.335,0.274
	c1.896,0.609,2.112,1.513,3.329,2.909c0.899,1.03,1.717,1.795,2.604,2.371c-2.511,2.506-4.485,5.523-5.574,8.812
	c-4.777-2.267-10.256-2.786-15.44-1.724c-0.665-2.461-2.685-4.623-4.828-6.404C240.586,13.637,244.921,10.538,250.629,10.317z
	 M240.615,33.655c3.897-1.486,8.919-1.337,12.347,1.28c6.693,5.11,2.137,14.14,4.181,20.805c-3.391,1.388-6.331,4.022-8.421,7.406
	c-0.54,0.931-1.042,1.881-1.504,2.853c-0.032,0.048-0.051,0.081-0.081,0.127c-1.077-0.247-2.161-0.471-3.246-0.648
	c-4.033-0.657-7.935-0.509-11.432,1.828c-5.77,3.855-8.257,12.156-8.497,18.745c-0.114,3.134,0.067,6.85,0.975,10.265
	c-1.991-0.229-3.125-0.397-4.448-2.292c-1.028-1.473-1.522-3.344-2.464-4.884c-0.252-0.411-0.516-0.799-0.789-1.17
	c3.121-5.106,2.137-12.9,0.512-18.322c-1.925-6.423-5.238-9.393-11.369-11.604c-2.639-0.952-3.434-2.827-4.238-4.928
	c3.354-5.02,4.059-12.58,10.206-15.217c3.792-1.627,6.055,1.467,9.449,2.618c3.223,1.092,6.495,0.877,9.521-0.728
	C234.631,38.027,237.037,35.02,240.615,33.655z M187.324,40.194c0.797-3.229,1.873-7.013,5.265-8.34
	c2.628-1.028,5.342,0.428,7.99-0.256c2.74-0.708,4.06-2.808,5.608-4.965c3.615-5.039,8.955-5.468,14.872-5.415
	c3.342,0.03,5.38,0.949,7.878,3.192c0.956,0.858,1.749,1.742,2.589,2.52c-0.005,0.003-0.01,0.006-0.015,0.01
	c-1.851,1.287-3.995,4.05-6.263,3.836c-2.135-0.202-4.233-2.33-6.308-3.016c-4.634-1.532-9.543,0.031-13.401,2.771
	c-3.719,2.641-8.183,8.782-9.527,14.615c-0.625-0.377-1.281-0.7-1.961-0.957c-2.542-0.958-5.278-1.077-7.928-0.576
	C186.587,42.457,187.05,41.301,187.324,40.194z M153.53,76.692c2.327-3.602,7.012-4.552,9.255-8.33
	c2.202-3.707,1.719-8.076,4.675-11.497c4.352-5.036,6.572-0.561,11.685-0.575c3.966-0.011,9.145-5.202,12.669-1.784
	c1.429,1.387,1.701,4.114,2.607,5.843c0.934,1.784,2.058,3.239,3.653,4.481c3.558,2.772,8.045,1.92,9.529,6.752
	c1.078,3.511,0.911,7.206,0.283,10.776c-2.246-0.368-4.642-0.32-7.098,0.062c-3.187,0.496-6.385,1.362-9.191,3.008
	c-3.665,2.15-5.69,5.62-8.724,8.399c-2.371,2.173-5.404,1.435-8.431,2.16c-3.006,0.72-5.7,2.076-7.951,4.142
	c-2.862-4.143-6.991-7.238-11.526-8.463c-0.147-0.318-0.347-0.632-0.628-0.934C151.428,87.613,151.376,80.026,153.53,76.692z
	 M122.361,144.303c0.433-3.315,3.719-5.097,3.744-8.786c0.028-4.14-1.938-7.79-1.123-12.074c1.561-8.201,11.425-7.029,16.05-12.761
	c2.89-3.581,3.731-8.69,8.692-10.117c3.918-1.127,9.742,0.928,13.254,3.906c-3.317,5.529-4.035,12.505-2.541,18.76
	c0.656,2.746,1.74,5.672,3.427,7.734c-1.781,0.689-3.436,1.495-4.827,2.367c-2.734,1.713-4.929,4.12-6.667,6.822
	c-0.865,1.344-1.507,2.786-2.199,4.222c-1.16,2.41-0.195,1.827-2.564,1.849c-3.341,0.031-5.519-0.988-8.829,0.687
	c-2.535,1.283-4.233,3.478-5.326,6.046c-0.501,1.176-0.87,2.452-1.147,3.778C127.686,153.339,121.593,150.183,122.361,144.303z
	 M114.247,159.061c0.381-0.954,1.082-1.829,1.703-2.739c1.165,1.56,2.511,2.993,3.974,4.275c1.996,1.749,4.39,3.874,6.863,4.887
	c1.989,0.814,3.512,0.679,5.239,0.376c0.248,1.944,0.659,3.883,1.273,5.744c-2.547-1.382-5.132-2.683-7.774-3.865
	c-3.621-1.621-7.435-4.655-11.486-5.718C113.911,161.009,113.869,160.007,114.247,159.061z M131.712,349.711
	c-2.611-15.411-4.538-30.93-5.868-46.508c-1.316-15.415-4.029-30.743-5.673-46.141c-1.644-15.402-2.945-30.842-4.821-46.218
	c-0.857-7.028-1.743-14.099-2.172-21.166c-0.187-3.093-0.722-6.415-0.509-9.511c0.111-1.613,0.932-3.755,0.551-5.41
	c0.117-0.31,0.187-0.565,0.226-0.785c0.567,0.325,1.13,0.658,1.708,0.963c6.122,3.15,12.108,5.51,17.893,9.373
	c2.798,1.869,5.681,3.676,8.588,5.45c0.089,3.405,0.185,8.826,0.221,9.449c0.307,5.355,0.597,10.71,0.895,16.065
	c0.618,11.084,1.332,22.145,2.271,33.207c1.799,21.187,4.54,42.175,6.88,63.309c1.81,16.347,2.569,32.684,3.75,49.028
	c0.347,8.744,0.608,17.491,1.255,26.214c1.157,15.603,2.824,31.111,3.865,46.687c-1.743,1.069-3.356,2.319-4.69,3.714
	c-2.965-0.737-5.876-0.905-8.854-0.644c-1.333-0.228-2.706-0.277-4.155-0.083c-0.044-14.018-2.745-28.279-4.68-42.096
	C136.3,379.66,134.233,364.592,131.712,349.711z M126.934,469.109c-1.205,0.841-2.175,1.849-3.029,3.048
	c-2.157,3.027-3.435,6.772-4.158,10.392c-1.039,5.201-0.479,10.515,2.352,14.742c-1.478,0.949-2.939,1.926-4.554,2.462
	c-4.057,1.347-5.556-1.491-8.091-3.94c-4.5-4.346-9.984-2.056-15.324-3.782c-7.89-2.55-7.63-10.021-2.942-15.685
	c3.646-4.404,5.843-7.812,1.53-12.854c-2.115-2.473-4.929-4.837-5.82-8.142c-1.016-3.771,1.107-7.066,3.33-9.969
	c2.456-3.208,5.118-4.973,8.79-6.475c2.421-0.99,4.007-1.741,5.137-4.209c1.354-2.959,0.642-5.513,3.802-7.436
	c3.047-1.853,8.057-3.006,11.555-2.382c5.737,1.023,15.233,7.729,17.085,13.352c0.07,0.214,0.166,0.395,0.272,0.558
	c-2.935,1.481-5.621,3.533-7.757,5.937c-3.093,3.481-5.374,7.624-5.408,12.379c-0.018,2.531,0.519,4.956,1.53,7.271
	c0.479,1.099,1.865,2.695,2.933,4.151C127.69,468.719,127.23,468.902,126.934,469.109z M188.836,472.741
	c-1.638,3.877-5.223,5.62-7.298,9.129c-2.244,3.794-3.217,7.849-6.208,11.26c-5.806,6.621-14.603,12.668-21.969,5.054
	c-2.243-2.318-3.64-3.248-6.94-3.332c-3.945-0.101-7.813,1.039-11.715-0.14c-9.085-2.746-6.11-14.957-0.038-19.126
	c2.507-1.721,4.223-3.894,3.74-7.081c-0.642-4.23-5.172-5.853-5.972-10.144c-0.837-4.492,2.363-8.507,5.841-11.145
	c1.037-0.605,2.189-1.088,3.616-1.326c4.493-0.75,9.51-1,13.528,1.404c2.458,1.471,5.092,0.336,6.671-1.749
	c6.138-8.102,16.584-5.236,21.991,1.944C189.525,454.713,192.531,463.994,188.836,472.741z M241.174,423.308
	c-0.037,10.091,0.568,20.165,0.575,30.225c0.007,9.952-0.879,20.055-0.133,29.984c0.194,2.582,0.269,5.047,0.258,7.583
	c-1.148-0.043-2.298-0.07-3.443-0.135c-9.163-0.522-18.572-1.864-27.623-3.387c-6.362-1.07-12.926-3.103-19.44-3.632
	c8.249-6.027,10.203-15.724,8.53-25.062c1.687-4.631,0.619-11.546,0.627-15.493c0.014-7.176-0.911-14.226-1.151-21.357
	c-0.235-6.992-0.7-13.946-1.472-20.911c-0.078-0.706-0.143-1.428-0.21-2.148c-0.138-2.068-0.279-4.135-0.41-6.203
	c5.635,3.485,12.985,4.374,19.305,5.301c8.355,1.226,16.874,0.702,25.319,0.804C239.742,406.378,241.201,415.934,241.174,423.308z
	 M289.212,401.864c-0.711,4.022-0.872,8.254-1.238,12.327c-0.974,10.838-1.751,21.906-1.651,32.796
	c0.092,10.06-1.267,20.04-1.188,30.134c0.032,4.13,0.281,8.021-0.369,12.109c-0.031,0.194-0.053,0.379-0.08,0.568
	c-11.409,0.652-22.964,1.457-34.446,1.471c0.071-6.704-1.125-13.472-1.087-20.169c0.047-8.068-0.445-16.184-0.531-24.282
	c-0.096-9.117-0.238-18.436-0.722-27.549c-0.168-3.174-0.58-6.323-0.925-9.479c-0.06-2.148-0.196-4.294-0.486-6.364
	c-0.039-1.475-0.051-2.956-0.148-4.421c0.574,0.027,1.148,0.057,1.721,0.094c13.745,0.9,27.625,0.778,41.485,0.592
	C289.43,400.453,289.33,401.195,289.212,401.864z M331.084,473.188c-0.548,3.925-1.769,7.909-1.703,11.893
	c-12.527,1.922-25.158,3.467-37.778,4.3c0.31-1.826,0.827-3.804,0.852-4.75c0.069-2.498-0.004-5.015-0.073-7.53
	c0.054-2.434,0.073-4.839,0.116-7.147c0.16-8.527,0.99-17.015,0.997-25.538c0.007-8.492,0.545-17.071,0.91-25.564
	c0.251-5.858,1.012-12.93,0.246-19.229c6.499-0.088,12.989-0.165,19.454-0.131c8.877,0.047,17.604-0.592,25.796-4.25
	c1.257-0.561,2.372-1.259,3.373-2.061c-0.59,4.155-1.016,8.322-1.46,12.303c-0.41,3.681-0.87,7.333-1.361,10.977
	c-0.081,0.526-0.167,1.052-0.247,1.577c-0.499,3.251-0.976,6.505-1.44,9.76c-0.411,2.457-0.85,4.914-1.324,7.376
	c-1.657,8.616-3.147,17.358-4.551,26.013C332.239,465.195,331.645,469.168,331.084,473.188z M369.007,453.833
	c-0.583,4.409-1.473,8.758-2.062,13.16c-0.478,3.571-2.095,7.588-2.616,11.378c-7.695,2.124-15.671,3.533-23.529,4.871
	c-1.313,0.224-2.63,0.438-3.946,0.655c1.503-9.9,2.814-19.842,4.095-29.792c0.998-6.044,2.074-12.096,3.184-18.08
	c1.762-9.505,3.04-18.824,3.7-28.467c0.173-2.523,0.398-5.042,0.629-7.56c0.999-6.868,1.905-13.753,2.547-20.659
	c0.533-1.983,0.975-3.985,1.385-5.919c4.165-19.635,4.324-40.79,2.648-60.688c-0.245-2.914-0.422-5.856-1.034-8.695
	c0.148-3.407,0.335-6.813,0.693-10.21c1.086-10.304,1.462-20.75,1.789-31.093c0.178-5.628,1.367-11.203,1.565-16.836
	c0.023-0.668,0.044-1.34,0.067-2.008c0.334-4.42,0.573-8.846,0.721-13.218c0.238-7.056,1.838-14.991,0.476-22.07
	c0.001-0.035,0.002-0.066,0.002-0.102c3.201-1.296,6.384-2.635,9.547-4.026c9.386-4.128,18.347-9.571,26.415-16.027
	c-2.783,15.759-4.523,31.773-6.521,47.652c-2.623,20.841-5.41,41.838-7.161,62.769c-1.694,20.248-1.432,40.628-3.566,60.824
	c-2.053,19.425-3.116,38.919-4.796,58.367C372.206,430.027,370.581,441.936,369.007,453.833z M422.359,211.396
	c-1.054,16.274-2.832,32.314-5.248,48.437c-2.491,16.632-4.656,33.32-6.991,49.973c-2.388,17.031-5.507,33.912-7.906,50.938
	c-2.438,17.308-5.106,34.83-8.584,51.956c-1.701,8.376-2.542,16.827-3.589,25.3c-0.209,1.689-0.457,3.37-0.716,5.049
	c-0.261,1.061-0.505,2.127-0.704,3.207c-1.298,7.033-2.79,14.994-5.938,21.512c-1.657,3.432-2.879,4.554-6.269,6.174
	c-1.683,0.804-3.398,1.523-5.136,2.181c0.601-2.303,1.381-4.624,1.696-6.642c0.64-4.1,1.419-8.175,2.027-12.28
	c1.521-10.278,2.605-20.581,3.833-30.901c2.277-19.139,3.368-38.396,4.988-57.6c1.699-20.136,2.802-40.242,3.881-60.422
	c1.098-20.544,4.08-41.091,6.305-61.546c2.254-20.725,5.268-41.406,5.951-62.244c1.096-0.975,2.182-1.96,3.237-2.973
	c4.581-4.402,9.024-9.082,13.405-13.695c1.167-1.23,3.791-3.145,5.364-4.957c0.082,0.35,0.143,0.628,0.161,0.753
	C424.319,179.228,423.374,195.718,422.359,211.396z"/>
<path d="M220.951,341.031c0.943,1.299,2.877,1.157,3.407-0.445c1.225-3.702,0.762-8.053,0.454-12.127
	c1.285,0.241,2.597,0.375,3.752,0.576c2.82,0.489,5.965,0.789,7.241-2.329c0.357-0.873-0.094-1.941-0.682-2.581
	c-1.669-1.816-4.786-1.376-7.004-1.486c-1.126-0.056-2.363-0.033-3.585,0.109c-0.128-2.518-0.361-4.973-0.832-7.431
	c1.973,0.262,4.024,0.108,6.016,0.016c2.284-0.106,6.817,0.373,8.399-1.654c0.925-1.186,1.056-2.265,0.469-3.633
	c-0.043-0.1-0.086-0.201-0.129-0.301c-0.45-1.047-1.897-1.758-2.987-1.713c-4.779,0.197-10.56,0.555-14.934,2.633
	c-0.836,0.397-1.165,1.387-1.019,2.276c-1.153,3.858-0.569,8.509-0.664,12.442C218.729,330.464,217.825,336.725,220.951,341.031z"/>
<path d="M239.845,337.066c1.205,2.805,3.718,2.285,6.221,2.265c3.665-0.03,7.005,0.815,9.337-2.457
	c0.689-0.967,0.126-2.314-0.76-2.898c-2.412-1.588-6-1.269-9.118-0.888c-0.03-2.063,0.079-4.304,0.098-6.546
	c0.73,0.06,1.417,0.065,1.864,0.1c2.458,0.194,6.158,0.654,7.973-1.419c0.754-0.862,1.047-2.487,0-3.307
	c-2.389-1.87-5.919-1.027-8.681-0.51c-0.378,0.071-0.853,0.173-1.351,0.315c-0.069-0.629-0.161-1.247-0.28-1.85
	c0.072-0.488,0.125-0.986,0.179-1.501c0.018-0.17,0.131-1.091,0.176-1.841c1.243-0.159,2.491-0.339,3.743-0.389
	c1.731-0.07,3.3,0.226,5.044-0.114c2.777-0.542,2.886-5.27,0-5.722c-2.165-0.339-4.204-0.444-6.372-0.16
	c-1.857,0.244-4.128,0.273-5.898,0.906c-2.143,0.766-2.528,2.758-2.397,4.794c0.103,1.593,0.107,3.305,0.49,4.888
	c-0.151,1.543-0.201,3.097-0.275,4.558C239.673,328.559,238.52,333.978,239.845,337.066z"/>
<path d="M266.03,325.636c1.553,0.56,6.746,1.551,5.859,4.287c-0.835,2.575-5.925,1.12-7.607,0.656
	c-1.746-0.482-3.285,0.86-3.378,2.573c-0.487,8.991,16.757,4.554,17.296-3.622c0.306-4.643-3.871-7.031-7.686-8.502
	c-2.398-0.924-6.181-1.852-2.312-4.548c2.078-1.448,4.612-1.222,6.635-2.494c0.201-0.126,0.259-0.328,0.224-0.55
	c-0.496-3.143-4.531-2.951-7.001-2.363c-3.563,0.849-7.088,3.555-7.648,7.368C259.843,322.312,262.774,324.462,266.03,325.636z"/>
<path d="M279.971,314.158c3.149,1.044,6.416,1.255,9.71,1.264c-0.289,3.441-1.038,6.918-1.418,10.311
	c-0.375,3.35-1.158,6.88,1.6,9.286c1.385,1.208,3.317,0.683,3.929-1.037c1.056-2.967,0.372-6.472,0.533-9.603
	c0.151-2.961,0.525-6.018,0.5-9.015c1.002-0.01,2.002-0.007,2.998,0.023c1.587,0.262,3.118,0.486,4.696-0.236
	c2.377-1.088,1.915-5.469-0.765-5.852c-4.367-0.624-9.198-0.183-13.595,0.096c-3.258,0.206-6.164,0.57-8.739,2.674
	C278.643,312.704,279.162,313.889,279.971,314.158z"/>
<path d="M303.389,321.127c-1.619,3.742-3.491,7.418-4.792,11.251c-1.528,4.503,6.169,6.169,6.781,0.918
	c0.099-0.85,0.257-1.686,0.447-2.515c0.516-0.893,0.958-1.839,1.361-2.807c1.629,0.259,3.23,0.341,4.906,0.439
	c1.916,0.112,3.648,0.551,5.569,0.185c0.122-0.023,0.222-0.068,0.334-0.101c0.954,1.984,1.869,3.985,3.071,5.704
	c1.46,2.088,4.3,1.658,5.188-0.678c1.588-4.174-4.26-10.949-6.389-14.099c-2.313-3.422-4.942-11.495-9.786-11.421
	c-0.962,0.015-2.163,0.538-2.577,1.478c-1.611,3.656-2.8,7.504-4.003,11.308C303.463,320.901,303.425,321.014,303.389,321.127z
	 M311.222,316.793c0.292,0.579,0.578,1.161,0.897,1.727c0.731,1.295,1.53,2.566,2.34,3.827c-0.383-0.041-0.768-0.09-1.141-0.081
	c-0.685,0.017-1.383,0.12-2.06,0.207c-0.714,0.091-1.42,0.216-2.124,0.344C309.866,320.818,310.548,318.806,311.222,316.793z"/>
<path d="M223.423,376.104c2.99-5.042,1.347-12.07-0.105-17.322c-0.023-0.083-0.191-0.81-0.465-1.796
	c0.642-0.09,1.271-0.233,1.872-0.481c3.21-1.324,3.156-6.534-0.878-6.488c-3.791,0.043-9.37,0.258-12.165,3.201
	c-0.686,0.723-0.789,2.008,0,2.718c1.733,1.559,3.675,1.42,5.86,1.256c0.207,1.92,0.634,3.797,0.778,4.99
	c0.273,2.269,1.515,8.89-0.592,10.593c-2.445,1.976-4.061-2.578-5.856-3.688c-0.57-0.352-1.309-0.322-1.882,0
	C202.699,373.194,217.249,386.515,223.423,376.104z"/>
<path d="M244.422,355.527c-1.019-1.334-2.726-1.422-3.731,0c-2.007,2.841-0.772,6.346-0.535,9.638
	c0.162,2.246,0.209,10.362-3.705,8.007c-4.65-2.799-1.759-11.57-4.58-15.713c-0.808-1.186-2.356-0.883-2.865,0.374
	c-2.762,6.831-1.558,21.63,7.924,22.669c5.055,0.554,8.504-3.739,9.513-8.239c0.645-2.879,0.241-5.575-0.068-8.453
	C246.071,360.972,246.2,357.856,244.422,355.527z"/>
<path d="M253.581,349.973c-2.083-1.409-4.782,0.475-4.824,2.769c-0.091,4.939-0.39,10.057-0.131,14.977
	c0.143,2.719-0.145,6.398,2.363,8.051c0.184,0.121,0.501,0.134,0.684,0c2.481-1.814,2.466-5.222,2.735-8.051
	c0.142-1.5,0.258-2.988,0.36-4.474c0.639,1.143,1.292,2.278,1.956,3.39c1.844,3.088,3.617,7.422,6.645,9.442
	c1.413,0.942,3.697,0.33,4.469-1.172c1.793-3.484,2.125-7.675,2.704-11.491c0.609-4.017,1.058-7.792,1.067-11.854
	c0-0.015,0.004-0.028,0.004-0.043c0-0.048,0-0.097,0.001-0.145c0.012-4.308-6.676-4.313-6.694,0
	c-0.015,3.493-0.332,6.801-0.824,10.266c-0.172,1.213-0.282,2.546-0.433,3.892c-1.244-1.898-2.377-3.825-3.543-5.773
	C258.167,356.497,256.829,352.171,253.581,349.973z"/>
<path d="M281.056,361.504c-0.084-0.676-0.208-1.316-0.351-1.94c0.056-2.012-0.025-4.025-0.33-5.872
	c-0.445-2.696-5.002-2.698-5.448,0c-0.662,4.012,0.318,8.06-0.012,12.092c-0.11,1.34-0.319,2.807-0.172,4.167
	c-0.107,2.297-0.058,4.642,0.396,6.805c0.325,1.548,1.805,2.291,3.216,2.448c4.659,0.519,3.14-6.835,3.009-9.291
	C281.215,367.092,281.405,364.32,281.056,361.504z"/>
<path d="M308.119,348.532c0.002-0.233-0.013-0.47-0.063-0.716c-0.009-0.047-0.019-0.094-0.028-0.14
	c-0.638-3.149-5.409-2.948-6.171,0c-1.254,4.853-0.577,10.277-0.89,15.453c-0.55-0.655-1.083-1.325-1.607-1.998
	c-1.577-2.028-3.354-3.892-4.791-6.026c-1.541-2.288-3.207-6.987-6.701-6.539c-1.952,0.25-3.088,1.334-3.322,3.321
	c-0.488,4.147,0.519,8.729,0.867,12.88c0.275,3.277-0.082,8.112,2.755,10.307c0.448,0.347,1.272,0.449,1.563-0.201
	c1.528-3.41,1.904-6.231,1.871-10.105c-0.007-0.891-0.069-1.84-0.15-2.811c1.099,1.37,2.245,2.703,3.337,4.081
	c2.353,2.967,5.258,7.35,9.544,6.478c1.142-0.232,2.054-1.286,2.364-2.364c1.947-6.783,1.297-14.676,1.442-21.625
	C308.134,348.527,308.127,348.529,308.119,348.532z"/>
<path d="M313.809,372.808c2.626-0.682,3.829-3.719,4.735-6.348c2.349,1.155,5.105,1.846,7.556,1.351
	c0.25,1.471,0.439,2.963,0.642,4.526c0.5,3.85,6.774,3.818,6.941-0.179c0.002-0.058,0.005-0.116,0.007-0.174
	c0.011-0.269-0.007-0.523-0.044-0.765c0.005,0,0.009,0,0.014,0c-0.712-4.89-5.81-30.047-15.005-22.759
	c-3.609,2.861-4.602,9.364-5.644,13.496C312.737,363.041,309.115,374.026,313.809,372.808z M321.024,358.626
	c0.149-0.392,0.717-1.492,1.145-2.496c0.942,1.559,1.576,3.426,2.144,5.075c-0.888-0.021-1.785-0.005-2.717,0.019
	c-0.492,0.013-0.963,0.035-1.419,0.074C320.43,360.399,320.691,359.502,321.024,358.626z"/>
<g>
</g>
<g>
</g>
<g>
</g>
<g>
</g>
<g>
</g>
<g>
</g>
<g>
</g>
<g>
</g>
<g>
</g>
<g>
</g>
<g>
</g>
<g>
</g>
<g>
</g>
<g>
</g>
<g>
</g>
</svg>
