<svg id="Layer_1" height="512" viewBox="0 0 512 512" width="512" xmlns="http://www.w3.org/2000/svg" data-name="Layer 1"><g fill="#d4e1f4"><path d="m110.188 229.426h12v92.238h-12z"/><path d="m245.011 229.426h12v92.238h-12z"/><path d="m340.775 497.565a6 6 0 0 1 -6-6v-67.718a6 6 0 0 1 12 0v67.718a6 6 0 0 1 -6 6z"/></g><path d="m225.51 300.77h-83.23a4 4 0 0 0 -4 4v18.89h91.23v-18.89a4 4 0 0 0 -4-4z" fill="#f9b248"/><path d="m172.28 300.77h-30a4 4 0 0 0 -4 4v18.89h30v-18.89a4 4 0 0 1 4-4z" fill="#ffd49c"/><path d="m314.16 264.55h25.72c0 7.9-5.76 14.31-12.86 14.31s-12.86-6.41-12.86-14.31z" fill="#fe8700"/><path d="m103.37 323.66v86.19a14 14 0 0 0 14 14h257.47a18 18 0 0 0 18-18v-82.19z" fill="#fb6771"/><path d="m352 197.59c0 .23 0 .46.01.69h-.01c0 18.68-14.89 33.15-33.58 33.15a33.825 33.825 0 0 1 -33.82-33.29c-.01-.18-.01-.36-.01-.54v-46.54h67.41z" fill="#fb6771"/><path d="m419.67 151.06v46.53a33.833 33.833 0 0 1 -67.66.69c-.01-.23-.01-.46-.01-.69v-46.53z" fill="#55d8d8"/><path d="m284.59 197.6c0 .18 0 .36.01.54h-.01a33.153 33.153 0 0 1 -33.58 33.29 33.837 33.837 0 0 1 -33.83-33.57v-46.8h67.41z" fill="#55d8d8"/><path d="m273.13 78.5 8.5 29.17-113.03 23.19-5.89-20.19z" fill="#f43b3b"/><path d="m264.63 49.33-107.8 41.14h-.01l5.89 20.2 110.42-32.17z" fill="#d4e1f4"/><path d="m257.1 23.49 7.53 25.84-107.8 41.14h-.01l-3.28-11.26a4.012 4.012 0 0 1 1.94-4.64l100.65-54.42z" fill="#f43b3b"/><path d="m149.76 151.06v46.54c0 .19 0 .38.01.56a33.707 33.707 0 0 0 67.41-.3v-46.8z" fill="#fb6771"/><path d="m149.76 197.6c0 .19 0 .38.01.56a33.392 33.392 0 0 1 -33.58 33.27 33.839 33.839 0 0 1 -33.84-33.84v-46.53h67.41z" fill="#55d8d8"/><path d="m287.52 127.89 2.61 8.95-111.97 14.22h-1.32a4.006 4.006 0 0 1 -3.18-2.83l-5.06-17.37 113.03-23.19z" fill="#d4e1f4"/><path d="m346.58 77.86a9.456 9.456 0 0 0 -.37-2.61 9.351 9.351 0 0 0 -16.34-3.15 19.559 19.559 0 0 0 -6.69-1.09 13.9 13.9 0 0 0 -.22-7v-.02a14.026 14.026 0 0 0 -4.72-22.63 9.181 9.181 0 0 0 -.36-3.14 9.361 9.361 0 0 0 -10.58-6.6h-.01a10.9 10.9 0 0 0 -.44-2.85 11.213 11.213 0 0 0 -21.67.52l-.1-.02a14.057 14.057 0 0 0 -5.91 3.47 14.268 14.268 0 0 0 -.37-1.64 14.022 14.022 0 0 0 -21.25-7.74l-.45.13 30.42 104.4a11.908 11.908 0 0 0 18.76-1.85c.21.07.43.13.65.18a7.934 7.934 0 1 0 -2.1-14.67 11.587 11.587 0 0 0 -3.29-2.45 11.921 11.921 0 0 0 -8.68-10.04s0 .01-.01 0a8.373 8.373 0 0 1 -5.041-.335 3.883 3.883 0 0 1 .267-7.27l15.787-5.322a3.885 3.885 0 0 1 4.66 5.544 9.544 9.544 0 0 1 -4.883 4.213l.93.25a19.635 19.635 0 0 0 37.84-10.49 9.4 9.4 0 0 0 4.17-7.79z" fill="#ccd3df"/><path d="m309.39 84.27a9.587 9.587 0 0 1 -5.75 11.62c-.25.1-.51.18-.77.26a9.463 9.463 0 0 1 -5.43-.02 8.4 8.4 0 0 1 -4.22 2.84 2.369 2.369 0 0 1 -.36.09s0 .01-.01 0a8.412 8.412 0 0 1 -6.28-15.41 7.49 7.49 0 0 1 -.76-1.76 7.713 7.713 0 0 1 14.75-4.51 9.572 9.572 0 0 1 8.83 6.89z" fill="#b0b5ca"/><path d="m283.22 52.61a7.711 7.711 0 0 1 -1.58 15.34 9.6 9.6 0 0 1 -9.78 5.46l-.22-.03a9.586 9.586 0 0 1 -8.2-10.6 9.469 9.469 0 0 1 2.13-4.99 8.469 8.469 0 0 1 -.97-4.99 7.953 7.953 0 0 1 .48-1.95 8.408 8.408 0 0 1 16.22 1.78 7.247 7.247 0 0 1 1.92-.02z" fill="#b0b5ca"/><path d="m229.18 291.96c0 4.59-3.41 8.81-8 8.81h-75.07a9.31 9.31 0 1 1 3.28-18.02 9.941 9.941 0 0 1 8.22-4.35 9.4 9.4 0 0 1 1.42.1 10.179 10.179 0 0 1 18.35-2.29 7.672 7.672 0 0 1 12.06-1.15 8.167 8.167 0 0 1 13.93-.27 9.318 9.318 0 0 1 14.31 7.86 8.854 8.854 0 0 1 -.17 1.71 8.179 8.179 0 0 1 3.35-.71 8.318 8.318 0 0 1 8.32 8.31z" fill="#d4e1f4"/><path d="m373.58 323.02v.64h-91.55v-.64c0-23.42 20.48-43.22 45.77-43.22s45.78 19.8 45.78 43.22z" fill="#ffdb00"/><path d="m185.446 365.03a63.28 63.28 0 1 1 -63.3 63.28 63.287 63.287 0 0 1 63.3-63.28z" fill="#6d7486"/><path d="m185.44 400.53a27.78 27.78 0 1 1 -27.79 27.78 27.783 27.783 0 0 1 27.79-27.78z" fill="#b0b5ca"/><path d="m128.37 409.85v-86.19h-25v86.19a14 14 0 0 0 14 14h25a14 14 0 0 1 -14-14z" fill="#ff97a1"/><path d="m257.1 23.49-.97-3.34-100.65 54.42a4.012 4.012 0 0 0 -1.94 4.64l2.058 7.066 103.856-54.708z" fill="#ff7676"/><path d="m107.35 197.59v-46.53h-25v46.53a33.89 33.89 0 0 0 46.371 31.458 33.841 33.841 0 0 1 -21.371-31.458z" fill="#7dfffb"/><path d="m282.03 323.02v.64h25v-.64c0-19.4 14.066-36.313 33.272-41.543a47.494 47.494 0 0 0 -12.5-1.677c-25.292 0-45.772 19.8-45.772 43.22z" fill="#fff5ca"/><path d="m147.144 428.31a63.3 63.3 0 0 1 50.8-62.04 63.28 63.28 0 1 0 0 124.081 63.285 63.285 0 0 1 -50.8-62.041z" fill="#b0b5ca"/><path d="m171.65 428.31a27.793 27.793 0 0 1 20.788-26.889 27.78 27.78 0 1 0 0 53.779 27.785 27.785 0 0 1 -20.788-26.89z" fill="#ccd3df"/><path d="m429.646 332.664h-329.683a6 6 0 1 1 0-12h329.683a6 6 0 0 1 0 12z" fill="#1ae5be"/><path d="m421.207 497.846h-23.233a6 6 0 1 1 0-12h23.233a6 6 0 0 1 0 12z" fill="#867af4"/><path d="m375.614 497.846h-281.173a6 6 0 0 1 0-12h281.173a6 6 0 1 1 0 12z" fill="#867af4"/><path d="m304.923 312.533a6 6 0 0 1 -5.051-9.231 29.61 29.61 0 0 1 15.9-12.1 6 6 0 1 1 3.686 11.42 17.584 17.584 0 0 0 -9.473 7.14 6 6 0 0 1 -5.062 2.771z" fill="#efc806"/><path d="m350.56 354.322h-84.253a6 6 0 0 1 0-12h84.253a6 6 0 1 1 0 12z" fill="#f4f8fc"/><path d="m367.141 354.322h-.215a6 6 0 0 1 0-12h.215a6 6 0 0 1 0 12z" fill="#f4f8fc"/></svg>