<svg id="Layer_1" height="512" viewBox="0 0 512 512" width="512" xmlns="http://www.w3.org/2000/svg" data-name="Layer 1"><path d="m175.39 482.69-50.7-270.366h-30l50.7 270.37a3.99 3.99 0 0 0 3.93 3.26h30a3.99 3.99 0 0 1 -3.93-3.264z" fill="#d4e1f4"/><path d="m241.45 348.6a44.572 44.572 0 0 1 29.55-41.953 44.455 44.455 0 0 0 -15-2.6h-.02a44.55 44.55 0 0 0 -.01 89.1h.03a44.432 44.432 0 0 0 15-2.6 44.565 44.565 0 0 1 -29.55-41.947z" fill="#d4e1f4"/><path d="m407.151 163.2a26.781 26.781 0 0 0 -37.451-34.395 57.463 57.463 0 0 0 -40.7-91.342 30.516 30.516 0 1 0 -54.585 27.275 57.142 57.142 0 0 0 -4.065 8 42.885 42.885 0 0 0 -10.915-2.315 42.752 42.752 0 0 0 -65.8-5.638 30.559 30.559 0 0 0 -35.156 20.335c-.955-.077-1.914-.13-2.879-.13a35.4 35.4 0 0 0 -20.606 64.2 42.934 42.934 0 0 0 1.428 8.34 42.783 42.783 0 0 0 -36.343 55.378 6 6 0 0 0 11.442-3.616 30.78 30.78 0 0 1 29.359-39.992 29.645 29.645 0 0 1 3.646.223 6 6 0 0 0 6.022-8.806 30.31 30.31 0 0 1 -2.349-5.689 35.513 35.513 0 0 0 7.391.792 6 6 0 0 0 0-12 23.415 23.415 0 1 1 .01-46.83 23.376 23.376 0 0 1 13.084 4 6 6 0 0 0 6.732-9.934 35.106 35.106 0 0 0 -5.26-2.939 18.479 18.479 0 0 1 17.314-11.957 18.256 18.256 0 0 1 6.153 1.051 6 6 0 0 0 6.683-1.879 30.749 30.749 0 0 1 50.547 3.956 6.062 6.062 0 0 0 5.237 3 30.62 30.62 0 0 1 14.87 3.842 6 6 0 0 0 8.7-3.633 45.261 45.261 0 0 1 6.757-14.167 6 6 0 0 0 -.021-6.993 18.3 18.3 0 0 1 -3.466-10.777 18.507 18.507 0 0 1 36.164-5.55 6.011 6.011 0 0 0 5.6 4.209 45.473 45.473 0 0 1 1.793 90.831 31.131 31.131 0 0 0 -57.369-3.149 26.231 26.231 0 0 0 4.727 52.029c.345 0 .689-.007 1.034-.02a28.056 28.056 0 0 0 53.2-9.075 25.059 25.059 0 0 1 24.821-10.624 6 6 0 0 0 5.381-1.855 24.678 24.678 0 0 1 6.891-5.21 6 6 0 0 0 3.108-6.662 14.8 14.8 0 1 1 27.338 3.959 9.334 9.334 0 0 1 -.555.907 6 6 0 0 0 .439 7.434 25.2 25.2 0 0 1 -7.357 39.216l2.72 11.352a5.973 5.973 0 0 0 2.711-.652 37.2 37.2 0 0 0 13.575-54.5zm-93.834 4.362a15.952 15.952 0 0 1 2.933 9.241c0 .207-.006.42-.019.627v.112a16.054 16.054 0 0 1 -31.583 3.272 6 6 0 0 0 -7.312-4.321 13.976 13.976 0 0 1 -3.485.44 14.224 14.224 0 0 1 -.383-28.442 6 6 0 0 0 5.539-4.1 19.115 19.115 0 0 1 37 3.01 19.3 19.3 0 0 1 .243 3.054 19.04 19.04 0 0 1 -3.063 10.384 6 6 0 0 0 .13 6.72zm42.636-13.888a36.432 36.432 0 0 0 -4.245 3.318 36.987 36.987 0 0 0 -26.078 8c-.154-.332-.307-.666-.475-.993a30.976 30.976 0 0 0 3.053-12.041 57.163 57.163 0 0 0 30.75-12.094 26.667 26.667 0 0 0 -3.005 13.807z" fill="#1ae5be"/><g fill="#0635c9"><path d="m149.732 399.775a6 6 0 0 0 11.795-2.211l-11.189-59.7a6 6 0 1 0 -11.795 2.211z"/><path d="m145.987 314.675-1.95-10.41a6 6 0 0 0 -11.8 2.21l1.95 10.41a6 6 0 0 0 11.795-2.21z"/><path d="m421.927 208.519a6 6 0 0 0 -4.617-2.169l-161.292-.009h-14v12h7.982l-.018 80.08a50.535 50.535 0 0 0 -.012 100.353l-.018 81.177h-49.313l-19.549-187.942a6 6 0 0 0 -11.936 1.241l19.42 186.7h-37.594l-49.06-261.63 59.441.008 4.073 39.147a6 6 0 0 0 11.935-1.241l-3.943-37.9h7.064v-12l-85.8-.01a6 6 0 0 0 -5.9 7.106l50.7 270.358a10 10 0 0 0 9.83 8.166h213.36a9.993 9.993 0 0 0 9.828-8.154l50.7-270.34a6 6 0 0 0 -1.281-4.941zm-159.976 271.431.018-81.152a50.188 50.188 0 0 0 22.811-8.638 6 6 0 1 0 -6.84-9.86 38.5 38.5 0 1 1 12.421-14.207 6 6 0 0 0 10.69 5.454 50.555 50.555 0 0 0 -39.07-73.129l.019-80.077h76.575l-27.213 261.6zm99.069 0h-37.594l27.213-261.6h59.441z"/></g><path d="m227.072 151.662a26.274 26.274 0 0 0 -34.372 13.985q-.195.465-.37.936a28.064 28.064 0 1 0 3.4 56.019 31.079 31.079 0 0 0 11.263 8.114 30.648 30.648 0 0 0 11.971 2.426 31.31 31.31 0 0 0 28.508-18.3c.116-.247.229-.5.334-.756a31.082 31.082 0 0 0 -5.335-32.6 26.427 26.427 0 0 0 -15.399-29.824zm9.65 57.826c-.022.05-.03.069-.049.119l-.081.175-.047.1a19.13 19.13 0 0 1 -33.264 2.91 5.992 5.992 0 0 0 -6.245-2.486 16.056 16.056 0 1 1 -1.048-31.576 6 6 0 0 0 6.823-5.024 14.584 14.584 0 0 1 .956-3.413 14.221 14.221 0 0 1 26.348 10.707 6 6 0 0 0 1.625 6.7 19.091 19.091 0 0 1 4.982 21.788z" fill="#1ae5be"/></svg>