<svg id="Layer_1" enable-background="new 0 0 256 256" height="512" viewBox="0 0 256 256" width="512" xmlns="http://www.w3.org/2000/svg"><path d="m104.375 68.15h47.25v82.95h-47.25z" fill="#e0ebfc"/><path d="m230.375 235.1h-204.75c-5.799 0-10.5-4.701-10.5-10.5v-63c0-5.799 4.701-10.5 10.5-10.5h204.75c5.799 0 10.5 4.701 10.5 10.5v63c0 5.799-4.701 10.5-10.5 10.5z" fill="#a4c9ff"/><path d="m87.575 177.35h-72.45v-10.5h72.45c2.899 0 5.25 2.35 5.25 5.25 0 2.899-2.351 5.25-5.25 5.25z" fill="#e0ebfc"/><path d="m15.125 219.35h40.95c2.899 0 5.25-2.351 5.25-5.25 0-2.899-2.351-5.25-5.25-5.25h-40.95z" fill="#e0ebfc"/><path d="m15.125 198.35h57.75c2.899 0 5.25-2.351 5.25-5.25 0-2.899-2.351-5.25-5.25-5.25h-57.75z" fill="#e0ebfc"/><path d="m166.85 20.9h-77.7c-1.16 0-2.1.94-2.1 2.1v20.475c0 3.479 2.821 6.3 6.3 6.3h69.3c3.479 0 6.3-2.821 6.3-6.3v-20.475c0-1.16-.94-2.1-2.1-2.1z" fill="#6bdddd"/><path d="m97.025 49.775v13.125c0 2.899 2.351 5.25 5.25 5.25h51.45c2.899 0 5.25-2.351 5.25-5.25v-13.125z" fill="#a4c9ff"/><path d="m151.625 153.1h-47.25c-1.104 0-2-.896-2-2v-82.95c0-1.104.896-2 2-2h47.25c1.104 0 2 .896 2 2v82.95c0 1.104-.896 2-2 2zm-45.25-4h43.25v-78.95h-43.25z" fill="#3762cc"/><path d="m230.375 237.1h-204.75c-6.893 0-12.5-5.607-12.5-12.5v-63c0-6.893 5.607-12.5 12.5-12.5h204.75c6.893 0 12.5 5.607 12.5 12.5v63c0 6.892-5.607 12.5-12.5 12.5zm-204.75-84c-4.687 0-8.5 3.813-8.5 8.5v63c0 4.687 3.813 8.5 8.5 8.5h204.75c4.687 0 8.5-3.813 8.5-8.5v-63c0-4.687-3.813-8.5-8.5-8.5z" fill="#3762cc"/><path d="m162.65 51.775h-69.3c-4.577 0-8.3-3.724-8.3-8.301v-20.474c0-2.261 1.839-4.1 4.1-4.1h77.7c2.261 0 4.101 1.839 4.101 4.1v20.475c-.001 4.577-3.724 8.3-8.301 8.3zm-73.5-28.875c-.055 0-.1.045-.1.1v20.475c0 2.371 1.929 4.301 4.3 4.301h69.3c2.371 0 4.3-1.93 4.3-4.301v-20.475c0-.055-.045-.1-.101-.1z" fill="#3762cc"/><path d="m153.725 70.15h-51.45c-3.998 0-7.25-3.252-7.25-7.25v-13.125c0-1.104.896-2 2-2h61.95c1.104 0 2 .896 2 2v13.125c0 3.998-3.252 7.25-7.25 7.25zm-54.7-18.375v11.125c0 1.792 1.458 3.25 3.25 3.25h51.45c1.792 0 3.25-1.458 3.25-3.25v-11.125z" fill="#3762cc"/><circle cx="179.19" cy="161.6" fill="#4671c6" r="43.84"/><path d="m179.191 192.841c-17.227 0-31.241-14.014-31.241-31.241s14.014-31.241 31.241-31.241c17.226 0 31.24 14.014 31.24 31.241s-14.015 31.241-31.24 31.241z" fill="#f9cfcf"/><path d="m179.191 181.291c-10.858 0-19.691-8.833-19.691-19.691s8.833-19.691 19.691-19.691c10.857 0 19.69 8.833 19.69 19.691-.001 10.858-8.834 19.691-19.69 19.691z" fill="#a4c9ff"/><path d="m187.59 157.4c-5.069 0-9.192-4.123-9.192-9.192s4.123-9.192 9.192-9.192c5.068 0 9.192 4.123 9.192 9.192s-4.123 9.192-9.192 9.192z" fill="#e0ebfc"/><circle cx="220.006" cy="214.1" fill="#f9a7a7" r="8.006"/><g fill="#3762cc"><path d="m179.19 207.44c-25.276 0-45.841-20.564-45.841-45.841s20.564-45.84 45.841-45.84 45.84 20.563 45.84 45.84-20.563 45.841-45.84 45.841zm0-87.68c-23.071 0-41.841 18.77-41.841 41.84 0 23.071 18.77 41.841 41.841 41.841 23.07 0 41.84-18.77 41.84-41.841s-18.769-41.84-41.84-41.84z"/><path d="m179.19 194.841c-18.329 0-33.24-14.912-33.24-33.241s14.911-33.24 33.24-33.24c18.328 0 33.239 14.911 33.239 33.24s-14.91 33.241-33.239 33.241zm0-62.482c-16.123 0-29.24 13.117-29.24 29.24 0 16.124 13.117 29.241 29.24 29.241s29.239-13.117 29.239-29.241c.001-16.122-13.116-29.24-29.239-29.24z"/><path d="m87.575 179.35h-72.45c-1.104 0-2-.896-2-2v-10.5c0-1.104.896-2 2-2h72.45c3.998 0 7.25 3.252 7.25 7.25s-3.252 7.25-7.25 7.25zm-70.45-4h70.45c1.792 0 3.25-1.458 3.25-3.25s-1.458-3.25-3.25-3.25h-70.45z"/><path d="m56.075 221.35h-40.95c-1.104 0-2-.896-2-2v-10.5c0-1.104.896-2 2-2h40.95c3.998 0 7.25 3.252 7.25 7.25s-3.252 7.25-7.25 7.25zm-38.95-4h38.95c1.792 0 3.25-1.458 3.25-3.25s-1.458-3.25-3.25-3.25h-38.95z"/><path d="m72.875 200.35h-57.75c-1.104 0-2-.896-2-2v-10.5c0-1.104.896-2 2-2h57.75c3.998 0 7.25 3.252 7.25 7.25s-3.252 7.25-7.25 7.25zm-55.75-4h55.75c1.792 0 3.25-1.458 3.25-3.25s-1.458-3.25-3.25-3.25h-55.75z"/><path d="m220.006 224.106c-5.518 0-10.006-4.489-10.006-10.007s4.488-10.006 10.006-10.006 10.007 4.488 10.007 10.006-4.49 10.007-10.007 10.007zm0-16.012c-3.312 0-6.006 2.694-6.006 6.006 0 3.313 2.694 6.007 6.006 6.007 3.313 0 6.007-2.694 6.007-6.007 0-3.312-2.695-6.006-6.007-6.006z"/></g></svg>