<svg id="Layer_1" height="512" viewBox="0 0 512 512" width="512" xmlns="http://www.w3.org/2000/svg" data-name="Layer 1"><path d="m420.8 259.77h-.24v.34h-329.12v-.34h-.24a73.407 73.407 0 0 0 -73.356 75.977c1.359 39.693 34.7 70.823 74.414 70.823h328.542a73.4 73.4 0 0 0 0-146.8z" fill="#496275"/><path d="m420.56 260.11v34.13a10.01 10.01 0 1 1 -20.02 0v-34.47h20.02z" fill="#f3e08c"/><path d="m408.9 360.05a8.675 8.675 0 1 1 -8.67 8.68 8.685 8.685 0 0 1 8.67-8.68z" fill="#94ce74"/><path d="m381.24 260.11v34.13a10.015 10.015 0 0 1 -20.03 0v-34.47h20.03z" fill="#f3e08c"/><path d="m370.87 360.05a8.675 8.675 0 1 1 -8.67 8.68 8.685 8.685 0 0 1 8.67-8.68z" fill="#eb6141"/><path d="m163 17v14.68c0 16.58 13.03 30.32 29.61 30.32h126.78c16.58 0 29.61-13.74 29.61-30.32v-14.68z" fill="#f3e08c"/><path d="m167.93 406.57a88.071 88.071 0 0 1 176.14 0v.36a88.07 88.07 0 1 1 -176.14 0z" fill="#eb6141"/><path d="m341.92 260.11v34.13a10.015 10.015 0 1 1 -20.03 0v-34.47h20.03z" fill="#f3e08c"/><path d="m311.03 406.57a2.174 2.174 0 0 1 .02.36 55.05 55.05 0 0 1 -110.1 0 2.174 2.174 0 0 1 .02-.36 55.031 55.031 0 0 1 110.06 0z" fill="#bfc7e9"/><path d="m309.54 259.41v.36h-107.08v-8.77a22 22 0 0 1 22.01-22.01h63.06a22 22 0 0 1 22.01 22.01z" fill="#eb6141"/><path d="m235 62h42v167h-42z" fill="#496275"/><g fill="#f3e08c"><path d="m190.11 260.11v35.13a10.015 10.015 0 0 1 -20.03 0v-35.47h20.03z"/><path d="m150.79 260.11v35.13a10.015 10.015 0 1 1 -20.03 0v-35.47h20.03z"/><path d="m111.46 260.11v35.13a10.01 10.01 0 1 1 -20.02 0v-35.47h20.02z"/></g><path d="m291.28 127h-70.57c-2.21 0-3.71 2.1-3.71 4.31v29.02a3.5 3.5 0 0 0 3.72 3.67h70.56a3.5 3.5 0 0 0 3.72-3.67v-29.02c0-2.21-1.51-4.31-3.72-4.31z" fill="#eb6141"/><path d="m273.619 439.051a6 6 0 0 1 -2.825-11.3 24.577 24.577 0 0 0 7.667-7.4c4.321-6.5 5.133-14.446 2.411-23.629a6 6 0 1 1 11.506-3.41c7.442 25.116-7.2 40.451-15.98 45.05a5.964 5.964 0 0 1 -2.779.689z" fill="#9ba4bc"/><path d="m144.138 387.941h-36.616a6 6 0 1 1 0-12h36.616a6 6 0 0 1 0 12z" fill="#f4f8fc"/><path d="m89.763 387.941h-3.2a6 6 0 1 1 0-12h3.2a6 6 0 0 1 0 12z" fill="#f4f8fc"/><path d="m47.844 335.747a73.4 73.4 0 0 1 66.363-75.637h-22.767v-.34h-.24a73.407 73.407 0 0 0 -73.356 75.977c1.359 39.693 34.7 70.823 74.414 70.823h30c-39.717 0-73.058-31.13-74.414-70.823z" fill="#394d59"/><path d="m230.95 406.93a2.174 2.174 0 0 1 .02-.36 55.037 55.037 0 0 1 40.03-52.593 55.021 55.021 0 0 0 -70.03 52.593 2.174 2.174 0 0 0 -.02.36 55.041 55.041 0 0 0 70.05 52.954 55.062 55.062 0 0 1 -40.05-52.954z" fill="#aeb7d3"/></svg>