<svg id="Capa_1" enable-background="new 0 0 512 512" height="512" viewBox="0 0 512 512" width="512" xmlns="http://www.w3.org/2000/svg"><g id="Hologram"><path d="m320 448h-128l-160-320h448z" fill="#4db5ff"/><path d="m384 128c0 38.4-16.961 72.641-43.52 96-22.721 19.84-52.16 32-84.48 32-70.721 0-128-57.279-128-128z" fill="#4d7cff"/><path d="m384 128h-256c0-38.4 16.961-72.641 43.52-96 22.72-19.84 52.16-32 84.48-32 70.721 0 128 57.279 128 128z" fill="#4db5ff"/><g fill="#80eaff"><path d="m416 512h-320v-32c0-17.673 14.327-32 32-32h256c17.673 0 32 14.327 32 32z"/><path d="m256 48c0 8.961-7.039 16-16 16h-64c-8.961 0-16 7.039-16 16s7.039 16 16 16h32c8.961 0 16 7.039 16 16s-7.039 16-16 16h-80c0-38.4 16.961-72.641 43.52-96h68.48c8.961 0 16 7.039 16 16z"/><path d="m384 128c0 38.4-16.961 72.641-43.52 96h-36.48c-8.961 0-16-7.039-16-16s7.039-16 16-16h32c8.961 0 16-7.039 16-16s-7.039-16-16-16h-64c-8.961 0-16-7.039-16-16s7.039-16 16-16z"/></g></g></svg>