<svg height="512pt" viewBox="-7 0 512 512" width="512pt" xmlns="http://www.w3.org/2000/svg"><path d="m218.292969 80.386719v186.386719c20.472656 10.367187 38.265625 25.347656 52.027343 43.597656h9.285157v-229.984375zm0 0" fill="#e4eaf8"/><path d="m248.949219 287.453125v-207.066406h-30.65625v186.386719c11.078125 5.613281 21.363281 12.582031 30.65625 20.679687zm0 0" fill="#c7d2e5"/><path d="m194.289062 43.160156v27.703125c0 6.941407 5.675782 12.617188 12.613282 12.617188h84.09375c6.9375 0 12.613281-5.675781 12.613281-12.617188v-27.703125zm0 0" fill="#576574"/><path d="m290.996094 59.527344h-84.09375c-6.9375 0-12.613282-5.675782-12.613282-12.617188v23.953125c0 6.941407 5.675782 12.617188 12.613282 12.617188h84.09375c6.9375 0 12.613281-5.675781 12.613281-12.617188v-23.953125c0 6.941406-5.675781 12.617188-12.613281 12.617188zm0 0" fill="#3e4b5a"/><path d="m322.824219 46.25h-147.570313c-6.601562 0-12-5.398438-12-12v-22.25c0-6.601562 5.398438-12 12-12h147.570313c6.601562 0 12 5.398438 12 12v22.25c0 6.601562-5.398438 12-12 12zm0 0" fill="#3e4b5a"/><path d="m322.460938 22.296875h-146.847657c-6.386719 0-11.683593-4.914063-12.300781-11.148437-.039062.402343-.058594.804687-.058594 1.214843v21.523438c0 6.800781 5.5625 12.363281 12.359375 12.363281h146.847657c6.800781 0 12.363281-5.5625 12.363281-12.363281v-21.523438c0-.410156-.023438-.8125-.0625-1.214843-.617188 6.234374-5.910157 11.148437-12.300781 11.148437zm0 0" fill="#313f4c"/><path d="m82.839844 310.371094c19.089844-15.125 42.890625-24.117188 68.679687-24.117188 25.789063 0 49.59375 8.992188 68.679688 24.117188h50.121093c-27.273437-37.234375-70.335937-61.273438-118.800781-61.273438-48.464843 0-91.527343 24.039063-118.800781 61.273438zm0 0" fill="#576574"/><path d="m166.671875 249.90625c-4.984375-.523438-10.035156-.808594-15.152344-.808594-48.464843 0-91.527343 24.039063-118.800781 61.273438h30.300781c24.394531-33.304688 61.425781-56.035156 103.652344-60.464844zm0 0" fill="#3e4b5a"/><path d="m469.726562 307.976562h-252.617187c27.277344 20.769532 44.921875 53.574219 44.921875 90.421876 0 36.851562-17.644531 69.65625-44.921875 90.425781h252.617187c15.496094 0 28.171876-12.679688 28.171876-28.171875v-124.503906c0-15.496094-12.675782-28.171876-28.171876-28.171876zm0 0" fill="#e4eaf8"/><path d="m41.011719 398.398438c0-36.847657 17.640625-69.652344 44.917969-90.421876h-57.757813c-15.492187 0-28.171875 12.675782-28.171875 28.171876v124.5c0 15.496093 12.679688 28.171874 28.171875 28.171874h57.757813c-27.277344-20.765624-44.917969-53.570312-44.917969-90.421874zm0 0" fill="#e4eaf8"/><g fill="#c7d2e5"><path d="m31.269531 460.652344v-124.503906c0-15.496094 12.675781-28.171876 28.171875-28.171876h-31.269531c-15.492187 0-28.171875 12.675782-28.171875 28.171876v124.5c0 15.496093 12.679688 28.175781 28.171875 28.175781h31.269531c-15.496094 0-28.171875-12.679688-28.171875-28.171875zm0 0"/><path d="m310.261719 467.386719c-4.265625 0-7.726563-3.460938-7.726563-7.730469v-21.558594c0-4.269531 3.457032-7.726562 7.726563-7.726562s7.726562 3.457031 7.726562 7.726562v21.558594c0 4.269531-3.460937 7.730469-7.726562 7.730469zm0 0"/><path d="m344.351562 467.386719c-4.265624 0-7.726562-3.460938-7.726562-7.730469v-21.558594c0-4.269531 3.460938-7.726562 7.726562-7.726562 4.269532 0 7.726563 3.457031 7.726563 7.726562v21.558594c0 4.269531-3.457031 7.730469-7.726563 7.730469zm0 0"/><path d="m378.445312 467.386719c-4.265624 0-7.726562-3.460938-7.726562-7.730469v-21.558594c0-4.269531 3.457031-7.726562 7.726562-7.726562 4.269532 0 7.726563 3.457031 7.726563 7.726562v21.558594c0 4.269531-3.460937 7.730469-7.726563 7.730469zm0 0"/><path d="m412.535156 467.386719c-4.265625 0-7.726562-3.460938-7.726562-7.730469v-21.558594c0-4.269531 3.460937-7.726562 7.726562-7.726562 4.269532 0 7.726563 3.457031 7.726563 7.726562v21.558594c0 4.269531-3.457031 7.730469-7.726563 7.730469zm0 0"/><path d="m446.628906 467.386719c-4.269531 0-7.726562-3.460938-7.726562-7.730469v-21.558594c0-4.269531 3.457031-7.726562 7.726562-7.726562 4.265625 0 7.726563 3.457031 7.726563 7.726562v21.558594c0 4.269531-3.460938 7.730469-7.726563 7.730469zm0 0"/><path d="m469.726562 307.976562h-159.464843v77.488282c0 7.113281 5.820312 12.933594 12.9375 12.933594h174.699219v-62.25c0-15.496094-12.675782-28.171876-28.171876-28.171876zm0 0"/></g><path d="m341.171875 385.464844v-77.488282h-30.910156v77.488282c0 7.113281 5.824219 12.933594 12.9375 12.933594h30.90625c-7.113281 0-12.933594-5.820313-12.933594-12.933594zm0 0" fill="#bac7db"/><path d="m151.519531 512c-62.636719 0-113.597656-50.960938-113.597656-113.601562 0-62.636719 50.960937-113.597657 113.597656-113.597657 62.640625 0 113.601563 50.960938 113.601563 113.597657 0 62.640624-50.960938 113.601562-113.601563 113.601562zm0 0" fill="#3e4b5a"/><path d="m70.261719 398.398438c0-57.148438 42.421875-104.570313 97.429687-112.441407-5.285156-.757812-10.679687-1.15625-16.171875-1.15625-62.636719 0-113.597656 50.960938-113.597656 113.597657 0 62.640624 50.960937 113.601562 113.597656 113.601562 5.488281 0 10.886719-.398438 16.171875-1.15625-55.007812-7.875-97.429687-55.292969-97.429687-112.445312zm0 0" fill="#313f4c"/><path d="m151.519531 317.140625c-44.804687 0-81.257812 36.453125-81.257812 81.257813 0 44.808593 36.453125 81.261718 81.257812 81.261718 44.808594 0 81.261719-36.453125 81.261719-81.261718 0-44.804688-36.453125-81.257813-81.261719-81.257813zm0 0" fill="#8ac2ff"/><path d="m100.5625 398.398438c0-39.628907 28.519531-72.699219 66.109375-79.820313-4.910156-.929687-9.972656-1.4375-15.152344-1.4375-44.804687 0-81.257812 36.453125-81.257812 81.257813 0 44.808593 36.453125 81.261718 81.257812 81.261718 5.179688 0 10.242188-.507812 15.152344-1.4375-37.589844-7.121094-66.109375-40.195312-66.109375-79.824218zm0 0" fill="#54a0ff"/><path d="m151.519531 368.097656c-16.707031 0-30.300781 13.59375-30.300781 30.300782 0 16.710937 13.59375 30.304687 30.300781 30.304687 16.710938 0 30.300781-13.59375 30.300781-30.304687 0-16.707032-13.589843-30.300782-30.300781-30.300782zm0 0" fill="#54a0ff"/><path d="m151.519531 398.398438c0-11.1875 6.101563-20.976563 15.152344-26.222657-4.460937-2.585937-9.636719-4.078125-15.152344-4.078125-16.707031 0-30.300781 13.59375-30.300781 30.300782 0 16.710937 13.59375 30.304687 30.300781 30.304687 5.515625 0 10.691407-1.492187 15.152344-4.078125-9.050781-5.246094-15.152344-15.035156-15.152344-26.226562zm0 0" fill="#338def"/></svg>