<svg height="511pt" viewBox="1 -116 511.99953 511" width="511pt" xmlns="http://www.w3.org/2000/svg"><path d="m162.910156 256.5c0 12.851562-10.421875 23.273438-23.273437 23.273438-12.855469 0-23.273438-10.421876-23.273438-23.273438s10.417969-23.273438 23.273438-23.273438c12.851562 0 23.273437 10.421876 23.273437 23.273438zm0 0" fill="#1e2147"/><path d="m186.183594 256.5c0 12.851562-10.421875 23.273438-23.273438 23.273438-12.855468 0-23.273437-10.421876-23.273437-23.273438s10.417969-23.273438 23.273437-23.273438c12.851563 0 23.273438 10.421876 23.273438 23.273438zm0 0" fill="#2c2f53"/><path d="m465.453125 256.5c0 12.851562-10.417969 23.273438-23.269531 23.273438-12.855469 0-23.273438-10.421876-23.273438-23.273438s10.417969-23.273438 23.273438-23.273438c12.851562 0 23.269531 10.421876 23.269531 23.273438zm0 0" fill="#1e2147"/><path d="m186.183594.5s186.179687 0 279.269531 46.546875v23.269531h-279.269531zm0 0" fill="#2c2f53"/><path d="m46.546875 47.046875h418.90625c25.707031 0 46.546875 20.835937 46.546875 46.542969v116.363281c0 25.707031-20.839844 46.546875-46.546875 46.546875h-418.90625c-25.707031 0-46.546875-20.839844-46.546875-46.546875v-116.363281c0-25.707032 20.839844-46.542969 46.546875-46.542969zm0 0" fill="#2c2f53"/><path d="m325.816406 209.953125h139.636719c12.855469 0 23.273437 10.421875 23.273437 23.273437 0 12.855469-10.417968 23.273438-23.273437 23.273438h-139.636719c-12.851562 0-23.269531-10.417969-23.269531-23.273438 0-12.851562 10.417969-23.273437 23.269531-23.273437zm0 0" fill="#1e2147"/><path d="m186.183594 47.046875h-139.636719c-25.707031 0-46.546875 20.835937-46.546875 46.542969v116.363281c0 25.707031 20.839844 46.546875 46.546875 46.546875h209.453125c25.707031 0 46.546875-20.839844 46.546875-46.546875v-116.363281c0-25.707032-20.839844-46.542969-46.546875-46.542969zm0 0" fill="#7c7f95"/><path d="m186.183594.5c51.410156 0 93.089844 41.679688 93.089844 93.089844 0 51.414062-41.679688 93.089844-93.089844 93.089844h-23.273438c-51.414062.023437-93.109375-41.640626-93.128906-93.054688-.019531-51.410156 41.644531-93.105469 93.054688-93.125h.074218zm0 0" fill="#2c2f53"/><path d="m256 93.589844c0 51.414062-41.679688 93.089844-93.089844 93.089844-51.414062 0-93.09375-41.675782-93.09375-93.089844 0-51.410156 41.679688-93.089844 93.09375-93.089844 51.410156 0 93.089844 41.679688 93.089844 93.089844zm0 0" fill="#7c7f95"/><path d="m138.378906 159.226562-.894531-.34375c-.140625-.050781-.28125-.105468-.421875-.148437-.152344-.074219-.308594-.140625-.46875-.203125-8.636719-3.507812-16.476562-8.722656-23.054688-15.328125-22.964843-23.171875-26.949218-59.109375-9.621093-86.75.089843-.144531.179687-.292969.265625-.4375.085937-.121094.171875-.242187.253906-.367187l.53125-.800782c3.570312-5.359375 2.140625-12.597656-3.203125-16.199218-5.25-3.554688-12.386719-2.207032-15.980469 3.019531-.097656.148437-.199218.296875-.296875.445312l-.03125.042969-.003906.007812c-.164063.242188-.324219.484376-.484375.730469l-.003906.007813c-.03125.046875-.0625.09375-.09375.140625-.089844.144531-.179688.289062-.265625.4375-.105469.144531-.203125.292969-.300781.445312-7.554688 11.882813-12.300782 25.328125-13.886719 39.316407-.03125.28125-.058594.554687-.089844.832031v.007812c-.015625.160157-.035156.316407-.050781.480469-.011719.113281-.019532.226562-.03125.339844l-.003906.023437c-.003907.039063-.003907.078125-.011719.113281v.015626c-.011719.113281-.019531.226562-.03125.335937v.015625c-.003907.042969-.007813.078125-.011719.117188v.019531c-.007812.066406-.015625.132812-.019531.199219v.007812c-.003907.042969-.007813.082031-.011719.125v.019531c-.003906.039063-.007812.074219-.011719.113281v.019532c-.011719.117187-.019531.226562-.027343.339844v.007812l-.019532.207031c0 .042969-.003906.085938-.007812.132813l-.003906.011718c0 .039063-.003907.082032-.007813.125v.011719c-.007813.070313-.011719.132813-.015625.203125v.003906l-.007812.128907-.003907.015625-.007812.125v.007812c-.003907.070313-.007813.136719-.015625.207032v.003906l-.007813.125v.019531c-.011719.15625-.019531.316406-.03125.476563v.003906l-.011719.207031c-.003906.042969-.003906.089844-.007812.132813v.015624c-.003906.042969-.003906.085938-.007812.128907v.003906c-.003907.070313-.007813.136719-.011719.203125v.007812c0 .046876-.003907.085938-.007813.132813v.003906c-.003906.070313-.007812.136719-.007812.203125l-.003906.019532c0 .035156-.003907.074218-.003907.113281 0 .007812 0 .019531-.003906.03125l-.003906.105469v.019531l-.007813.203125v.007812c-.003906.039063-.003906.082032-.007812.125v.015625l-.003906.125v.007813c-.003907.066406-.003907.132812-.007813.203125v.019531l-.007813.109375v.027344l-.003906.101562v.03125.0625l-.003906.015625-.003906.117188v.019531l-.003906.113281v.019532c0 .066406-.003907.136718-.003907.199218-.003906.007813-.003906.015625-.003906.027344v.105469l-.003906.027343v.097657.035156c-.003907.0625-.003907.128906-.007813.191406v.03125.097657.035156c-.003906.035156-.003906.066406-.003906.101562l-.003906.027344v.0625.015625.121094l-.003906.019531v.109375.027344c0 .035156 0 .070312-.003907.105469v.027343.058594.027344.105469.03125c-.003906.03125-.003906.0625-.003906.097656v.035156.054688.074218.054688l-.003906.042968v.128907.082031.105469.074219.226562c0 .015625-.003907.035156-.003907.050781v.5625c0 .019531 0 .035157.003907.054688v.257812.039063.105468.082032.042968c0 .027344 0 .058594.003906.089844v.125.046875.09375c0 .027344 0 .0625.003906.089844v.039063.09375.03125.109374c.003907.007813.003907.015626.003907.023438v.058594.035156.101562l.003906.023438v.109375.023437.066407l.003906.007812c0 .039063 0 .078125.003906.121094v.03125.09375.039063c.003906.035156.003906.070312.003906.105468v.023438c0 .019531 0 .039062.003907.0625v.03125.097656l.003906.03125v.097656c0 .011719.003906.023438.003906.035156 0 .066407.003907.128907.003907.195313v.019531l.003906.109375v.027344l.003906.097656c0 .011719 0 .023438.003906.035157v.058593.046875l.003906.085938v.035156l.007813.09375c-.003906.011719 0 .023438 0 .035156l.003906.101563v.027343c0 .023438.003907.042969.003907.0625v.019532l.003906.113281v.027344l.007812.101562v.03125c0 .019531 0 .039063.003906.058594v.074219c.003907.019531.003907.035156.003907.054687l.003906.042969v.085938l.003906.042968.003907.085938.003906.042968v.058594c.003906.007813.003906.015625.003906.023438 0 .035156.003906.074218.003906.109375v.023437c.003906.035156.003906.070313.007813.105469v.03125l.003906.09375.003906.035156c0 .019531 0 .042969.003907.0625v.027344c.003906.035156.003906.070313.003906.101563l.003906.035156.003906.097656.003906.03125.003907.066406c0 .019532 0 .042969.003906.066406l.003906.058594v.03125c.003907.035156.003907.070313.007813.105469v.019531c.003906.039063.003906.078125.007812.117188v.015625c.003906.066406.007813.128906.011719.195312l.003906.035157c0 .03125.003907.0625.003907.09375l.003906.035156c0 .027344.003906.0625.007812.09375v.039062l.003906.054688c.003907.015625.003907.03125.003907.046875.003906.027343.003906.058593.003906.085937l.003906.039063c.003907.03125.003907.058593.007813.085937l.003906.039063c0 .035156.003906.070312.003906.105469.003906.007812.003906.015624.003906.023437 0 .019531.003907.039063.003907.058594 0 .015625.003906.027343.003906.039062 0 .03125.003906.0625.007813.09375v.035157c.003906.03125.003906.0625.007812.09375l.003906.035156c.003906.0625.007813.128906.015625.191406v.03125l.007813.101562.003906.027344c0 .039063.003906.070313.007812.109375l.003907.019531.003906.0625.003906.039063c0 .027344.003907.058594.007813.089844v.039062l.007812.089844.003906.039063.007813.089843.003906.039063c0 .019531.003907.039062.003907.058594l.003906.035156.007812.09375c.003906.011718.003906.023437.003906.035156l.007813.09375.003906.039062c0 .019532.003907.039063.007813.058594v.019532c.003906.035156.007812.074218.007812.113281l.003906.027343.007813.09375.003906.042969.007813.082031.007812.042969c0 .023438.003906.042969.003906.0625 0 .007813.003907.019531.003907.03125.003906.035157.003906.066407.007812.101563l.003907.023437c.003906.035157.007812.070313.011718.105469v.027344l.015625.125v.003906c0 .023438.003907.042969.003907.066406l.003906.015625c.003906.039063.007812.074219.011718.117188l.003907.023437c0 .035156.007812.074219.011719.109375v.023438l.015624.125v.007812c0 .019531.003907.039063.003907.0625l.003906.023438c.003906.035156.007813.074219.015625.109375v.023437c.003906.039063.007812.074219.011719.113281l.003906.015626c0 .023437.003906.042968.007813.066406v.015625l.011718.113281c.003906.007812.003906.019531.003906.027344l.011719.105468.003907.027344c.003906.035156.007812.0625.011718.097656l.003906.035157c.003907.019531.003907.039062.007813.058593 0 .011719 0 .023438.003906.035157.003907.03125.007813.0625.007813.09375.003906.011719.003906.023437.007812.035156.003906.03125.007813.0625.011719.09375l.003906.035156c0 .019531.003907.039063.003907.058594l.003906.03125.015625.101563v.03125l.015625.097656.003906.03125c.003906.03125.007812.066406.011719.097656l.003906.035156.007813.058594.003906.035156c.003906.03125.007812.0625.011718.097656l.003907.03125c.003906.027344.007812.066407.011719.09375l.003906.035157c.003906.027343.007812.054687.011718.082031l.007813.046875c0 .019531.003906.039063.007813.054687 0 .019532.003906.039063.003906.058594.003906.027344.007812.046875.011718.070313.003907.015625.003907.03125.003907.046875.003906.027344.007812.054687.011719.082031l.007812.042969.007812.054687c.003907.027344.003907.050781.007813.074219l.007813.054688.007812.050781c.003906.023437.007812.050781.011719.074219 0 .015624.003906.03125.003906.046874.003906.027344.007813.054688.011719.082032.003906.015625.003906.027344.007812.042968l.007813.058594c0 .015625.003906.039063.007812.058594.003907.019531.003907.042969.007813.066406l.007812.046875.011719.078125.007813.046875c.003906.03125.003906.054688.011718.082031 0 .015626.003906.03125.003906.042969.003907.019531.007813.042969.011719.058594 0 .015625.003907.03125.003907.042969l.011718.082031c.003906.015625.003906.027344.007813.042969.003906.027344.007812.058594.011719.082031l.003906.046875.011718.050781c.003907.027344.003907.050781.011719.074219l.007813.058594c0 .011718.003906.027344.003906.039062l.015625.085938c0 .015625.003906.027344.003906.042968l.011719.085938.007812.042969.007813.054687c.003906.023438.007813.046875.011719.074219l.007812.054687c.003906.011719.007813.027344.007813.039063l.015625.085937c0 .015626.003906.03125.003906.042969.003906.019531.007812.042969.011719.0625.003906.019531.007812.042969.011719.066407l.007812.050781c0 .019531.003906.039062.007812.054687.003907.027344.007813.046875.011719.074219.003907.015625.003907.03125.007813.050781l.011718.070313.007813.050781.007813.054688c.003906.023437.011718.046874.011718.074218.003906.019532.007813.035156.011719.054688l.007813.042968c.003906.027344.007812.054688.011718.085938l.007813.039062c.003906.027344.007812.046876.011719.074219l.011718.054688.007813.050781.011719.078125c.003906.015625.007812.03125.011718.050781l.007813.050782.011719.078124.007812.042969c.003906.023438.007812.046875.011719.070313l.011719.058594.007812.050781.011719.058593.011719.070313c0 .015625.003906.027344.007812.042969.003906.027344.011719.058594.015625.089844l.007813.035156c.003906.023437.007812.046875.011718.066406l.011719.0625.007813.054688.011718.054687.011719.070313.007813.042968c.003906.03125.011718.054688.015624.082032l.011719.050781.007813.050781c.003906.023438.007812.046875.011718.074219l.011719.054687.007813.046875c.003906.023438.011718.054688.015625.078125l.007812.039063c.003907.03125.007813.058593.015625.085937l.007813.046875c.003906.015625.007812.035157.011719.050781l.011718.066407c.003906.019531.007813.042969.011719.0625.003906.015625.007813.03125.007813.050781.003906.019531.011718.042969.015624.066406.003907.019532.007813.039063.011719.058594.003907.015625.003907.03125.007813.046875l.015625.078125c.003906.015625.007812.035156.011719.046875l.011718.0625c.003906.019531.007813.046875.011719.066406l.007813.046875c.007812.023438.011718.050782.015624.078125.003907.015625.007813.03125.011719.046875l.011719.050782c.003906.027343.007812.054687.015625.078124 0 .015626.003906.035157.007813.050782.003906.019531.007812.03125.011718.050781l.015625.074219c0 .015625.003907.03125.007813.050781s.007812.042969.015625.066406c.003906.015625.007812.039063.011719.058594.003906.015625.007812.03125.011718.050781l.015625.078125.007813.046875c.003906.015625.007812.03125.011718.050782.003907.023437.011719.050781.015626.074218.003906.019532.003906.03125.011718.050782 0 .015624.003906.03125.011719.050781l.011719.070312.015625.058594.003906.039063c.007813.027343.015625.054687.019531.085937l.011719.042969.015625.078125c.003906.015625.003906.03125.011719.046875l.011719.054687c.003906.023438.007812.050781.015624.074219 0 .015625.003907.035156.011719.054688.003907.015624.003907.027343.007813.046874l.019531.074219c0 .015625.003906.03125.007813.050781.003906.015626.011718.039063.011718.058594.007813.019532.011719.042969.015625.0625l.011719.054688c.003906.015625.007812.03125.011719.042968.003906.027344.011719.058594.019531.085938 0 .011719.003906.027344.007812.039062.003907.027344.011719.058594.019532.085938l.007812.042969c.003906.015625.007813.035156.011719.050781l.019531.078125c.003906.015625.007813.035156.007813.050781.007812.015625.007812.027344.011719.042969.007812.027344.011718.054687.019531.085937l.007812.039063.019531.089844.007813.035156c.007813.019531.011719.039063.015625.058594v.003906l.027344.121094.007812.035156.023438.097656.007812.027344.023438.101563.007812.027343.011719.0625.003906.015625c.007813.035156.015625.070313.027344.109375l.007813.03125c.003906.03125.011718.0625.019531.09375.003906.011719.007812.023438.011719.035157.003906.035156.011718.0625.019531.097656.003906.007812.003906.019531.007812.027344.003907.023437.007813.039062.015625.058593 0 .015625.003906.03125.007813.046875l.019531.082032.011719.039062.019531.078125c.003906.019531.007812.035156.011719.050781l.011719.050782.019531.074218c.003906.019532.007812.035156.015625.054688l.007812.046875c.007813.023437.015625.050781.019532.074219l.035156.128906c0 .015625.003906.023437.007812.042968l.015625.050782.011719.050781c.007812.027344.011719.054687.019531.078125l.011719.039062.019531.089844.007813.035156.027344.101563.007812.023437c.003906.019532.007812.039063.011719.058594l.035156.128906c0 .011719.003906.019532.007813.035157.007812.03125.015624.058593.023437.089843.003906.011719.007813.023438.007813.035157l.015624.058593c.007813.023438.011719.042969.019532.066407.003906.019531.011718.039062.015625.058593.003906.011719.007812.023438.007812.035157.007813.03125.015625.058593.023438.089843.003906.011719.007812.027344.011719.039063.007812.03125.015624.058594.023437.089844l.007813.035156c.003906.019531.011718.039063.015624.058594l.011719.042969c.007813.027343.015625.054687.023438.082031.003906.011719.007812.023437.007812.035156.007813.027344.015625.0625.023438.089844l.011719.039062.015624.058594c.007813.023437.011719.042969.019532.066406.003906.019531.007812.039063.015625.058594l.007812.03125c.007813.03125.015625.0625.027344.09375 0 .011719.003906.023437.007813.03125.007812.035156.019531.066406.027343.101563l.007813.027343c.011718.042969.023437.082031.035156.121094v.003906c.003906.019531.011719.042969.015625.0625l.007813.019531c.007812.035157.015624.070313.027343.105469l.007813.03125c.007812.03125.015625.058594.027344.089844.003906.011719.003906.027344.007812.039063l.015625.054687.011719.042969.023437.082031c.003907.011719.007813.03125.015625.042969.003906.027344.011719.054687.019532.082031l.011718.039063c.007813.027343.015625.050781.023438.078124.003906.015626.007812.03125.015625.050782.003906.015625.007812.035156.015625.054687l.011718.039063.023438.082031.011719.042969c.007812.023437.015625.050781.023437.078125l.011719.046875c.007813.019531.011719.03125.015625.050781l.019531.074219.015625.050781c.003906.015625.011719.03125.015625.050781l.019531.074219.015626.046875.019531.0625c.007812.019531.011719.042969.019531.0625l.011719.046875.023437.074219c.003906.019531.011719.035156.015625.050781.003907.015625.007813.03125.011719.042969.007812.03125.015625.058594.027344.082031.003906.015625.007812.027344.007812.042969.007813.019531.015625.046875.023438.066406.003906.019531.011718.042969.015625.058594.007812.015625.011719.035156.015625.050781l.019531.058594.019531.066406.011719.046875c.011719.023438.015625.046875.023437.074219.007813.015625.011719.03125.015626.050781l.015624.046875.023438.074219c.003906.015625.011719.035156.015625.050781l.019531.066406c.007813.019531.011719.035157.019532.054688l.011718.046875c.007813.027344.019532.050781.023438.078125l.015625.046875.015625.050781c.007812.023437.015625.046875.023437.070313.003907.019531.011719.039062.015625.054687l.015625.046875c.007813.023438.015625.050781.023438.074219.003906.015625.011719.03125.015625.042969.007812.027343.015625.054687.023437.078124l.015625.046876.015625.054687.015625.050781c.007813.023438.015625.050782.023438.074219l.015625.039063c.007812.027343.015625.058593.023437.085937.007813.011719.011719.023437.011719.035156.007813.023438.011719.039063.019531.058594.007813.023437.015625.046875.023438.070313.003906.019531.011718.03125.015625.050781l.015625.046875.023437.074218c.007813.015626.011719.035157.019531.050782l.019532.066406c.007812.019531.011718.035156.019531.054688.003906.015624.011719.035156.015625.050781.007812.023437.015625.050781.023438.074219l.015624.046874.015626.050782.027343.074218.011719.042969c.007812.023438.015625.042969.023438.066407l.019531.054687.015625.054687.019531.054688.019531.066406c.007813.015625.015625.035156.019532.050782l.023437.070312.015625.050781.019531.046875c.007813.023438.015625.050782.023438.074219.003906.015625.011719.035156.015625.050781l.019531.054688c.007813.023437.015625.042968.023437.066406l.015626.050781c.007812.019531.015624.039063.023437.0625.003906.019531.011719.035157.019531.054688l.015625.050781.023438.074219.019531.050781c.003906.015625.011719.03125.019531.050781.003907.019531.015625.042969.019531.066407.007813.019531.015626.035156.019532.050781l.015625.046875c.011719.027344.019531.054687.027343.078125.003907.015625.011719.027343.015626.042969.007812.027343.019531.050781.027343.078124.003907.015626.011719.03125.015625.042969.007813.019531.015625.039063.019532.058594.007812.019531.011718.035156.019531.054687.007812.019532.015625.042969.019531.0625.007812.015626.011719.027344.019531.042969.007813.027344.015625.050781.027344.078125.003906.015625.007813.027344.015625.042969.003906.023437.015625.042969.023438.066406.003906.019531.011718.035157.019531.054688l.019531.054687.019531.058594c.007813.023438.015625.042969.023438.0625.003906.015625.007812.03125.015625.042969.007812.027343.019531.054687.027344.078125.003906.015625.011718.03125.015624.042968.007813.019532.015626.042969.023438.0625.003906.019532.015625.039063.019531.058594.007813.019532.011719.03125.019531.054688l.023438.054687.019531.0625.019531.046875c.007813.023438.015626.042969.023438.066406l.019531.058594.019531.042969c.007813.023437.015626.050781.027344.078125.003906.015625.011719.03125.015625.046875.007813.015625.011719.03125.019531.046875.007813.023438.019532.050781.027344.074219.003906.015625.011719.035156.015625.046875.011719.027344.019531.050781.027344.078125.007813.011719.011719.027343.015625.039062.007812.019531.015625.035157.023438.058594.007812.019531.015624.035156.019531.058594l.023437.0625c.007813.011719.011719.023437.015625.039062l.03125.078125c.003907.015625.011719.03125.015625.042969.007813.023437.015625.042969.023438.0625l.023437.058594c.007813.019531.011719.03125.019531.050781.007813.023438.015626.046875.023438.070312.007812.015626.015625.035157.019531.050782.007813.015625.015625.03125.019531.046875l.03125.078125c.003907.011718.011719.03125.015626.042968.007812.019532.015624.035157.019531.054688l.027343.0625.019532.054688.015625.046874c.011719.023438.023437.050782.03125.078126.007812.011718.011719.027343.015625.039062.011718.023438.019531.050781.027344.070312.007812.019532.011718.03125.019531.050782.007812.015625.015625.039062.023437.058594.007813.019531.015625.035156.023438.054687.003906.019531.015625.039063.019531.058594l.019531.046875c.011719.027344.019532.050781.03125.078125.003906.011719.011719.027343.015625.042969l.023438.054687c.007812.019531.015625.042969.027343.0625l.019532.058594.015625.035156.03125.082031.015625.039063c.011718.027343.023437.054687.035156.082031l.011719.035156.027343.066406c.007813.015626.015626.035157.019532.050782l.027344.066406.015624.035156c.007813.027344.023438.054688.03125.082032l.015626.039062c.011718.023438.023437.054688.035156.082031l.015625.035157c.007812.019531.015625.042968.023437.0625.007813.015624.011719.027343.019532.046874.011718.019532.019531.046876.03125.070313l.015624.039063c.011719.027343.019532.050781.03125.078124.003907.011719.011719.027344.015626.042969.011718.023438.019531.042969.027343.066407l.023438.046874c.003906.019532.015625.042969.023437.058594.007813.019532.011719.035156.019532.050782l.027343.070312.019531.042969c.011719.023437.019532.050781.03125.074219l.019532.046874c.007812.019532.015625.035157.023437.054688l.023438.054688.023437.0625c.003906.011718.011719.023437.015625.039062l.035157.078125.019531.039063.03125.074218.019531.046875c.003906.019531.015625.039063.023438.058594l.019531.046875.027343.070312c.007813.011719.011719.027344.019532.039063.011718.023437.023437.054687.03125.078125.007812.011719.015625.03125.019531.042969.007813.019531.019531.039062.023437.058593.011719.023438.019532.039063.027344.058594l.023438.054688c.007812.015625.011718.027344.019531.046875.011719.023437.023437.046875.03125.074219.007813.011718.011719.023437.019531.035156.011719.03125.019532.054687.035156.082031.003907.011719.011719.027344.015626.039063.007812.019531.015624.039062.027343.0625l.023438.054687c.007812.019531.015625.039063.023437.058594l.019532.039062c.011718.027344.019531.050781.035156.078125.003906.015625.011718.027344.019531.042969.007813.023437.019531.046875.027344.070313.011719.015624.015625.03125.023437.046874.007813.019532.015625.035157.023438.050782.007812.023437.019531.042968.027344.070312l.023437.046875.019531.046875c.011719.023438.023438.050782.035156.074219l.019532.046875c.007812.015625.019531.039062.027344.058594.007812.015625.015624.039062.023437.054687l.023437.054688.027344.058593c.007813.023438.015625.039063.027344.058594.003906.015625.011719.03125.019531.042969l.03125.078125c.007813.015625.015625.023438.019531.039062l.027344.0625.023438.050782c.011718.023437.019531.039062.027344.058594.003906.011718.011718.027343.019531.042968.011719.023438.019531.046875.035156.074219l.019531.042969c.011719.023437.019532.046875.03125.070312.007813.015625.015625.03125.023438.046875l.023437.058594.027344.054687.023437.058594c.007813.015625.015626.027344.023438.042969.011719.027344.019531.050781.035156.078125l.019532.039062c.007812.019532.015624.039063.027343.058594.007813.023438.015625.039063.023438.058594.011719.019531.019531.035156.027343.054688l.023438.050781.027344.058593c.007812.015626.015625.035157.023437.050782.011719.023437.023438.046875.03125.070312.007813.015625.019531.03125.023438.046875.007812.015625.015625.035157.023437.050781.011719.023438.023438.042969.03125.066407.007813.015625.015625.035156.023438.050781l.023437.050781c.011719.023438.023438.042969.03125.066407.011719.015624.015625.03125.023438.046874.011719.023438.023437.046876.035156.070313.007813.015625.015625.03125.019531.042969l.027344.054687c.011719.023438.015625.035157.023438.054688.011718.019531.019531.042969.03125.0625.007812.015625.011718.023437.019531.039062.011719.027344.023437.046875.035156.074219l.023437.046875c.007813.019531.019532.039063.027344.0625.011719.015625.015625.03125.027344.050781.007812.019532.019531.039063.027344.054688l.023437.050781.03125.066406.019531.039063c.011719.027344.027344.050781.039063.078125l.019531.039062c.007813.019531.019532.042969.027344.058594.011719.019531.019531.039063.027344.058594.011718.015625.019531.035156.027344.054687.007812.011719.011718.027344.019531.039063l.058593.117187c.011719.023438.023438.046875.035157.074219.007812.011719.015625.03125.023437.042969.007813.019531.015625.035156.027344.054687.007812.015625.015625.039063.027344.054688.007812.023437.015625.039062.027344.058593.007812.015626.015624.027344.019531.042969.011719.023438.027343.050781.039062.074219.007813.015625.011719.027344.019531.039062.011719.027344.023438.046876.035157.074219.007812.015625.015625.027344.023437.042969.007813.019531.019532.035156.027344.054688.007812.019531.019531.035156.027344.054687.007812.015625.019531.039063.03125.058594l.019531.042969c.011719.023437.027344.050781.039063.074218l.019531.042969.03125.054687c.007812.019532.019531.039063.027343.058594l.027344.054688c.007813.015625.015625.03125.023438.042968.011718.023438.023437.046876.035156.070313.007812.015625.015625.03125.023438.046875.011718.023438.023437.046875.039062.074219.003906.011719.011719.023437.019531.039062l.027344.054688.03125.054687c.007813.019532.019531.039063.03125.058594.003906.011719.011719.027344.015625.039062l.039062.078126.023438.039062c.011719.023438.023438.046875.035156.066406l.050782.101563c.011718.019531.019531.039062.03125.054687.011718.023438.019531.042969.03125.0625l.019531.039063.042969.078125.019531.035156c.011719.023438.019531.042969.03125.066406l.027343.046875.03125.058594.019532.039063.039062.074218.019532.039063c.015624.027343.027343.050781.042968.078125l.019532.039062c.007812.015625.023437.039063.03125.058594l.03125.050781c.007812.019531.019531.039063.027343.058594.007813.015625.011719.023437.023438.039063.011719.027343.023437.054687.039062.078124l.019531.039063c.015626.023437.027344.050781.042969.074219l.015625.035156.039063.066406.015625.027344c.015625.027344.027344.050781.039062.078125l.023438.039063.039062.078124.023438.035157c.011718.023437.019531.042969.035156.0625.007812.015625.015625.035156.027344.054687.007812.015625.019531.035156.03125.054688.007812.011718.011718.023437.019531.035156.011719.027344.027344.054688.042969.078125l.019531.039063c.011719.023437.027344.050781.042969.078124.003906.007813.011718.023438.019531.03125.011719.023438.023437.046876.035156.070313.007813.011719.015625.023437.019531.035156l.039063.070313.019531.03125c.015625.027344.03125.054687.042969.082031l.019531.035156c.015625.027344.027344.050781.046875.082031.003907.007813.011719.015626.015625.027344.011719.023438.023438.042969.039063.066406l.019531.035157.039062.074219.019532.035156c.015625.027344.027344.050781.042968.078125l.023438.039062c.015625.023438.027344.046875.039062.070313l.019532.035156c.011718.023438.023437.042969.039062.066406.003906.011719.011719.019532.015625.03125l.046875.078125.019532.035157.042968.078124c.007813.011719.015625.027344.019532.035157l.039062.066406.023438.039063c.011718.023437.023437.046874.039062.070312.003906.011719.011719.019531.015625.03125.015625.023438.03125.050781.046875.078125l.019531.035156c.015625.027344.03125.054688.046875.078125.007813.011719.011719.023438.019532.035156l.035156.058594c.007812.015625.011718.027344.023437.042969.011719.019531.027344.046875.039063.070313l.019531.03125.046875.082031c.007812.011719.015625.019531.019531.03125l.046875.078125.015625.03125c.015625.023437.027344.046875.042969.070312l.015625.027344c.015625.027344.03125.050781.046875.082031.007812.007813.011719.019531.019531.027344l.050781.085937.011719.023438c.015625.027344.03125.050781.046875.078125.007813.011719.011719.019531.019532.03125.011718.023437.027343.050781.042968.070313.003906.011718.007813.019531.015625.03125.015625.027343.03125.054687.046875.078124.007813.011719.011719.023438.019532.03125.019531.03125.035156.054688.050781.085938l.015625.023438c.015625.027343.027344.046874.042968.074218l.015626.027344c.015624.027344.03125.050781.046874.078125.007813.007813.011719.019531.019532.027344.015625.027343.03125.058593.050781.085937l.015625.027344.050781.082031.015625.023438c.011719.023437.027344.050781.042969.074219l.015625.023437.050781.082031c.003907.011719.011719.019532.015625.03125.015625.027344.035156.054688.050782.082032.007812.007812.011718.019531.015624.027343.015626.027344.035157.050781.050782.078125.003906.007813.007812.015625.015625.023438.015625.027344.03125.050781.042969.078125l.019531.023437c.015625.03125.035156.058594.050781.085938.003906.007812.011719.015625.015625.023437.019531.03125.035156.058594.054687.085938l.011719.023437c.015625.027344.035157.054688.050781.078125l.007813.015625c.015625.027344.039063.058594.054687.085938.003907.011718.011719.019531.019532.03125.015625.027344.03125.054687.050781.082031.003906.007813.011719.015625.015625.023437.019531.027344.035156.058594.054688.085938l.011718.023438c.015625.027343.03125.046874.046875.074218l.015625.023438.050782.082031.019531.03125c.015625.023437.035156.050781.050781.078125.007812.007812.011719.019531.015625.027344.019531.027344.035156.050781.050781.078125.007813.007812.011719.019531.015625.027343.015625.023438.03125.046876.046875.070313l.019532.03125c.015624.023437.03125.050781.050781.078125.003906.007812.011719.019531.019531.03125.015625.027344.03125.050781.050781.078125l.015625.027344.046875.074219c.003907.007812.011719.015624.015625.023437.019532.027344.035156.054687.054688.082031l.015625.023438c.015625.027344.035156.054687.050781.082031.007812.011719.011719.019531.019531.027344.015625.027343.035157.058593.054688.085937l.011719.019532c.015624.023437.03125.050781.050781.074218.003906.007813.007812.015625.011719.023438l.054687.085937.019531.023438c.015625.023437.035156.054687.050782.082031l.019531.027344c.019531.027344.035156.054687.054687.085937l.0625.09375c.003906.007813.011719.015625.015625.023438.015625.027343.035157.054687.054688.085937l.015625.019532c.019531.027343.039062.058593.058594.089843l.011718.015625c.015625.03125.035156.058594.054688.085938l.007812.011718c.019532.027344.035156.054688.058594.085938l.015625.023438c.019531.027343.035156.054687.054687.085937.003907.007813.011719.015625.015626.023437.019531.027344.039062.054688.058593.085938l.011719.019531c.019531.027344.035156.050781.050781.078125l.015625.015625c.015625.027344.035156.058594.054688.082031l.019531.03125c.019531.027344.035156.050782.054687.082032.003907.007812.011719.015625.015626.023437.019531.027344.039062.054688.058593.082031l.011719.019532c.015625.023437.035156.050781.050781.078125.003907.007812.011719.011719.015625.019531.019532.027344.039063.054688.054688.085938l.019531.023437c.019531.027344.035156.054687.054687.082031l.019532.027344c.011718.019531.03125.046875.046875.070312l.019531.03125c.019531.023438.035156.046876.050781.074219l.019531.023438c.015626.027343.039063.058593.054688.082031l.019531.027344c.019531.023437.039063.054687.054688.082031l.015625.019531c.019531.027344.035156.050782.050781.074219.007813.007813.011719.015625.015625.023437.019531.023438.035156.050782.054688.078126l.019531.03125c.019531.023437.039062.054687.058593.078124l.015626.023438c.019531.027344.039062.054688.058593.082031.003907.007813.007813.015625.015625.019531.015625.027344.03125.050782.046875.074219l.019531.027344c.019532.027344.039063.050781.054688.078125l.023438.03125c.015624.027344.035156.050781.054687.078125l.019531.023437c.015625.027344.035156.054688.054688.078126l.007812.011718c.019532.027344.039063.058594.058594.082032l.015625.027343c.019531.027344.039063.054688.058594.082031l.019531.027344c.019531.023438.039062.050782.058594.078125l.015625.023438.050781.074219.015625.019531c.019531.027343.039063.054687.058594.082031l.019531.027344c.015625.023437.039062.054687.054688.078125l.019531.023437c.019531.027344.039062.058594.058593.085938l.011719.015625c.019531.023437.039063.050781.054688.078125.007812.003906.011719.011718.015625.019531.019531.023437.039062.054687.0625.082031l.015625.023438c.019531.027344.039062.054687.058593.082031l.015626.023437.058593.078126.011719.019531c.023438.023437.042969.050781.058594.078125l.019531.023437.058594.078125.019531.027344c.019531.027344.039062.054688.058594.082031l.011718.015625.058594.082032.011719.015624c.019531.027344.042969.054688.0625.082032l.015625.023437.0625.082031.015625.023438c.023437.027344.042969.054688.0625.085938l.011719.011718c.019531.027344.039062.054688.058594.078125l.015624.019531c.019532.027344.039063.054688.058594.082032l.019532.027344c.019531.023437.039062.050781.058593.078124.007813.007813.015625.015626.019531.023438.019532.027344.035157.050781.058594.078125l.011719.015625c.019531.027344.039063.054688.058594.078125l.015625.023437c.023437.027344.042968.054688.0625.082032.007812.007812.011718.015625.019531.023437.019531.027344.039063.054688.0625.082031l.015625.019532c.019531.027344.035156.050781.054688.078125l.011718.015625c.023438.027344.042969.054687.066406.082031l.015626.023437.0625.082032.015624.019531c.023438.027344.042969.054687.0625.082031l.015626.019532c.019531.027343.039062.050781.058593.074218l.011719.019532c.023438.027343.042969.054687.066406.082031l.015625.023437c.023438.027344.042969.054688.066407.082032l.011718.019531c.019532.027343.042969.054687.066406.082031l.007813.011719c.023437.027343.042969.054687.0625.082031l.015625.019531c.023438.027344.042969.054688.0625.082031l.019531.023438c.019531.027344.042969.054688.0625.078125l.015625.023437.0625.078126.007813.007812c.023437.03125.042969.058594.066406.085938l.015625.019531c.023438.027343.042969.058593.066406.085937l.015625.019532.066407.085937.011718.011719c.019532.023437.042969.054687.0625.078125.003906.003906.007813.011719.011719.019531.019531.023438.046875.054688.070313.082031l.011718.019531c.023438.027344.042969.054688.066406.082032.007813.007812.011719.015625.015626.019531.023437.03125.046874.058594.070312.085937l.003906.007813c.023438.027344.042969.054687.066406.082031l.015626.019532.066406.082031.015625.019531c.023437.027344.046875.058594.066406.085938l.015625.011718c.019531.027344.042969.058594.066406.085938l.003906.007812c.023438.027344.046876.054688.070313.085938l.015625.019531c.023438.027344.046875.054687.070312.082031l.011719.015625.070313.089844.007812.007813c.023438.027343.042969.054687.070313.085937l.007812.011719c.023438.023437.046875.054687.070313.082031l.015625.019531c.023437.027344.046875.054688.066406.082032l.019531.019531c.019532.027343.042969.054687.0625.078125l.015625.015625c.019531.027343.042969.054687.066407.078125l.011718.019531c.023438.027344.046875.054687.066406.082031l.019532.019532.070312.082031.007813.011719.074219.085937.003906.007813c.027344.027343.046875.054687.074218.085937l.011719.015625c.023438.027344.046875.054688.070313.082031l.015625.019531.070312.085938.011719.011719c.019531.023437.046875.054687.066406.078125l.011719.015625c.023437.023437.046875.054687.070313.082031l.015624.019531.070313.082031.015625.015626c.023438.03125.046875.058593.070312.085937l.007813.011719c.023437.023437.042969.050781.066406.078125l.015625.015625.070313.082031.015625.019531c.023437.027344.050781.054688.070312.082032l.015625.015624c.019531.027344.046875.054688.066407.082032l.007812.007812c.027344.027344.050781.054688.074219.082032l.015625.019531c.023437.027343.046875.054687.070312.082031l.015625.015625c.023438.027344.050781.058594.074219.085937l.007812.011719c.027344.027344.046876.054688.070313.082031l.007813.007813c.027343.027344.050781.054687.074218.085937l.015625.015626c.023438.027343.046875.054687.074219.082031l.011719.019531c.023437.027344.050781.054688.074219.082031l.007812.011719c.023438.023438.046875.050781.070312.078125l.011719.015625c.027344.027344.050781.054688.074219.082031l.015625.015625c.023437.03125.046875.054688.074219.085938l.011718.011718.070313.082032.007813.007812c.023437.027344.050781.054688.074218.082032l.015625.019531.074219.082031.011719.015625c.027343.027344.050781.054687.074219.082031l.011718.011719c.023438.03125.046875.050781.070313.082031l.011719.011719.074218.082031.015625.015625c.023438.027344.050781.058594.074219.085938l.011719.011719.082031.089843c.027344.03125.050781.054688.074219.085938l.011719.011719c.027343.027343.050781.054687.078124.082031l.015626.019531c.023437.023438.046874.050781.074218.078125l.011719.019531c.023437.023438.050781.050782.074219.078125l.003906.003907c.027344.03125.050781.058593.078125.085937l.015625.015625c.023438.03125.046875.054688.074219.082031.003906.003907.011719.011719.015625.015625.023437.027344.050781.054688.074218.082032l.011719.011718c.023438.027344.050781.054688.074219.082032l.007812.007812c.027344.027344.050782.054688.078126.082031l.011718.015625c.027344.027344.050782.054688.078125.082032l.011719.015624c.027344.03125.050781.054688.078125.082032l.007813.011718c.027343.027344.050781.050782.074218.078126l.011719.011718.078125.082032.015625.019531c.027344.023437.050781.050781.074219.078125l.011718.011718.082032.085938v.003906c.027344.027344.054687.054688.082031.082032l.011719.015624.078125.082032.015625.015625c.023437.027343.054687.054687.078125.082031l.007812.007812.078125.082032.007813.007812c.023437.027344.050781.054688.078125.082032l.015625.015624c.023437.027344.046875.054688.074219.082032l.015624.015625c.027344.027343.054688.054687.078126.082031l.007812.003906c.023438.03125.050781.054688.078125.082032l.011719.011718c.023437.023438.050781.058594.078125.082032l.015625.015624c.023437.027344.050781.054688.074218.078126l.015626.015624c.054687.054688.109374.113282.164062.167969l.015625.015625c.023437.027344.050781.054688.078125.082032l.011719.011718c.027343.027344.054687.054688.078125.082032l.015625.015624c.023437.023438.050781.050782.074219.074219l.007812.007813c.027344.027344.054688.054687.082031.082031l.09375.09375.011719.015625.082031.082031.007813.007813.082031.082031.007813.007813.078124.082031.015626.015625c.027343.027344.054687.054687.082031.082031l.011719.007813c.027343.03125.054687.058593.085937.085937l.128906.132813c.023438.023437.042969.042968.066407.0625l.027343.03125c.03125.03125.066407.0625.097657.09375l.050781.050781.003906.003906c.125.121094.246094.242187.371094.367187l.050781.050782c.011719.007812.023438.019531.03125.027344l.027344.023437.011718.015625c.011719.011719.027344.027344.039063.039062l.003906.003907.050781.046875c.007813.007812.019532.019531.027344.027344l.027344.023437.023438.027344.027343.027343c.011719.007813.019531.015626.03125.027344l.023438.023438c.011719.011718.027343.023437.039062.035156l.015625.015625.019532.023437c.03125.027344.058593.054688.089843.082032l.105469.105468.007812.003907c.015626.015625.03125.03125.046876.046875l.007812.007812.261719.25.007812.007813c.015625.015625.03125.027343.046875.042969l.003906.003906c.054688.050781.105469.101562.160157.152344l.007812.003906.046875.046875c6.285156 5.9375 13.371094 10.964843 21.046875 14.945312h.003907l.058593.03125h.003907c.019531.011719.039062.019531.058593.03125l.007813.003907.058594.03125c.023437.011718.039062.019531.0625.03125l.003906.003906c.019531.011718.039062.019531.0625.03125l.0625.03125c.019531.011718.039062.019531.0625.03125v.003906c.019531.007812.039062.019531.054687.027344l.019531.007812.042969.023438.019531.007812c.015626.007813.027344.015625.046876.023438l.019531.011718.046875.023438.011718.003906c.015626.011719.03125.015625.046876.023438l.023437.011718.039063.023438.085937.042969.042969.019531.019531.011719c.015625.007812.027344.011719.039063.019531l.0625.03125.035156.015625.027344.015625c.011718.007812.023437.011719.035156.019531.007812.003907.019531.007813.027344.011719.011718.007812.023437.011719.035156.019531l.027344.011719c.011718.007812.027343.015625.039062.019531.007812.003907.015625.007813.023438.011719.011718.007812.027343.015625.039062.019531l.023438.011719.042968.023438c.007813 0 .015625.003906.019532.007812l.042968.019531c.007813.007813.015625.011719.023438.011719l.046875.027344.011719.003906c.015624.007812.035156.015625.050781.023438l.011719.007812.054687.023438.011719.007812c.015625.007812.03125.015625.050781.023438l.015625.007812c.015625.007812.035156.015625.054688.027344l.003906.003906c.019531.007812.035156.015625.054687.023438l.011719.007812c.019531.007812.039062.015625.054688.027344h.003906l.0625.03125h.003906c1.875.914062 3.777344 1.761718 5.703125 2.542968.179687.074219.363281.144532.546875.207032.152344.070312.308594.136718.460938.199218.113281.042969.226562.085938.339843.128907.015625.007812.035157.015625.050781.019531l.011719.007812c.125.046876.246094.09375.371094.140626l.007813.003906.070312.027344c.023438.007812.050781.015624.074219.027343.148437.054688.300781.113281.449219.167969l.007812.003906c.054688.019532.105469.039063.160156.058594 5.960938 2.183594 12.5625-.859375 14.78125-6.808594 2.253906-6.03125-.78125-12.75-6.792968-15.050781zm0 0" fill="#cacad4"/><path d="m254.1875 75.503906-.011719-.066406c-.027343-.117188-.046875-.226562-.070312-.339844l-.003907-.007812-.011718-.058594v-.011719l-.015625-.058593v-.011719c-.027344-.132813-.054688-.269531-.085938-.402344v-.003906c-.015625-.089844-.039062-.179688-.054687-.269531l-.003906-.007813-.011719-.058594-.003907-.011719c-.003906-.019531-.007812-.039062-.011718-.058593l-.003906-.015625c-.015626-.082032-.035157-.164063-.054688-.246094l-.003906-.023438-.011719-.050781c0-.003906 0-.011719-.003906-.019531l-.011719-.054688-.003906-.015624c-.015625-.085938-.035156-.167969-.054688-.253907l-.003906-.011719-.011719-.058593-.003906-.015625-.011719-.054688-.003906-.015625c-.019531-.085937-.039062-.167969-.058594-.25v-.015625c-.007812-.023437-.011718-.035156-.015625-.058594l-.003906-.015624-.011719-.054688c0-.003906-.003906-.011719-.003906-.015625-.019531-.085937-.039062-.164063-.058594-.25l-.003906-.015625-.011719-.058594-.003906-.015625-.011719-.050781-.007812-.023438c-.015625-.078124-.035156-.160156-.054688-.242187l-.007812-.023437-.007813-.050782-.007812-.019531-.011719-.054687-.003906-.015626c-.011719-.050781-.023438-.101562-.035156-.148437-.003907-.015625-.007813-.03125-.011719-.046875l-.007813-.039062-.011718-.035157c-.003907-.015625-.007813-.027343-.011719-.039062 0-.011719-.003907-.023438-.003907-.035157l-.011718-.039062-.007813-.042969-.011719-.035156c0-.011719-.003906-.023437-.007812-.039063l-.007812-.035156c-.007813-.019531-.011719-.046875-.019532-.066406 0-.015625-.003906-.027344-.007812-.042969l-.007813-.035156c-.003906-.015625-.007812-.027344-.011719-.039063l-.007812-.035156-.011719-.039062-.007812-.035156-.007813-.039063c-.003906-.015625-.007812-.03125-.011718-.046875l-.023438-.082031c-.003906-.019531-.007812-.039063-.011719-.058594l-.007812-.03125c-.003907-.015625-.007813-.03125-.011719-.046875l-.007812-.027344c-.003907-.015625-.007813-.027344-.011719-.042968-.003907-.011719-.003907-.019532-.007813-.03125l-.011718-.046876-.003907-.011718-.042969-.167969-.007812-.035156-.011719-.042969-.007812-.03125-.011719-.039062-.007812-.035157c0-.015625-.007813-.027343-.011719-.039062l-.007813-.039063-.007812-.035156-.015625-.058594c-.003907-.015625-.011719-.035156-.015625-.050781-.003906-.011719-.003906-.023437-.007813-.035156-.003906-.011719-.007812-.027344-.011719-.039063l-.007812-.035156-.011719-.039062-.011719-.042969-.007812-.03125-.011719-.050781-.007812-.023438c-.003907-.023438-.011719-.050781-.019531-.074219l-.003907-.019531c-.003906-.015625-.007812-.039062-.015625-.058594l-.007812-.027344-.011719-.042968c-.003906-.011719-.003906-.019532-.007813-.03125l-.011718-.050782-.007813-.027343-.019531-.0625v-.011719c-.007812-.023438-.015625-.046875-.019531-.070312l-.007813-.03125c-.003906-.015626-.011718-.03125-.015625-.046876l-.007812-.03125-.011719-.042968-.007812-.035156-.011719-.042969-.007813-.03125-.015625-.046875-.003906-.027344c-.007813-.023438-.015625-.050781-.023437-.074219l-.003907-.015625c-.003906-.023437-.011719-.042968-.015625-.0625l-.003906-.019531-.019531-.054687-.003907-.027344c-.007812-.015625-.011718-.03125-.015624-.050782l-.007813-.023437c-.003906-.023437-.011719-.042969-.015625-.0625l-.003906-.011719-.023438-.078125v-.003906c-.007812-.023437-.015625-.050781-.019531-.074219l-.003906-.015625-.019531-.058593-.003907-.023438c-.007812-.019531-.011719-.035156-.019531-.058594l-.003906-.015625c-.003906-.023437-.011719-.046875-.015625-.066406l-.003907-.011719c-.007812-.027344-.015624-.050781-.023437-.078125l-.003906-.011719-.015625-.0625-.007813-.027343c-.003906-.015625-.011719-.03125-.015625-.050781l-.003906-.023438-.019531-.054688-.003907-.023437c-.007812-.019531-.015624-.042969-.019531-.066406l-.003906-.003907c-.007813-.027343-.011719-.054687-.019531-.082031l-.003906-.007812c-.007813-.019531-.015626-.046875-.019532-.066407l-.003906-.015624-.019531-.0625-.003907-.015626c-.007812-.023437-.011718-.042968-.019531-.0625l-.003906-.019531c-.007813-.019531-.011719-.042969-.019531-.0625l-.003906-.011719c-.023438-.078124-.046876-.15625-.070313-.234374v-.011719c-.007813-.019531-.015625-.042969-.019531-.066407l-.007813-.015624-.066406-.230469-.007813-.019531-.015624-.058594-.007813-.019532c-.003906-.019531-.011719-.039062-.019531-.058593l-.003906-.015625-.019532-.074219v-.003906c-.019531-.054688-.035156-.105469-.050781-.160157v-.003906c-.007813-.023437-.015625-.046875-.023437-.070312l-.003907-.011719c-.003906-.023437-.011719-.046875-.019531-.070313l-.003906-.007812c-.03125-.105469-.0625-.210938-.097656-.316406l-.003907-.007813-.019531-.070312-.003906-.011719c-.003906-.019531-.015625-.042969-.019532-.066406l-.003906-.011719c-.023437-.078125-.050781-.15625-.074218-.234375l-.003907-.011719c-.007812-.019531-.011719-.039062-.019531-.0625l-.007812-.019531c-.003907-.019531-.011719-.046875-.019532-.070312-.027344-.082032-.050781-.15625-.078125-.238282l-.003906-.011718c-.007813-.023438-.015625-.046876-.023437-.070313v-.003906c-.007813-.027344-.015626-.050781-.023438-.078125-.019531-.054688-.035156-.105469-.054688-.160156v-.003907c-.007812-.023437-.015624-.046875-.023437-.074219l-.003906-.003906c-.007813-.023437-.015625-.050781-.023438-.074218l-.003906-.007813c-.03125-.105469-.066406-.210937-.101563-.3125l-.003906-.007813-.023437-.074218v-.003906c-.007813-.027344-.015625-.050782-.027344-.074219v-.007813c-.035156-.105468-.070313-.207031-.105469-.3125l-.003906-.007812c-2.726562-8.066406-6.558594-15.71875-11.378906-22.738282-.066406-.097656-.132813-.191406-.199219-.285156l-.003906-.003906c-.011719-.023438-.03125-.046875-.042969-.066406l-.003906-.003906-.246094-.355469-.003906-.003907c-.066406-.09375-.132813-.1875-.199219-.28125v-.003906c-.019531-.023437-.035156-.046875-.050781-.066406v-.003906l-.050782-.070313c-.035156-.046875-.066406-.09375-.101562-.140625v-.003906c-.015625-.023438-.03125-.042969-.050781-.066406v-.003906c-.015625-.023438-.03125-.042969-.046875-.066407l-.003906-.003906c-.015626-.023437-.035157-.046875-.050782-.070313-.050781-.070312-.101562-.140624-.152344-.214843l-.050781-.066407v-.003906l-.050781-.066406v-.003906c-.050781-.070313-.105469-.140625-.15625-.210938-.015625-.023437-.03125-.046875-.046875-.070312l-.003906-.003906c-.015625-.019532-.035157-.046876-.050781-.066407l-.003907-.003906c-.050781-.070313-.097656-.136719-.148437-.207031l-.003906-.003906c-.015626-.019532-.035157-.042969-.050782-.066407l-.003906-.003906c-.015625-.019531-.03125-.042969-.046875-.066406l-.003906-.003907c-.050781-.070312-.101563-.136718-.152344-.207031l-.003906-.003906c-.015625-.023437-.03125-.042969-.046875-.0625l-.007813-.011719c-.015625-.019531-.03125-.039062-.046875-.058594l-.003906-.007812c-.050781-.070312-.101562-.136719-.152344-.207031l-.003906-.003907c-.015625-.023437-.03125-.042968-.046875-.0625l-.007813-.011718c-.015624-.015625-.027343-.035156-.042968-.054688l-.007813-.011718c-.050781-.066407-.101562-.136719-.152343-.203126l-.007813-.011718c-.015625-.015625-.027344-.035156-.039063-.054688l-.015624-.015625c-.011719-.019531-.027344-.035156-.039063-.054687l-.011719-.011719-.042968-.058594-.007813-.007812c-.035156-.046875-.066406-.089844-.101563-.132813l-.007812-.011718c-.015625-.019532-.027344-.039063-.042969-.058594l-.011719-.011719c-.011718-.019531-.027343-.035156-.039062-.054687l-.011719-.011719c-.015625-.023438-.03125-.042969-.050781-.066407-.015625-.023437-.035156-.046874-.050781-.070312l-.003907-.003906c-.019531-.019532-.035156-.039063-.050781-.058594l-.011719-.015625c-.011718-.019531-.023437-.035156-.039062-.050781l-.011719-.015625c-.011719-.019531-.027343-.039063-.039062-.054688l-.011719-.011719-.042969-.058593-.007812-.011719c-.015625-.019531-.035157-.042969-.050781-.066406l-.007813-.003906c-.015625-.023438-.03125-.039063-.046875-.058594l-.011719-.015625-.035156-.050781-.019531-.019532c-.007813-.015625-.023438-.03125-.03125-.042968l-.019532-.023438c-.015624-.019531-.03125-.039062-.042968-.058594l-.003906-.003906c-.035157-.042969-.070313-.089844-.105469-.132812l-.011719-.011719c-.011719-.019531-.027344-.035157-.039062-.050781l-.015626-.023438c-.015624-.015625-.023437-.03125-.039062-.046875l-.011719-.015625-.046875-.058594-.003906-.007812c-.035156-.042969-.070312-.089844-.105469-.132813l-.007812-.011719c-.015625-.015624-.03125-.035156-.042969-.050781-.003906-.007812-.011719-.011719-.015625-.019531-.011719-.015625-.027344-.03125-.039063-.046875l-.011718-.019531-.046875-.054688-.003907-.007812c-.039062-.046875-.070312-.089844-.109374-.132813l-.007813-.007812c-.011719-.019531-.027344-.039063-.042969-.054688l-.011718-.019531c-.015626-.015625-.027344-.03125-.042969-.050781l-.011719-.015625-.042969-.050782-.007812-.011718-.109375-.132813-.003906-.007812-.046876-.058594-.011718-.011719-.042969-.054687-.007813-.011719c-.019531-.019531-.035156-.042969-.050781-.0625h-.003906l-.109375-.136719-.003906-.007812-.046875-.054688-.015625-.015625c-.011719-.015625-.023438-.03125-.039063-.050781l-.011719-.015625-.042968-.050781c-.003906-.003907-.007813-.011719-.011719-.015625-.035156-.042969-.074219-.085938-.109375-.128906l-.007812-.011719-.046876-.054688-.007812-.011719-.042969-.050781-.015625-.019531-.042968-.050781-.007813-.011719c-.039063-.042969-.074219-.085938-.109375-.132812l-.007812-.003907c-.015626-.019531-.03125-.039062-.046876-.058593l-.011718-.011719c-.015625-.019531-.03125-.039063-.046875-.058594l-.003907-.003906c-.019531-.023438-.035156-.042969-.050781-.058594l-.007812-.011719-.109375-.132812h-.003906l-.050782-.0625c-.003906-.003906-.007812-.007813-.011718-.011719l-.058594-.070313-.042969-.050781-.007813-.007812c-.039062-.046875-.074218-.085938-.109374-.132813l-.007813-.007812c-.015625-.015625-.03125-.035156-.046875-.054688l-.015625-.019531-.039063-.046875-.015624-.015625c-.011719-.015625-.027344-.03125-.039063-.046875l-.015625-.015625c-.035156-.046875-.074219-.085937-.109375-.132813l-.007813-.007812c-.015624-.015625-.03125-.035156-.046874-.050781-.003907-.007813-.007813-.011719-.015626-.019531-.011718-.015626-.023437-.03125-.039062-.042969l-.015625-.019531c-.015625-.019532-.03125-.035157-.042969-.050782l-.011718-.011718-.050782-.0625-.003906-.003907-.054688-.0625-.007812-.011719c-.015625-.015624-.035156-.035156-.046875-.050781l-.015625-.019531c-.011719-.015625-.027344-.03125-.042969-.046875l-.011719-.015625c-.015624-.015625-.027343-.03125-.039062-.046875l-.019531-.019531-.109375-.125-.007813-.011719c-.015625-.015625-.03125-.035156-.046875-.054687l-.015625-.011719c-.011719-.015625-.027343-.03125-.039062-.046875l-.019531-.019532c-.011719-.015624-.027344-.03125-.039063-.046874l-.011719-.015626c-.019531-.019531-.03125-.035156-.046875-.054687l-.011719-.011719-.054687-.058594-.019531-.023437-.035156-.039063c-.007813-.007812-.011719-.015624-.019532-.027343l-.035156-.035157c-.007812-.007812-.015625-.015624-.023438-.023437l-.03125-.039063c-.007812-.007812-.015624-.015624-.019531-.023437l-.050781-.054687-.007812-.007813c-.015626-.019531-.035157-.039063-.054688-.0625-.003906-.003906-.007812-.007813-.011719-.015625-.015625-.011719-.027343-.03125-.042969-.042969l-.019531-.023437c-.011719-.011719-.023437-.027344-.035156-.042969l-.019531-.019531-.039063-.042969-.015625-.019531c-.015625-.015625-.03125-.03125-.042968-.046875l-.015626-.015625c-.019531-.019532-.035156-.042969-.054687-.0625l-.007813-.003906c-.015624-.019532-.03125-.039063-.050781-.058594l-.011719-.015625c-.015624-.015625-.03125-.03125-.042968-.046875l-.015625-.015625c-.015625-.015625-.027344-.03125-.042969-.046875l-.015625-.015625c-.015625-.019531-.03125-.039063-.046875-.054688l-.007812-.007812c-.019532-.023438-.039063-.042969-.058594-.0625l-.011719-.015625c-.011719-.015625-.03125-.03125-.042969-.046875l-.019531-.023438c-.011719-.011719-.023437-.023437-.035156-.039062-.007813-.007813-.015625-.011719-.023438-.023438-.011719-.011719-.023437-.027343-.035156-.039062-.007813-.007813-.011719-.011719-.019531-.019531l-.042969-.046876-.011719-.015624-.058594-.0625-.011718-.011719-.042969-.046875-.019531-.023438-.039063-.039062-.019531-.023438c-.011719-.011718-.023438-.027344-.039062-.039062l-.015626-.019532c-.015624-.019531-.03125-.035156-.046874-.050781l-.011719-.011719c-.019531-.023437-.039063-.042968-.058594-.0625l-.007813-.011718c-.015624-.015625-.03125-.03125-.046874-.046875l-.019532-.023438c-.011718-.011719-.027344-.027343-.039062-.039062l-.019532-.023438-.035156-.039062-.019531-.023438c-.015625-.011719-.027344-.027343-.039063-.039062l-.019531-.019531c-.019531-.023438-.039062-.042969-.058593-.0625l-.007813-.011719c-.015625-.015625-.03125-.03125-.046875-.046875l-.023438-.023438c-.007812-.011718-.023437-.027344-.035156-.039062-.007812-.007813-.011718-.015625-.019531-.023438-.011719-.011718-.023437-.023437-.035156-.035156-.007813-.007812-.015625-.019531-.023438-.027344-.011719-.011718-.023437-.023437-.035156-.035156l-.023437-.023438c-.019532-.019531-.035157-.039062-.054688-.058593l-.011719-.011719c-.015625-.019531-.03125-.035156-.046875-.050781l-.019531-.019531c-.011719-.015626-.023437-.027344-.035156-.039063l-.023438-.023437-.039062-.042969-.015625-.015625c-.015625-.019532-.03125-.03125-.046875-.050782l-.011719-.011718c-.019531-.019532-.039062-.039063-.058594-.0625l-.007812-.007813c-.015625-.015625-.03125-.03125-.046875-.050781l-.027344-.023438c-.011719-.011718-.019531-.023437-.03125-.035156l-.027344-.023437-.035156-.039063c-.003906-.007812-.015625-.015625-.019531-.023437l-.058594-.058594c-.019531-.019531-.039062-.039063-.054688-.0625l-.015624-.011719c-.011719-.015625-.027344-.03125-.042969-.046875l-.058594-.058593c-.007813-.007813-.019531-.019532-.023437-.023438-.011719-.011719-.023438-.023438-.035157-.039062-.007812-.007813-.015625-.015626-.023437-.023438l-.035156-.035156c-.007813-.007813-.015626-.019532-.023438-.023438-.019531-.023437-.035156-.039062-.054688-.058594l-.015624-.011718-.042969-.046875-.082031-.082031-.035157-.039063-.023437-.023437c-.015625-.011719-.027344-.027344-.039063-.039063-.007812-.007813-.015625-.015625-.019531-.023437-.019531-.019532-.039062-.035157-.058594-.058594l-.003906-.003906-.054688-.050782c-.003906-.007812-.015624-.019531-.023437-.027344-.011719-.011718-.019531-.019531-.03125-.035156-.011719-.007812-.019531-.015625-.027344-.023437-.011719-.011719-.023437-.023438-.035156-.035157l-.023437-.023437c-.011719-.015625-.027344-.027344-.042969-.042969l-.015625-.015625c-.039063-.039062-.078125-.082031-.117188-.121093-.007812-.003907-.011718-.011719-.019531-.019532-.015625-.011718-.023437-.023437-.039063-.039062l-.199218-.199219-.058594-.054687c-.328125-.332032-.660156-.65625-.992188-.980469-4.582031-4.386719-11.84375-4.253907-16.261718.300781-4.460938 4.59375-4.410156 11.917969.109375 16.453125l.058593.058594.6875.675781c15.808594 15.671875 23.117188 37.988281 19.644532 59.972656-.027344.171875-.046875.339844-.066406.511719-.03125.144531-.058594.289063-.085938.4375l-.164062.949219c-1.09375 6.339844 3.128906 12.378906 9.460937 13.53125 6.242187 1.140625 12.230469-2.976563 13.40625-9.210938.101563-.542968.195313-1.089844.285156-1.636718.023438-.164063.046875-.328126.066407-.492188.035156-.171875.070312-.351562.097656-.53125 1.640625-10.792969 1.390625-21.789062-.746094-32.496094zm0 0" fill="#4c4f6e"/><path d="m232.726562 93.589844c0 38.5625-31.257812 69.820312-69.816406 69.820312-38.5625 0-69.820312-31.257812-69.820312-69.820312 0-38.558594 31.257812-69.816406 69.820312-69.816406 38.558594 0 69.816406 31.257812 69.816406 69.816406zm0 0" fill="#2c2f53"/><path d="m162.910156 23.773438c-38.5625 0-69.820312 31.257812-69.820312 69.816406v.324218l.003906.046876v.328124l.003906.0625v.21875l.003906.042969v.109375l.003907.105469v.152344l.003906.0625v.109375l.003906.046875v.167969l.003907.050781v.058593l.003906.046876v.105468l.003906.070313v.039062l.003906.070313v.039062c0 .066406.003906.144532.007813.214844v.03125l.003906.074219v.042969l.003906.0625v.050781l.003907.058593v.046876l.003906.0625v.042968l.003906.066406v.042969l.003906.0625.003906.046875v.066406l.003907.039063.003906.074219v.035156l.003906.078125v.027344l.007813.105469v.039062l.003906.070312.003906.039063.003906.066406.003907.042969v.066406l.003906.042969.003906.0625.003907.046875.003906.0625v.042969l.003906.0625.003906.046875.003906.058594v.046874l.003907.0625.003906.046876.003906.0625.003907.042968c0 .035156.003906.070313.007812.105469v.003906l.003906.101563.003906.035156.003907.074219.003906.039062.003906.066407.003907.042968.003906.0625.003906.046875.003906.058594.003906.050781.003907.054688.003906.050781.003906.054687.003907.050782.003906.058594.003906.046874.007812.0625v.042969l.007813.070313.003906.039062.007813.101563.003906.039062.003906.066407.003906.046874.007813.0625v.046876l.007813.054687.003906.050781.003906.058594.003906.046875.007813.058594.003906.046875.003906.058594.007813.046874.003906.058594.003906.050782.007813.054687.003906.046875.003906.0625.003907.042969.007812.066406.007812.097656.007813.042969.003906.058594.003907.050781.007812.050781.003906.054688.007813.050781.003906.054687.003906.050782.007813.054687.003906.050781.007812.054688.003907.046875.007812.058594.003907.050781.007812.058594.003906.046875.007813.054687.003906.050782.007813.0625.007812.042968.007812.101563.007813.039062.007813.066407.003906.046874.007812.054688.003906.054688.015626.101562.003906.054688.015625.101562.007812.054688.003907.050781.007812.054687.007812.050782.007813.054687.003906.050781.007813.050782.007812.054687.007813.050781.003906.054688.015625.089844.007812.058593.003907.050781.007812.054688.007813.050781.007812.054688.007813.050781.003906.050781.007813.054688.023437.152343.007813.054688.007812.050781.007812.054688.003907.046875.011719.058594.003906.042968.007812.058594.007813.042969.035156.230469.003906.03125.011719.0625.003906.039062.011719.0625.003906.042969.011719.058593.003906.042969.011719.058594.007813.042969.007812.0625.007812.042968.007813.058594.007813.046875.007812.054688.011719.050781.007812.054688.007813.042968.007812.058594.007813.035156.019531.113282.007812.054687.015626.101563.007812.054687.011719.046875.007812.058594.007813.046875.011718.050781.007813.050781.007813.054688.007812.046875.011719.058594.007812.042968.011719.058594.007812.042969.007813.058593.007813.042969.011718.0625.007813.035157c.011719.074218.027343.148437.039062.226562l.019531.097656.007813.042969.019531.097656.011719.066407.007813.035156.011718.066406.007813.035156.011719.066406.007812.035157.011719.066406.007812.035156.011719.066407.007812.03125.011719.070312.007813.023438c.023437.117187.046875.238281.070312.359374l.003906.011719.015626.078125.003906.023438.015625.070312.007812.03125.011719.066406.007812.035157.011719.0625.007813.039062.015625.0625.007812.035157.011719.066406.007812.035156.015626.066406.003906.023438.015625.078125.003906.003906c.019531.09375.039063.191406.058594.285156h.003906l.015625.074219.003906.03125.015625.066406.007813.03125.015625.070313.007812.03125.015625.066406.007813.03125.011719.066406.007812.035157.015625.066406.007813.03125.015624.070312.007813.023438.015625.074218.003906.015626c.027344.121093.058594.238281.085938.359374l.003906.015626.015625.070312.007813.03125.015624.070312.007813.027344.015625.070313.007812.027343.019532.070313.003906.03125.019531.066406.007813.03125.015625.070313.007812.027344.015625.074218.003906.015625c.039063.152344.078126.304688.117188.457031l.003906.007813.019532.078125.003906.023438.019531.074218.007813.023438.019531.074218.003906.023438.019531.074219.007813.023437c.007812.023438.011719.050782.019531.074219l.003906.023437.023438.074219v.015625c.042968.152344.085937.308594.128906.464844l.019531.082031.007813.015625.019531.078125.003906.019531.023438.074219.003906.023438.023437.074219.003907.023437.023437.074219.003906.023437.019532.070313.007812.027344.023438.074218v.007813c.046875.152343.089844.304687.132812.457031l.003906.011719.023438.078125.003906.019531c.007813.023437.015625.050781.023438.074219l.007812.023437.019532.074219.007812.019531.023438.078125.003906.015625.023437.078125.003907.015625.027343.082031v.007813c.066407.214844.132813.433594.199219.648437v.003907l.027344.085937.035156.105469.023438.082031.003906.011719.027344.085937c.070312.21875.140624.433594.210937.648438v.003906l.03125.089844.003906.007812.023438.082032.007812.011718.03125.09375.027344.085938v.003906c.082031.246094.167969.488282.25.734375l.003906.003907.027344.085937.003906.007813.03125.085937v.003906l.03125.089844c.109375.308594.21875.609375.332031.914063v.003906l.03125.089844.003907.003906c5.953125 16.019531 17.558593 29.308594 32.628906 37.363281.285156.152344.566406.300781.851563.449219h.003906l.085937.042968v.003907l.082031.042969h.007813l.082031.042968c.199219.101563.398438.203125.601563.304688l.082031.042968h.007812l.078126.039063.011718.007813.074219.035156.085937.042968.019532.011719.070312.03125.015625.007813.074219.039062.007812.003906c.167969.082032.335938.160157.503907.242188l.085937.042969.019532.007812.070312.03125.019531.011719.070313.03125.019531.011719.066406.03125.023438.011719.070312.03125.015625.007812.074219.035156.007813.003906c.109374.050782.21875.101563.328124.152344l.019532.007813.066406.03125.023438.011719.0625.027343.03125.015625.058593.023438.03125.015625.058594.027343.035156.015626.054688.027343.035156.015625.058594.023438.035156.015625.054687.027343.035157.015626.058593.027343.03125.011719.058594.027344.011719.003906.136719.0625.03125.011719.050781.023437.042969.019532.046875.019531.046875.023437.042968.019532.050782.019531.046875.019531.046875.023438.042968.019531.050782.019531.140625.058594.046875.023437.140625.058594.042969.019531.082031.035156.058593.023438.046876.023438.042968.015624.050782.023438.046874.019531.042969.019531.050781.019532.042969.019531.054688.019531.039062.019532.054688.019531.039062.019531.058594.023438.035156.011718.0625.027344.03125.011719.070313.03125.023437.007812.082031.035157.015626.003906c.0625.027344.125.054687.191406.082031l.011718.003906.082032.03125.023437.011719.074219.027344.027344.011718.070312.027344.023438.011719.070312.027344.027344.011719.070312.027343.027344.007813.070313.03125.027343.007812.078126.03125.015624.007813.09375.035156c.132813.054687.265626.101563.398438.15625h.003906l.089844.035156.011719.003907.085937.035156.015625.003906.085938.03125.011719.007812.085937.03125.011719.003907.09375.035156h.003906c.199219.074219.398438.148437.597656.222656h.003906l.097657.035157h.003906l.195313.074218c4.46875 1.601563 9.085937 2.742188 13.78125 3.40625 6.367187.867188 12.234374-3.589844 13.105468-9.957031.863282-6.34375-3.558594-12.195313-9.898437-13.09375-25.445313-3.660156-43.109375-27.253906-39.453125-52.699219 3.292968-22.914062 22.921875-39.925781 46.070312-39.929687 6.425782 0 11.636719-5.210938 11.636719-11.636719s-5.210937-11.636719-11.636719-11.636719zm0 0" fill="#1e2147"/><path d="m186.183594 93.589844c0 12.855468-10.421875 23.273437-23.273438 23.273437-12.855468 0-23.273437-10.417969-23.273437-23.273437 0-12.851563 10.417969-23.273438 23.273437-23.273438 12.851563 0 23.273438 10.421875 23.273438 23.273438zm0 0" fill="#11cbe5"/><path d="m162.910156 81.953125c0 6.425781-5.210937 11.636719-11.636718 11.636719-6.425782 0-11.636719-5.210938-11.636719-11.636719s5.210937-11.636719 11.636719-11.636719c6.425781 0 11.636718 5.210938 11.636718 11.636719zm0 0" fill="#bcf4f5"/><path d="m34.910156 70.316406c6.425782 0 11.636719 5.210938 11.636719 11.636719v46.546875c0 6.425781-5.210937 11.636719-11.636719 11.636719-6.425781 0-11.636718-5.210938-11.636718-11.636719v-46.546875c0-6.425781 5.210937-11.636719 11.636718-11.636719zm0 0" fill="#2c2f53"/><path d="m430.546875 70.316406h46.542969c6.425781 0 11.636718 5.210938 11.636718 11.636719s-5.210937 11.636719-11.636718 11.636719h-46.542969c-6.429687 0-11.636719-5.210938-11.636719-11.636719s5.207032-11.636719 11.636719-11.636719zm0 0" fill="#1e2147"/><path d="m430.546875 116.863281h46.542969c6.425781 0 11.636718 5.210938 11.636718 11.636719s-5.210937 11.636719-11.636718 11.636719h-46.542969c-6.429687 0-11.636719-5.210938-11.636719-11.636719s5.207032-11.636719 11.636719-11.636719zm0 0" fill="#1e2147"/><path d="m430.546875 163.410156h46.542969c6.425781 0 11.636718 5.207032 11.636718 11.632813 0 6.429687-5.210937 11.636719-11.636718 11.636719h-46.542969c-6.429687 0-11.636719-5.207032-11.636719-11.636719 0-6.425781 5.207032-11.632813 11.636719-11.632813zm0 0" fill="#1e2147"/><g fill="#4c4f6e"><path d="m418.910156 81.953125c0 6.425781-5.210937 11.636719-11.636718 11.636719-6.425782 0-11.636719-5.210938-11.636719-11.636719s5.210937-11.636719 11.636719-11.636719c6.425781 0 11.636718 5.210938 11.636718 11.636719zm0 0"/><path d="m418.910156 175.046875c0 6.425781-5.210937 11.632813-11.636718 11.632813-6.425782 0-11.636719-5.207032-11.636719-11.632813 0-6.429687 5.210937-11.636719 11.636719-11.636719 6.425781 0 11.636718 5.207032 11.636718 11.636719zm0 0"/><path d="m418.910156 128.5c0 6.425781-5.210937 11.636719-11.636718 11.636719-6.425782 0-11.636719-5.210938-11.636719-11.636719s5.210937-11.636719 11.636719-11.636719c6.425781 0 11.636718 5.210938 11.636718 11.636719zm0 0"/><path d="m46.546875 209.953125h209.453125c12.851562 0 23.273438 10.421875 23.273438 23.273437 0 12.855469-10.421876 23.273438-23.273438 23.273438h-209.453125c-12.855469 0-23.273437-10.417969-23.273437-23.273438 0-12.851562 10.417968-23.273437 23.273437-23.273437zm0 0"/></g><path d="m267.636719 23.773438h116.363281c6.425781 0 11.636719 5.207031 11.636719 11.636718 0 6.425782-5.210938 11.636719-11.636719 11.636719h-116.363281c-6.425781 0-11.636719-5.210937-11.636719-11.636719 0-6.429687 5.210938-11.636718 11.636719-11.636718zm0 0" fill="#1e2147"/></svg>