<svg id="Filled" height="512" viewBox="0 0 512 512" width="512" xmlns="http://www.w3.org/2000/svg"><path d="m448 367.687h-384a16 16 0 0 1 -16-16v-32h416v32a16 16 0 0 1 -16 16z" fill="#e2d2c2"/><path d="m72 367.687h96v32h-96z" fill="#7e8488"/><path d="m344 367.687h96v32h-96z" fill="#7e8488" transform="matrix(-1 0 0 -1 784 767.373)"/><path d="m433.373 121.059a32 32 0 0 0 -22.628-9.372h-309.49a32 32 0 0 0 -22.628 9.372l-54.627 54.628v128a32 32 0 0 0 32 32h400a32 32 0 0 0 32-32v-128z" fill="#fae8d8"/><circle cx="360" cy="255.687" fill="#7e8488" r="80"/><path d="m360 311.687a56 56 0 1 1 56-56 56.064 56.064 0 0 1 -56 56z" fill="#6a7073"/><circle cx="360" cy="255.687" fill="#596063" r="16"/><path d="m488 175.687h-464l54.627-54.628a32 32 0 0 1 22.628-9.372h309.49a32 32 0 0 1 22.628 9.372z" fill="#e2d2c2"/><path d="m493.656 170.03-54.626-54.63a39.736 39.736 0 0 0 -28.285-11.716h-309.49a39.735 39.735 0 0 0 -28.284 11.716l-54.628 54.629a7.972 7.972 0 0 0 -2.343 5.658v128a40.05 40.05 0 0 0 24 36.649v11.351a24.027 24.027 0 0 0 24 24v24a8 8 0 0 0 8 8h96a8 8 0 0 0 8-8v-24h160v24a8 8 0 0 0 8 8h96a8 8 0 0 0 8-8v-24a24.027 24.027 0 0 0 24-24v-11.351a40.05 40.05 0 0 0 24-36.649v-128a7.972 7.972 0 0 0 -2.344-5.657zm-409.371-43.314a23.839 23.839 0 0 1 16.97-7.029h309.49a23.84 23.84 0 0 1 16.971 7.03l40.97 40.97h-425.372zm-52.285 176.971v-120h277.462a87.921 87.921 0 0 0 0 144h-253.462a24.028 24.028 0 0 1 -24-24zm328-120a72 72 0 1 1 -72 72 72.081 72.081 0 0 1 72-72zm-200 208h-80v-16h80zm272 0h-80v-16h80zm24-40a8.009 8.009 0 0 1 -8 8h-384a8.009 8.009 0 0 1 -8-8v-8h400zm24-48a24.028 24.028 0 0 1 -24 24h-45.462a87.921 87.921 0 0 0 0-144h69.462z"/><path d="m360 311.687a56 56 0 1 0 -56-56 56.064 56.064 0 0 0 56 56zm0-96a40 40 0 1 1 -40 40 40.045 40.045 0 0 1 40-40z"/><path d="m360 279.687a24 24 0 1 0 -24-24 24.027 24.027 0 0 0 24 24zm0-32a8 8 0 1 1 -8 8 8.009 8.009 0 0 1 8-8z"/><path d="m56 215.687h32a8 8 0 0 0 0-16h-32a8 8 0 0 0 0 16z"/><path d="m56 247.687h32a8 8 0 0 0 0-16h-32a8 8 0 0 0 0 16z"/><path d="m56 279.687h32a8 8 0 0 0 0-16h-32a8 8 0 0 0 0 16z"/><path d="m88 311.687a8 8 0 0 0 0-16h-32a8 8 0 0 0 0 16z"/><path d="m120 215.687h32a8 8 0 0 0 0-16h-32a8 8 0 0 0 0 16z"/><path d="m120 247.687h32a8 8 0 0 0 0-16h-32a8 8 0 0 0 0 16z"/><path d="m120 279.687h32a8 8 0 0 0 0-16h-32a8 8 0 0 0 0 16z"/><path d="m120 311.687h32a8 8 0 0 0 0-16h-32a8 8 0 0 0 0 16z"/></svg>