<svg id="Capa_1" enable-background="new 0 0 512 512" height="512" viewBox="0 0 512 512" width="512" xmlns="http://www.w3.org/2000/svg"><g><g><path d="m213.196 10.5c-19.005 9.924-34.405 26.363-42.851 47.068l-11.567 28.357c-5.824 14.279-15.417 26.708-27.754 35.961-16.691 12.518-26.513 32.163-26.513 53.027 0 12.168 3.349 24.101 9.681 34.492 11.749 19.28 17.964 41.423 17.964 64.001v182.718h63.734l60.11-205.245z" fill="#5fa88e"/><path d="m380.975 121.886c-12.337-9.253-21.93-21.682-27.754-35.961l-11.567-28.357c-8.446-20.706-23.846-37.144-42.851-47.068l-42.803 240.379 60.109 205.245h63.734v-182.718c0-22.578 6.215-44.721 17.964-64.001 6.332-10.391 9.681-22.324 9.681-34.492.001-20.864-9.822-40.509-26.513-53.027z" fill="#4a8375"/></g><g><path d="m256 0c-15.236 0-29.856 3.738-42.804 10.5l-5.367 62.083c-.318 3.68-.619 7.362-.925 11.043l65.117 19.312v-56.645z" fill="#c3edb0"/><path d="m256 83.626h-49.095c-2.311 27.851-4.257 55.729-5.84 83.626l70.957 24.096v-65.908z" fill="#7cdb80"/></g><path d="m305.096 83.626c-.305-3.681-.606-7.362-.925-11.042l-5.367-62.084c-12.948-6.762-27.568-10.5-42.804-10.5v83.626l24.548 16.136z" fill="#7cdb80"/><path d="m256 167.253h-54.936c-1.581 27.859-2.801 55.736-3.655 83.626l74.612 21.468v-63.281z" fill="#c3edb0"/><path d="m256 250.879h-58.591c-.854 27.866-1.35 55.743-1.478 83.626l76.09 21.487v-63.3z" fill="#7cdb80"/><path d="m195.931 334.506c-.023 4.93-.04 9.861-.04 14.792v106.827h60.109l16.021-60.809-16.021-60.81z" fill="#c3edb0"/><path d="m256 167.253 27.468 19.331 27.468-19.331c-1.583-27.897-3.529-55.775-5.84-83.626h-49.096z" fill="#5fa88e"/><path d="m256 250.879 29.296 21.468 29.296-21.468c-.855-27.89-2.074-55.768-3.655-83.626h-54.937z" fill="#7cdb80"/><path d="m256 334.506 27.468 24.134 32.601-24.134c-.128-27.883-.624-55.761-1.478-83.626h-58.591z" fill="#5fa88e"/><path d="m316.109 349.296c0-4.93-.017-9.86-.04-14.79h-60.069v121.618h60.109z" fill="#7cdb80"/><g><path d="m163.977 418.132-11.46-16.069c-11.982-16.8-33.822-23.351-53.072-15.917-23.283 8.99-34.869 35.153-25.878 58.435l8.281 21.445c10.698 27.704 37.336 45.974 67.035 45.974h107.117l16.022-44.527-16.022-49.341z" fill="#4a8375"/></g><path d="m412.554 386.146c-19.25-7.433-41.09-.883-53.072 15.917l-11.46 16.069h-92.022v93.868h107.117c29.698 0 56.337-18.27 67.035-45.974l8.281-21.445c8.99-23.282-2.596-49.445-25.879-58.435z" fill="#2f5457"/></g></svg>