<svg id="Layer_1" height="512" viewBox="0 0 512 512" width="512" xmlns="http://www.w3.org/2000/svg" data-name="Layer 1"><path d="m431.01 338.02h-350.02a56.01 56.01 0 0 0 -2.01 14.91 9.816 9.816 0 0 0 9.81 9.82h334.41a9.816 9.816 0 0 0 9.82-9.82 56.01 56.01 0 0 0 -2.01-14.91z" fill="#ad2a34"/><path d="m342.57 53.22a126.89 126.89 0 0 0 -216.67 89.85v48.17l21.54 2.45v-44.66a113.781 113.781 0 0 1 23.96-70.32q3.24-4.14 6.84-7.93c19.03-20.02 45.32-32.41 74.36-32.41 34.12 0 64.45 17.1 83.66 43.61a113.96 113.96 0 0 1 21.5 67.05l1.44 46.94 20.55-4.72v-48.18a126.729 126.729 0 0 0 -37.18-89.85z" fill="#edb740"/><path d="m357.76 149.03a113.96 113.96 0 0 0 -21.5-67.05c-19.21-26.51-49.54-43.61-83.66-43.61-29.04 0-55.33 12.39-74.36 32.41q-3.6 3.78-6.84 7.93a113.781 113.781 0 0 0 -23.96 70.32v42.66l8.36 60.35 9.28 45.13h181.84l9.28-45.13 3-58.07z" fill="#b0b5ca"/><path d="m88.8 362.75h-.01a19.625 19.625 0 0 0 19.62 19.64h293.8a19.625 19.625 0 0 0 19.62-19.64z" fill="#edb740"/><path d="m347.86 428.19a214 214 0 0 1 -5.89-45.8h36.47s-15.04 51.68 37.24 74.79a19.7 19.7 0 0 1 12.15 18.07 20.83 20.83 0 0 1 -3.07 10.75 20.463 20.463 0 0 1 -21.28 9.65c-33.36-6.32-48.63-38.86-55.62-67.46z" fill="#c79a83"/><path d="m347.86 428.19h-183.72a214 214 0 0 0 5.89-45.8h171.94a214 214 0 0 0 5.89 45.8z" fill="#c2684f"/><path d="m164.14 428.19c-6.99 28.6-22.26 61.14-55.62 67.46a20.463 20.463 0 0 1 -21.28-9.65 20.83 20.83 0 0 1 -3.07-10.75 19.7 19.7 0 0 1 12.15-18.07c52.28-23.11 37.24-74.79 37.24-74.79h36.47a214 214 0 0 1 -5.89 45.8z" fill="#c79a83"/><path d="m336.26 81.98-.13.09a111.794 111.794 0 0 0 -42.52 87.84v127.26h-75.22v-127.26a111.859 111.859 0 0 0 -46.99-91.2q3.24-4.14 6.84-7.93c19.03-20.02 45.32-32.41 74.36-32.41 34.12 0 64.45 17.1 83.66 43.61z" fill="#ccd3df"/><path d="m356.2 252.04h39.16s-21.16 12.65-13.65 44.98l-.03.32c-1.46-.11-2.93-.17-4.42-.17h-30.34c-5.4-23.54 3.6-38.29 9.28-45.13z" fill="#c79a83"/><path d="m155.8 252.04c5.68 6.84 14.68 21.59 9.28 45.13h-30.34c-1.23 0-2.46.04-3.67.12 7.93-32.86-14.43-45.25-14.43-45.25z" fill="#c79a83"/><path d="m381.68 297.34c-1.46-.11-2.93-.17-4.42-.17h-242.52c-1.23 0-2.46.04-3.67.12a55.783 55.783 0 0 0 -50.07 40.73h350a55.785 55.785 0 0 0 -49.32-40.68z" fill="#fb6771"/><path d="m423.49 233.02h-88.73c-.01.2-.01.4-.01.6v4.16a14.263 14.263 0 0 0 14.27 14.26h60.21a14.263 14.263 0 0 0 14.27-14.26v-4.16c0-.2 0-.4-.01-.6z" fill="#ad2a34"/><path d="m359.2 193.97a44.019 44.019 0 0 1 19.93-4.73c.21 0 .42 0 .62.01a44.358 44.358 0 0 1 43.74 43.77h-88.73a44.363 44.363 0 0 1 24.44-39.05z" fill="#fb6771"/><path d="m177.24 233.02h-88.73c-.01.2-.01.4-.01.6v4.16a14.263 14.263 0 0 0 14.27 14.26h60.21a14.263 14.263 0 0 0 14.27-14.26v-4.16c0-.2 0-.4-.01-.6z" fill="#ad2a34"/><path d="m147.44 191.69a44.41 44.41 0 0 1 29.8 41.33h-88.73a44.391 44.391 0 0 1 58.93-41.33z" fill="#fb6771"/><path d="m108.98 352.93a56.01 56.01 0 0 1 2.01-14.91h-30a56.01 56.01 0 0 0 -2.01 14.91 9.816 9.816 0 0 0 9.81 9.82h30a9.816 9.816 0 0 1 -9.81-9.82z" fill="#962936"/><path d="m118.79 362.75h-30a19.625 19.625 0 0 0 19.62 19.64h30a19.625 19.625 0 0 1 -19.62-19.64z" fill="#ce9f42"/><path d="m125.31 313.5a55.551 55.551 0 0 1 35.76-16.21c1.21-.08 2.44-.12 3.67-.12h-30c-1.23 0-2.46.04-3.67.12a55.783 55.783 0 0 0 -50.07 40.73h30a55.63 55.63 0 0 1 14.31-24.52z" fill="#c45c6c"/><path d="m102.77 252.04h30a14.263 14.263 0 0 1 -14.27-14.26v-4.16c0-.2 0-.4.01-.6h-30c-.01.2-.01.4-.01.6v4.16a14.263 14.263 0 0 0 14.27 14.26z" fill="#962936"/><path d="m147.866 191.852c-.143-.052-.282-.112-.426-.162a44.371 44.371 0 0 0 -58.93 41.33h30a44.38 44.38 0 0 1 29.356-41.168z" fill="#c45c6c"/><g fill="#284268"><path d="m239 222.1a6 6 0 0 0 -6 6v48.992a6 6 0 0 0 12 0v-48.992a6 6 0 0 0 -6-6z"/><path d="m238.394 211.973a6 6 0 0 0 6-6v-21.614a6 6 0 0 0 -12 0v21.614a6 6 0 0 0 6 6z"/><path d="m238.394 167.973a6 6 0 0 0 6-6v-4.807a6 6 0 0 0 -12 0v4.807a6 6 0 0 0 6 6z"/><path d="m72.976 352.93a15.834 15.834 0 0 0 10.3 14.808 25.668 25.668 0 0 0 25.13 20.657h20.3a65.851 65.851 0 0 1 -.071 21.689c-3.314 18.886-15 32.886-34.736 41.613a25.7 25.7 0 0 0 -11.8 37.395 26.641 26.641 0 0 0 22.734 12.908 25.851 25.851 0 0 0 4.807-.45c27.631-5.23 47.882-27.8 58.566-65.261.2-.7.39-1.4.579-2.093h174.43c.189.7.38 1.394.579 2.093 10.684 37.465 30.935 60.031 58.566 65.261a25.851 25.851 0 0 0 4.807.45 26.645 26.645 0 0 0 22.735-12.9 25.7 25.7 0 0 0 -11.802-37.4c-38.819-17.166-36.9-51.216-34.834-63.3h18.944a25.667 25.667 0 0 0 25.03-20.186 15.836 15.836 0 0 0 11.78-15.279 61.857 61.857 0 0 0 -52.215-61.022c-3.449-20.823 6.815-30.981 10.46-33.864h11.962a20.291 20.291 0 0 0 20.273-20.274v-4.156a50.439 50.439 0 0 0 -43.751-49.925v-40.625c0-73.374-59.629-133.069-132.923-133.069s-132.926 59.695-132.926 133.069v41.877a50.458 50.458 0 0 0 -37.4 48.673v4.156a20.291 20.291 0 0 0 20.269 20.269h12.084c3.721 2.705 14.738 12.662 11.22 33.744h.006a61.846 61.846 0 0 0 -53.103 61.142zm34.432 136.824a14.5 14.5 0 0 1 -15.026-6.846 13.71 13.71 0 0 1 6.368-20.237c29.423-13.01 38.918-34.65 41.7-50.512a77.957 77.957 0 0 0 .378-23.764h23c-1.119 21.245-8.455 92.281-56.42 101.359zm64.222-67.563a226.732 226.732 0 0 0 4.232-33.8h160.276a226.732 226.732 0 0 0 4.232 33.8zm241.62 40.48a13.71 13.71 0 0 1 6.368 20.237 14.5 14.5 0 0 1 -15.026 6.846c-47.889-9.063-55.278-80.107-56.415-101.359h22.993a77.957 77.957 0 0 0 .378 23.764c2.784 15.862 12.279 37.502 41.702 50.512zm-11.036-86.271h-293.808a13.622 13.622 0 0 1 -12.213-7.643h318.234a13.622 13.622 0 0 1 -12.213 7.643zm7.017-130.351h-60.21a8.274 8.274 0 0 1 -8.165-7.025h76.544a8.274 8.274 0 0 1 -8.169 7.02zm-34.661 45.118h-22.67c-2.307-15.324 2.186-26.16 7.233-33.123h22.207c-4.689 7.136-8.686 17.943-6.77 33.123zm-34.785 0h-40.171v-121.257a105.406 105.406 0 0 1 35.386-79.046 108.185 108.185 0 0 1 16.765 58.168q0 .1 0 .192l1.318 41.291a50.394 50.394 0 0 0 -24.33 43.1v4.156a20.291 20.291 0 0 0 16.582 19.917c-4.085 7.934-7.318 19.112-5.55 33.479zm-159.718-213.414c18.115-20.523 43.927-33.382 72.533-33.382 30.125 0 57.151 14.257 75.352 36.709a117.345 117.345 0 0 0 -40.341 88.83v121.257h-63.225v-121.257a118.321 118.321 0 0 0 -44.319-92.157zm-13.4 179.939a20.291 20.291 0 0 0 16.582-19.917v-4.156a50.434 50.434 0 0 0 -29.8-45.965v-38.622a107.992 107.992 0 0 1 19.214-61.841 106.3 106.3 0 0 1 39.728 82.719v121.257h-40.176c1.768-14.367-1.465-25.545-5.549-33.475zm250.253-30.673h-75.588a38.364 38.364 0 0 1 75.588 0zm-285.02-83.95c0-66.757 54.25-121.069 120.927-121.069s120.922 54.312 120.922 121.069v40.466a50 50 0 0 0 -8.827 1.762l-1.161-36.361c-.049-64.284-49.9-116.565-111.158-116.565-61.293 0-111.159 52.334-111.159 116.661v34.957a50.449 50.449 0 0 0 -8.57-.744c-.325 0-.646.018-.97.024zm.97 52.176a38.428 38.428 0 0 1 37.794 31.774h-75.584a38.428 38.428 0 0 1 37.794-31.774zm-30.1 50.8a8.274 8.274 0 0 1 -8.165-7.025h76.54a8.274 8.274 0 0 1 -8.165 7.025zm29.117 13.074c-.236-.371-.477-.721-.717-1.074h21.7c5.047 6.963 9.54 17.8 7.233 33.123h-21.824c1.877-14.968-2.236-25.539-6.393-32.05zm2.851 44.049h242.525a49.821 49.821 0 0 1 45.137 28.851h-243.676a6 6 0 1 0 0 12h247.486a49.847 49.847 0 0 1 .814 8.911 3.826 3.826 0 0 1 -3.821 3.822h-334.403a3.826 3.826 0 0 1 -3.821-3.822 49.847 49.847 0 0 1 .814-8.911h50.934a6 6 0 0 0 0-12h-47.127a49.821 49.821 0 0 1 45.137-28.852z"/></g></svg>