<svg height="512" viewBox="0 0 512 512" width="512" xmlns="http://www.w3.org/2000/svg"><g id="flat"><path d="m328 390.862h32v76.598h-32z" fill="#a8a8a8"/><path d="m152 384h32v83.461h-32z" fill="#a8a8a8"/><path d="m488 184a1697.91 1697.91 0 0 0 -464 0v-160a1697.91 1697.91 0 0 0 464 0z" fill="#cbcbcb"/><path d="m352 336h-192v-88l8-48v-88a24 24 0 0 1 24-24h128a24 24 0 0 1 24 24v88l8 48z" fill="#e82f3e"/><path d="m352 248v88h-192v-88l6.69-40.11 1.31-7.89v-88a24.006 24.006 0 0 1 24-24h128a24.006 24.006 0 0 1 24 24v88l1.31 7.89z" fill="#e82f3e"/><path d="m120 248h32a8 8 0 0 1 8 8v24a0 0 0 0 1 0 0h-48a0 0 0 0 1 0 0v-24a8 8 0 0 1 8-8z" fill="#b92531"/><path d="m128 280h32v56h-16l-16-22z" fill="#a8a8a8"/><path d="m352 248h48a0 0 0 0 1 0 0v24a8 8 0 0 1 -8 8h-32a8 8 0 0 1 -8-8v-24a0 0 0 0 1 0 0z" fill="#b92531" transform="matrix(-1 0 0 -1 752 528)"/><path d="m384 280h-32v56h16l16-22z" fill="#a8a8a8"/><path d="m158 336h196a22 22 0 0 1 22 22v42a0 0 0 0 1 0 0h-240a0 0 0 0 1 0 0v-42a22 22 0 0 1 22-22z" fill="#961b20"/><path d="m184 400h144v56l-24-24h-96l-24 24z" fill="#656666"/><path d="m150 456h36a14 14 0 0 1 14 14v18a0 0 0 0 1 0 0h-64a0 0 0 0 1 0 0v-18a14 14 0 0 1 14-14z" fill="#b92531"/><path d="m326 456h36a14 14 0 0 1 14 14v18a0 0 0 0 1 0 0h-64a0 0 0 0 1 0 0v-18a14 14 0 0 1 14-14z" fill="#b92531"/><path d="m80 256a8 8 0 0 1 -8-8 24.027 24.027 0 0 1 24-24 8 8 0 0 1 0 16 8.009 8.009 0 0 0 -8 8 8 8 0 0 1 -8 8z" fill="#fbb540"/><path d="m48 256a8 8 0 0 1 -8-8 56.063 56.063 0 0 1 56-56 8 8 0 0 1 0 16 40.045 40.045 0 0 0 -40 40 8 8 0 0 1 -8 8z" fill="#fbb540"/><path d="m432 256a8 8 0 0 1 -8-8 8.009 8.009 0 0 0 -8-8 8 8 0 0 1 0-16 24.027 24.027 0 0 1 24 24 8 8 0 0 1 -8 8z" fill="#fbb540"/><path d="m464 256a8 8 0 0 1 -8-8 40.045 40.045 0 0 0 -40-40 8 8 0 0 1 0-16 56.063 56.063 0 0 1 56 56 8 8 0 0 1 -8 8z" fill="#fbb540"/><g fill="#0bafea"><path d="m80 352h-56a8 8 0 0 1 0-16h56a8 8 0 0 0 0-16h-8a8 8 0 0 1 0-16h8a24 24 0 0 1 0 48z"/><path d="m80 448h-8a8 8 0 0 1 0-16h8a8 8 0 0 0 0-16h-56a8 8 0 0 1 0-16h56a24 24 0 0 1 0 48z"/><path d="m48 384h-24a8 8 0 0 1 0-16h24a8 8 0 0 1 0 16z"/><path d="m96 384h-16a8 8 0 0 1 0-16h16a8 8 0 0 1 0 16z"/><path d="m488 352h-56a24 24 0 0 1 0-48h8a8 8 0 0 1 0 16h-8a8 8 0 0 0 0 16h56a8 8 0 0 1 0 16z"/><path d="m440 448h-8a24 24 0 0 1 0-48h56a8 8 0 0 1 0 16h-56a8 8 0 0 0 0 16h8a8 8 0 0 1 0 16z"/><path d="m488 384h-24a8 8 0 0 1 0-16h24a8 8 0 0 1 0 16z"/><path d="m432 384h-16a8 8 0 0 1 0-16h16a8 8 0 0 1 0 16z"/></g><path d="m280 336v-120h-48v120h-16v-121.06l-49.13-7.02-.18-.03 1.31-7.89v-8a7.158 7.158 0 0 1 1.13.08l44.72 6.39-13.68-65.84a8 8 0 0 1 15.66-3.26l14.68 70.63h50.98l14.68-70.63a8 8 0 0 1 15.66 3.26l-13.68 65.84 44.72-6.39a8.586 8.586 0 0 1 1.13-.08v8l1.31 7.89-.18.03-49.13 7.02v121.06z" fill="#961b20"/><rect fill="#b92531" height="64" rx="6" width="112" x="200" y="72"/></g></svg>