<?xml version="1.0" encoding="iso-8859-1"?>
<!-- Generator: Adobe Illustrator 19.0.0, SVG Export Plug-In . SVG Version: 6.00 Build 0)  -->
<svg version="1.1" id="Capa_1" xmlns="http://www.w3.org/2000/svg" xmlns:xlink="http://www.w3.org/1999/xlink" x="0px" y="0px"
	 viewBox="0 0 512 512" style="enable-background:new 0 0 512 512;" xml:space="preserve">
<path style="fill:#F8CF32;" d="M404.899,169.865h-40.274v-43.431H147.374v43.431H107.1v-63.568c0-11.121,9.016-20.137,20.137-20.137
	h257.525c11.121,0,20.137,9.016,20.137,20.137V169.865z"/>
<rect x="199.92" y="86.16" style="fill:#704B00;" width="112.15" height="40.27"/>
<rect x="107.1" y="151" style="opacity:0.15;enable-background:new    ;" width="40.27" height="18.865"/>
<rect x="364.63" y="151" style="opacity:0.15;enable-background:new    ;" width="40.27" height="18.865"/>
<path style="opacity:0.15;enable-background:new    ;" d="M384.763,86.161H373.22c11.121,0,20.137,9.016,20.137,20.137v63.568
	h11.542v-63.568C404.899,95.176,395.884,86.161,384.763,86.161z"/>
<path style="fill:#0079D0;" d="M500.568,425.839H11.432C5.118,425.839,0,420.721,0,414.408v-233.11
	c0-6.314,5.118-11.432,11.432-11.432h489.136c6.314,0,11.432,5.118,11.432,11.432v233.11
	C512,420.721,506.882,425.839,500.568,425.839z"/>
<circle style="opacity:0.15;enable-background:new    ;" cx="115.15" cy="308.56" r="90.56"/>
<circle style="opacity:0.15;enable-background:new    ;" cx="396.85" cy="308.56" r="90.56"/>
<g>
	<rect y="270.74" style="fill:#F89021;" width="115.15" height="54.22"/>
	<rect x="396.85" y="270.74" style="fill:#F89021;" width="115.15" height="54.22"/>
</g>
<path style="opacity:0.15;enable-background:new    ;" d="M500.568,169.865h-16.206c6.314,0,11.432,5.118,11.432,11.432v233.11
	c0,6.314-5.118,11.432-11.432,11.432h16.206c6.314,0,11.432-5.118,11.432-11.432v-233.11
	C512,174.984,506.882,169.865,500.568,169.865z"/>
<circle style="fill:#FFFFFF;" cx="115.15" cy="297.85" r="90.56"/>
<circle style="fill:#394049;" cx="115.15" cy="297.85" r="68.67"/>
<circle style="fill:#FFFFFF;" cx="396.85" cy="297.85" r="90.56"/>
<circle style="fill:#394049;" cx="396.85" cy="297.85" r="68.67"/>
<path style="fill:#F8CF32;" d="M298.406,198.627h-84.811c-3.431,0-6.212,2.781-6.212,6.212v22.328c0,3.431,2.781,6.212,6.212,6.212
	h84.811c3.431,0,6.212-2.781,6.212-6.212v-22.328C304.618,201.408,301.836,198.627,298.406,198.627z"/>
<rect x="262.23" y="198.63" style="fill:#FFFFFF;" width="15" height="34.751"/>
<path style="opacity:0.15;enable-background:new    ;" d="M298.406,374.319h-84.811c-3.431,0-6.212,2.781-6.212,6.212v19.988
	c0,3.431,2.781,6.212,6.212,6.212h84.811c3.431,0,6.212-2.781,6.212-6.212v-19.988C304.618,377.1,301.836,374.319,298.406,374.319z"
	/>
<path style="fill:#F89021;" d="M239.794,397.332h-26.2c-3.431,0-6.212-2.781-6.212-6.212v-19.988c0-3.431,2.781-6.212,6.212-6.212
	h26.2V397.332z"/>
<rect x="239.79" y="364.921" style="fill:#FFFFFF;" width="32.412" height="32.412"/>
<path style="fill:#F89021;" d="M298.406,397.332h-26.2v-32.412h26.2c3.431,0,6.212,2.781,6.212,6.212v19.988
	C304.618,394.551,301.836,397.332,298.406,397.332z"/>
<path style="fill:#F8CF32;" d="M278.63,305.353h-45.26c-4.142,0-7.5-3.358-7.5-7.5s3.358-7.5,7.5-7.5h45.26
	c4.143,0,7.5,3.358,7.5,7.5S282.772,305.353,278.63,305.353z"/>
<path style="fill:#F89021;" d="M278.63,332.706h-45.26c-4.142,0-7.5-3.358-7.5-7.5s3.358-7.5,7.5-7.5h45.26
	c4.143,0,7.5,3.358,7.5,7.5S282.772,332.706,278.63,332.706z"/>
<g>
</g>
<g>
</g>
<g>
</g>
<g>
</g>
<g>
</g>
<g>
</g>
<g>
</g>
<g>
</g>
<g>
</g>
<g>
</g>
<g>
</g>
<g>
</g>
<g>
</g>
<g>
</g>
<g>
</g>
</svg>
