<?xml version="1.0" encoding="iso-8859-1"?>
<!-- Generator: Adobe Illustrator 19.0.0, SVG Export Plug-In . SVG Version: 6.00 Build 0)  -->
<svg version="1.1" id="Capa_1" xmlns="http://www.w3.org/2000/svg" xmlns:xlink="http://www.w3.org/1999/xlink" x="0px" y="0px"
	 viewBox="0 0 512 512" style="enable-background:new 0 0 512 512;" xml:space="preserve">
<path style="fill:#618BAA;" d="M512,18.141v475.717c0,3.414-2.767,6.181-6.181,6.181H293.818c-3.414,0-6.181-2.767-6.181-6.181
	V18.141c0-3.414,2.767-6.181,6.181-6.181h212.001C509.233,11.96,512,14.728,512,18.141z"/>
<path style="fill:#89B4C9;" d="M512,24.978H287.641v-6.84c0-3.414,2.767-6.181,6.181-6.181h211.997c3.414,0,6.181,2.767,6.181,6.181
	L512,24.978L512,24.978z"/>
<path style="fill:#4E7693;" d="M512,334.603v159.256c0,3.414-2.767,6.181-6.181,6.181H293.818c-3.414,0-6.181-2.767-6.181-6.181
	V334.603H512z"/>
<path style="fill:#C8C8C8;" d="M505.819,500.043H293.822c-3.414,0-6.181-2.767-6.181-6.181V346.961H512v146.901
	C512,497.276,509.233,500.043,505.819,500.043z"/>
<path style="fill:#AAAAAA;" d="M293.82,500.043h211.999c3.414,0,6.181-2.767,6.181-6.181v-12.18H287.639v12.18
	C287.639,497.276,290.406,500.043,293.82,500.043z"/>
<path style="fill:#4E7693;" d="M399.82,132.863c-25.423,0-46.105-20.682-46.105-46.105s20.682-46.105,46.105-46.105
	s46.106,20.682,46.106,46.105S425.242,132.863,399.82,132.863z"/>
<circle style="fill:#2B5266;" cx="399.82" cy="86.76" r="33.743"/>
<g>
	<path style="fill:#4E7693;" d="M399.873,94.485h-0.106c-4.267,0-7.726-3.459-7.726-7.726c0-4.268,3.459-7.726,7.726-7.726h0.106
		c4.267,0,7.726,3.459,7.726,7.726C407.6,91.026,404.14,94.485,399.873,94.485z"/>
	<path style="fill:#4E7693;" d="M399.82,310.695c-45.486,0-82.491-37.005-82.491-82.491s37.005-82.492,82.491-82.492
		s82.492,37.006,82.492,82.492S445.306,310.695,399.82,310.695z"/>
</g>
<circle style="fill:#2B5266;" cx="399.82" cy="228.2" r="70.13"/>
<circle style="fill:#C8C8C8;" cx="399.82" cy="228.2" r="22.04"/>
<path style="fill:#4E7693;" d="M399.82,257.972c-16.414,0-29.768-13.354-29.768-29.768s13.354-29.769,29.768-29.769
	s29.768,13.354,29.768,29.769C429.588,244.618,416.234,257.972,399.82,257.972z M399.82,213.888
	c-7.893,0-14.315,6.423-14.315,14.316s6.422,14.315,14.315,14.315s14.315-6.422,14.315-14.315S407.714,213.888,399.82,213.888z"/>
<g>
	<path style="fill:#618BAA;" d="M474.491,472.103c-4.267,0-7.726-3.459-7.726-7.726v-81.748c0-4.268,3.459-7.726,7.726-7.726
		s7.726,3.459,7.726,7.726v81.748C482.218,468.644,478.759,472.103,474.491,472.103z"/>
	<path style="fill:#618BAA;" d="M449.183,472.103c-4.267,0-7.726-3.459-7.726-7.726v-81.748c0-4.268,3.459-7.726,7.726-7.726
		s7.726,3.459,7.726,7.726v81.748C456.909,468.644,453.45,472.103,449.183,472.103z"/>
	<path style="fill:#618BAA;" d="M224.363,18.141v475.717c0,3.414-2.767,6.181-6.181,6.181H6.181c-3.414,0-6.181-2.767-6.181-6.181
		V18.141c0-3.414,2.767-6.181,6.181-6.181h212.001C221.596,11.96,224.363,14.728,224.363,18.141z"/>
</g>
<path style="fill:#89B4C9;" d="M0,24.978h224.359v-6.84c0-3.414-2.767-6.181-6.181-6.181H6.181C2.767,11.957,0,14.724,0,18.138
	V24.978z"/>
<path style="fill:#4E7693;" d="M224.363,334.603v159.256c0,3.414-2.767,6.181-6.181,6.181H6.181c-3.414,0-6.181-2.767-6.181-6.181
	V334.603H224.363z"/>
<path style="fill:#C8C8C8;" d="M6.181,500.043h211.997c3.414,0,6.181-2.767,6.181-6.181V346.961H0v146.901
	C0,497.276,2.767,500.043,6.181,500.043z"/>
<path style="fill:#AAAAAA;" d="M6.181,500.043h211.997c3.414,0,6.181-2.767,6.181-6.181v-12.18H0v12.18
	C0,497.276,2.767,500.043,6.181,500.043z"/>
<path style="fill:#4E7693;" d="M112.18,132.863c-25.423,0-46.106-20.682-46.106-46.105s20.683-46.105,46.106-46.105
	s46.105,20.682,46.105,46.105S137.603,132.863,112.18,132.863z"/>
<circle style="fill:#2B5266;" cx="112.18" cy="86.76" r="33.743"/>
<g>
	<path style="fill:#4E7693;" d="M112.232,94.485h-0.106c-4.267,0-7.726-3.459-7.726-7.726c0-4.268,3.459-7.726,7.726-7.726h0.106
		c4.267,0,7.726,3.459,7.726,7.726C119.959,91.026,116.499,94.485,112.232,94.485z"/>
	<path style="fill:#4E7693;" d="M112.18,310.695c-45.486,0-82.492-37.005-82.492-82.491s37.006-82.492,82.492-82.492
		s82.491,37.006,82.491,82.492S157.666,310.695,112.18,310.695z"/>
</g>
<circle style="fill:#2B5266;" cx="112.18" cy="228.2" r="70.13"/>
<circle style="fill:#C8C8C8;" cx="112.18" cy="228.2" r="22.04"/>
<path style="fill:#4E7693;" d="M112.18,257.972c-16.414,0-29.768-13.354-29.768-29.768s13.354-29.769,29.768-29.769
	s29.768,13.354,29.768,29.769C141.947,244.618,128.594,257.972,112.18,257.972z M112.18,213.888
	c-7.893,0-14.315,6.423-14.315,14.316s6.422,14.315,14.315,14.315s14.315-6.422,14.315-14.315S120.073,213.888,112.18,213.888z"/>
<path style="fill:#2B5266;" d="M193.02,410.227c-0.013,0-0.026,0-0.038,0"/>
<g>
	<path style="fill:#618BAA;" d="M37.509,472.103c-4.267,0-7.726-3.459-7.726-7.726v-81.748c0-4.268,3.459-7.726,7.726-7.726
		s7.726,3.459,7.726,7.726v81.748C45.235,468.644,41.776,472.103,37.509,472.103z"/>
	<path style="fill:#618BAA;" d="M62.817,472.103c-4.267,0-7.726-3.459-7.726-7.726v-81.748c0-4.268,3.459-7.726,7.726-7.726
		s7.726,3.459,7.726,7.726v81.748C70.544,468.644,67.085,472.103,62.817,472.103z"/>
</g>
<g>
</g>
<g>
</g>
<g>
</g>
<g>
</g>
<g>
</g>
<g>
</g>
<g>
</g>
<g>
</g>
<g>
</g>
<g>
</g>
<g>
</g>
<g>
</g>
<g>
</g>
<g>
</g>
<g>
</g>
</svg>
