<svg id="Capa_1" enable-background="new 0 0 512 512" height="512" viewBox="0 0 512 512" width="512" xmlns="http://www.w3.org/2000/svg"><g><g><path d="m392.717 370.266c0-4.139 3.345-7.513 7.483-7.513s7.512 3.374 7.512 7.513v62.845l78.294 58.366c3.316 2.438 4.025 7.143 1.56 10.46-2.467 3.316-7.143 3.997-10.46 1.531l-69.394-51.706v45.696c0 4.167-3.373 7.512-7.512 7.512s-7.483-3.345-7.483-7.512v-45.696l-69.421 51.706c-3.316 2.466-7.994 1.785-10.46-1.531-2.467-3.316-1.758-8.021 1.559-10.46l78.322-58.366zm-357.822 133.202c-3.316 2.466-7.994 1.785-10.46-1.531s-1.758-8.021 1.559-10.46l78.322-58.366v-62.845c0-4.139 3.345-7.513 7.484-7.513s7.512 3.374 7.512 7.513v62.845l78.322 58.366c3.316 2.438 3.997 7.143 1.53 10.46-2.438 3.316-7.143 3.997-10.46 1.531l-69.392-51.706v45.696c0 4.167-3.373 7.512-7.512 7.512s-7.484-3.345-7.484-7.512v-45.696z" fill="#40579a"/></g><g><path clip-rule="evenodd" d="m304.161 7.03h192.107c8.645 0 15.732 7.086 15.732 15.76v331.715c0 8.674-7.087 15.761-15.732 15.761h-192.107c-8.675 0-15.761-7.087-15.761-15.761v-331.715c0-8.674 7.086-15.76 15.761-15.76zm-288.4 0h192.106c8.646 0 15.732 7.086 15.732 15.76v331.715c0 8.674-7.086 15.761-15.732 15.761h-192.106c-8.674 0-15.761-7.087-15.761-15.761v-331.715c0-8.674 7.087-15.76 15.761-15.76z" fill="#40579a" fill-rule="evenodd"/></g><g><path clip-rule="evenodd" d="m471.266 7.03h25.002c8.645 0 15.732 7.086 15.732 15.76v331.715c0 8.674-7.087 15.761-15.732 15.761h-25.002c8.646 0 15.732-7.087 15.732-15.761v-331.715c0-8.674-7.087-15.76-15.732-15.76zm-288.401 0h25.001c8.646 0 15.732 7.086 15.732 15.76v331.715c0 8.674-7.086 15.761-15.732 15.761h-25.001c8.645 0 15.733-7.087 15.733-15.761v-331.715c0-8.674-7.087-15.76-15.733-15.76z" fill="#34467b" fill-rule="evenodd"/></g><g><path clip-rule="evenodd" d="m111.8 172.888c44.363 0 80.306 35.971 80.306 80.334 0 44.335-35.943 80.307-80.306 80.307-44.335 0-80.307-35.972-80.307-80.307.001-44.364 35.973-80.334 80.307-80.334zm288.4 0c44.362 0 80.307 35.971 80.307 80.334 0 44.335-35.944 80.307-80.307 80.307-44.335 0-80.307-35.972-80.307-80.307.001-44.364 35.972-80.334 80.307-80.334z" fill="#ddeafb" fill-rule="evenodd"/></g><g><path clip-rule="evenodd" d="m111.8 172.888c44.363 0 80.306 35.971 80.306 80.334 0 44.335-35.943 80.307-80.306 80.307-4.252 0-8.419-.34-12.502-.964 38.439-6.009 67.806-39.261 67.806-79.343 0-40.11-29.367-73.333-67.806-79.342 4.083-.653 8.25-.992 12.502-.992zm288.4 0c44.362 0 80.307 35.971 80.307 80.334 0 44.335-35.944 80.307-80.307 80.307-4.252 0-8.419-.34-12.501-.964 38.41-6.009 67.805-39.261 67.805-79.343 0-40.11-29.395-73.333-67.805-79.342 4.082-.653 8.249-.992 12.501-.992z" fill="#c4d7fb" fill-rule="evenodd"/></g><g><path clip-rule="evenodd" d="m111.8 223.826c16.242 0 29.395 13.153 29.395 29.395 0 16.214-13.153 29.395-29.395 29.395-16.215 0-29.396-13.182-29.396-29.395 0-16.241 13.181-29.395 29.396-29.395zm288.4 0c16.243 0 29.396 13.153 29.396 29.395 0 16.214-13.152 29.395-29.396 29.395-16.214 0-29.396-13.182-29.396-29.395 0-16.241 13.182-29.395 29.396-29.395z" fill="#40579a" fill-rule="evenodd"/></g><g><path clip-rule="evenodd" d="m111.8 223.826c16.242 0 29.395 13.153 29.395 29.395 0 16.214-13.153 29.395-29.395 29.395-4.451 0-8.703-1.02-12.502-2.807 9.979-4.677 16.895-14.824 16.895-26.589 0-11.764-6.917-21.911-16.895-26.617 3.799-1.785 8.052-2.777 12.502-2.777zm288.4 0c16.243 0 29.396 13.153 29.396 29.395 0 16.214-13.152 29.395-29.396 29.395-4.478 0-8.702-1.02-12.501-2.807 9.979-4.677 16.895-14.824 16.895-26.589 0-11.764-6.916-21.911-16.895-26.617 3.799-1.785 8.023-2.777 12.501-2.777z" fill="#34467b" fill-rule="evenodd"/></g><g><path clip-rule="evenodd" d="m400.2 47.453c20.013 0 36.227 16.214 36.227 36.227 0 19.984-16.214 36.199-36.227 36.199-19.985 0-36.199-16.215-36.199-36.199 0-20.013 16.214-36.227 36.199-36.227zm-288.4 0c20.013 0 36.227 16.214 36.227 36.227 0 19.984-16.214 36.199-36.227 36.199-19.985 0-36.199-16.215-36.199-36.199 0-20.013 16.214-36.227 36.199-36.227z" fill="#c4d7fb" fill-rule="evenodd"/></g><g><path clip-rule="evenodd" d="m400.2 47.453c20.013 0 36.227 16.214 36.227 36.227 0 19.984-16.214 36.199-36.227 36.199-4.394 0-8.589-.766-12.501-2.212 13.861-5.073 23.727-18.396 23.727-33.987 0-15.619-9.865-28.913-23.727-34.016 3.912-1.418 8.108-2.211 12.501-2.211zm-288.4 0c20.013 0 36.227 16.214 36.227 36.227 0 19.984-16.214 36.199-36.227 36.199-4.394 0-8.589-.766-12.502-2.212 13.862-5.073 23.727-18.396 23.727-33.987 0-15.619-9.865-28.913-23.727-34.016 3.913-1.418 8.109-2.211 12.502-2.211z" fill="#a9c6f9" fill-rule="evenodd"/></g></g></svg>