<svg id="Flat" height="512" viewBox="0 0 512 512" width="512" xmlns="http://www.w3.org/2000/svg"><path d="m464 176v24a16 16 0 0 1 -16 16h-104v-40z" fill="#7a8a9a"/><path d="m344 184h120a24 24 0 0 0 24-24v-112a24 24 0 0 0 -24-24h-96a24 24 0 0 0 -24 24z" fill="#7a8a9a"/><circle cx="416" cy="104" fill="#abbac2" r="40"/><path d="m408 96h16v16h-16z" fill="#58646f"/><path d="m440.769 59.23h24v16h-24z" fill="#58646f" transform="matrix(.707 -.707 .707 .707 85.074 339.848)"/><path d="m371.23 55.23h16v24h-16z" fill="#58646f" transform="matrix(.707 -.707 .707 .707 63.544 287.861)"/><path d="m444.769 128.769h16v24h-16z" fill="#58646f" transform="matrix(.707 -.707 .707 .707 33.084 361.405)"/><path d="m376 184h88v16h-88z" fill="#687683" transform="matrix(-1 0 0 -1 840 384)"/><path d="m48 176v24a16 16 0 0 0 16 16h104v-40z" fill="#7a8a9a"/><path d="m168 184h-120a24 24 0 0 1 -24-24v-112a24 24 0 0 1 24-24h96a24 24 0 0 1 24 24z" fill="#7a8a9a"/><circle cx="96" cy="104" fill="#abbac2" r="40"/><path d="m168 440v32a16 16 0 0 0 16 16h144a16 16 0 0 0 16-16v-32z" fill="#58646f"/><rect fill="#58646f" height="352" rx="24" width="240" x="136" y="104"/><circle cx="256" cy="336" fill="#7a8a9a" r="64"/><path d="m168 456h176v16h-176z" fill="#48525b"/><path d="m256 320a16 16 0 1 0 11.313 4.688 15.891 15.891 0 0 0 -11.313-4.688z" fill="#48525b"/><circle cx="256" cy="186.745" fill="#7a8a9a" r="40"/><g fill="#48525b"><path d="m190.26 381.74h24v16h-24z" transform="matrix(.707 -.707 .707 .707 -216.342 257.153)"/><path d="m297.74 274.26h24v16h-24z" transform="matrix(.707 -.707 .707 .707 -108.868 301.673)"/><path d="m194.26 270.26h16v24h-16z" transform="matrix(.707 -.707 .707 .707 -140.347 225.691)"/><path d="m301.74 377.74h16v24h-16z" transform="matrix(.707 -.707 .707 .707 -184.867 333.172)"/><path d="m336 416h16v16h-16z"/><path d="m160 416h16v16h-16z"/><path d="m336 128h16v16h-16z"/><path d="m160 128h16v16h-16z"/><path d="m248 178.745h16v16h-16z"/><path d="m280.769 141.975h24v16h-24z" transform="matrix(.707 -.707 .707 .707 -20.303 250.933)"/><path d="m207.23 215.514h24v16h-24z" transform="matrix(.707 -.707 .707 .707 -93.837 220.472)"/><path d="m284.769 211.515h16v24h-16z" transform="matrix(.707 -.707 .707 .707 -72.299 272.485)"/><path d="m211.23 137.975h16v24h-16z" transform="matrix(.707 -.707 .707 .707 -41.838 198.946)"/></g><path d="m88 96h16v16h-16z" fill="#58646f"/><path d="m51.23 55.23h16v24h-16z" fill="#58646f" transform="matrix(.707 -.707 .707 .707 -30.191 61.574)"/><path d="m120.769 59.23h24v16h-24z" fill="#58646f" transform="matrix(.707 -.707 .707 .707 -8.654 113.567)"/><path d="m47.23 132.769h24v16h-24z" fill="#58646f" transform="matrix(.707 -.707 .707 .707 -82.188 83.107)"/><path d="m96 352v-112h-16v52.686l-16-16v-36.686h-16v40a8 8 0 0 0 2.343 5.657l29.657 29.657v36.686a32.036 32.036 0 0 0 32 32h48v-16h-48a16.019 16.019 0 0 1 -16-16z" fill="#faac28"/><path d="m448 240v36.687l-16 16v-52.687h-16v112a16.019 16.019 0 0 1 -16 16h-48v16h48a32.036 32.036 0 0 0 32-32v-36.686l29.657-29.657a8 8 0 0 0 2.343-5.657v-40z" fill="#faac28"/><path d="m48 184h88v16h-88z" fill="#687683"/></svg>