<svg id="Layer_1" enable-background="new 0 0 512 512" height="512" viewBox="0 0 512 512" width="512" xmlns="http://www.w3.org/2000/svg"><g><path d="m154 504h-68c-8.284 0-15-6.716-15-15v-119c0-8.284 6.716-15 15-15h68c8.284 0 15 6.716 15 15v119c0 8.284-6.716 15-15 15z" fill="#00347b"/><path d="m154 355h-34v149h34c8.284 0 15-6.716 15-15v-119c0-8.284-6.716-15-15-15z" fill="#001737"/><path d="m195 432h-150c-24.813 0-45-20.187-45-45v-342c0-24.813 20.187-45 45-45h150c24.813 0 45 20.187 45 45v342c0 24.813-20.187 45-45 45z" fill="#4793ff"/><path d="m195 0h-75v432h75c24.813 0 45-20.187 45-45v-342c0-24.813-20.187-45-45-45z" fill="#525cdd"/><g clip-rule="evenodd" fill-rule="evenodd"><ellipse cx="120" cy="140.282" fill="#00429d" rx="53.282" ry="53.282" transform="matrix(.707 -.707 .707 .707 -64.047 125.941)"/><path d="m120 87v106.564c29.347 0 53.282-23.935 53.282-53.282s-23.935-53.282-53.282-53.282z" fill="#00347b"/><ellipse cx="120" cy="305.718" fill="#00429d" rx="38" ry="38" transform="matrix(.972 -.234 .234 .972 -68.081 36.48)"/></g><path d="m181 512h-122c-8.284 0-15-6.716-15-15s6.716-15 15-15h122c8.284 0 15 6.716 15 15s-6.716 15-15 15z" fill="#00429d"/><ellipse clip-rule="evenodd" cx="120" cy="140.282" fill="#7dd5f4" fill-rule="evenodd" rx="15" ry="15" transform="matrix(.707 -.707 .707 .707 -64.047 125.941)"/><path clip-rule="evenodd" d="m120 125.282v30c8.262 0 15-6.738 15-15s-6.738-15-15-15z" fill="#4793ff" fill-rule="evenodd"/><path clip-rule="evenodd" d="m120 267.718v76c20.93 0 38-17.07 38-38s-17.07-38-38-38z" fill="#00347b" fill-rule="evenodd"/><path d="m181 482h-61v30h61c8.284 0 15-6.716 15-15s-6.716-15-15-15z" fill="#00347b"/><path d="m120 208.563c-37.651 0-68.282-30.631-68.282-68.282 0-37.65 30.632-68.281 68.282-68.281s68.282 30.631 68.282 68.281c0 37.652-30.631 68.282-68.282 68.282zm0-106.563c-21.109 0-38.282 17.173-38.282 38.281 0 21.109 17.173 38.282 38.282 38.282 21.108 0 38.282-17.173 38.282-38.282 0-21.108-17.173-38.281-38.282-38.281z" fill="#7dd5f4"/><path d="m120 72v30c21.108 0 38.282 17.173 38.282 38.281 0 21.109-17.173 38.282-38.282 38.282v30c37.65 0 68.282-30.631 68.282-68.282 0-37.65-30.631-68.281-68.282-68.281z" fill="#4793ff"/><path d="m120 358.718c-29.224 0-53-23.775-53-53s23.776-53 53-53 53 23.775 53 53-23.776 53-53 53zm0-76c-12.682 0-23 10.317-23 23s10.318 23 23 23 23-10.317 23-23-10.318-23-23-23z" fill="#7dd5f4"/><path d="m120 252.718v30c12.682 0 23 10.317 23 23s-10.317 23-23 23v30c29.224 0 53-23.775 53-53s-23.776-53-53-53z" fill="#4793ff"/><path d="m426 504h-68c-8.284 0-15-6.716-15-15v-119c0-8.284 6.716-15 15-15h68c8.284 0 15 6.716 15 15v119c0 8.284-6.716 15-15 15z" fill="#00347b"/><path d="m426 355h-34v149h34c8.284 0 15-6.716 15-15v-119c0-8.284-6.716-15-15-15z" fill="#001737"/><path d="m467 432h-150c-24.813 0-45-20.187-45-45v-342c0-24.813 20.187-45 45-45h150c24.813 0 45 20.187 45 45v342c0 24.813-20.187 45-45 45z" fill="#4793ff"/><path d="m467 0h-75v432h75c24.813 0 45-20.187 45-45v-342c0-24.813-20.187-45-45-45z" fill="#525cdd"/><ellipse clip-rule="evenodd" cx="392" cy="140.282" fill="#00429d" fill-rule="evenodd" rx="53.282" ry="53.282" transform="matrix(.707 -.707 .707 .707 15.62 318.274)"/><path clip-rule="evenodd" d="m392 87v106.564c29.347 0 53.282-23.935 53.282-53.282s-23.935-53.282-53.282-53.282z" fill="#00347b" fill-rule="evenodd"/><ellipse clip-rule="evenodd" cx="392" cy="305.718" fill="#00429d" fill-rule="evenodd" rx="38" ry="38" transform="matrix(.972 -.234 .234 .972 -60.559 100.005)"/><path d="m453 512h-122c-8.284 0-15-6.716-15-15s6.716-15 15-15h122c8.284 0 15 6.716 15 15s-6.716 15-15 15z" fill="#00429d"/><ellipse clip-rule="evenodd" cx="392" cy="140.282" fill="#7dd5f4" fill-rule="evenodd" rx="15" ry="15" transform="matrix(.707 -.707 .707 .707 15.62 318.274)"/><path clip-rule="evenodd" d="m392 125.282v30c8.262 0 15-6.738 15-15s-6.738-15-15-15z" fill="#4793ff" fill-rule="evenodd"/><path clip-rule="evenodd" d="m392 267.718v76c20.93 0 38-17.07 38-38s-17.07-38-38-38z" fill="#00347b" fill-rule="evenodd"/><path d="m453 482h-61v30h61c8.284 0 15-6.716 15-15s-6.716-15-15-15z" fill="#00347b"/><path d="m392 208.563c-37.651 0-68.282-30.631-68.282-68.282 0-37.65 30.632-68.281 68.282-68.281s68.282 30.631 68.282 68.281c0 37.652-30.631 68.282-68.282 68.282zm0-106.563c-21.109 0-38.282 17.173-38.282 38.281 0 21.109 17.173 38.282 38.282 38.282 21.108 0 38.282-17.173 38.282-38.282 0-21.108-17.173-38.281-38.282-38.281z" fill="#7dd5f4"/><path d="m392 72v30c21.108 0 38.282 17.173 38.282 38.281 0 21.109-17.173 38.282-38.282 38.282v30c37.65 0 68.282-30.631 68.282-68.282 0-37.65-30.631-68.281-68.282-68.281z" fill="#4793ff"/><path d="m392 358.718c-29.224 0-53-23.775-53-53s23.776-53 53-53 53 23.775 53 53-23.776 53-53 53zm0-76c-12.682 0-23 10.317-23 23s10.318 23 23 23 23-10.317 23-23-10.318-23-23-23z" fill="#7dd5f4"/><path d="m392 252.718v30c12.682 0 23 10.317 23 23s-10.317 23-23 23v30c29.224 0 53-23.775 53-53s-23.776-53-53-53z" fill="#4793ff"/></g></svg>