<svg id="Layer_1" enable-background="new 0 0 256 256" height="512" viewBox="0 0 256 256" width="512" xmlns="http://www.w3.org/2000/svg"><path d="m26.137 96.585h203.727v126.13h-203.727z" fill="#a4c9ff"/><path d="m219.141 69.779h-182.282v-19.089c0-3.553 2.88-6.433 6.433-6.433h169.415c3.553 0 6.433 2.88 6.433 6.433v19.089z" fill="#a4c9ff"/><path d="m229.863 224.715h-203.726c-1.104 0-2-.896-2-2v-126.13c0-1.104.896-2 2-2h203.727c1.104 0 2 .896 2 2v126.13c-.001 1.104-.896 2-2.001 2zm-201.726-4h199.727v-122.13h-199.727z" fill="#3762cc"/><path d="m219.141 71.778h-182.282c-1.104 0-2-.896-2-2v-19.089c0-4.65 3.783-8.434 8.434-8.434h169.414c4.65 0 8.434 3.783 8.434 8.434v19.089c0 1.105-.896 2-2 2zm-180.282-4h178.281v-17.089c0-2.444-1.989-4.434-4.434-4.434h-169.413c-2.444 0-4.434 1.989-4.434 4.434z" fill="#3762cc"/><path d="m241.5 236.917h-227c-2.209 0-4-1.791-4-4v-6.202c0-2.209 1.791-4 4-4h227c2.209 0 4 1.791 4 4v6.202c0 2.209-1.791 4-4 4z" fill="#e0ebfc"/><path d="m237.905 69.779h-219.81c-2.369 0-4.289 1.92-4.289 4.289v18.228c0 2.369 1.92 4.289 4.289 4.289h219.811c2.369 0 4.289-1.92 4.289-4.289v-18.228c-.001-2.369-1.921-4.289-4.29-4.289z" fill="#f9a7a7"/><path d="m188.046 158.954h-120.092c-1.184 0-2.144-.96-2.144-2.144v-17.513c0-1.184.96-2.144 2.144-2.144h120.092c1.184 0 2.144.96 2.144 2.144v17.513c0 1.184-.96 2.144-2.144 2.144z" fill="#f9a7a7"/><path d="m48.94 182.793h63.761v16.084h-63.761z" fill="#f9cfcf" transform="matrix(0 1 -1 0 271.656 110.013)"/><path d="m143.298 182.793h63.761v16.084h-63.761z" fill="#f9cfcf" transform="matrix(0 1 -1 0 366.013 15.656)"/><path d="m128 222.715h-30.153v-50.894c0-1.777 1.44-3.217 3.217-3.217h26.936z" fill="#e0ebfc"/><path d="m158.153 222.715h-30.153v-54.111h26.936c1.777 0 3.217 1.44 3.217 3.217z" fill="#e0ebfc"/><path d="m134.031 201.553c-1.203 0-2.178-.975-2.178-2.178v-3.016c0-1.203.975-2.178 2.178-2.178 1.203 0 2.178.975 2.178 2.178v3.016c0 1.203-.975 2.178-2.178 2.178z" fill="#f9a7a7"/><path d="m121.969 201.553c-1.203 0-2.178-.975-2.178-2.178v-3.016c0-1.203.975-2.178 2.178-2.178 1.203 0 2.178.975 2.178 2.178v3.016c0 1.203-.976 2.178-2.178 2.178z" fill="#f9a7a7"/><circle cx="32.031" cy="83.182" fill="#ffea92" r="8.575"/><circle cx="62.054" cy="83.182" fill="#ffea92" r="8.575"/><circle cx="193.946" cy="83.182" fill="#ffea92" r="8.575"/><circle cx="223.969" cy="83.182" fill="#ffea92" r="8.575"/><path d="m217.801 213.754h-22.514c-1.184 0-2.144-.96-2.144-2.144v-32.998h26.803v32.998c-.001 1.184-.961 2.144-2.145 2.144z" fill="#e0ebfc"/><path d="m219.945 178.612h-26.803v-8.552c0-1.184.96-2.144 2.144-2.144h22.514c1.184 0 2.145.96 2.145 2.144z" fill="#6bdddd"/><path d="m60.714 213.754h-22.515c-1.184 0-2.144-.96-2.144-2.144v-32.998h26.803v32.998c0 1.184-.96 2.144-2.144 2.144z" fill="#e0ebfc"/><path d="m62.858 178.612h-26.803v-8.552c0-1.184.96-2.144 2.144-2.144h22.514c1.184 0 2.144.96 2.144 2.144v8.552z" fill="#6bdddd"/><path d="m32.031 93.757c-5.831 0-10.575-4.744-10.575-10.575s4.744-10.576 10.575-10.576 10.575 4.744 10.575 10.575-4.744 10.576-10.575 10.576zm0-17.151c-3.626 0-6.575 2.949-6.575 6.575s2.949 6.575 6.575 6.575 6.575-2.949 6.575-6.575-2.949-6.575-6.575-6.575z" fill="#3762cc"/><path d="m62.054 93.757c-5.831 0-10.575-4.744-10.575-10.575s4.744-10.575 10.575-10.575 10.575 4.744 10.575 10.575-4.744 10.575-10.575 10.575zm0-17.151c-3.626 0-6.575 2.949-6.575 6.575s2.949 6.575 6.575 6.575 6.575-2.949 6.575-6.575-2.949-6.575-6.575-6.575z" fill="#3762cc"/><path d="m193.946 93.757c-5.831 0-10.575-4.744-10.575-10.575s4.744-10.575 10.575-10.575 10.575 4.744 10.575 10.575-4.744 10.575-10.575 10.575zm0-17.151c-3.626 0-6.575 2.949-6.575 6.575s2.949 6.575 6.575 6.575 6.575-2.949 6.575-6.575-2.949-6.575-6.575-6.575z" fill="#3762cc"/><path d="m223.969 93.757c-5.831 0-10.575-4.744-10.575-10.575s4.744-10.575 10.575-10.575 10.575 4.744 10.575 10.575-4.744 10.575-10.575 10.575zm0-17.151c-3.626 0-6.575 2.949-6.575 6.575s2.949 6.575 6.575 6.575 6.575-2.949 6.575-6.575-2.949-6.575-6.575-6.575z" fill="#3762cc"/><path d="m237.905 98.585h-219.81c-3.468 0-6.289-2.821-6.289-6.289v-18.229c0-3.468 2.821-6.289 6.289-6.289h219.811c3.468 0 6.289 2.821 6.289 6.289v18.229c-.001 3.468-2.822 6.289-6.29 6.289zm-219.81-26.807c-1.262 0-2.289 1.026-2.289 2.289v18.229c0 1.263 1.027 2.289 2.289 2.289h219.811c1.262 0 2.289-1.026 2.289-2.289v-18.229c0-1.263-1.027-2.289-2.289-2.289z" fill="#3762cc"/><path d="m128 121.697c-28.336 0-51.307-22.971-51.307-51.307 0-28.336 22.971-51.307 51.307-51.307 28.336 0 51.307 22.971 51.307 51.307 0 28.336-22.971 51.307-51.307 51.307z" fill="#f9a7a7"/><circle cx="128" cy="70.39" fill="#f9cfcf" r="42.622"/><path d="m100.913 74.446-1.768-6.6-2.361.633 8.162 30.461c.541 2.019 2.616 3.217 4.635 2.676l13.505-3.619 4.073-1.091 13.2-3.537 11.843-3.173 5.735-1.537c2.019-.541 3.217-2.616 2.676-4.635l-6.393-23.861z" fill="#e0ebfc"/><path d="m124.583 79.177 1.758 6.56c.221.826 1.238 1.127 1.873.554l5.538-4.999c.693-.626.386-1.774-.528-1.969l-7.296-1.56c-.837-.181-1.567.588-1.345 1.414z" fill="#f9a7a7"/><path d="m129.868 91.711c-1.841 0-3.656-.482-5.293-1.427-2.457-1.419-4.215-3.709-4.949-6.45-.734-2.739-.357-5.602 1.062-8.059 1.419-2.456 3.709-4.214 6.45-4.948 2.736-.734 5.601-.357 8.059 1.062 2.456 1.418 4.214 3.708 4.948 6.449.734 2.739.357 5.602-1.062 8.059-1.418 2.456-3.709 4.214-6.448 4.948-.915.245-1.845.366-2.767.366zm.03-18.249c-.662 0-1.328.087-1.984.264-1.967.526-3.61 1.787-4.629 3.55-1.018 1.763-1.288 3.816-.761 5.782.526 1.967 1.787 3.61 3.551 4.628 1.763 1.018 3.816 1.29 5.782.761 1.967-.526 3.609-1.787 4.628-3.55 1.018-1.763 1.288-3.816.761-5.782 0 0 0 0 0-.001-.526-1.966-1.787-3.609-3.55-4.627-1.174-.678-2.477-1.025-3.798-1.025z" fill="#3762cc"/><path d="m99.089 60.588h55.187v6.833h-55.187z" fill="#4671c6" transform="matrix(.966 -.259 .259 .966 -12.249 34.969)"/><path d="m147.609 61.934 4.831-8.369-6.031 1.616-4.831 8.369z" fill="#a4c9ff"/><path d="m134.206 65.525 4.831-8.368-6.031 1.616-4.831 8.368z" fill="#a4c9ff"/><path d="m120.311 69.248 4.832-8.368-6.031 1.616-4.832 8.368z" fill="#a4c9ff"/><path d="m105.709 66.087-4.805 8.323.009.036 5.996-1.607 4.831-8.368z" fill="#a4c9ff"/><path d="m100.912 76.446c-.884 0-1.691-.59-1.931-1.483l-1.769-6.6c-.138-.513-.065-1.059.199-1.518.266-.459.702-.795 1.215-.932l53.307-14.283c1.066-.29 2.163.348 2.449 1.414l1.769 6.6c.138.513.065 1.059-.199 1.518-.266.459-.702.795-1.215.932l-53.307 14.283c-.172.047-.347.069-.518.069zm.682-7.186.733 2.736 49.443-13.248-.733-2.736z" fill="#3762cc"/><path d="m142.707 34.807-46.154 26.647c-.452.261-.608.84-.346 1.292l2.943 5.098 47.793-27.593-2.943-5.098c-.262-.452-.84-.607-1.293-.346z" fill="#4671c6"/><path d="m137.6 37.756 9.333 2.501-5.407 3.122-9.334-2.501z" fill="#a4c9ff"/><path d="m125.583 44.694 9.334 2.501-5.408 3.121-9.333-2.501z" fill="#a4c9ff"/><path d="m113.125 51.886 9.334 2.501-5.407 3.122-9.334-2.501z" fill="#a4c9ff"/><path d="m96.553 61.454c-.234.135-.387.356-.445.6l8.928 2.392 5.407-3.122-9.334-2.501z" fill="#a4c9ff"/><g fill="#3762cc"><path d="m108.604 103.745c-2.554 0-4.897-1.707-5.589-4.288l-8.162-30.461c-.286-1.066.347-2.163 1.414-2.449l2.36-.633c.509-.139 1.057-.066 1.518.199.459.266.795.702.932 1.215l1.251 4.668 51.375-13.766c1.066-.29 2.163.348 2.449 1.414l6.394 23.861c.824 3.081-1.011 6.259-4.091 7.084l-48.355 12.957c-.5.135-1.002.199-1.496.199zm-7.615-27.301 5.889 21.978c.256.95 1.234 1.516 2.186 1.262l48.355-12.957c.95-.255 1.517-1.235 1.263-2.187l-5.876-21.929-51.375 13.766c-.148.04-.295.061-.442.067z"/><path d="m128 123.697c-29.394 0-53.307-23.913-53.307-53.307s23.913-53.307 53.307-53.307 53.307 23.914 53.307 53.308-23.913 53.306-53.307 53.306zm0-102.614c-27.188 0-49.307 22.119-49.307 49.308 0 27.188 22.119 49.307 49.307 49.307s49.307-22.119 49.307-49.307c0-27.189-22.119-49.308-49.307-49.308z"/><path d="m128 115.012c-24.604 0-44.622-20.017-44.622-44.621s20.018-44.622 44.622-44.622 44.622 20.018 44.622 44.622-20.018 44.621-44.622 44.621zm0-85.243c-22.399 0-40.622 18.223-40.622 40.622 0 22.398 18.223 40.621 40.622 40.621s40.622-18.223 40.622-40.621c0-22.4-18.223-40.622-40.622-40.622z"/><path d="m128 224.715h-30.153c-1.104 0-2-.896-2-2v-50.894c0-2.877 2.34-5.217 5.217-5.217h26.936c1.104 0 2 .896 2 2v54.11c0 1.105-.896 2.001-2 2.001zm-28.153-4h26.153v-50.11h-24.937c-.671 0-1.217.546-1.217 1.217v48.893z"/><path d="m158.153 224.715h-30.153c-1.104 0-2-.896-2-2v-54.11c0-1.104.896-2 2-2h26.937c2.877 0 5.217 2.34 5.217 5.217v50.894c-.001 1.103-.896 1.999-2.001 1.999zm-28.153-4h26.153v-48.894c0-.671-.546-1.217-1.217-1.217h-24.936z"/><path d="m188.046 160.954h-120.092c-2.285 0-4.145-1.859-4.145-4.145v-17.514c0-2.285 1.859-4.145 4.145-4.145h120.092c2.285 0 4.145 1.859 4.145 4.145v17.514c-.001 2.286-1.86 4.145-4.145 4.145zm-120.092-21.803c-.08 0-.145.064-.145.145v17.514c0 .08.064.145.145.145h120.092c.08 0 .145-.064.145-.145v-17.514c0-.08-.064-.145-.145-.145z"/><path d="m88.863 224.715h-16.084c-1.104 0-2-.896-2-2v-63.761c0-1.104.896-2 2-2h16.084c1.104 0 2 .896 2 2v63.761c0 1.104-.895 2-2 2zm-14.084-4h12.084v-59.761h-12.084z"/><path d="m183.221 224.715h-16.084c-1.104 0-2-.896-2-2v-63.761c0-1.104.896-2 2-2h16.084c1.104 0 2 .896 2 2v63.761c0 1.104-.896 2-2 2zm-14.084-4h12.084v-59.761h-12.084z"/><path d="m217.801 215.754h-22.515c-2.285 0-4.145-1.859-4.145-4.145v-32.998c0-1.104.896-2 2-2h26.804c1.104 0 2 .896 2 2v32.998c0 2.286-1.859 4.145-4.144 4.145zm-22.659-35.143v30.998c0 .08.064.145.145.145h22.515c.08 0 .145-.064.145-.145v-30.998z"/><path d="m219.945 180.611h-26.804c-1.104 0-2-.896-2-2v-8.552c0-2.285 1.859-4.145 4.145-4.145h22.515c2.285 0 4.145 1.859 4.145 4.145v8.552c-.001 1.105-.896 2-2.001 2zm-24.803-4h22.804v-6.552c0-.08-.064-.145-.145-.145h-22.515c-.08 0-.145.064-.145.145v6.552z"/><path d="m60.714 215.754h-22.515c-2.285 0-4.145-1.859-4.145-4.145v-32.998c0-1.104.896-2 2-2h26.804c1.104 0 2 .896 2 2v32.998c0 2.286-1.859 4.145-4.144 4.145zm-22.659-35.143v30.998c0 .08.064.145.145.145h22.515c.08 0 .145-.064.145-.145v-30.998z"/><path d="m62.858 180.611h-26.803c-1.104 0-2-.896-2-2v-8.552c0-2.285 1.859-4.145 4.145-4.145h22.515c2.285 0 4.145 1.859 4.145 4.145v8.552c-.002 1.105-.897 2-2.002 2zm-24.803-4h22.804v-6.552c0-.08-.064-.145-.145-.145h-22.515c-.08 0-.145.064-.145.145v6.552z"/><path d="m241.5 238.917h-227c-3.309 0-6-2.691-6-6v-6.202c0-3.309 2.691-6 6-6h227c3.309 0 6 2.691 6 6v6.202c0 3.309-2.691 6-6 6zm-227-14.202c-1.103 0-2 .897-2 2v6.202c0 1.103.897 2 2 2h227c1.103 0 2-.897 2-2v-6.202c0-1.103-.897-2-2-2z"/><path d="m99.149 69.845c-.174 0-.348-.022-.518-.068-.513-.137-.949-.473-1.215-.932l-2.942-5.099c-.394-.68-.498-1.474-.294-2.235.203-.759.689-1.394 1.37-1.787l46.156-26.649c.001 0 .002-.001.003-.001 1.404-.809 3.209-.325 4.021 1.078l2.945 5.1c.265.459.337 1.005.199 1.518-.137.513-.473.949-.932 1.215l-47.794 27.594c-.305.175-.651.266-.999.266zm-.683-7.186 1.416 2.453 44.329-25.594-1.416-2.453z"/></g><path d="m103.878 73.651-4.344 1.164c-.542.145-1.099-.176-1.245-.719l-2.997-11.186c-.145-.542.176-1.099.719-1.245l4.344-1.164c1.988-.533 4.031.647 4.564 2.635l1.594 5.95c.533 1.989-.647 4.033-2.635 4.565z" fill="#6bdddd"/><circle cx="101.253" cy="67.44" fill="#f9a7a7" r="1.685"/><path d="m99.267 76.852c-.522 0-1.039-.137-1.504-.405-.697-.403-1.196-1.054-1.405-1.831l-2.998-11.187c-.209-.777-.102-1.591.301-2.289.403-.697 1.054-1.196 1.831-1.405l4.345-1.164c3.055-.821 6.195 1.001 7.014 4.05l1.594 5.949c.818 3.049-.998 6.195-4.049 7.014l-4.344 1.164c-.26.069-.524.104-.785.104zm4.611-3.201h.01zm-6.399-10.307 2.488 9.285 3.394-.909c.445-.12.818-.405 1.049-.805s.291-.864.172-1.311l-1.594-5.949c-.247-.919-1.198-1.461-2.115-1.222z" fill="#3762cc"/></svg>