<svg id="Flat" height="512" viewBox="0 0 64 64" width="512" xmlns="http://www.w3.org/2000/svg"><g id="Stroke_copy_2" data-name="Stroke copy 2"><path d="m3 57h58v4h-58z" fill="#93999a"/><path d="m6 53h52v4h-52z" fill="#93999a"/><path d="m6 19h52v4h-52z" fill="#656b76"/><path d="m3 13h58v6h-58z" fill="#93999a"/><path d="m48 13h13v3h-13z" fill="#d0d8da"/><path d="m13 13h-6a3 3 0 0 0 3 3h3z" fill="#d0d8da"/><path d="m16 3h32v12h-32z" fill="#a1d51c"/><path d="m20 3h28a0 0 0 0 1 0 0v8a0 0 0 0 1 0 0h-20a8 8 0 0 1 -8-8 0 0 0 0 1 0 0z" fill="#c4f236"/><path d="m20 7h11v4h-11z" fill="#fcbc04"/><path d="m21.08 7h-1.08v4h8a8 8 0 0 1 -6.92-4z" fill="#e59730"/><path d="m35 7h4v4h-4z" fill="#fcbc04"/><path d="m9 23h46v30h-46z" fill="#d0d8da"/><path d="m18 27h37v-4h-46v30h46v-5h-27a14 14 0 0 1 -14-14v-3a4 4 0 0 1 4-4z" fill="#93999a"/><g fill="#656b76"><path d="m32 31a9 9 0 0 1 9 9v13a0 0 0 0 1 0 0h-18a0 0 0 0 1 0 0v-13a9 9 0 0 1 9-9z"/><path d="m48 37a3 3 0 0 1 3 3v13a0 0 0 0 1 0 0h-6a0 0 0 0 1 0 0v-13a3 3 0 0 1 3-3z"/><path d="m16 37a3 3 0 0 1 3 3v13a0 0 0 0 1 0 0h-6a0 0 0 0 1 0 0v-13a3 3 0 0 1 3-3z"/><circle cx="48" cy="30" r="3"/><circle cx="16" cy="30" r="3"/></g><path d="m28 43h8v10h-8z" fill="#e59730"/><path d="m30 43h6a0 0 0 0 1 0 0v8a0 0 0 0 1 0 0h-2a4 4 0 0 1 -4-4v-4a0 0 0 0 1 0 0z" fill="#fcbc04"/><path d="m8 53h50a0 0 0 0 1 0 0v2a0 0 0 0 1 0 0h-48a2 2 0 0 1 -2-2 0 0 0 0 1 0 0z" fill="#d0d8da"/><path d="m6 57h55a0 0 0 0 1 0 0v2a0 0 0 0 1 0 0h-53a2 2 0 0 1 -2-2 0 0 0 0 1 0 0z" fill="#d0d8da"/><path d="m44 11a1 1 0 0 1 -1-1v-2a1 1 0 0 1 2 0v2a1 1 0 0 1 -1 1z" fill="#fcbc04"/><path d="m35 29h-6a1 1 0 0 1 0-2h6a1 1 0 0 1 0 2z" fill="#fcbc04"/><path d="m37 44h-10a1 1 0 0 1 0-2h10a1 1 0 0 1 0 2z" fill="#f9e109"/><path d="m36 47h-3a1 1 0 0 1 0-2h3z" fill="#f9e109"/><path d="m28 48h4a1 1 0 0 1 0 2h-4z" fill="#f9e109"/><path d="m30.14 48h-2.14v2h3.38a4 4 0 0 1 -1.24-2z" fill="#fcbc04"/></g></svg>