<svg height="512pt" viewBox="0 0 512 512" width="512pt" xmlns="http://www.w3.org/2000/svg"><path d="m497 150h-104v-45h-283.332031v45h-94.667969c-8.285156 0-15 6.714844-15 15v302c0 8.285156 6.714844 15 15 15h196l45-18.332031 45 18.332031h196c8.285156 0 15-6.714844 15-15v-302c0-8.285156-6.714844-15-15-15zm0 0" fill="#f5f0eb"/><path d="m497 150h-104v-45h-137.003906v358.667969h.003906l45 18.332031h196c8.285156 0 15-6.714844 15-15v-302c0-8.285156-6.714844-15-15-15zm0 0" fill="#ebe1dc"/><path d="m139 462.335938h-40c-5.523438 0-10-6.945313-10-15.511719v-283.3125c0-8.566407 4.476562-15.511719 10-15.511719h40c5.523438 0 10 6.945312 10 15.511719v283.3125c0 8.566406-4.476562 15.511719-10 15.511719zm0 0" fill="#2fc0f0"/><g fill="#27d8f6"><path d="m164 180h-90c-8.285156 0-15-6.714844-15-15v-60c0-8.285156 6.714844-15 15-15h90c8.285156 0 15 6.714844 15 15v60c0 8.285156-6.714844 15-15 15zm0 0"/><path d="m164 512h-90c-8.285156 0-15-6.714844-15-15v-31c0-8.285156 6.714844-15 15-15h90c8.285156 0 15 6.714844 15 15v31c0 8.285156-6.714844 15-15 15zm0 0"/><path d="m224 220.589844c-8.28125 0-15-6.714844-15-15v-24.410156c0-8.285157 6.71875-15 15-15 8.285156 0 15 6.714843 15 15v24.410156c0 8.285156-6.714844 15-15 15zm0 0"/><path d="m288 220.589844c-8.285156 0-15-6.714844-15-15v-24.410156c0-8.285157 6.714844-15 15-15s15 6.714843 15 15v24.410156c0 8.285156-6.714844 15-15 15zm0 0"/><path d="m224 305c-8.28125 0-15-6.714844-15-15v-24.410156c0-8.285156 6.71875-15 15-15 8.285156 0 15 6.714844 15 15v24.410156c0 8.285156-6.714844 15-15 15zm0 0"/><path d="m288 305c-8.285156 0-15-6.714844-15-15v-24.410156c0-8.285156 6.714844-15 15-15s15 6.714844 15 15v24.410156c0 8.285156-6.714844 15-15 15zm0 0"/></g><path d="m413 462.335938h-40c-5.523438 0-10-6.945313-10-15.511719v-283.3125c0-8.566407 4.476562-15.511719 10-15.511719h40c5.523438 0 10 6.945312 10 15.511719v283.3125c0 8.566406-4.476562 15.511719-10 15.511719zm0 0" fill="#3d9ae2"/><path d="m438 180h-90c-8.285156 0-15-6.714844-15-15v-60c0-8.285156 6.714844-15 15-15h90c8.285156 0 15 6.714844 15 15v60c0 8.285156-6.714844 15-15 15zm0 0" fill="#00aadf"/><path d="m438 512h-90c-8.285156 0-15-6.714844-15-15v-31c0-8.285156 6.714844-15 15-15h90c8.285156 0 15 6.714844 15 15v31c0 8.285156-6.714844 15-15 15zm0 0" fill="#00aadf"/><path d="m452 120h-392c-7.050781 0-13.148438-4.910156-14.652344-11.796875-1.507812-6.886719 1.988282-13.894531 8.394532-16.835937l196-90c3.972656-1.824219 8.542968-1.824219 12.519531 0l196 90c6.40625 2.945312 9.898437 9.949218 8.394531 16.835937-1.507812 6.886719-7.605469 11.796875-14.65625 11.796875zm0 0" fill="#2fc0f0"/><path d="m256 335c-24.8125 0-45 20.1875-45 45v102h90v-102c0-24.8125-20.1875-45-45-45zm0 0" fill="#00347b"/><path d="m458.261719 91.367188-196-90c-1.988281-.910157-4.125-1.367188-6.265625-1.367188v120h196.003906c7.050781 0 13.148438-4.910156 14.652344-11.796875 1.507812-6.886719-1.984375-13.894531-8.390625-16.835937zm0 0" fill="#3d9ae2"/><path d="m256 335s0 0-.003906 0v147h45.003906v-102c0-24.8125-20.1875-45-45-45zm0 0" fill="#001737"/></svg>