<svg height="512pt" viewBox="0 0 512 512" width="512pt" xmlns="http://www.w3.org/2000/svg"><path d="m465.066406 326.050781v175.351563c0 5.855468-4.742187 10.597656-10.59375 10.597656h-396.941406c-5.855469 0-10.597656-4.742188-10.597656-10.597656v-178.441406zm0 0" fill="#6f6571"/><path d="m121.71875 323.515625v188.484375h268.5625v-186.5zm0 0" fill="#5c525f"/><path d="m196.382812 329.65625h119.234376v181.828125h-119.234376zm0 0" fill="#fdedd3"/><path d="m196.382812 437.3125h119.234376v74.171875h-119.234376zm0 0" fill="#fd9c98"/><path d="m239.003906 435.25v-30.390625c0-9.386719 7.609375-16.996094 16.996094-16.996094s16.996094 7.609375 16.996094 16.996094v30.390625zm0 0" fill="#5c525f"/><path d="m464.019531 84.988281c-4.71875-22.644531-24.789062-39.660156-48.839843-39.660156h-318.359376c-24.183593 0-44.347656 17.203125-48.917968 40.042969v24.34375h415.164062zm0 0" fill="#fedba8"/><path d="m415.179688 45.328125h-55.628907c24.046875 0 44.121094 17.015625 48.839844 39.660156l-.953125 24.726563h55.628906l.953125-24.726563c-4.71875-22.644531-24.789062-39.660156-48.839843-39.660156zm0 0" fill="#fecf89"/><path d="m307.863281 449.675781h-105.789062c-10.328125 0-18.703125-8.375-18.703125-18.703125 0-2.757812 2.234375-4.992187 4.992187-4.992187h133.214844c2.753906 0 4.988281 2.234375 4.988281 4.992187 0 10.328125-8.371094 18.703125-18.703125 18.703125zm0 0" fill="#fecf89"/><path d="m0 145.253906h512v147.976563h-512zm0 0" fill="#fdedd3"/><path d="m466.671875 145.253906h45.328125v147.976563h-45.328125zm0 0" fill="#fae3be"/><path d="m386.316406 86.535156c.667969-2.984375 1.03125-6.085937 1.03125-9.273437 0-23.324219-18.910156-42.234375-42.238281-42.234375-11.480469 0-21.882813 4.585937-29.496094 12.019531-6.425781-26.976563-30.667969-47.046875-59.613281-47.046875s-53.1875 20.070312-59.613281 47.046875c-7.613281-7.433594-18.015625-12.019531-29.496094-12.019531-23.328125 0-42.238281 18.910156-42.238281 42.234375 0 3.1875.363281 6.289062 1.03125 9.273437h-67.992188c-31.863281 0-57.691406 25.828125-57.691406 57.691406h512c0-31.863281-25.828125-57.691406-57.691406-57.691406zm0 0" fill="#fd9c98"/><path d="m454.308594 86.535156h-45.328125c31.863281 0 57.691406 25.828125 57.691406 57.691406h45.328125c0-31.863281-25.828125-57.691406-57.691406-57.691406zm0 0" fill="#fd817c"/><path d="m331.050781 144.226562c.382813-1.71875.59375-16.375.59375-18.210937 0-13.433594-10.890625-24.324219-24.324219-24.324219-6.613281 0-12.601562 2.640625-16.988281 6.921875-3.699219-15.535156-17.660156-27.09375-34.332031-27.09375-16.667969 0-30.628906 11.558594-34.332031 27.09375-4.382813-4.28125-10.375-6.921875-16.988281-6.921875-13.433594 0-24.324219 10.890625-24.324219 24.324219 0 1.835937.210937 16.492187.597656 18.210937zm0 0" fill="#e46570"/><path d="m440.402344 209.640625h-368.804688c-4.265625 0-7.726562-3.457031-7.726562-7.726563 0-4.265624 3.460937-7.726562 7.726562-7.726562h368.804688c4.265625 0 7.726562 3.460938 7.726562 7.726562 0 4.269532-3.460937 7.726563-7.726562 7.726563zm0 0" fill="#fecf89"/><path d="m440.402344 245.699219h-368.804688c-4.265625 0-7.726562-3.460938-7.726562-7.726563 0-4.269531 3.460937-7.726562 7.726562-7.726562h368.804688c4.265625 0 7.726562 3.457031 7.726562 7.726562 0 4.265625-3.460937 7.726563-7.726562 7.726563zm0 0" fill="#fecf89"/><path d="m511.484375 293.085938-46.359375 36.058593h-418.25l-46.875-35.542969zm0 0" fill="#fd9c98"/><path d="m466.097656 293.132812-46.300781 36.011719h45.328125l46.359375-36.058593zm0 0" fill="#fd817c"/></svg>