<?xml version="1.0" encoding="utf-8"?>
<!-- Generator: Adobe Illustrator 25.1.0, SVG Export Plug-In . SVG Version: 6.00 Build 0)  -->
<svg version="1.1" id="Capa_1" xmlns="http://www.w3.org/2000/svg" xmlns:xlink="http://www.w3.org/1999/xlink" x="0px" y="0px"
	 viewBox="0 0 512 512" style="enable-background:new 0 0 512 512;" xml:space="preserve">
<style type="text/css">
	.st0{fill:#8C1E1F;}
	.st1{fill:#FF9494;}
	.st2{fill:#BA4C4D;}
</style>
<path class="st0" d="M512,256c0,52.4-15.7,101.1-42.8,141.7c-14,21-30.9,39.7-50.3,55.7C374.7,490,317.9,512,256,512
	c-22.5,0-44.3-2.9-65-8.3c-38-10-72.6-28.4-101.6-53.3c-14.5-12.4-27.6-26.4-39-41.8c-17.7-23.8-31.4-50.8-40-79.9
	C7.9,320,5.8,311.1,4.1,302c-1.6-8.7-2.7-17.6-3.4-26.6C0.2,269,0,262.5,0,256c0-49.1,13.8-95,37.8-133.9
	c14.5-23.5,32.6-44.5,53.7-62.2C136,22.5,193.3,0,256,0c36.6,0,71.3,7.7,102.8,21.5c16.5,7.3,32.2,16.2,46.7,26.6
	c8.1,5.8,15.8,12.1,23.2,18.8c26.6,24.3,48.1,54.2,62.6,87.8C504.6,185.8,512,220,512,256z"/>
<path class="st1" d="M511.5,262.1C463.4,140.3,367,57.1,256,57.1S48.6,140.3,0.4,262.1"/>
<path class="st2" d="M511.5,262.1c-8.3,15.9-18.1,30.9-29.1,44.9C429.6,373.9,347.8,416.8,256,416.8c-91.8,0-173.6-42.9-226.4-109.8
	c-11-14-20.8-29-29.1-44.9C48.6,170.1,145,107.4,256,107.4C367,107.4,463.3,170.1,511.5,262.1z"/>
<g>
	<path class="st1" d="M482.4,307C429.6,373.9,347.8,416.8,256,416.8c-91.8,0-173.6-42.9-226.4-109.8c52.8,42.6,134.6,70,226.4,70
		S429.6,349.6,482.4,307z"/>
	<path class="st1" d="M0.4,262.1C48.7,170.2,145,107.4,256,107.4s207.4,62.7,255.5,154.7C463.4,203.5,367,163.5,256,163.5
		S48.7,203.5,0.4,262.1z"/>
</g>
<path class="st1" d="M364.3,266c0,57.7-46.8,104.4-104.4,104.4S155.5,323.6,155.5,266s46.8-104.4,104.4-104.4
	c20,0,38.8,5.6,54.7,15.4c18.5,11.4,33.1,28.3,41.7,48.6C361.4,238,364.3,251.6,364.3,266z"/>
<circle class="st1" cx="341.1" cy="196.4" r="32.9"/>
<path class="st2" d="M356.2,225.6c-4.5,2.4-9.6,3.7-15.1,3.7c-18.2,0-32.9-14.7-32.9-32.9c0-7.3,2.3-13.9,6.3-19.4
	C333,188.4,347.7,205.3,356.2,225.6z"/>
<circle class="st1" cx="393.8" cy="251" r="23.7"/>
<g>
	<path class="st2" d="M259.9,362.1c-3,0-5.4-2.4-5.4-5.4V175.3c0-3,2.4-5.4,5.4-5.4s5.4,2.4,5.4,5.4v181.4
		C265.3,359.6,262.9,362.1,259.9,362.1z"/>
	<path class="st2" d="M292.7,356.3c-2.8,1-5.9-0.4-7-3.2l-62-170.4c-1-2.8,0.4-5.9,3.2-7c2.8-1,5.9,0.4,7,3.2l62,170.4
		C297,352.1,295.6,355.3,292.7,356.3z"/>
	<path class="st2" d="M321.6,339.6c-2.3,1.9-5.7,1.6-7.6-0.7L197.4,200c-1.9-2.3-1.6-5.7,0.7-7.6c2.3-1.9,5.7-1.6,7.6,0.7
		l116.6,138.9C324.2,334.2,323.9,337.7,321.6,339.6z"/>
	<path class="st2" d="M343.1,314c-1.5,2.6-4.8,3.5-7.4,2l-157.1-90.7c-2.6-1.5-3.5-4.8-2-7.4c1.5-2.6,4.8-3.5,7.4-2l157.1,90.7
		C343.7,308.1,344.6,311.4,343.1,314z"/>
	<path class="st2" d="M354.5,282.7c-0.5,3-3.3,4.9-6.3,4.4l-178.6-31.5c-3-0.5-4.9-3.3-4.4-6.3s3.3-4.9,6.3-4.4l178.6,31.5
		C353.1,276.9,355,279.7,354.5,282.7z"/>
	<path class="st2" d="M354.5,249.3c0.5,3-1.5,5.8-4.4,6.3l-178.6,31.5c-3,0.5-5.8-1.4-6.3-4.4c-0.5-3,1.4-5.8,4.4-6.3l178.6-31.5
		C351.2,244.4,354,246.3,354.5,249.3z"/>
	<path class="st2" d="M341.1,225.3l-5.8,3.4l-26.7,15.4l-45.1,26.1L235.9,286l-19.3,11.2L184.1,316c-2.6,1.5-5.9,0.6-7.4-2
		c-1.5-2.6-0.6-5.9,2-7.4l32.6-18.8l45.1-26.1l27.5-15.9l19.3-11.2l19.4-11.2l13.1-7.6c2.6-1.5,5.9-0.6,7.4,2
		C344.6,220.5,343.7,223.8,341.1,225.3z"/>
	<path class="st2" d="M322.3,200L312.2,212l-14.1,16.8l-14.3,17.1l-20.4,24.3l-33.5,39.9l-24.2,28.8c-1.9,2.3-5.3,2.6-7.6,0.7
		c-2.3-1.9-2.6-5.3-0.7-7.6l24.2-28.8l14.3-17.1l20.4-24.3l33.5-39.9l18.6-22.1v0l5.6-6.7c1.9-2.3,5.3-2.6,7.6-0.7
		C323.9,194.3,324.2,197.7,322.3,200z"/>
	<path class="st2" d="M292.7,175.7c2.8,1,4.3,4.1,3.2,7L234,353c-1,2.8-4.1,4.3-7,3.2s-4.3-4.1-3.2-7l62-170.4
		C286.8,176.1,289.9,174.6,292.7,175.7z"/>
</g>
<circle class="st1" cx="259.9" cy="266" r="53.3"/>
<circle class="st0" cx="280.3" cy="250.8" r="16.9"/>
<g>
	<path class="st1" d="M322.3,200L312.2,212c-2-3.7-3.4-7.9-3.8-12.3v0l5.6-6.7c1.9-2.3,5.3-2.6,7.6-0.7
		C323.9,194.3,324.2,197.7,322.3,200z"/>
	<path class="st1" d="M341.1,225.3l-5.8,3.4c-4.7-0.8-9-2.6-12.7-5.2l13.1-7.6c2.6-1.5,5.9-0.6,7.4,2
		C344.6,220.5,343.7,223.8,341.1,225.3z"/>
</g>
</svg>
