<?xml version="1.0" encoding="utf-8"?>
<!-- Generator: Adobe Illustrator 25.1.0, SVG Export Plug-In . SVG Version: 6.00 Build 0)  -->
<svg version="1.1" id="Layer_1" xmlns="http://www.w3.org/2000/svg" xmlns:xlink="http://www.w3.org/1999/xlink" x="0px" y="0px"
	 viewBox="0 0 512 512" style="enable-background:new 0 0 512 512;" xml:space="preserve">
<style type="text/css">
	.st0{fill:#C7595A;}
	.st1{fill:#FF9494;}
	.st2{fill:#E37676;}
	.st3{fill:#8C1E1F;}
</style>
<g>
	<path class="st0" d="M256,497c147.6,0,231.9-150.7,231.9-150.7c8.5-24.9,13.1-51.5,13.1-79.3c0-135.3-109.7-245-245-245
		C120.7,22,11,131.7,11,267c0,27.7,4.6,54.4,13.1,79.3C24.1,346.3,108.4,497,256,497z"/>
	<path class="st1" d="M208.2,117.6c0-3.8,0-13,0-17.1l-0.8-0.1c-26.6-4.7-46-27.8-46-54.8c0-14.7-12-26.7-26.7-26.7
		s-26.7,12-26.7,26.7c0,27.1-19.3,50.1-46,54.8l-0.8,0.1v17.1c0,4.9-4,8.9-8.9,8.9h-28v220.8C45,406.4,87.5,455.3,142.2,484h103
		V126.5h-28C212.3,126.5,208.2,122.5,208.2,117.6z"/>
	<path class="st2" d="M134.8,40.5c0-10.8,6.7-14.5,10.9-15.8c1.2-0.3,2-1.2,2.4-2.3c-3.9-2.3-8.5-3.6-13.3-3.6
		c-14.7,0-26.7,12-26.7,26.7c0,27.1-19.3,50.1-46,54.8l-0.8,0.1v17.1c0,4.9-4,8.9-8.9,8.9h-28v220.8c13.3,38.5,36,72.6,65.3,99.6
		v-66.5c-5-14.6,7.1-20,7.1-20l-14.3-7.1l7.1-14.2v-70.4c-5.9-12.3,5-20,5-20L86,234.6l8.7-11.5c0,0,0-26.8,0-58.1
		s16.5-33.2,16.5-33.2l28-57.5c-4.8-3-4.4-10.5-4.4-10.5S134.8,56.3,134.8,40.5L134.8,40.5z"/>
	<path class="st2" d="M134.8,379c-10.9,0-19.7,8.8-19.7,19.7v68.8c8.6,6.1,17.7,11.6,27,16.5h12.3v-85.4
		C154.5,387.8,145.7,379,134.8,379z"/>
	<path class="st1" d="M245.8,107.7h-15.5c-1.7,0-3.2-1.4-3.2-3.2V92.3c0-5.5-4.5-9.9-9.9-9.9c-20.3,0-36.8-16.5-36.8-36.8
		c0-25.1-20.4-45.5-45.5-45.5S89.3,20.4,89.3,45.5c0,20.3-16.5,36.8-36.8,36.8c-5.5,0-9.9,4.4-9.9,9.9v12.3c0,1.7-1.4,3.2-3.2,3.2
		H23.9c-5.4,0-10.1,4.3-10.2,9.7c-0.1,5.6,4.4,10.1,9.9,10.1h28.9c5.5,0,9.9-4.4,9.9-9.9v-16.3c26.5-4.7,46.7-27.9,46.7-55.8
		c0-14.2,11.5-25.7,25.7-25.7s25.7,11.5,25.7,25.7c0,27.9,20.2,51.1,46.7,55.8v16.3c0,5.5,4.4,9.9,9.9,9.9h28.9
		c5.5,0,10-4.5,9.9-10.1C255.9,112,251.2,107.7,245.8,107.7L245.8,107.7z"/>
	<path class="st2" d="M134.8,0c-25.1,0-45.5,20.4-45.5,45.5c0,20.3-16.5,36.8-36.8,36.8c-5.5,0-9.9,4.4-9.9,9.9v12.3
		c0,1.7-1.4,3.2-3.2,3.2H23.9c-5.4,0-10.1,4.3-10.2,9.7c-0.1,5.6,4.4,10.1,9.9,10.1h28.9c5.5,0,9.9-4.4,9.9-9.9v-16.3
		c26.5-4.7,46.7-27.9,46.7-55.8c0-14.2,11.5-25.7,25.7-25.7c4.7,0,9.1,1.3,12.9,3.5c0.5-0.7,0.7-1.7,0.6-2.6
		c-0.8-7,3.3-10.3,6.9-11.8c1.2-0.5,2-1.6,2.3-2.8C150.8,2.2,143.1,0,134.8,0L134.8,0z"/>
	<path class="st3" d="M134.8,379c-10.9,0-19.7,8.8-19.7,19.7v5h39.4v-5C154.5,387.8,145.7,379,134.8,379z"/>
	<g>
		<path class="st2" d="M199.6,379c-10.9,0-19.7,8.8-19.7,19.7v48.5c0,2.1,1.7,3.7,3.7,3.7h31.9c2.1,0,3.7-1.7,3.7-3.7v-48.5
			C219.2,387.8,210.4,379,199.6,379L199.6,379z"/>
		<path class="st2" d="M70.1,379c-10.9,0-19.7,8.8-19.7,19.7v1.7c11.2,17.2,24.4,32.8,39.4,46.7v-48.3C89.8,387.8,81,379,70.1,379z"
			/>
		<path class="st2" d="M199.6,267.3c-10.9,0-19.7,8.8-19.7,19.7v48.5c0,2.1,1.7,3.7,3.7,3.7h31.9c2.1,0,3.7-1.7,3.7-3.7V287
			C219.2,276.1,210.4,267.3,199.6,267.3L199.6,267.3z"/>
		<path class="st2" d="M70.1,267.3c-10.9,0-19.7,8.8-19.7,19.7v48.5c0,2.1,1.7,3.7,3.7,3.7H86c2.1,0,3.7-1.7,3.7-3.7V287
			C89.8,276.1,81,267.3,70.1,267.3z"/>
		<path class="st2" d="M134.8,267.3c-10.9,0-19.7,8.8-19.7,19.7v48.5c0,2.1,1.7,3.7,3.7,3.7h31.9c2.1,0,3.7-1.7,3.7-3.7V287
			C154.5,276.1,145.7,267.3,134.8,267.3z"/>
		<path class="st2" d="M199.6,155.6c-10.9,0-19.7,8.8-19.7,19.7v48.5c0,2.1,1.7,3.7,3.7,3.7h31.9c2.1,0,3.7-1.7,3.7-3.7v-48.5
			C219.2,164.4,210.4,155.6,199.6,155.6L199.6,155.6z"/>
		<path class="st2" d="M70.1,155.6c-10.9,0-19.7,8.8-19.7,19.7v48.5c0,2.1,1.7,3.7,3.7,3.7H86c2.1,0,3.7-1.7,3.7-3.7v-48.5
			C89.8,164.4,81,155.6,70.1,155.6z"/>
		<path class="st2" d="M134.8,155.6c-10.9,0-19.7,8.8-19.7,19.7v48.5c0,2.1,1.7,3.7,3.7,3.7h31.9c2.1,0,3.7-1.7,3.7-3.7v-48.5
			C154.5,164.4,145.7,155.6,134.8,155.6z"/>
	</g>
	<path class="st3" d="M70.1,267.3c-10.9,0-19.7,8.8-19.7,19.7v5h39.4v-5C89.8,276.1,81,267.3,70.1,267.3z"/>
	<path class="st3" d="M199.6,267.3c-10.9,0-19.7,8.8-19.7,19.7v5h39.4v-5C219.2,276.1,210.4,267.3,199.6,267.3z"/>
	<path class="st3" d="M134.8,267.3c-10.9,0-19.7,8.8-19.7,19.7v5h39.4v-5C154.5,276.1,145.7,267.3,134.8,267.3z"/>
	<path class="st3" d="M70.1,155.6c-10.9,0-19.7,8.8-19.7,19.7v5h39.4v-5C89.8,164.4,81,155.6,70.1,155.6z"/>
	<path class="st3" d="M199.6,155.6c-10.9,0-19.7,8.8-19.7,19.7v5h39.4v-5C219.2,164.4,210.4,155.6,199.6,155.6z"/>
	<path class="st3" d="M134.8,155.6c-10.9,0-19.7,8.8-19.7,19.7v5h39.4v-5C154.5,164.4,145.7,155.6,134.8,155.6z"/>
	<path class="st3" d="M70.1,379c-10.9,0-19.7,8.8-19.7,19.7v1.7c0.7,1.1,1.5,2.3,2.2,3.4h37.1v-5C89.8,387.8,81,379,70.1,379z"/>
	<path class="st3" d="M199.6,379c-10.9,0-19.7,8.8-19.7,19.7v5h39.4v-5C219.2,387.8,210.4,379,199.6,379z"/>
	<path class="st2" d="M134.8,81c-10.9,0-19.7,8.8-19.7,19.7v23.6c0,2.1,1.7,3.7,3.7,3.7h31.9c2.1,0,3.7-1.7,3.7-3.7v-23.6
		C154.5,89.8,145.7,81,134.8,81z"/>
	<path class="st3" d="M134.8,81c-10.9,0-19.7,8.8-19.7,19.7v5h39.4v-5C154.5,89.8,145.7,81,134.8,81z"/>
	<path class="st0" d="M134.8,371.8c-14.8,0-26.8,12-26.8,26.8v63.6c4.6,3.5,9.4,6.9,14.3,10v-73.7c0-6.9,5.6-12.6,12.6-12.6
		c6.9,0,12.6,5.6,12.6,12.6V484h14.3v-85.4C161.6,383.9,149.6,371.8,134.8,371.8L134.8,371.8z"/>
	<g>
		<path class="st0" d="M215.5,458h-31.9c-6,0-10.9-4.9-10.9-10.9v-48.5c0-14.8,12-26.8,26.8-26.8s26.8,12,26.8,26.8v48.5
			C226.4,453.1,221.5,458,215.5,458L215.5,458z M187,443.8h25.1v-45.1c0-6.9-5.6-12.6-12.6-12.6s-12.6,5.6-12.6,12.6V443.8z"/>
	</g>
	<path class="st0" d="M70.1,371.8c-12,0-22.2,8-25.6,18.9c4,6.9,8.4,13.5,13.1,20v-12c0-6.9,5.6-12.6,12.6-12.6s12.6,5.6,12.6,12.6
		v41.5c4.2,4.2,8.5,8.2,13,12.1c0.8-1.5,1.3-3.2,1.3-5.1v-48.5C96.9,383.9,84.9,371.8,70.1,371.8z"/>
	<g>
		<path class="st0" d="M215.5,346.3h-31.9c-6,0-10.9-4.9-10.9-10.9V287c0-14.8,12-26.8,26.8-26.8s26.8,12,26.8,26.8v48.5
			C226.4,341.5,221.5,346.3,215.5,346.3L215.5,346.3z M187,332.1h25.1V287c0-6.9-5.6-12.6-12.6-12.6S187,280,187,287V332.1z"/>
	</g>
	<g>
		<path class="st0" d="M86,346.3H54.2c-6,0-10.9-4.9-10.9-10.9V287c0-14.8,12-26.8,26.8-26.8s26.8,12,26.8,26.8v48.5
			C96.9,341.5,92,346.3,86,346.3z M57.6,332.1h25.1V287c0-6.9-5.6-12.6-12.6-12.6S57.6,280,57.6,287L57.6,332.1z"/>
	</g>
	<g>
		<path class="st0" d="M150.8,346.3h-31.9c-6,0-10.9-4.9-10.9-10.9V287c0-14.8,12-26.8,26.8-26.8s26.8,12,26.8,26.8v48.5
			C161.6,341.5,156.8,346.3,150.8,346.3z M122.3,332.1h25.1V287c0-6.9-5.6-12.6-12.6-12.6s-12.6,5.6-12.6,12.6V332.1z"/>
	</g>
	<g>
		<path class="st0" d="M215.5,234.6h-31.9c-6,0-10.9-4.9-10.9-10.9v-48.5c0-14.8,12-26.8,26.8-26.8s26.8,12,26.8,26.8v48.5
			C226.4,229.8,221.5,234.6,215.5,234.6L215.5,234.6z M187,220.4h25.1v-45.1c0-6.9-5.6-12.6-12.6-12.6s-12.6,5.6-12.6,12.6V220.4z"
			/>
	</g>
	<g>
		<path class="st0" d="M86,234.6H54.2c-6,0-10.9-4.9-10.9-10.9v-48.5c0-14.8,12-26.8,26.8-26.8s26.8,12,26.8,26.8v48.5
			C96.9,229.8,92,234.6,86,234.6z M57.6,220.4h25.1v-45.1c0-6.9-5.6-12.6-12.6-12.6s-12.6,5.6-12.6,12.6L57.6,220.4z"/>
	</g>
	<g>
		<path class="st0" d="M150.8,234.6h-31.9c-6,0-10.9-4.9-10.9-10.9v-48.5c0-14.8,12-26.8,26.8-26.8s26.8,12,26.8,26.8v48.5
			C161.6,229.8,156.8,234.6,150.8,234.6z M122.3,220.4h25.1v-45.1c0-6.9-5.6-12.6-12.6-12.6s-12.6,5.6-12.6,12.6V220.4z"/>
	</g>
	<g>
		<path class="st0" d="M150.8,135.2h-31.9c-6,0-10.9-4.9-10.9-10.9v-23.6c0-14.8,12-26.8,26.8-26.8s26.8,12,26.8,26.8v23.6
			C161.6,130.3,156.8,135.2,150.8,135.2z M122.3,120.9h25.1v-20.2c0-6.9-5.6-12.6-12.6-12.6s-12.6,5.6-12.6,12.6V120.9z"/>
	</g>
	<path class="st2" d="M245.2,346.3H24.5c-0.1,0-0.3,0-0.4,0c1.6,4.8,3.4,9.6,5.4,14.2h215.7c3.9,0,7.1-3.2,7.1-7.1
		S249.1,346.3,245.2,346.3L245.2,346.3z"/>
	<g>
		<path class="st2" d="M245.2,248.8H24.5c-3.9,0-7.1-3.2-7.1-7.1s3.2-7.1,7.1-7.1h220.7c3.9,0,7.1,3.2,7.1,7.1
			C252.3,245.6,249.1,248.8,245.2,248.8z"/>
	</g>
	<path class="st2" d="M487.5,126.5h-28c-4.9,0-8.9-4-8.9-8.9c0-3.8,0-13,0-17.1l-0.8-0.1c-26.6-4.7-46-27.8-46-54.8
		c0-14.7-12-26.7-26.7-26.7s-26.7,12-26.7,26.7c0,27.1-19.3,50.1-46,54.8l-0.8,0.1v17.1c0,4.9-4,8.9-8.9,8.9h-28V484h103
		c54.7-28.7,97.2-77.6,117.7-136.7L487.5,126.5z"/>
	<path class="st0" d="M377.1,63.7c0,0,0-7.5,0-23.2c0-11.3,7.4-14.8,11.5-15.9c1-0.3,1.8-1.1,2.1-2c-4-2.4-8.6-3.7-13.5-3.7
		c-14.7,0-26.7,12-26.7,26.7c0,27.1-19.3,50.1-46,54.8l-0.8,0.1v17.1c0,4.9-4,8.9-8.9,8.9h-28V484h65.3V380.5c-5-14.6,7.1-20,7.1-20
		l-14.3-7.1l7.1-14.2v-70.4c-5.9-12.3,5-20,5-20l-8.8-14.2l8.7-11.5c0,0,0-26.8,0-58.1s16.5-33.2,16.5-33.2l28-57.5
		C376.8,71.3,377.1,63.7,377.1,63.7L377.1,63.7z"/>
	<path class="st2" d="M377.2,379c-10.9,0-19.7,8.8-19.7,19.7V484h12.3c9.4-4.9,18.4-10.5,27-16.5v-68.8
		C396.8,387.8,388,379,377.2,379z"/>
	<path class="st2" d="M488.1,107.7h-15.5c-1.7,0-3.2-1.4-3.2-3.2V92.3c0-5.5-4.5-9.9-9.9-9.9c-20.3,0-36.8-16.5-36.8-36.8
		c0-25.1-20.4-45.5-45.5-45.5s-45.5,20.4-45.5,45.5c0,20.3-16.5,36.8-36.8,36.8c-5.5,0-9.9,4.4-9.9,9.9v12.3c0,1.7-1.4,3.2-3.2,3.2
		h-15.5c-5.4,0-10.1,4.3-10.2,9.7c-0.1,5.6,4.4,10.1,9.9,10.1h28.9c5.5,0,9.9-4.4,9.9-9.9v-16.3c26.5-4.7,46.7-27.9,46.7-55.8
		c0-14.2,11.5-25.7,25.7-25.7s25.7,11.5,25.7,25.7c0,27.9,20.2,51.1,46.7,55.8v16.3c0,5.5,4.4,9.9,9.9,9.9h28.9
		c5.5,0,10-4.5,9.9-10.1C498.2,112,493.6,107.7,488.1,107.7z"/>
	<path class="st3" d="M377.2,0c-25.1,0-45.5,20.4-45.5,45.5c0,20.3-16.5,36.8-36.8,36.8c-5.5,0-9.9,4.4-9.9,9.9v12.3
		c0,1.7-1.4,3.2-3.2,3.2h-15.5c-5.4,0-10.1,4.3-10.2,9.7c-0.1,5.6,4.4,10.1,9.9,10.1h28.9c5.5,0,9.9-4.4,9.9-9.9v-16.3
		c26.5-4.7,46.7-27.9,46.7-55.8c0-14.2,11.5-25.7,25.7-25.7c4.8,0,9.3,1.3,13.1,3.6c0.4-0.6,0.6-1.3,0.5-2.1
		c-1.2-8.1,3.8-11.5,7.6-12.8c1-0.4,1.7-1.2,1.9-2.2C393.5,2.3,385.6,0,377.2,0L377.2,0z"/>
	<path class="st0" d="M377.2,379c-10.9,0-19.7,8.8-19.7,19.7v5h39.4v-5C396.8,387.8,388,379,377.2,379z"/>
	<path class="st2" d="M461.6,400.3v-1.7c0-10.9-8.8-19.7-19.7-19.7s-19.7,8.8-19.7,19.7V447C437.2,433.1,450.4,417.5,461.6,400.3z"
		/>
	<path class="st2" d="M312.4,379c-10.9,0-19.7,8.8-19.7,19.7v48.5c0,2.1,1.7,3.7,3.7,3.7h31.9c2.1,0,3.7-1.7,3.7-3.7v-48.5
		C332.1,387.8,323.3,379,312.4,379L312.4,379z"/>
	<path class="st2" d="M441.9,267.3c-10.9,0-19.7,8.8-19.7,19.7v48.5c0,2.1,1.7,3.7,3.7,3.7h31.9c2.1,0,3.7-1.7,3.7-3.7V287
		C461.6,276.1,452.8,267.3,441.9,267.3z"/>
	<path class="st2" d="M312.4,267.3c-10.9,0-19.7,8.8-19.7,19.7v48.5c0,2.1,1.7,3.7,3.7,3.7h31.9c2.1,0,3.7-1.7,3.7-3.7V287
		C332.1,276.1,323.3,267.3,312.4,267.3L312.4,267.3z"/>
	<path class="st2" d="M377.2,267.3c-10.9,0-19.7,8.8-19.7,19.7v48.5c0,2.1,1.7,3.7,3.7,3.7h31.9c2.1,0,3.7-1.7,3.7-3.7V287
		C396.8,276.1,388,267.3,377.2,267.3z"/>
	<path class="st2" d="M441.9,155.6c-10.9,0-19.7,8.8-19.7,19.7v48.5c0,2.1,1.7,3.7,3.7,3.7h31.9c2.1,0,3.7-1.7,3.7-3.7v-48.5
		C461.6,164.4,452.8,155.6,441.9,155.6z"/>
	<path class="st2" d="M312.4,155.6c-10.9,0-19.7,8.8-19.7,19.7v48.5c0,2.1,1.7,3.7,3.7,3.7h31.9c2.1,0,3.7-1.7,3.7-3.7v-48.5
		C332.1,164.4,323.3,155.6,312.4,155.6L312.4,155.6z"/>
	<path class="st2" d="M377.2,155.6c-10.9,0-19.7,8.8-19.7,19.7v48.5c0,2.1,1.7,3.7,3.7,3.7h31.9c2.1,0,3.7-1.7,3.7-3.7v-48.5
		C396.8,164.4,388,155.6,377.2,155.6z"/>
	<path class="st3" d="M312.4,267.3c-10.9,0-19.7,8.8-19.7,19.7v5h39.4v-5C332.1,276.1,323.3,267.3,312.4,267.3z"/>
	<path class="st3" d="M441.9,267.3c-10.9,0-19.7,8.8-19.7,19.7v5h39.4v-5C461.6,276.1,452.8,267.3,441.9,267.3z"/>
	<path class="st3" d="M377.2,267.3c-10.9,0-19.7,8.8-19.7,19.7v5h39.4v-5C396.8,276.1,388,267.3,377.2,267.3z"/>
	<path class="st3" d="M312.4,155.6c-10.9,0-19.7,8.8-19.7,19.7v5h39.4v-5C332.1,164.4,323.3,155.6,312.4,155.6z"/>
	<path class="st3" d="M441.9,155.6c-10.9,0-19.7,8.8-19.7,19.7v5h39.4v-5C461.6,164.4,452.8,155.6,441.9,155.6z"/>
	<path class="st3" d="M377.2,155.6c-10.9,0-19.7,8.8-19.7,19.7v5h39.4v-5C396.8,164.4,388,155.6,377.2,155.6z"/>
	<path class="st3" d="M312.4,379c-10.9,0-19.7,8.8-19.7,19.7v5h39.4v-5C332.1,387.8,323.3,379,312.4,379z"/>
	<path class="st3" d="M461.6,400.3v-1.7c0-10.9-8.8-19.7-19.7-19.7s-19.7,8.8-19.7,19.7v5h37.1C460.1,402.6,460.8,401.4,461.6,400.3
		z"/>
	<path class="st2" d="M377.2,81c-10.9,0-19.7,8.8-19.7,19.7v23.6c0,2.1,1.7,3.7,3.7,3.7h31.9c2.1,0,3.7-1.7,3.7-3.7v-23.6
		C396.8,89.8,388,81,377.2,81z"/>
	<path class="st3" d="M377.2,81c-10.9,0-19.7,8.8-19.7,19.7v5h39.4v-5C396.8,89.8,388,81,377.2,81z"/>
	<path class="st3" d="M377.2,371.8c-14.8,0-26.8,12-26.8,26.8V484h14.3v-85.4c0-6.9,5.6-12.6,12.6-12.6c6.9,0,12.6,5.6,12.6,12.6
		v73.7c4.9-3.2,9.6-6.5,14.3-10v-63.6C404,383.9,391.9,371.8,377.2,371.8z"/>
	<path class="st3" d="M467.5,390.7c-3.4-10.9-13.6-18.9-25.6-18.9c-14.8,0-26.8,12-26.8,26.8v48.5c0,1.8,0.5,3.6,1.3,5.1
		c4.5-3.9,8.8-7.9,13-12.1v-41.5c0-6.9,5.6-12.6,12.6-12.6s12.6,5.6,12.6,12.6v12C459.1,404.2,463.5,397.6,467.5,390.7z"/>
	<g>
		<path class="st3" d="M328.4,458h-31.9c-6,0-10.9-4.9-10.9-10.9v-48.5c0-14.8,12-26.8,26.8-26.8s26.8,12,26.8,26.8v48.5
			C339.2,453.1,334.4,458,328.4,458L328.4,458z M299.9,443.8H325v-45.1c0-6.9-5.6-12.6-12.6-12.6c-6.9,0-12.6,5.6-12.6,12.6V443.8z"
			/>
	</g>
	<g>
		<path class="st3" d="M457.8,346.3H426c-6,0-10.9-4.9-10.9-10.9V287c0-14.8,12-26.8,26.8-26.8s26.8,12,26.8,26.8v48.5
			C468.7,341.5,463.8,346.3,457.8,346.3L457.8,346.3z M429.3,332.1h25.1V287c0-6.9-5.6-12.6-12.6-12.6s-12.6,5.6-12.6,12.6V332.1z"
			/>
	</g>
	<g>
		<path class="st3" d="M328.4,346.3h-31.9c-6,0-10.9-4.9-10.9-10.9V287c0-14.8,12-26.8,26.8-26.8s26.8,12,26.8,26.8v48.5
			C339.2,341.5,334.4,346.3,328.4,346.3L328.4,346.3z M299.9,332.1H325V287c0-6.9-5.6-12.6-12.6-12.6c-6.9,0-12.6,5.6-12.6,12.6
			V332.1z"/>
	</g>
	<g>
		<path class="st3" d="M393.1,346.3h-31.9c-6,0-10.9-4.9-10.9-10.9V287c0-14.8,12-26.8,26.8-26.8s26.8,12,26.8,26.8v48.5
			C404,341.5,399.1,346.3,393.1,346.3z M364.6,332.1h25.1V287c0-6.9-5.6-12.6-12.6-12.6s-12.6,5.6-12.6,12.6V332.1z"/>
	</g>
	<g>
		<path class="st3" d="M457.8,234.6H426c-6,0-10.9-4.9-10.9-10.9v-48.5c0-14.8,12-26.8,26.8-26.8s26.8,12,26.8,26.8v48.5
			C468.7,229.8,463.8,234.6,457.8,234.6L457.8,234.6z M429.3,220.4h25.1v-45.1c0-6.9-5.6-12.6-12.6-12.6s-12.6,5.6-12.6,12.6V220.4z
			"/>
	</g>
	<g>
		<path class="st3" d="M328.4,234.6h-31.9c-6,0-10.9-4.9-10.9-10.9v-48.5c0-14.8,12-26.8,26.8-26.8s26.8,12,26.8,26.8v48.5
			C339.2,229.8,334.4,234.6,328.4,234.6L328.4,234.6z M299.9,220.4H325v-45.1c0-6.9-5.6-12.6-12.6-12.6c-6.9,0-12.6,5.6-12.6,12.6
			V220.4z"/>
	</g>
	<g>
		<path class="st3" d="M393.1,234.6h-31.9c-6,0-10.9-4.9-10.9-10.9v-48.5c0-14.8,12-26.8,26.8-26.8s26.8,12,26.8,26.8v48.5
			C404,229.8,399.1,234.6,393.1,234.6z M364.6,220.4h25.1v-45.1c0-6.9-5.6-12.6-12.6-12.6s-12.6,5.6-12.6,12.6V220.4z"/>
	</g>
	<g>
		<path class="st3" d="M393.1,135.2h-31.9c-6,0-10.9-4.9-10.9-10.9v-23.6c0-14.8,12-26.8,26.8-26.8s26.8,12,26.8,26.8v23.6
			C404,130.3,399.1,135.2,393.1,135.2z M364.6,120.9h25.1v-20.2c0-6.9-5.6-12.6-12.6-12.6s-12.6,5.6-12.6,12.6V120.9z"/>
	</g>
	<path class="st0" d="M487.9,346.3c-0.1,0-0.2,0-0.4,0H266.8c-3.9,0-7.1,3.2-7.1,7.1s3.2,7.1,7.1,7.1h215.7
		C484.4,355.8,486.2,351.1,487.9,346.3L487.9,346.3z"/>
	<g>
		<path class="st0" d="M487.5,248.8H266.8c-3.9,0-7.1-3.2-7.1-7.1s3.2-7.1,7.1-7.1h220.7c3.9,0,7.1,3.2,7.1,7.1
			C494.6,245.6,491.4,248.8,487.5,248.8L487.5,248.8z"/>
	</g>
	<path class="st2" d="M93.1,353.4c0-3.9,3.2-7.1,7.1-7.1H24.5c-0.1,0-0.2,0-0.4,0c1.6,4.8,3.4,9.6,5.4,14.2h70.7
		C96.3,360.5,93.1,357.3,93.1,353.4L93.1,353.4z"/>
	<path class="st2" d="M86.3,241.7c0-3.9,3.2-7.1,7.1-7.1h-69c-3.9,0-7.1,3.2-7.1,7.1s3.2,7.1,7.1,7.1h69
		C89.5,248.8,86.3,245.6,86.3,241.7z"/>
	<path class="st0" d="M328.7,353.4c0-3.9,3.2-7.1,7.1-7.1h-69c-3.9,0-7.1,3.2-7.1,7.1s3.2,7.1,7.1,7.1h69
		C331.9,360.5,328.7,357.3,328.7,353.4z"/>
	<path class="st0" d="M328.7,241.7c0-3.9,3.2-7.1,7.1-7.1h-69c-3.9,0-7.1,3.2-7.1,7.1s3.2,7.1,7.1,7.1h69
		C331.9,248.8,328.7,245.6,328.7,241.7z"/>
	<path class="st1" d="M138.4,482c34.9,19.1,75,30,117.6,30s82.7-10.9,117.6-30H138.4z"/>
	<g>
		<path class="st2" d="M239.9,482H138.4c30.2,16.6,64.4,26.9,100.6,29.4C226.7,506.1,227.2,486.7,239.9,482z"/>
	</g>
</g>
</svg>
