<?xml version="1.0" encoding="utf-8"?>
<!-- Generator: Adobe Illustrator 25.1.0, SVG Export Plug-In . SVG Version: 6.00 Build 0)  -->
<svg version="1.1" id="Capa_1" xmlns="http://www.w3.org/2000/svg" xmlns:xlink="http://www.w3.org/1999/xlink" x="0px" y="0px"
	 viewBox="0 0 512 512" style="enable-background:new 0 0 512 512;" xml:space="preserve">
<style type="text/css">
	.st0{fill:#FA8D8D;}
	.st1{fill:#BA4C4D;}
	.st2{fill:#E37676;}
	.st3{fill:#8C1E1F;}
	.st4{fill:#DD6F70;}
</style>
<g>
	<path class="st0" d="M0,261.6C0,123.3,112.1,11.2,250.4,11.2C388.5,11.2,501,123.9,500.8,262c-0.1,92.1-50.1,172.6-124.3,216
		c-9.1,5.3-20,5.9-29.7,1.9c-29.7-12.4-62.2-19.2-96.4-19.2c-33.9,0-66.2,6.7-95.7,18.9c-10.3,4.3-22.1,3.3-31.7-2.4
		C49.4,433.6,0,353.4,0,261.6L0,261.6z"/>
	<path class="st1" d="M391.8,55.2c27.3,33,43.7,75.3,43.7,121.4c0,105.3-85.3,190.6-190.6,190.6S54.3,281.9,54.3,176.6
		c0-37.5,10.8-72.5,29.6-102c44.2-39.4,102.6-63.4,166.5-63.4C302.8,11.2,351.5,27.5,391.8,55.2L391.8,55.2z"/>
	<path class="st2" d="M289.8,50.4v124.8c0,11.3-9.2,20.4-20.4,20.4h-37.1c-11.3,0-20.4-9.2-20.4-20.4V50.4
		c0-11.3,9.2-20.4,20.4-20.4h37.1C280.6,30,289.8,39.1,289.8,50.4z"/>
	<path class="st3" d="M289.8,50.4v124.8c0,11.3-9.2,20.4-20.4,20.4h-4c-11.3,0-20.4-9.2-20.4-20.4V50.4c0-11.3,9.2-20.4,20.4-20.4h4
		C280.6,30,289.8,39.1,289.8,50.4z"/>
	<path class="st3" d="M264.7,138.2v106.3c0,11.3-9.2,20.4-20.4,20.4h-31.5c-11.3,0-20.4-9.2-20.4-20.4V138.2
		c0-11.3,9.2-20.4,20.4-20.4h31.5C255.5,117.7,264.7,126.9,264.7,138.2L264.7,138.2z"/>
	<path class="st3" d="M309.3,138.2v3.9c0,11.3-9.2,20.4-20.4,20.4h-44.5c-11.3,0-20.4-9.2-20.4-20.4v-3.9c0-11.3,9.2-20.4,20.4-20.4
		h44.5C300.1,117.7,309.3,126.9,309.3,138.2z"/>
	<path class="st2" d="M423.5,390.6l-7.1-21c-0.4-1.2-1.4-2.2-2.6-2.6l-21-7.1c-3.7-1.3-3.7-6.5,0-7.7l21-7.1
		c1.2-0.4,2.2-1.4,2.6-2.6l7.1-21c1.3-3.7,6.5-3.7,7.7,0l7.1,21c0.4,1.2,1.4,2.2,2.6,2.6l21,7.1c3.7,1.3,3.7,6.5,0,7.7l-21,7.1
		c-1.2,0.4-2.2,1.4-2.6,2.6l-7.1,21C430,394.3,424.8,394.3,423.5,390.6z"/>
	<path class="st2" d="M427.4,319.5c0,97.5-79.1,176.6-176.6,176.6S74.2,417,74.2,319.5c0-71.1,42.1-132.5,102.7-160.4
		c-0.1-0.8-0.1-1.6-0.1-2.4c0-10.8,8.7-19.5,19.5-19.5h109.2c10.8,0,19.5,8.7,19.5,19.5c0,0.8,0,1.6-0.1,2.4
		C385.3,187,427.4,248.3,427.4,319.5z"/>
	<path class="st3" d="M427.4,319.5c0,84.9-59.9,155.8-139.7,172.7c-79.8-17-139.7-87.9-139.7-172.7c0-76.6,48.8-141.9,117-166.3
		c14.6-5.2,30.7-5.2,45.3,0C378.6,177.6,427.4,242.9,427.4,319.5z"/>
	<path class="st3" d="M444,219.6c0,4.2-3.4,7.7-7.7,7.7c-46.9,0-85.1-38.2-85.1-85.1c0-43.2-35.2-78.4-78.4-78.4
		c-4.2,0-7.7-3.4-7.7-7.7s3.4-7.7,7.7-7.7c51.7,0,93.7,42,93.7,93.7c0,38.5,31.3,69.8,69.8,69.8C440.6,212,444,215.4,444,219.6z"/>
	<path class="st2" d="M504.3,288.4c-18.6,24.6-65.1,20.7-103.8-8.6s-54.9-73-36.3-97.6s65.1-20.7,103.8,8.6S522.9,263.8,504.3,288.4
		L504.3,288.4z"/>
	<path class="st3" d="M504.5,288.1c-25.1-1.8-53.8-12.8-79.8-32.6c-29.8-22.6-49.5-51.6-56-78.3c20.9-19,63.4-13.7,99.3,13.5
		C506.5,220,522.8,263.5,504.5,288.1L504.5,288.1z"/>
	<path class="st3" d="M276.1,293.2c16.1,0,29.2,13.1,29.2,29.2c0,16.2-13.1,29.2-29.2,29.2s-29.2-13.1-29.2-29.2
		c0,16.2-13.1,29.2-29.2,29.2s-29.2-13.1-29.2-29.2s13.1-29.2,29.2-29.2c-16.1,0-29.2-13.1-29.2-29.2s13.1-29.2,29.2-29.2
		s29.2,13.1,29.2,29.2c0-16.1,13.1-29.2,29.2-29.2s29.2,13.1,29.2,29.2S292.3,293.2,276.1,293.2z"/>
	<path class="st1" d="M305.4,263.9c0,16.1-13.1,29.2-29.2,29.2H247v-21.9c0,7-6.6,12.2-13.4,10.5c-19.8-4.9-32.3-24-29.5-43.7
		c4.1-2.2,8.7-3.4,13.7-3.4c16.1,0,29.3,13.8,29.3,29.9v-0.6c0-16.1,13.1-29.2,29.2-29.2C292.3,234.7,305.4,247.8,305.4,263.9z
		 M260.3,304.6c-6.8-1.7-13.4,3.5-13.4,10.5v-21.9h-29.2c-16.1,0-29.2,13.1-29.2,29.2c0,16.2,13.1,29.2,29.2,29.2
		s29.2-13.1,29.2-29.2v-0.6c0,16.1,13.2,29.9,29.3,29.9c4.9,0,9.6-1.2,13.7-3.4C292.6,328.5,280.1,309.5,260.3,304.6L260.3,304.6z"
		/>
	<path class="st3" d="M188.4,322.5c0,4.9,1.2,9.6,3.4,13.6c19.7,2.8,38.8-9.7,43.7-29.5c1.7-6.8-3.5-13.4-10.5-13.4h-6.7
		C202.1,293.2,188.4,306.3,188.4,322.5z"/>
	<path class="st4" d="M302,250.2c-19.7-2.8-38.8,9.7-43.7,29.5c-1.7,6.8,3.5,13.4,10.5,13.4h6.7c16.1,0,29.9-13.2,29.9-29.3
		C305.3,258.9,304.1,254.3,302,250.2L302,250.2z"/>
	<path class="st3" d="M377.1,470.1v7.5c-37.2,21.9-80.5,34.4-126.7,34.4c-47.1,0-91.1-13-128.8-35.6v-6.3c0-5.6,4.6-10.2,10.2-10.2
		h235C372.5,459.9,377.1,464.5,377.1,470.1z"/>
	<path class="st3" d="M336.2,496.9c-26.8,9.8-55.7,15.1-85.8,15.1c-9,0-17.8-0.5-26.5-1.4c-14.4-5.5-23.6-13.6-23.6-22.6
		c0-12.8,18.4-23.8,44.4-28.1h50.1c26,4.4,44.4,15.3,44.4,28.1C339.3,491.1,338.2,494.1,336.2,496.9L336.2,496.9z"/>
	<path class="st3" d="M374,468.1H124.7c-5.6,0-10.2-4.6-10.2-10.2s4.6-10.2,10.2-10.2H374c5.6,0,10.2,4.6,10.2,10.2
		C384.3,463.5,379.7,468.1,374,468.1z"/>
	<path class="st4" d="M331.6,468.1h-94c-5.6,0-10.2-4.6-10.2-10.2s4.6-10.2,10.2-10.2h94c5.6,0,10.2,4.6,10.2,10.2
		C341.8,463.5,337.3,468.1,331.6,468.1z"/>
	<path class="st1" d="M491,260.1c-3.7,3.1-9.9,3.2-14.3,1c-7.3-3.6-7.7-12.3-12.8-28.6c-7.4-23.9-14.2-30-11.8-32.2
		c4.7-4.2,34.4,13.1,40.9,38.8C494.1,242.9,497.1,255,491,260.1z"/>
	<path class="st0" d="M372.1,290.1l-5.2-15.5c-0.3-0.9-1-1.6-1.9-1.9l-15.5-5.2c-2.7-0.9-2.7-4.8,0-5.7l15.5-5.2
		c0.9-0.3,1.6-1,1.9-1.9l5.2-15.5c0.9-2.7,4.8-2.7,5.7,0l5.2,15.5c0.3,0.9,1,1.6,1.9,1.9l15.5,5.2c2.7,0.9,2.7,4.8,0,5.7l-15.5,5.2
		c-0.9,0.3-1.6,1-1.9,1.9l-5.2,15.5C376.9,292.8,373,292.8,372.1,290.1z M96.1,303.5l7.1-21c0.4-1.2,1.4-2.2,2.6-2.6l21-7.1
		c3.7-1.3,3.7-6.5,0-7.7l-21-7.1c-1.2-0.4-2.2-1.4-2.6-2.6l-7.1-21c-1.3-3.7-6.5-3.7-7.7,0l-7.1,21c-0.4,1.2-1.4,2.2-2.6,2.6
		l-21,7.1c-3.7,1.3-3.7,6.5,0,7.7l21,7.1c1.2,0.4,2.2,1.4,2.6,2.6l7.1,21C89.6,307.3,94.9,307.3,96.1,303.5z"/>
	<path class="st3" d="M190.1,70.3c0,4.2-3.4,7.7-7.7,7.7H98.6c-4.2,0-7.7-3.4-7.7-7.7s3.4-7.7,7.7-7.7h83.8
		C186.7,62.6,190.1,66,190.1,70.3z M182.4,93.3h-51.1c-21.1,0-38.3,17.2-38.3,38.3c0,15.5,12.6,28.1,28.1,28.1
		c4.2,0,7.7-3.4,7.7-7.7s-3.4-7.7-7.7-7.7c-7,0-12.8-5.7-12.8-12.8c0-12.7,10.3-23,23-23h51.1c4.2,0,7.7-3.4,7.7-7.7
		C190.1,96.7,186.7,93.3,182.4,93.3z M150.5,47.3h31.9c4.2,0,7.7-3.4,7.7-7.7s-3.4-7.7-7.7-7.7h-31.9c-6.3,0-11.5-5.2-11.5-11.5
		c0-2.8,2.3-5.1,5.1-5.1c4.2,0,7.7-3.4,7.7-7.7S148.3,0,144.1,0c-11.3,0-20.4,9.2-20.4,20.4C123.7,35.2,135.7,47.3,150.5,47.3z"/>
</g>
</svg>
