<?xml version="1.0" encoding="utf-8"?>
<!-- Generator: Adobe Illustrator 25.1.0, SVG Export Plug-In . SVG Version: 6.00 Build 0)  -->
<svg version="1.1" id="Capa_1" xmlns="http://www.w3.org/2000/svg" xmlns:xlink="http://www.w3.org/1999/xlink" x="0px" y="0px"
	 viewBox="0 0 512 512" style="enable-background:new 0 0 512 512;" xml:space="preserve">
<style type="text/css">
	.st0{fill:#B84C4D;}
	.st1{fill:#FF9190;}
	.st2{fill:#C5595A;}
	.st3{fill:#CA6163;}
</style>
<circle class="st0" cx="256" cy="256" r="256"/>
<path class="st1" d="M172.2,497.9c26.3,9.1,54.6,14.1,84,14.1c29.1,0,57.1-4.9,83.2-13.8L323.8,278H187.8L172.2,497.9z"/>
<path class="st1" d="M323.8,278H217.8h-30l-3.4,47.5l-12.3,172.4c9.6,3.3,19.4,6.1,29.4,8.3l12.8-180.6h112.7L323.8,278z"/>
<rect x="186.3" y="179" class="st1" width="139.8" height="112.5"/>
<polygon class="st1" points="326.1,179 216.3,179 186.3,179 186.3,208 186.3,291.5 216.3,291.5 216.3,208 326.1,208 "/>
<g>
	<path class="st1" d="M315.9,162.7l195.9,82.7C508.4,163,466.1,90.6,402.7,46.2l-86.8,36.6V162.7z"/>
	<path class="st1" d="M0.2,245.4l195.9-82.7V82.8l-86.8-36.6C45.9,90.6,3.6,163,0.2,245.4z"/>
</g>
<rect x="186.3" y="66.5" class="st1" width="139.8" height="112.5"/>
<g>
	<rect x="186.3" y="71.5" class="st1" width="139.8" height="20.5"/>
	<path class="st1" d="M287.7,71.1h-63c-1.9,0-3.4,1.5-3.4,3.4V97c0,1.9,1.5,3.4,3.4,3.4h9v63.6h45v-63.6h9c1.9,0,3.4-1.5,3.4-3.4
		V74.6C291.2,72.7,289.6,71.1,287.7,71.1z"/>
</g>
<path class="st2" d="M221.3,74.6V92h69.9V74.6c0-1.4-0.8-2.5-1.9-3.1h-66C222.1,72.1,221.3,73.2,221.3,74.6z"/>
<path class="st0" d="M272.1,287h-31.8c-1.2,0-2.1-0.9-2.1-2.1v-47.3c0-9.9,8.1-18,18-18l0,0c9.9,0,18,8.1,18,18v47.3
	C274.2,286,273.3,287,272.1,287z"/>
<polygon class="st3" points="177.7,420.5 333.9,420.5 329.6,360 182,360 "/>
<polygon class="st1" points="212,360 182,360 177.7,420.5 207.7,420.5 "/>
<path class="st3" d="M172.2,497.9c26.3,9.1,54.6,14.1,84,14.1c29.1,0,57.1-4.9,83.2-13.8l-1.2-17.2H173.4L172.2,497.9z"/>
<path class="st1" d="M172.2,497.9c9.6,3.3,19.4,6.1,29.4,8.3l1.8-25.2h-30L172.2,497.9z"/>
<path class="st3" d="M252.7,1.2l-91.1,71.6c-1.4,1.1-2.1,2.7-2.1,4.4l0,0c0,3.1,2.5,5.6,5.6,5.6h182.3c3.1,0,5.6-2.5,5.6-5.6l0,0
	c0-1.7-0.8-3.3-2.1-4.4L259.7,1.2C257.6-0.4,254.8-0.4,252.7,1.2z"/>
<path class="st1" d="M271,10.1l-11.3-8.9c-2-1.6-4.9-1.6-6.9,0l-91.1,71.6c-1.4,1.1-2.1,2.7-2.1,4.4c0,3.1,2.5,5.6,5.6,5.6h13.3
	L271,10.1z"/>
<rect x="248.7" y="253.2" class="st3" width="15" height="44.8"/>
<polygon class="st1" points="263.7,253.2 256.2,253.2 256.2,253.2 248.7,253.2 248.7,253.2 248.7,260.1 248.7,298 256.2,298 
	256.2,260.1 263.7,260.1 "/>
<rect x="213.8" y="253.2" class="st3" width="15" height="44.8"/>
<polygon class="st1" points="228.8,253.2 221.3,253.2 221.3,253.2 213.8,253.2 213.8,253.2 213.8,260.1 213.8,298 221.3,298 
	221.3,260.1 228.8,260.1 "/>
<rect x="283.7" y="253.2" class="st3" width="15" height="44.8"/>
<polygon class="st1" points="298.7,253.2 291.2,253.2 291.2,253.2 283.7,253.2 283.7,253.2 283.7,260.1 283.7,298 291.2,298 
	291.2,260.1 298.7,260.1 "/>
<rect x="178.8" y="253.2" class="st3" width="15" height="44.8"/>
<polygon class="st1" points="193.8,255.2 186.3,255.2 186.3,255.2 178.8,255.2 178.8,255.2 178.8,263.9 178.8,311.6 186.3,311.6 
	186.3,263.9 193.8,263.9 "/>
<rect x="318.6" y="253.2" class="st3" width="15" height="44.8"/>
<polygon class="st1" points="333.6,253.2 326.1,253.2 326.1,253.2 318.6,253.2 318.6,253.2 318.6,260.1 318.6,298 326.1,298 
	326.1,260.1 333.6,260.1 "/>
<path class="st3" d="M340.2,312.3H171.4c-3.6,0-6.6-3-6.6-6.6v-22.6c0-3.6,3-6.6,6.6-6.6h168.8c3.6,0,6.6,3,6.6,6.6v22.6
	C346.8,309.4,343.8,312.3,340.2,312.3z"/>
<path class="st1" d="M194.8,305.7v-22.6c0-3.6,3-6.6,6.6-6.6h-30c-3.6,0-6.6,3-6.6,6.6v22.6c0,3.6,3,6.6,6.6,6.6h30
	C197.7,312.3,194.8,309.4,194.8,305.7z"/>
<path class="st3" d="M340.2,196.9H171.4c-3.6,0-6.6-3-6.6-6.6v-22.6c0-3.6,3-6.6,6.6-6.6h168.8c3.6,0,6.6,3,6.6,6.6v22.6
	C346.8,193.9,343.8,196.9,340.2,196.9z"/>
<path class="st1" d="M194.8,190.3v-22.6c0-3.6,3-6.6,6.6-6.6h-30c-3.6,0-6.6,3-6.6,6.6v22.6c0,3.6,3,6.6,6.6,6.6h30
	C197.7,196.9,194.8,193.9,194.8,190.3z"/>
<path class="st3" d="M338.1,255.2H173.5c-4.1,0-7.5-3.4-7.5-7.5s3.4-7.5,7.5-7.5h164.7c4.1,0,7.5,3.4,7.5,7.5
	S342.3,255.2,338.1,255.2z"/>
<path class="st1" d="M196,247.8c0-4.1,3.4-7.5,7.5-7.5h-30c-4.1,0-7.5,3.4-7.5,7.5s3.4,7.5,7.5,7.5h30
	C199.3,255.2,196,251.9,196,247.8z"/>
<path class="st3" d="M328.1,130.2H183.5c-4.1,0-7.5-3.4-7.5-7.5s3.4-7.5,7.5-7.5h144.7c4.1,0,7.5,3.4,7.5,7.5
	S332.3,130.2,328.1,130.2z"/>
<path class="st1" d="M206,122.8c0-4.1,3.4-7.5,7.5-7.5h-30c-4.1,0-7.5,3.4-7.5,7.5s3.4,7.5,7.5,7.5h30
	C209.3,130.2,206,126.9,206,122.8z"/>
</svg>
